<?xml version="1.0" encoding="utf-8"?>
<!-- Generator: Adobe Illustrator 18.1.1, SVG Export Plug-In . SVG Version: 6.00 Build 0)  -->
<svg version="1.1" id="Layer_1" xmlns="http://www.w3.org/2000/svg" xmlns:xlink="http://www.w3.org/1999/xlink" x="0px" y="0px"
	 viewBox="0 0 960 960" enable-background="new 0 0 960 960" xml:space="preserve">
<path fill-rule="evenodd" clip-rule="evenodd" fill="#F1C457" d="M181.4,846.8c0,0-110-67.1-112.2-165
	c-2.2-97.9,9.9-204.6,39.6-280.6C138.5,325.3,122,355,122,355s-1.1,82.5,16.5,141.9c17.6,59.4,25.3,72.6,36.3,85.8
	c11,13.2,16.5,16.5,16.5,16.5s1.1-122.1,33-168.3c31.9-46.2,102.3-132,112.2-141.9c9.9-9.9,59.4-64.9,56.1-108.9
	c-3.3-44-16.5-143-36.3-158.4c-19.8-15.4,23.1,3.3,23.1,3.3s127.6,46.2,168.4,85.8c40.7,39.6,111.1,104.5,125.4,204.6
	s4.4,137.5,3.3,141.9c-1.1,4.4-3.3,16.5-3.3,16.5s38.5-39.6,56.1-72.6c17.6-33,60.5-99,75.9-115.5c15.4-16.5,45.1-48.4,66-52.8
	c20.9-4.4,19.8,0,19.8,0s-20.9,35.2-26.4,62.7c-5.5,27.5-35.2,83.6-6.6,214.5c28.6,130.9,41.8,191.4,26.4,224.4
	c-15.4,33-80.3,112.2-105.6,112.2C753.6,846.8,181.4,846.8,181.4,846.8z"/>
<path fill-rule="evenodd" clip-rule="evenodd" fill="#F7941D" d="M298.8,779.9c0,0-65.7-45.5-53.1-144.1
	c12.6-98.6,19-111.3,22.8-125.2c3.8-13.9,11.4-15.2,11.4-15.2s51.8,39.2,64.5,64.5c12.6,25.3,26.6,75.9,26.6,75.9
	s75.9-82.2,94.8-144.1c19-62,34.1-122.6,30.3-170.7c-3.8-48,0-64.5,0-64.5s70.8,64.5,98.6,106.2c27.8,41.7,60.7,91,72.1,147.9
	c11.4,56.9,8.9,115.1,7.6,132.7c-1.3,17.7-11.4,78.4-34.1,113.8c-22.8,35.4-333.8,34.1-333.8,34.1L298.8,779.9z"/>
<g>
	<g>
		<path fill-rule="evenodd" clip-rule="evenodd" fill="#FFFFFF" d="M199.2,549.5v122.8h563.4V549.5H199.2z M199.2,808.4h563.4V685.6
			H199.2V808.4z M199.2,944.5h563.4V821.7H199.2V944.5z"/>
	</g>
</g>
<g>
	<g>
		<path fill-rule="evenodd" clip-rule="evenodd" fill="#D8D4B6" d="M240.2,653.3h10.4v-79h-10.4V653.3z M279.6,653.3H290v-79h-10.4
			V653.3z M321.1,574.3v79h10.4v-79H321.1z M240.2,790.3h10.4v-79h-10.4V790.3z M279.6,790.3H290v-79h-10.4V790.3z M321.1,790.3
			h10.4v-79h-10.4V790.3z M240.2,923.5h10.4v-79h-10.4V923.5z M279.6,923.5H290v-79h-10.4V923.5z M321.1,923.5h10.4v-79h-10.4V923.5
			z"/>
	</g>
</g>
<g>
	<g>
		<path fill-rule="evenodd" clip-rule="evenodd" fill="#D6D6D6" d="M718.8,596.2c4.2,0,7.6-3.4,7.6-7.6c0-4.2-3.4-7.6-7.6-7.6
			c-4.2,0-7.6,3.4-7.6,7.6C711.2,592.8,714.6,596.2,718.8,596.2z M718.8,714.2c-4.2,0-7.6,3.4-7.6,7.6s3.4,7.6,7.6,7.6
			c4.2,0,7.6-3.4,7.6-7.6S723.1,714.2,718.8,714.2z M718.8,848.4c-4.2,0-7.6,3.4-7.6,7.6c0,4.2,3.4,7.6,7.6,7.6
			c4.2,0,7.6-3.4,7.6-7.6C726.5,851.8,723.1,848.4,718.8,848.4z"/>
	</g>
</g>
</svg>
