<?xml version="1.0" encoding="utf-8"?>
<!-- Generator: Adobe Illustrator 18.1.1, SVG Export Plug-In . SVG Version: 6.00 Build 0)  -->
<svg version="1.1" id="Layer_1" xmlns="http://www.w3.org/2000/svg" xmlns:xlink="http://www.w3.org/1999/xlink" x="0px" y="0px"
	 viewBox="0 0 64 64" enable-background="new 0 0 64 64" xml:space="preserve">
<path fill="#F1C457" d="M8.8,57.3c0,0-8.6-4.6-8.7-11.4s0.8-14.1,3.1-19.3c2.3-5.2,1-3.2,1-3.2S4,29.1,5.4,33.2s2,5,2.8,5.9
	c0.9,0.9,1.3,1.1,1.3,1.1s0.1-8.4,2.6-11.6s8-9.1,8.7-9.8s4.6-4.5,4.4-7.5s-1.3-9.9-2.8-10.9s1.8,0.2,1.8,0.2s9.9,3.2,13.1,5.9
	c3.2,2.7,8.6,7.2,9.8,14.1s0.3,9.5,0.3,9.8S47,31.6,47,31.6s3-2.7,4.4-5c1.4-2.3,4.7-6.8,5.9-8s3.5-3.3,5.1-3.6c1.6-0.3,1.5,0,1.5,0
	s-1.6,2.4-2.1,4.3c-0.4,1.9-2.7,5.8-0.5,14.8c2.2,9,3.3,13.2,2.1,15.5c-1.2,2.3-6.3,7.7-8.2,7.7C53.3,57.3,8.8,57.3,8.8,57.3z"/>
<path fill="#F7941D" d="M17.9,52.7c0,0-5.1-3.1-4.1-9.9s1.5-7.7,1.8-8.6s0.9-1,0.9-1s4,2.7,5,4.4c1,1.7,2.1,5.2,2.1,5.2
	s5.9-5.7,7.4-9.9c1.5-4.3,2.7-8.4,2.4-11.8c-0.3-3.3,0-4.4,0-4.4s5.5,4.4,7.7,7.3c2.2,2.9,4.7,6.3,5.6,10.2s0.7,7.9,0.6,9.1
	c-0.1,1.2-0.9,5.4-2.7,7.8c-1.8,2.4-26,2.3-26,2.3L17.9,52.7z"/>
<g>
	<g>
		<path fill="#FFFFFF" d="M10.1,36.8v8.5H54v-8.5H10.1z M10.1,54.6H54v-8.5H10.1V54.6z M10.1,64H54v-8.5H10.1V64z"/>
	</g>
</g>
<g>
	<g>
		<path fill="#D8D4B6" d="M13.3,43.9h0.8v-5.4h-0.8V43.9z M16.4,43.9h0.8v-5.4h-0.8V43.9z M19.6,38.5v5.4h0.8v-5.4H19.6z M13.3,53.4
			h0.8v-5.4h-0.8V53.4z M16.4,53.4h0.8v-5.4h-0.8V53.4z M19.6,53.4h0.8v-5.4h-0.8V53.4z M13.3,62.6h0.8v-5.4h-0.8V62.6z M16.4,62.6
			h0.8v-5.4h-0.8V62.6z M19.6,62.6h0.8v-5.4h-0.8V62.6z"/>
	</g>
</g>
<g>
	<g>
		<path fill="#D6D6D6" d="M50.6,40c0.3,0,0.6-0.2,0.6-0.5c0-0.3-0.3-0.5-0.6-0.5c-0.3,0-0.6,0.2-0.6,0.5C50,39.8,50.3,40,50.6,40z
			 M50.6,48.1c-0.3,0-0.6,0.2-0.6,0.5c0,0.3,0.3,0.5,0.6,0.5s0.6-0.2,0.6-0.5C51.2,48.4,50.9,48.1,50.6,48.1z M50.6,57.4
			c-0.3,0-0.6,0.2-0.6,0.5s0.3,0.5,0.6,0.5s0.6-0.2,0.6-0.5C51.2,57.6,50.9,57.4,50.6,57.4z"/>
	</g>
</g>
</svg>
