<?xml version="1.0" encoding="utf-8"?>
<!-- Generator: Adobe Illustrator 18.1.1, SVG Export Plug-In . SVG Version: 6.00 Build 0)  -->
<svg version="1.1" id="Layer_1" xmlns="http://www.w3.org/2000/svg" xmlns:xlink="http://www.w3.org/1999/xlink" x="0px" y="0px"
	 viewBox="0 0 64 64" enable-background="new 0 0 64 64" xml:space="preserve">
<g transform="translate(.271 1.356)">
	<g>
		<path fill="#D13852" d="M23.5,42.5c-1.2-4.5-0.3-4.6,3.1-7.2c4.2-3.1-4.2-8.5-2.9-12.7c1.8-5.5,4.3-8.3,2.9-13.3
			c-3.4-4.8-6.8-8.7-13.1-8.5c-0.7,0-1.4,0.1-2.1,0.2c-4.2,0.7-8.2,3.6-9.8,7c-2.3,4.7-1.8,7.1-1.8,8.5C0.4,32.7,14,45.3,25.9,56.4
			c1.1,0.9,2,1.7,2.9,2.5c0.4,0.3,0.7,0.6,1.1,0.9C27.4,54.3,25,48.6,23.5,42.5"/>
		<path fill="#D13852" d="M61.5,5.8c-1.8-3.5-6.2-6.5-10.7-7C42.2-2.3,37.7,3.1,34.2,8.9c-2.4,4.5-1.2,5.4-1.2,6.7
			c-0.1,2.5-0.9,3.8-2.3,5.8c-3.5,4.9-0.8,7.4,1,12.3c2.5,7-1.7,2.5-4,7.6c-2.2,4.8,2,14.5,5.1,21.3c0.4-0.3,0.7-0.7,1.1-1
			c1-0.9,2-1.8,2.9-2.7c12.6-12.6,26.7-26.7,26.9-44.1C63.7,13.5,63.9,9.8,61.5,5.8"/>
	</g>
	<path fill="#F1A5B1" d="M60.1,13.4c-0.1-1.1-0.2-2-0.5-2.9c-0.3-0.9-0.7-1.7-1.2-2.4c-2.9-4.3-9.1-5.6-14.1-4.3
		c-2,0.6-3.9,1.5-4.7,3.5c-0.3,0.9,0.8,1.5,1.4,1.2c3.6-0.6,7.7-0.4,10.9,1.2c0.8,0.4,1.6,0.9,2.3,1.4c2.4,1.8,3.5,4.8,4,7.7
		c1.1-0.3,1.7-1.8,1.8-3.1C60.1,14.9,60.1,14.1,60.1,13.4"/>
</g>
</svg>
