<?xml version="1.0" encoding="utf-8"?>
<!-- Generator: Adobe Illustrator 18.1.1, SVG Export Plug-In . SVG Version: 6.00 Build 0)  -->
<svg version="1.1" id="Layer_1" xmlns="http://www.w3.org/2000/svg" xmlns:xlink="http://www.w3.org/1999/xlink" x="0px" y="0px"
	 viewBox="0 0 64 64" enable-background="new 0 0 64 64" xml:space="preserve">
<ellipse fill="#FBB041" cx="32" cy="32" rx="31.4" ry="32"/>
<g opacity="0.987">
	<path fill="#E79D3C" d="M15.5,41.3C10,29.1,9.7,16,14.8,5.2C6.2,10.9,0.6,20.7,0.6,31.9c0,17.7,14.1,32,31.4,32c0.3,0,0.6,0,0.9,0
		C25.7,57.7,19.7,50.2,15.5,41.3"/>
</g>
<g>
	<path fill="#633D19" d="M44.2,39.4c-0.6,0-1.2,0-1.8,0c-0.1,0-0.2,0-0.2,0c-0.1,0-0.2,0-0.3,0.1c-0.2,0.1-0.3,0.2-0.4,0.3
		c0,0-0.1,0-0.1,0.1c-4.4,4.4-10.2,5.4-15.8,2.5c-3-1.6-2.7-2.9-5.9-2.9c-1.3,0-1.8,1.5-1,2.5c7.2,8.4,19.3,8.4,26.5,0
		C46,41,45.5,39.4,44.2,39.4"/>
	<path fill="#633D19" d="M29.1,25.1c-1.4-3.8-4.4-7.4-8.7-7.3c-4,0.1-6.4,4.4-7.6,7.6c-0.8,2,2.4,2.9,3.2,0.9
		c0.8-2.1,2.1-4.4,4.3-5.1c2.6-0.8,4.9,2.8,5.6,4.8C26.6,28,29.8,27.1,29.1,25.1"/>
	<path fill="#633D19" d="M34.9,25c1.4-3.8,4.4-7.4,8.7-7.3c4,0.1,6.4,4.4,7.6,7.6c0.8,2-2.4,2.9-3.2,0.9c-0.8-2.1-2.1-4.4-4.3-5.1
		c-2.6-0.8-4.9,2.8-5.6,4.8C37.3,28,34.1,27.1,34.9,25"/>
</g>
<path fill="#28A6DE" d="M32,0C14.3,0,0,3.5,0,7.9s14.3,7.9,32,7.9s32-3.5,32-7.9S49.7,0,32,0 M31.7,9.3c-9.8,0-17.7-2-17.7-4.4
	c0-2.4,7.9-4.4,17.7-4.4c9.8,0,17.7,2,17.7,4.4C49.4,7.3,41.5,9.3,31.7,9.3"/>
</svg>
