<?xml version="1.0" encoding="utf-8"?>
<!-- Generator: Adobe Illustrator 18.1.1, SVG Export Plug-In . SVG Version: 6.00 Build 0)  -->
<svg version="1.1" id="Layer_1" xmlns="http://www.w3.org/2000/svg" xmlns:xlink="http://www.w3.org/1999/xlink" x="0px" y="0px"
	 viewBox="0 0 64 64" enable-background="new 0 0 64 64" xml:space="preserve">
<circle fill="#FBB041" cx="32" cy="32" r="32"/>
<g opacity="0.987">
	<path fill="#E79D3C" d="M15.2,41.3C9.6,29.1,9.3,16,14.4,5.2C5.7,10.9,0,20.7,0,31.9c0,17.7,14.3,32,32,32c0.3,0,0.6,0,0.9,0
		C25.6,57.7,19.4,50.2,15.2,41.3"/>
</g>
<g>
	<path fill="#633D19" d="M52.1,39.4c0,11-8.9,19.9-19.9,19.9c-11,0-19.9-8.9-19.9-19.9"/>
	<path fill="#633D19" d="M29.4,25.2c-1.4-3.7-4.5-7.3-8.8-7.2c-4,0.1-6.4,4.3-7.7,7.5c-0.8,2,2.4,2.9,3.2,0.9c0.8-2.1,2.1-4.3,4.3-5
		c2.6-0.8,5,2.8,5.7,4.7C26.9,28.1,30.1,27.2,29.4,25.2"/>
	<path fill="#633D19" d="M35.2,25.2c1.4-3.7,4.5-7.3,8.8-7.2c4,0.1,6.4,4.3,7.7,7.5c0.8,2-2.4,2.9-3.2,0.9c-0.8-2.1-2.1-4.3-4.3-5
		c-2.6-0.8-5,2.8-5.7,4.7C37.7,28.1,34.5,27.2,35.2,25.2"/>
</g>
<path fill="#FFFFFF" d="M48.7,41.4c0,4.4-7.6,8-16.9,8c-9.3,0-16.9-3.6-16.9-8"/>
<path fill="#28A6DE" d="M51.9,16.9c0,3.5,2.3,6.3,5.2,6.3c2.9,0,5.2-2.8,5.2-6.3c0-3.5-2.3-12.1-5.2-12.1
	C54.2,4.8,51.9,13.4,51.9,16.9"/>
<path fill="#58C5E8" d="M56.9,4.8c-2.8,0.4-5,8.7-5,12.1c0,3.5,2.3,6.4,5.2,6.4c1.3,0,2.5-0.6,3.4-1.6C56.4,17.3,55.1,10.8,56.9,4.8
	"/>
<path fill="#28A6DE" d="M51.9,39.6c0,3.5,2.3,6.3,5.2,6.3c2.9,0,5.2-2.8,5.2-6.3c0-3.5-2.3-12.1-5.2-12.1
	C54.2,27.5,51.9,36.1,51.9,39.6"/>
<path fill="#58C5E8" d="M56.9,27.5c-2.8,0.4-5,8.7-5,12.1c0,3.5,2.3,6.4,5.2,6.4c1.3,0,2.5-0.6,3.4-1.6C56.4,40,55.1,33.5,56.9,27.5
	"/>
</svg>
