<?xml version="1.0" encoding="utf-8"?>
<!-- Generator: Adobe Illustrator 18.1.1, SVG Export Plug-In . SVG Version: 6.00 Build 0)  -->
<svg version="1.1" id="Layer_1" xmlns="http://www.w3.org/2000/svg" xmlns:xlink="http://www.w3.org/1999/xlink" x="0px" y="0px"
	 viewBox="0 0 64 64" enable-background="new 0 0 64 64" xml:space="preserve">
<path fill="#FBB041" d="M64,32c0,17.7-14.3,32-32,32S0,49.7,0,32C0,14.3,14.3,0,32,0S64,14.3,64,32"/>
<g>
	<path fill="#FFFFFF" d="M27.4,20.7c0,7.5-2.9,13.5-6.5,13.5c-3.6,0-6.5-6.1-6.5-13.5c0-7.5,2.9-13.5,6.5-13.5
		C24.5,7.1,27.4,13.2,27.4,20.7"/>
	<path fill="#FFFFFF" d="M49.4,20.7c0,7.5-2.9,13.5-6.5,13.5c-3.6,0-6.5-6.1-6.5-13.5c0-7.5,2.9-13.5,6.5-13.5
		C46.5,7.1,49.4,13.2,49.4,20.7"/>
</g>
<g>
	<ellipse fill="#25333A" cx="20.9" cy="21.3" rx="4.2" ry="5.1"/>
	<ellipse fill="#25333A" cx="42.9" cy="21.3" rx="4.2" ry="5.1"/>
</g>
<g opacity="0.987">
	<path fill="#E79D3C" d="M15.2,41.3C9.6,29.1,9.3,16,14.4,5.2C5.7,10.9,0,20.7,0,31.9c0,17.7,14.3,32,32,32c0.3,0,0.6,0,0.9,0
		C25.6,57.7,19.4,50.3,15.2,41.3"/>
</g>
<path fill="#633D19" d="M51.4,40.4c0,11.1-9,20.1-20.1,20.1c-11.1,0-20.1-9-20.1-20.1"/>
<path fill="#FFFFFF" d="M48,42.4c0,4.4-7.6,8-17,8c-9.4,0-17-3.6-17-8"/>
</svg>
