<?xml version="1.0" encoding="utf-8"?>
<!-- Generator: Adobe Illustrator 18.1.1, SVG Export Plug-In . SVG Version: 6.00 Build 0)  -->
<svg version="1.1" id="Layer_1" xmlns="http://www.w3.org/2000/svg" xmlns:xlink="http://www.w3.org/1999/xlink" x="0px" y="0px"
	 viewBox="0 0 64 64" enable-background="new 0 0 64 64" xml:space="preserve">
<circle fill="#FBB041" cx="32" cy="32" r="32"/>
<g opacity="0.987">
	<path fill="#E79D3C" d="M15.3,41.3C9.6,29.2,9.3,16,14.5,5.2C5.8,10.8,0,20.8,0,31.9c0,17.7,14.4,32,32,32c0.3,0,0.6,0,0.9,0
		C25.6,57.7,19.4,50.2,15.3,41.3"/>
</g>
<path fill="#633D19" d="M52.2,39.4c0,11-8.9,19.9-19.9,19.9s-19.9-8.9-19.9-19.9"/>
<path fill="#FFFFFF" d="M48.7,41.4c0,4.4-7.6,8-16.9,8s-16.9-3.5-16.9-8"/>
<g>
	<path fill="#633D19" d="M22.7,13.8c-3.8,4.2-8.2,7.3-13.5,9.5c-1.2,0.5-0.3,2.3,0.9,1.8c5.4-2.3,9.9-5.6,14-9.8
		C24.9,14.3,23.5,12.8,22.7,13.8"/>
	<path fill="#633D19" d="M9.6,25.9L9.6,25.9c-0.8,0-1.6-0.6-1.7-1.5c-0.2-0.8,0.2-1.5,1-1.8c5-2.1,9.3-5.2,13.3-9.4
		c0.8-0.9,2.3-0.5,2.7,0.6c0.3,0.7,0.2,1.4-0.3,1.9c-4.2,4.5-8.8,7.8-14.2,10C10.1,25.8,9.9,25.9,9.6,25.9 M23.3,14.2
		c-4.2,4.5-8.7,7.6-13.9,9.8c-0.1,0.3,0.1,0.5,0.3,0.4c5.2-2.2,9.6-5.4,13.7-9.6c0,0,0.1-0.1,0.1-0.3C23.5,14.3,23.3,14.2,23.3,14.2
		"/>
	<path fill="#633D19" d="M42.3,13.8c3.8,4.2,8.2,7.3,13.5,9.5c1.2,0.5,0.3,2.3-0.9,1.8c-5.4-2.3-9.9-5.6-14-9.8
		C40.1,14.3,41.4,12.8,42.3,13.8"/>
	<path fill="#633D19" d="M55.3,25.9c-0.2,0-0.5-0.1-0.7-0.1c-5.4-2.2-10-5.6-14.2-10c-0.5-0.5-0.6-1.3-0.3-1.9
		c0.5-1.1,1.9-1.4,2.7-0.6c3.9,4.2,8.3,7.3,13.3,9.4c0.7,0.3,1.1,1,1,1.8C56.9,25.3,56.2,25.9,55.3,25.9 M41.7,14.2
		c-0.1,0-0.2,0.1-0.2,0.2c-0.1,0.2,0,0.3,0.1,0.3c4.1,4.4,8.5,7.5,13.7,9.6h0.1c0.1,0,0.3-0.2,0.3-0.3
		C50.3,21.8,45.9,18.6,41.7,14.2C41.7,14.3,41.7,14.2,41.7,14.2"/>
	<path fill="#633D19" d="M36.2,31.3c0,2.3,4.3-0.3,8-0.3s8,2.6,8,0.3s-4.3-4.9-8-4.9C40.3,26.4,36.2,29,36.2,31.3"/>
	<path fill="#633D19" d="M12.1,31.3c0,2.3,4.3-0.3,8-0.3s8,2.6,8,0.3s-4.3-4.9-8-4.9S12.1,29,12.1,31.3"/>
</g>
<path fill="#28A6DE" d="M3.2,38.2C0.6,42,1,46.9,4.2,49.1c3.1,2.2,7.9,0.8,10.5-3s6.6-15.1,3.4-17.3C15,26.6,5.9,34.3,3.2,38.2"/>
<path fill="#58C5E8" d="M17.9,28.7c-3.3-1.7-12.2,5.8-14.8,9.5C0.5,42,0.9,47,4.1,49.2c1.4,1,3.2,1.2,5,0.8
	C7.9,42.1,11.4,33.9,17.9,28.7"/>
<path fill="#28A6DE" d="M61.2,38.2c2.6,3.8,2.2,8.7-0.9,10.9c-3.1,2.2-7.9,0.8-10.5-3c-2.6-3.8-6.6-15.1-3.4-17.2
	C49.4,26.6,58.5,34.3,61.2,38.2"/>
<path fill="#58C5E8" d="M46.5,28.7c3.3-1.7,12.2,5.8,14.8,9.5c2.6,3.8,2.2,8.8-0.9,11c-1.4,1-3.2,1.2-5,0.8
	C56.5,42.1,53,33.9,46.5,28.7"/>
</svg>
