<?xml version="1.0" encoding="utf-8"?>
<!-- Generator: Adobe Illustrator 18.1.1, SVG Export Plug-In . SVG Version: 6.00 Build 0)  -->
<svg version="1.1" id="Layer_1" xmlns="http://www.w3.org/2000/svg" xmlns:xlink="http://www.w3.org/1999/xlink" x="0px" y="0px"
	 viewBox="0 0 64 64" enable-background="new 0 0 64 64" xml:space="preserve">
<path fill="#FBB041" d="M64,32c0,17.7-14.3,32-32,32C14.3,64,0,49.7,0,32C0,14.3,14.3,0,32,0C49.7,0,64,14.3,64,32z"/>
<path fill="#FFFFFF" d="M27.4,28.5c0,5.4-2.9,9.7-6.5,9.7c-3.6,0-6.5-4.4-6.5-9.7c0-5.4,2.9-9.7,6.5-9.7
	C24.5,18.8,27.4,23.1,27.4,28.5"/>
<path fill="#25333A" d="M25.1,28.5c0,2.8-1.9,5.1-4.2,5.1c-2.3,0-4.2-2.3-4.2-5.1s1.9-5.1,4.2-5.1C23.2,23.4,25.1,25.7,25.1,28.5"/>
<g opacity="0.987">
	<path fill="#E79D3C" d="M15.2,41.3C9.6,29.1,9.3,16,14.4,5.2C5.7,10.9,0,20.7,0,31.9c0,17.7,14.3,32,32,32c0.3,0,0.6,0,0.9,0
		C25.6,57.7,19.4,50.3,15.2,41.3"/>
</g>
<g>
	<path fill="#633D19" d="M52.7,31.1c0,3.2-4.3-0.4-8-0.4c-3.8,0-8,3.5-8,0.4c0-3.2,4.3-6.6,8-6.6C48.4,24.6,52.7,28,52.7,31.1"/>
	<path fill="#633D19" d="M23.5,45.5c0.2,0,4.3,1.6,8.5,1.6c3.7,0,7.4-1.6,8.5-1.6c0.9,0,1.2,1,0.7,1.7c-5,5.7-13.4,5.7-18.4,0
		C22.3,46.6,22.6,45.5,23.5,45.5"/>
	<path fill="#633D19" d="M24.1,9.3c-6-0.4-11.4,2-15.1,6.7c-1.6,2,1.2,4.9,2.9,2.9c3.1-3.9,7.2-5.8,12.2-5.5
		C26.7,13.5,26.7,9.5,24.1,9.3"/>
	<path fill="#633D19" d="M41.8,18.1c6-0.4,11.4,2,15.1,6.7c1.6,2-1.2,4.9-2.9,2.9c-3.1-3.9-7.2-5.8-12.2-5.5
		C39.2,22.3,39.2,18.2,41.8,18.1"/>
</g>
</svg>
