<?xml version="1.0" encoding="utf-8"?>
<!-- Generator: Adobe Illustrator 18.1.1, SVG Export Plug-In . SVG Version: 6.00 Build 0)  -->
<svg version="1.1" id="Layer_1" xmlns="http://www.w3.org/2000/svg" xmlns:xlink="http://www.w3.org/1999/xlink" x="0px" y="0px"
	 viewBox="0 0 64 64" enable-background="new 0 0 64 64" xml:space="preserve">
<path fill="#FBB041" d="M64,32c0,17.7-14.3,32-32,32S0,49.7,0,32C0,14.3,14.3,0,32,0S64,14.3,64,32"/>
<g opacity="0.987">
	<path fill="#E79D3C" d="M15.2,41.3C9.6,29.1,9.3,16,14.4,5.2C5.7,10.9,0,20.7,0,31.9c0,17.7,14.3,32,32,32c0.3,0,0.6,0,0.9,0
		C25.6,57.7,19.4,50.2,15.2,41.3"/>
</g>
<g>
	<path fill="#25333A" d="M4.3,19.3c0.6,0,21.8,0,25.1,0c1.3,0,1.8,3.3,1,5.3c-7.3,18.1-19.8,18.1-27.1,0C2.4,22.6,2.9,19.3,4.3,19.3
		"/>
	<path fill="#25333A" d="M34.7,19.3c0.6,0,21.7,0,25,0c1.3,0,1.8,3.3,1,5.3c-7.3,18-19.7,18-27,0C32.9,22.6,33.4,19.3,34.7,19.3"/>
</g>
<g>
	<path fill="#56717F" d="M37.2,22.3c0,1.2-0.9,2.2-2.1,2.2h-6.3c-1.1,0-2.1-1-2.1-2.2l0,0c0-1.2,0.9-2.2,2.1-2.2h6.3
		C36.3,20.1,37.2,21.1,37.2,22.3L37.2,22.3"/>
	<path fill="#56717F" d="M59.2,23.1c0.4,0.6-0.7,2.3-2.5,3.7l-10,7.7c-1.8,1.4-3.7,2-4.1,1.4l0,0c-0.4-0.6,0.7-2.3,2.5-3.7l10-7.7
		C56.9,23.1,58.8,22.5,59.2,23.1L59.2,23.1"/>
	<path fill="#56717F" d="M49.5,20.3c0.2,0.3-0.3,1.1-1.3,1.8l-5,3.8c-0.9,0.7-1.8,1-2.1,0.7l0,0c-0.2-0.3,0.3-1.1,1.3-1.8l5-3.8
		C48.4,20.3,49.3,19.9,49.5,20.3L49.5,20.3"/>
	<path fill="#56717F" d="M23.7,21.6c0.4,0.5-0.6,2-2.2,3.2l-8.9,6.8c-1.6,1.2-3.3,1.8-3.7,1.3l0,0c-0.4-0.5,0.6-2,2.2-3.2l8.9-6.8
		C21.6,21.6,23.3,21.1,23.7,21.6L23.7,21.6"/>
	<path fill="#56717F" d="M22.5,28.7c0.2,0.3-0.3,1-1.1,1.6l-4.5,3.4c-0.8,0.6-1.6,0.9-1.8,0.6l0,0c-0.2-0.3,0.3-1,1.1-1.6l4.5-3.4
		C21.5,28.7,22.3,28.5,22.5,28.7L22.5,28.7"/>
</g>
<path fill="#633D19" d="M44.5,45c-0.6,0-1.2,0-1.9,0c-0.1,0-0.2,0-0.2,0.1c-0.1,0-0.2,0-0.3,0.1c-0.2,0.1-0.3,0.2-0.4,0.3
	c0,0-0.1,0-0.1,0.1c-4.5,4.4-10.4,5.4-16.1,2.5c-3-1.6-2.8-2.9-6-2.9c-1.3,0-1.8,1.5-1,2.5c7.3,8.4,19.7,8.4,27,0
	C46.3,46.5,45.8,45,44.5,45"/>
</svg>
