<?xml version="1.0" encoding="utf-8"?>
<!-- Generator: Adobe Illustrator 18.1.1, SVG Export Plug-In . SVG Version: 6.00 Build 0)  -->
<svg version="1.1" id="Layer_1" xmlns="http://www.w3.org/2000/svg" xmlns:xlink="http://www.w3.org/1999/xlink" x="0px" y="0px"
	 viewBox="0 0 64 64" enable-background="new 0 0 64 64" xml:space="preserve">
<path fill="#FBB041" d="M64,32c0,17.7-14.3,32-32,32S0,49.7,0,32C0,14.3,14.3,0,32,0S64,14.3,64,32"/>
<g opacity="0.987">
	<path fill="#E79D3C" d="M15.2,41.3C9.6,29.1,9.3,16,14.4,5.2C5.7,10.9,0,20.7,0,31.9c0,17.7,14.3,32,32,32c0.3,0,0.6,0,0.9,0
		C25.6,57.7,19.4,50.2,15.2,41.3"/>
</g>
<path fill="#633D19" d="M52.1,39.4c0,11-8.9,19.9-19.9,19.9c-11,0-19.9-8.9-19.9-19.9"/>
<path fill="#FFFFFF" d="M48.7,41.4c0,4.4-7.6,8-16.9,8c-9.3,0-16.9-3.6-16.9-8"/>
<g>
	<path fill="#633D19" d="M29.1,27.6c-3.1-5-9.2-8.1-15.1-8.3c-2-0.1-2,3,0,3.1c2.8,0.1,5.8,1,8.2,2.6c-0.1,0.2-0.3,2.5-0.2,2.7
		c-2.9,0.3-5.8,0.6-8.6,1.3c-2,0.5-1.1,3.4,0.8,3c4.6-1.1,9.4-1,14-2.1C29.2,29.6,29.6,28.4,29.1,27.6"/>
	<path fill="#633D19" d="M35.5,29.8c4.6,1.1,9.4,1,14,2.1c2,0.5,2.8-2.5,0.8-3c-2.8-0.7-5.7-0.9-8.6-1.3c0.1-0.2-0.1-2.5-0.2-2.7
		c2.5-1.6,5.4-2.5,8.2-2.6c2-0.1,2-3.1,0-3.1c-5.9,0.2-12.1,3.3-15.1,8.3C34,28.4,34.5,29.6,35.5,29.8"/>
</g>
</svg>
