<?xml version="1.0" encoding="utf-8"?>
<!-- Generator: Adobe Illustrator 18.1.1, SVG Export Plug-In . SVG Version: 6.00 Build 0)  -->
<svg version="1.1" id="Layer_1" xmlns="http://www.w3.org/2000/svg" xmlns:xlink="http://www.w3.org/1999/xlink" x="0px" y="0px"
	 viewBox="0 0 64 64" enable-background="new 0 0 64 64" xml:space="preserve">
<circle fill="#FBB041" cx="32" cy="32" r="32"/>
<g opacity="0.987">
	<path fill="#E79D3C" d="M15.2,41.3C9.6,29.1,9.3,16,14.4,5.2C5.7,10.9,0,20.7,0,31.9c0,17.7,14.3,32,32,32c0.3,0,0.6,0,0.9,0
		C25.6,57.7,19.4,50.3,15.2,41.3"/>
</g>
<g>
	<path fill="#633C17" d="M45.2,48.8c0,1.2-1.7,2.1-3.8,2.1H22.6c-2.1,0-3.8-1-3.8-2.1l0,0c0-1.2,1.7-2.1,3.8-2.1h18.8
		C43.5,46.6,45.2,47.6,45.2,48.8L45.2,48.8"/>
	<path fill="#633C17" d="M25.7,27.4c0,1.2-1.2,2.1-2.6,2.1H9.9c-1.5,0-2.6-1-2.6-2.1l0,0c0-1.2,1.2-2.1,2.6-2.1h13.2
		C24.5,25.3,25.7,26.3,25.7,27.4L25.7,27.4"/>
	<path fill="#633C17" d="M56.1,27.4c0,1.2-1.2,2.1-2.6,2.1H40.3c-1.5,0-2.6-1-2.6-2.1l0,0c0-1.2,1.2-2.1,2.6-2.1h13.2
		C54.9,25.3,56.1,26.3,56.1,27.4L56.1,27.4"/>
</g>
</svg>
