<?xml version="1.0" encoding="utf-8"?>
<!-- Generator: Adobe Illustrator 18.1.1, SVG Export Plug-In . SVG Version: 6.00 Build 0)  -->
<svg version="1.1" id="Layer_1" xmlns="http://www.w3.org/2000/svg" xmlns:xlink="http://www.w3.org/1999/xlink" x="0px" y="0px"
	 viewBox="0 0 64 64" enable-background="new 0 0 64 64" xml:space="preserve">
<path fill="#FBB041" d="M64,32c0,17.7-14.3,32-32,32C14.3,64,0,49.7,0,32C0,14.3,14.3,0,32,0C49.7,0,64,14.3,64,32z"/>
<g opacity="0.987">
	<path fill="#E79D3C" d="M15.2,41.3C9.6,29.1,9.3,16,14.4,5.2C5.7,10.9,0,20.7,0,31.9c0,17.7,14.3,32,32,32c0.3,0,0.6,0,0.9,0
		C25.6,57.7,19.4,50.3,15.2,41.3"/>
</g>
<g>
	<path fill="#633D19" d="M41.4,52.1c-0.2,0-4.3-1.6-8.5-1.6c-3.7,0-7.4,1.6-8.5,1.6c-0.9,0-1.2-1-0.7-1.7c5-5.7,13.4-5.7,18.4,0
		C42.7,51.1,42.3,52.1,41.4,52.1"/>
	<path fill="#633D19" d="M54.9,40.1c-1,3-3.9-1.7-7.5-2.9C43.8,36,38.6,38,39.6,35c1-3,6.1-4.9,9.7-3.7
		C52.9,32.5,55.9,37.1,54.9,40.1"/>
	<path fill="#633D19" d="M10,40.1c1,3,3.9-1.7,7.5-2.9c3.6-1.2,8.7,0.8,7.7-2.2c-1-3-6.1-4.9-9.7-3.7C12,32.5,9,37.1,10,40.1"/>
</g>
</svg>
