<?xml version="1.0" encoding="utf-8"?>
<!-- Generator: Adobe Illustrator 18.1.1, SVG Export Plug-In . SVG Version: 6.00 Build 0)  -->
<svg version="1.1" id="Layer_1" xmlns="http://www.w3.org/2000/svg" xmlns:xlink="http://www.w3.org/1999/xlink" x="0px" y="0px"
	 viewBox="0 0 64 64" enable-background="new 0 0 64 64" xml:space="preserve">
<path fill="#FBB041" d="M64,32c0,17.7-14.3,32-32,32C14.3,64,0,49.7,0,32S14.3,0,32,0C49.7,0,64,14.3,64,32z"/>
<g opacity="0.987">
	<path fill="#E79D3C" d="M15.2,41.4C9.6,29.2,9.3,16.1,14.4,5.3C5.7,11,0,20.8,0,32c0,17.7,14.3,32,32,32c0.3,0,0.6,0,0.9,0
		C25.6,57.8,19.4,50.3,15.2,41.4"/>
</g>
<path fill="#633D19" d="M39.5,48c-0.6-1.5-2-2.2-4-2.2c-1.6,0-3.3,0.5-4.5,0.8l-0.7,0.2c-0.3,0.1-2,1-1.9,1.9l0.2,0.7h0.7
	c0.1,0,0.2,0,0.4,0l0.6-0.2c1.4-0.3,2.6-0.7,4-0.7c0.8,0,1.5,0.3,2,0.9c0.4,0.5,0.4,0.8,0.4,0.9c-0.1,0.5-0.9,1.1-1.9,1.5
	c0,0-1.6,0.7-1.7,1.6l0.1,0.6l0.4,0.2c2.3,1.3,2.3,2.2,2,2.8c-0.3,0.7-1.3,0.8-2,0.8c-1,0-2.1-0.3-2.8-0.5l-0.4-0.1
	c-0.8,0-2.1,1-2.2,1.7L28,59.5l0.6,0.2c1,0.4,2,0.6,3.1,0.6l0,0c1.9,0,3.8-0.7,5.4-1.9c1.4-1.1,1.7-2.2,1.7-2.9
	c0-0.9-0.5-1.9-1.4-2.7C39.7,51.6,40.4,49.9,39.5,48"/>
<path fill="#D13852" d="M62.3,44.2c-2.3-2.4-6.9-0.6-10.2,4c0,0-0.1,0.1-0.1,0.1c0,0-0.1-0.1-0.1-0.1c-3.3-4.6-7.9-6.4-10.2-4
	c-2.3,2.4-1.4,8,1.9,12.6c2.6,3.6,6,6.7,8.4,6.2c2.4,0.5,5.8-2.6,8.4-6.2C63.8,52.2,64.6,46.6,62.3,44.2"/>
<path fill="#FFFFFF" d="M27.4,28.5c0,5.4-2.9,9.7-6.5,9.7s-6.5-4.4-6.5-9.7c0-5.4,2.9-9.7,6.5-9.7S27.4,23.1,27.4,28.5"/>
<ellipse fill="#25333A" cx="20.9" cy="28.5" rx="4.2" ry="5.1"/>
<g>
	<path fill="#633D19" d="M53.4,32.7c0,3.2-4.3-0.4-8-0.4c-3.8,0-8,3.5-8,0.4s4.3-6.6,8-6.6C49.1,26.2,53.4,29.6,53.4,32.7"/>
	<path fill="#633D19" d="M23.5,9.3c-6-0.4-11.4,2-15.1,6.7c-1.6,2,1.2,4.9,2.9,2.9c3.1-3.9,7.2-5.8,12.2-5.5
		C26.1,13.5,26.1,9.5,23.5,9.3"/>
	<path fill="#633D19" d="M41.2,18c6-0.4,11.4,2,15.1,6.7c1.6,2-1.2,4.9-2.9,2.9c-3.1-3.9-7.2-5.8-12.2-5.5
		C38.6,22.3,38.6,18.2,41.2,18"/>
</g>
</svg>
