<?xml version="1.0" encoding="utf-8"?>
<!-- Generator: Adobe Illustrator 18.1.1, SVG Export Plug-In . SVG Version: 6.00 Build 0)  -->
<svg version="1.1" id="Layer_1" xmlns="http://www.w3.org/2000/svg" xmlns:xlink="http://www.w3.org/1999/xlink" x="0px" y="0px"
	 viewBox="0 0 64 64" enable-background="new 0 0 64 64" xml:space="preserve">
<circle fill="#FBB041" cx="32" cy="32" r="32"/>
<g opacity="0.987">
	<path fill="#E79D3C" d="M15.2,41.2C9.6,29.1,9.3,16,14.4,5.2C5.7,10.9,0,20.7,0,31.9c0,17.7,14.3,32,32,32c0.3,0,0.6,0,0.9,0
		C25.6,57.7,19.4,50.2,15.2,41.2"/>
</g>
<path fill="#633D19" d="M52.1,39.4c0,11-8.9,19.9-19.9,19.9c-11,0-19.9-8.9-19.9-19.9"/>
<path fill="#FFFFFF" d="M53.8,25.2c0,6.3-4.7,11.5-10.5,11.5s-10.5-5.1-10.5-11.5c0-6.3,4.7-11.4,10.5-11.4S53.8,18.9,53.8,25.2"/>
<path fill="#F45BA1" d="M42.6,56.6c0,4.1-4.6,7.4-10.3,7.4l0,0c-5.7,0-10.3-3.3-10.3-7.4l2.2-8.5c0-4.1,2.4-5.4,8-5.4l0,0
	c5.7,0,8,1.3,8,5.4L42.6,56.6"/>
<path fill="#FFFFFF" d="M48.7,41.4c0,4.4-7.6,8-16.9,8c-9.3,0-16.9-3.6-16.9-8"/>
<path fill="#633D19" d="M28.3,29.3c-0.2,0-4.5-1.6-8.9-1.6c-3.9,0-7.8,1.6-8.9,1.6c-0.9,0-1.3-1-0.7-1.7c5.2-5.7,14-5.7,19.2,0
	C29.6,28.3,29.3,29.3,28.3,29.3"/>
<ellipse fill="#25333A" cx="43.3" cy="25.2" rx="4.2" ry="5.1"/>
</svg>
