<?xml version="1.0" encoding="utf-8"?>
<!-- Generator: Adobe Illustrator 18.1.1, SVG Export Plug-In . SVG Version: 6.00 Build 0)  -->
<svg version="1.1" id="Layer_1" xmlns="http://www.w3.org/2000/svg" xmlns:xlink="http://www.w3.org/1999/xlink" x="0px" y="0px"
	 viewBox="0 0 64 64" enable-background="new 0 0 64 64" xml:space="preserve">
<circle fill="#FBB041" cx="32" cy="32" r="32"/>
<g opacity="0.987">
	<path fill="#E79D3C" d="M15.2,41.3C9.6,29.1,9.3,16,14.4,5.2C5.7,10.9,0,20.7,0,31.9c0,17.7,14.3,32,32,32c0.3,0,0.6,0,0.9,0
		C25.6,57.7,19.4,50.3,15.2,41.3"/>
</g>
<path fill="#28A6DE" d="M0.1,16.3c0,4.7,3.1,8.5,7,8.5c3.9,0,7-3.8,7-8.5S11,0,7.1,0C3.2,0,0.1,11.6,0.1,16.3"/>
<path fill="#58C5E8" d="M6.8,0C3,0.6,0,11.8,0,16.4C0,21.1,3.2,25,7.1,25c1.8,0,3.4-0.8,4.6-2.1C6.1,16.9,4.4,8.1,6.8,0"/>
<g>
	<path fill="#633D19" d="M22.4,49.3c-0.6,0.7-0.2,1.9,0.8,1.9c1.2,0,5.5-1.8,9.8-1.8c4.8,0,9.5,1.8,9.8,1.8c1,0,1.4-1.2,0.8-1.9
		C37.8,42.7,28.1,42.7,22.4,49.3"/>
	<path fill="#633D19" d="M37.1,32.4c0,2.3,4.3-0.3,8-0.3c3.8,0,8,2.6,8,0.3s-4.3-4.9-8-4.9C41.3,27.6,37.1,30.1,37.1,32.4"/>
	<path fill="#633D19" d="M12.8,32.4c0,2.3,4.3-0.3,8-0.3s8,2.6,8,0.3s-4.3-4.9-8-4.9S12.8,30.1,12.8,32.4"/>
</g>
</svg>
