<?xml version="1.0" encoding="utf-8"?>
<!-- Generator: Adobe Illustrator 18.1.1, SVG Export Plug-In . SVG Version: 6.00 Build 0)  -->
<svg version="1.1" id="Layer_1" xmlns="http://www.w3.org/2000/svg" xmlns:xlink="http://www.w3.org/1999/xlink" x="0px" y="0px"
	 viewBox="0 0 64 64" enable-background="new 0 0 64 64" xml:space="preserve">
<ellipse fill="#FBB041" cx="32" cy="30.1" rx="32" ry="30.1"/>
<path fill="#FFFFFF" d="M28,23.7c0,5.4-3.1,9.7-6.9,9.7s-6.9-4.3-6.9-9.7c0-5.4,3.1-9.7,6.9-9.7S28,18.3,28,23.7"/>
<ellipse fill="#25333A" cx="21.2" cy="23.7" rx="4.5" ry="5.1"/>
<path fill="#FFFFFF" d="M49.9,23.7c0,5.4-3.1,9.7-6.9,9.7c-3.8,0-6.9-4.3-6.9-9.7c0-5.4,3.1-9.7,6.9-9.7
	C46.8,14,49.9,18.3,49.9,23.7"/>
<ellipse fill="#25333A" cx="43" cy="23.7" rx="4.5" ry="5.1"/>
<g opacity="0.987">
	<path fill="#E79D3C" d="M15.2,38.9C9.6,27.5,9.3,15.2,14.4,5C5.7,10.3,0,19.6,0,30.1c0,16.6,14.3,30.1,32,30.1c0.3,0,0.6,0,0.9,0
		C25.6,54.4,19.4,47.4,15.2,38.9"/>
</g>
<path fill="#633D19" d="M54.6,37.1c0,11.1-9.8,20.2-22,20.2c-12.1,0-21.9-9-21.9-20.2"/>
<path fill="#F45BA1" d="M43.6,56.6c0,4.1-4.9,7.4-11,7.4l0,0c-6,0-10.9-3.3-10.9-7.4L24,48c0-4.1,2.5-7.4,8.6-7.4l0,0
	c6,0,8.6,3.3,8.6,7.4L43.6,56.6"/>
<path fill="#FFFFFF" d="M51.7,38.2c0,3.8-8.6,6.8-19.1,6.8c-10.5,0-19.1-3.1-19.1-6.8"/>
</svg>
