<?xml version="1.0" encoding="utf-8"?>
<!-- Generator: Adobe Illustrator 18.1.1, SVG Export Plug-In . SVG Version: 6.00 Build 0)  -->
<svg version="1.1" id="Layer_1" xmlns="http://www.w3.org/2000/svg" xmlns:xlink="http://www.w3.org/1999/xlink" x="0px" y="0px"
	 viewBox="0 0 64 64" enable-background="new 0 0 64 64" xml:space="preserve">
<circle fill="#FBB041" cx="32" cy="32" r="32"/>
<path fill="#FFFFFF" d="M36.1,31.6c0,5.4,2.9,9.7,6.5,9.7s6.5-4.4,6.5-9.7c0-5.4-2.9-9.7-6.5-9.7C39,21.9,36.1,26.2,36.1,31.6"/>
<path fill="#25333A" d="M38.4,31.6c0,2.8,1.9,5.1,4.2,5.1c2.3,0,4.2-2.3,4.2-5.1c0-2.8-1.9-5.1-4.2-5.1
	C40.3,26.5,38.4,28.8,38.4,31.6"/>
<path fill="#633D19" d="M34.5,27.5c1.9-6.7,10.4-10.2,16.8-10.3c1.9,0,2.3,2.9,0.4,2.9c-5.4,0.1-12.9,2.3-14.5,8
	C36.7,29.9,33.9,29.3,34.5,27.5"/>
<g opacity="0.987">
	<path fill="#E79D3C" d="M15.2,41.3C9.6,29.1,9.3,16,14.4,5.2C5.7,10.9,0,20.7,0,31.9c0,17.7,14.3,32,32,32c0.3,0,0.6,0,0.9,0
		C25.6,57.7,19.4,50.3,15.2,41.3"/>
</g>
<path fill="#FFFFFF" d="M27.4,31.3c0,5.4-2.9,9.7-6.5,9.7s-6.5-4.4-6.5-9.7c0-5.4,2.9-9.7,6.5-9.7C24.5,21.5,27.4,25.9,27.4,31.3"/>
<ellipse fill="#25333A" cx="20.9" cy="31.3" rx="4.2" ry="5.1"/>
<g>
	<path fill="#633D19" d="M29.1,27.1c-1.9-6.7-10.4-10.2-16.8-10.3c-1.9,0-2.3,2.9-0.4,2.9c5.4,0.1,12.9,2.3,14.5,8
		C26.8,29.6,29.6,28.9,29.1,27.1"/>
	<path fill="#633D19" d="M21.4,51.7c-0.6,0.7-0.2,1.9,0.8,1.9c1.2,0,5.5-1.8,9.8-1.8c4.8,0,9.5,1.8,9.8,1.8c1,0,1.4-1.2,0.8-1.9
		C36.8,45.1,27.2,45.1,21.4,51.7"/>
</g>
</svg>
