<?xml version="1.0" encoding="utf-8"?>
<!-- Generator: Adobe Illustrator 18.1.1, SVG Export Plug-In . SVG Version: 6.00 Build 0)  -->
<svg version="1.1" id="Layer_1" xmlns="http://www.w3.org/2000/svg" xmlns:xlink="http://www.w3.org/1999/xlink" x="0px" y="0px"
	 viewBox="0 0 64 64" enable-background="new 0 0 64 64" xml:space="preserve">
<path fill="#FBB041" d="M64,32c0,17.7-14.3,32-32,32C14.3,64,0,49.7,0,32C0,14.3,14.3,0,32,0C49.7,0,64,14.3,64,32z"/>
<path fill="#FFFFFF" d="M54,35.1c0.5-1.7,0.8-3.6,0.8-5.6c0-7.4-4-13.5-9-13.5c-5,0-9,6-9,13.5c0,3.4,0.8,6.4,2.2,8.8
	C43.6,36.5,49,35.6,54,35.1"/>
<g opacity="0.987">
	<path fill="#E79D3C" d="M15.2,41.4C9.6,29.2,9.3,16.1,14.4,5.3C5.7,11,0,20.8,0,32c0,17.7,14.3,32,32,32c0.3,0,0.6,0,0.9,0
		C25.6,57.8,19.4,50.3,15.2,41.4"/>
</g>
<path fill="#25333A" d="M51.9,29.6c0,4.1-2.7,7.4-6.1,7.4c-3.4,0-6.1-3.3-6.1-7.4s2.7-7.4,6.1-7.4C49.2,22.2,51.9,25.5,51.9,29.6"/>
<g>
	<path fill="#633D19" d="M27.3,4.5c-0.4,0.1-0.8,0.2-1.2,0.3c-0.1,0-0.1,0.1-0.2,0.1c-0.1,0-0.1,0.1-0.2,0.1
		c-0.1,0.1-0.2,0.2-0.2,0.2c0,0,0,0,0,0.1c-2.2,3.7-5.8,5.4-10.1,4.6C13.1,9.4,13,8.4,10.9,9c-0.9,0.2-0.9,1.3-0.2,1.8
		C17,15,25.1,12.7,28.4,5.9C28.7,5.1,28.1,4.2,27.3,4.5"/>
	<path fill="#633D19" d="M36.7,4.5c0.4,0.1,0.8,0.2,1.2,0.3c0.1,0,0.1,0.1,0.2,0.1c0.1,0,0.1,0.1,0.2,0.1c0.1,0.1,0.2,0.2,0.2,0.2
		c0,0,0,0,0,0.1c2.1,3.7,5.8,5.4,10.1,4.6C50.9,9.4,51,8.4,53.1,9c0.9,0.2,0.9,1.3,0.2,1.8C47,15,38.9,12.7,35.6,5.9
		C35.3,5.1,35.9,4.2,36.7,4.5"/>
</g>
<path fill="#FFFFFF" d="M27.5,29.6c0,7.4-4,13.5-9,13.5c-5,0-9-6-9-13.5c0-7.4,4-13.5,9-13.5C23.4,16.1,27.5,22.1,27.5,29.6"/>
<path fill="#25333A" d="M24.6,29.6c0,4.1-2.7,7.4-6.1,7.4s-6.1-3.3-6.1-7.4c0-4.1,2.7-7.4,6.1-7.4S24.6,25.5,24.6,29.6"/>
<g>
	<path fill="#FFFFFF" d="M24.4,34.6c0,2.7-1.8,4.8-4,4.8c-2.2,0-4-2.2-4-4.8s1.8-4.8,4-4.8S24.4,32,24.4,34.6"/>
	<path fill="#FFFFFF" d="M21.1,28.1c0,1.8-1.2,3.2-2.7,3.2c-1.5,0-2.7-1.4-2.7-3.2c0-1.8,1.2-3.2,2.7-3.2
		C20,24.9,21.1,26.4,21.1,28.1"/>
	<path fill="#FFFFFF" d="M51.2,33.1c0,2.7-1.8,4.8-4,4.8c-2.2,0-4-2.2-4-4.8s1.8-4.8,4-4.8C49.5,28.3,51.2,30.4,51.2,33.1"/>
	<path fill="#FFFFFF" d="M48,26.6c0,1.8-1.2,3.2-2.7,3.2c-1.5,0-2.7-1.4-2.7-3.2c0-1.8,1.2-3.2,2.7-3.2C46.8,23.4,48,24.8,48,26.6"
		/>
</g>
<path fill="#633D19" d="M22.4,52.3c-0.6,0.7-0.2,1.9,0.8,1.9c1.2,0,5.5-1.8,9.8-1.8c4.8,0,9.5,1.8,9.8,1.8c1,0,1.4-1.2,0.8-1.9
	C37.8,45.7,28.1,45.7,22.4,52.3"/>
<path fill="#28A6DE" d="M11.6,54.7c0,4.7,3.1,8.5,7,8.5c3.9,0,7-3.8,7-8.5s-3.1-16.3-7-16.3S11.6,50,11.6,54.7"/>
<path fill="#58C5E8" d="M18.3,38.4c-3.8,0.5-6.8,11.8-6.8,16.4c0,4.7,3.2,8.6,7.1,8.6c1.8,0,3.4-0.8,4.6-2.1
	C17.7,55.3,15.9,46.5,18.3,38.4"/>
</svg>
