<?xml version="1.0" encoding="utf-8"?>
<!-- Generator: Adobe Illustrator 18.1.1, SVG Export Plug-In . SVG Version: 6.00 Build 0)  -->
<svg version="1.1" id="Layer_1" xmlns="http://www.w3.org/2000/svg" xmlns:xlink="http://www.w3.org/1999/xlink" x="0px" y="0px"
	 viewBox="0 0 64 64" enable-background="new 0 0 64 64" xml:space="preserve">
<path fill="#FBB041" d="M64,32c0,17.7-14.3,32-32,32S0,49.7,0,32S14.3,0,32,0S64,14.3,64,32z"/>
<g opacity="0.987">
	<path fill="#E79D3C" d="M15.2,41.2C9.6,29.1,9.3,16,14.4,5.2C5.7,10.9,0,20.7,0,31.9c0,17.7,14.3,32,32,32c0.3,0,0.6,0,0.9,0
		C25.6,57.7,19.4,50.2,15.2,41.2"/>
</g>
<g>
	<path fill="#633D19" d="M21.4,52.5c-0.6,0.7-0.2,1.9,0.8,1.9c1.2,0,5.5-1.8,9.8-1.8c4.8,0,9.5,1.8,9.8,1.8c1,0,1.4-1.2,0.8-1.9
		C36.8,45.9,27.2,45.9,21.4,52.5"/>
	<path fill="#633D19" d="M11.7,26.5c6,0.4,11.4-2,15.1-6.7c1.6-2-1.2-4.9-2.9-2.9c-3.1,3.9-7.2,5.8-12.2,5.5
		C9,22.3,9.1,26.3,11.7,26.5"/>
	<path fill="#633D19" d="M52.2,26.5c-6,0.4-11.4-2-15.1-6.7c-1.6-2,1.2-4.9,2.9-2.9c3.1,3.9,7.2,5.8,12.2,5.5
		C54.9,22.3,54.8,26.3,52.2,26.5"/>
	<path fill="#633D19" d="M29,38.4c-3.1-5.1-9.3-8.2-15.3-8.4c-2-0.1-2,3.1,0,3.1c2.8,0.1,5.8,1,8.3,2.6c-0.1,0.2-0.3,2.6-0.2,2.8
		c-2.9,0.3-5.8,0.6-8.7,1.3c-2,0.5-1.1,3.5,0.8,3c4.6-1.1,9.5-1.1,14.1-2.1C29,40.4,29.5,39.2,29,38.4"/>
	<path fill="#633D19" d="M35.4,40.7c4.6,1.1,9.5,1.1,14.1,2.1c2,0.5,2.8-2.5,0.8-3c-2.9-0.7-5.8-0.9-8.7-1.3
		c0.1-0.2-0.1-2.6-0.2-2.8c2.5-1.6,5.4-2.6,8.3-2.6c2-0.1,2-3.2,0-3.1c-5.9,0.2-12.2,3.3-15.3,8.4C33.9,39.2,34.4,40.4,35.4,40.7"/>
</g>
</svg>
