<?xml version="1.0" encoding="utf-8"?>
<!-- Generator: Adobe Illustrator 18.1.1, SVG Export Plug-In . SVG Version: 6.00 Build 0)  -->
<svg version="1.1" id="Layer_1" xmlns="http://www.w3.org/2000/svg" xmlns:xlink="http://www.w3.org/1999/xlink" x="0px" y="0px"
	 viewBox="0 0 64 64" enable-background="new 0 0 64 64" xml:space="preserve">
<path fill="#FBB041" d="M64,32c0,17.7-14.3,32-32,32C14.3,64,0,49.7,0,32C0,14.3,14.3,0,32,0C49.7,0,64,14.3,64,32z"/>
<g opacity="0.987">
	<path fill="#E79D3C" d="M15.2,41.4C9.6,29.2,9.3,16.1,14.4,5.3C5.7,11,0,20.8,0,32c0,17.7,14.3,32,32,32c0.3,0,0.6,0,0.9,0
		C25.6,57.8,19.4,50.3,15.2,41.4"/>
</g>
<path fill="#FFFFFF" d="M54.7,29.5c0,7.4-4,13.5-9,13.5c-5,0-9-6-9-13.5c0-7.4,4-13.5,9-13.5C50.7,16,54.7,22,54.7,29.5"/>
<path fill="#25333A" d="M46.9,28.4c0,2.8-1.9,5.1-4.2,5.1s-4.2-2.3-4.2-5.1s1.9-5.1,4.2-5.1S46.9,25.6,46.9,28.4"/>
<path fill="#FFFFFF" d="M27.3,29.5c0,7.4-4,13.5-9,13.5c-5,0-9-6-9-13.5c0-7.4,4-13.5,9-13.5C23.3,16,27.3,22,27.3,29.5"/>
<ellipse fill="#25333A" cx="20.7" cy="28.4" rx="4.2" ry="5.1"/>
<g opacity="0.48">
	<ellipse fill="#ED307C" cx="15.5" cy="44.6" rx="7.9" ry="6.5"/>
</g>
<g opacity="0.48">
	<ellipse fill="#ED307C" cx="48.4" cy="44.6" rx="7.9" ry="6.5"/>
</g>
<path fill="#633C17" d="M39.1,52.4c0,1.1-0.9,2-2,2H26.9c-1.1,0-2-0.9-2-2l0,0c0-1.1,0.9-2,2-2h10.1C38.2,50.3,39.1,51.3,39.1,52.4
	L39.1,52.4"/>
<g>
	<path fill="#633D19" d="M11.4,14.8c1.9-4.3,5.2-6,9.4-6.5C23,8,23.4,8.6,25.2,7.7c0.7-0.4,0.4-1.1-0.4-1.2c-7.2-1-14,2.5-14.9,7.7
		C9.8,14.7,10.3,15.9,11.4,14.8"/>
	<path fill="#633D19" d="M10.6,16.3L10.6,16.3c-0.5,0-0.9-0.2-1.2-0.6C9,15.3,8.8,14.6,8.9,14c0.8-5,6.6-8.7,13.4-8.7
		c0.9,0,1.8,0.1,2.7,0.2c0.8,0.1,1.5,0.7,1.6,1.4c0.1,0.5-0.1,1.3-0.9,1.7c-1.1,0.6-1.8,0.7-2.6,0.7l-0.9,0c-0.3,0-0.8,0-1.3,0.1
		c-4.4,0.6-7,2.3-8.6,5.9l-0.2,0.3C11.6,16,11.1,16.3,10.6,16.3 M14.3,9.5c-1.1,0.7-1.9,1.6-2.6,2.5C12.5,11.1,13.4,10.2,14.3,9.5"
		/>
	<path fill="#633D19" d="M53.1,14.8c-1.9-4.3-5.2-6-9.4-6.5c-2.3-0.3-2.6,0.3-4.4-0.6c-0.7-0.4-0.4-1.1,0.4-1.2
		c7.2-1,14,2.5,14.9,7.7C54.7,14.7,54.2,15.9,53.1,14.8"/>
	<path fill="#633D19" d="M54,16.3c-0.5,0-1-0.3-1.5-0.7l-0.2-0.3c-1.6-3.6-4.2-5.3-8.6-5.9c-0.5-0.1-0.9-0.1-1.3-0.1l-0.9,0
		c-0.8,0-1.5-0.1-2.6-0.7c-0.8-0.4-1-1.2-0.9-1.7c0.1-0.7,0.8-1.3,1.6-1.4c0.9-0.1,1.8-0.2,2.7-0.2C49,5.3,54.8,9,55.6,14
		c0.1,0.6-0.1,1.2-0.4,1.7C54.8,16.1,54.4,16.3,54,16.3 M50.6,9.8c0.7,0.5,1.3,1.1,1.8,1.8C51.9,11,51.3,10.4,50.6,9.8"/>
</g>
</svg>
