<?xml version="1.0" encoding="utf-8"?>
<!-- Generator: Adobe Illustrator 18.1.1, SVG Export Plug-In . SVG Version: 6.00 Build 0)  -->
<svg version="1.1" id="Layer_1" xmlns="http://www.w3.org/2000/svg" xmlns:xlink="http://www.w3.org/1999/xlink" x="0px" y="0px"
	 viewBox="0 0 64 64" enable-background="new 0 0 64 64" xml:space="preserve">
<path fill="#FBB041" d="M64,32c0,17.7-14.3,32-32,32C14.3,64,0,49.7,0,32C0,14.3,14.3,0,32,0C49.7,0,64,14.3,64,32z"/>
<g>
	<ellipse fill="#FFFFFF" cx="20.9" cy="28.5" rx="6.5" ry="9.7"/>
	<ellipse fill="#FFFFFF" cx="42.9" cy="28.5" rx="6.5" ry="9.7"/>
</g>
<g>
	<ellipse fill="#25333A" cx="20.9" cy="28.5" rx="4.2" ry="5.1"/>
	<ellipse fill="#25333A" cx="42.9" cy="28.5" rx="4.2" ry="5.1"/>
</g>
<g opacity="0.987">
	<path fill="#E79D3C" d="M15.2,41.3C9.6,29.1,9.3,16,14.4,5.2C5.7,10.9,0,20.7,0,31.9c0,17.7,14.3,32,32,32c0.3,0,0.6,0,0.9,0
		C25.6,57.7,19.4,50.3,15.2,41.3"/>
</g>
</svg>
