<?xml version="1.0" encoding="utf-8"?>
<!-- Generator: Adobe Illustrator 18.1.1, SVG Export Plug-In . SVG Version: 6.00 Build 0)  -->
<svg version="1.1" id="Layer_1" xmlns="http://www.w3.org/2000/svg" xmlns:xlink="http://www.w3.org/1999/xlink" x="0px" y="0px"
	 viewBox="0 0 64 64" enable-background="new 0 0 64 64" xml:space="preserve">
<path fill="#FBB041" d="M64,32c0,17.7-14.3,32-32,32S0,49.7,0,32C0,14.3,14.3,0,32,0S64,14.3,64,32z"/>
<g opacity="0.987">
	<path fill="#E79D3C" d="M15.2,41.4C9.6,29.2,9.3,16.1,14.4,5.3C5.7,11,0,20.8,0,32c0,17.7,14.3,32,32,32c0.3,0,0.6,0,0.9,0
		C25.6,57.8,19.4,50.3,15.2,41.4"/>
</g>
<g>
	<path fill="#633D19" d="M41.1,53.8c0,5.2-4.9,7.1-8.8,7.1c-3.9,0-9.4-1.9-9.4-7.1c0-5.2,5.2-11.4,9.1-11.4
		C35.9,42.4,41.1,48.7,41.1,53.8"/>
	<path fill="#633D19" d="M14.6,35.2c-0.7,0.7-1.9,0.7-2.7,0l0,0c-0.7-0.7-0.7-1.9,0-2.7l12.2-12.3c0.7-0.7,1.9-0.7,2.7,0l0,0
		c0.7,0.7,0.7,1.9,0,2.7L14.6,35.2"/>
	<path fill="#633D19" d="M14.6,20.3c-0.7-0.7-1.9-0.7-2.7,0l0,0c-0.7,0.7-0.7,1.9,0,2.7l12.2,12.2c0.7,0.7,1.9,0.7,2.7,0l0,0
		c0.7-0.7,0.7-1.9,0-2.7L14.6,20.3"/>
	<path fill="#633D19" d="M39,35.2c-0.7,0.7-1.9,0.7-2.7,0l0,0c-0.7-0.7-0.7-1.9,0-2.7l12.2-12.3c0.7-0.7,1.9-0.7,2.7,0l0,0
		c0.7,0.7,0.7,1.9,0,2.7L39,35.2"/>
	<path fill="#633D19" d="M39,20.3c-0.7-0.7-1.9-0.7-2.7,0l0,0c-0.7,0.7-0.7,1.9,0,2.7l12.2,12.2c0.7,0.7,1.9,0.7,2.7,0l0,0
		c0.7-0.7,0.7-1.9,0-2.7L39,20.3"/>
	<path fill="#633D19" d="M24.3,7.1c-6-0.4-11.4,2-15.1,6.7c-1.6,2,1.2,4.9,2.9,2.9c3.1-3.9,7.2-5.8,12.2-5.5
		C26.9,11.4,26.9,7.3,24.3,7.1"/>
	<path fill="#633D19" d="M39.7,7.1c6-0.4,11.4,2,15.1,6.7c1.6,2-1.2,4.9-2.9,2.9c-3.1-3.9-7.2-5.8-12.2-5.5
		C37,11.4,37.1,7.3,39.7,7.1"/>
</g>
</svg>
