<?xml version="1.0" encoding="utf-8"?>
<!-- Generator: Adobe Illustrator 18.1.1, SVG Export Plug-In . SVG Version: 6.00 Build 0)  -->
<svg version="1.1" id="Layer_1" xmlns="http://www.w3.org/2000/svg" xmlns:xlink="http://www.w3.org/1999/xlink" x="0px" y="0px"
	 viewBox="0 0 64 64" enable-background="new 0 0 64 64" xml:space="preserve">
<g>
	<path fill="#CF2874" d="M43.3,64l-0.3-2.9c-0.7-6.6,1.3-12.2,4.7-12.6c3.3-0.4,6.6,4.7,7.4,11.3c0,0,0.2,4.2,0.1,4.3L43.3,64
		L43.3,64z"/>
	<path fill="#CF2874" d="M56.7,7.7l-8.4,0.3l6.4,27.3l-5.8,15.3L46.9,64h8.2c0,0,11.8-20.6,8.3-35.3C60.2,15.8,56.7,7.7,56.7,7.7"/>
</g>
<path fill="#FBB042" d="M48.3,9.7c-4.7-4-16-6.8-16.1-7.3c-0.2-0.5,2-1.5,4.2-2C40.8-0.6,50,0.7,52.2,2c2.1,1.1,4.7,5.1,4.5,5.8
	c-0.2,0.7-6,1.8-7.1,1.9C49,9.8,48.7,9.7,48.3,9.7"/>
<g>
	<path fill="#CF2874" d="M20.7,64l0.3-2.9c0.7-6.6-1.3-12.2-4.7-12.6c-3.3-0.4-6.6,4.7-7.4,11.3c0,0-0.2,4.2-0.1,4.3L20.7,64
		L20.7,64z"/>
	<path fill="#CF2874" d="M7.3,7.7l8.4,0.3L9.2,35.3l5.8,15.3L17.1,64H8.9c0,0-11.8-20.6-8.3-35.3C3.8,15.8,7.3,7.7,7.3,7.7"/>
</g>
<path fill="#FBB042" d="M15.7,9.7c4.7-4,16-6.8,16.1-7.3c0.2-0.5-2-1.5-4.2-2C23.2-0.6,14,0.7,11.8,2C9.7,3.1,7.1,7,7.3,7.7
	c0.2,0.7,6,1.8,7.1,1.9C15,9.8,15.3,9.7,15.7,9.7"/>
<path fill="#633D19" d="M53,32.7c0,11.5-9.4,20.8-21,20.8l0,0c-11.6,0-21-9.3-21-20.8V21.5c0-11.5,9.4-20.8,21-20.8l0,0
	c11.6,0,21,9.3,21,20.8V32.7"/>
<path fill="#ED307C" d="M48.1,64v-5.7c0-7.8-7.2-14.2-16-14.2c-8.8,0-16,6.4-16,14.2V64H48.1"/>
<path fill="#FBB042" d="M14.6,29.3c0,7,7.8,12.7,17.4,12.7c9.6,0,17.4-5.7,17.4-12.7c0-7-7.8-24.2-17.4-24.2
	C22.4,5.1,14.6,22.3,14.6,29.3L14.6,29.3"/>
<path fill="#CF2874" d="M23.4,49.3c3.6,0,15.1,0,17.4,0c0.1,0-0.8-7.4-0.8-8.4c0-0.1-16-0.1-16-0.1S23.2,49.3,23.4,49.3"/>
<g>
	<path fill="#25333A" d="M28.7,23.5c0,1.7-1.2,3.1-2.6,3.1c-1.4,0-2.6-1.4-2.6-3.1c0-1.7,1.1-3.1,2.6-3.1
		C27.5,20.4,28.7,21.8,28.7,23.5"/>
	<path fill="#25333A" d="M40.9,23.5c0,1.7-1.2,3.1-2.6,3.1c-1.4,0-2.6-1.4-2.6-3.1c0-1.7,1.2-3.1,2.6-3.1
		C39.7,20.4,40.9,21.8,40.9,23.5"/>
</g>
<path fill="#633F1A" d="M43.3,29.9c0,5.8-4.7,10.4-10.5,10.4c-5.8,0-10.5-4.7-10.5-10.4"/>
<path fill="#FFFFFF" d="M41.5,31c0,2.3-4,4.2-8.9,4.2c-4.9,0-8.9-1.9-8.9-4.2"/>
<path fill="#633D19" d="M46,19.4c0-4.4,0.8-7,0.9-11.4C39,0.3,26.8-0.2,18.7,7.6c-0.1,4.4-0.2,8.6-0.3,12.9
	C27.5,19.4,36.8,19.1,46,19.4"/>
</svg>
