<?xml version="1.0" encoding="utf-8"?>
<!-- Generator: Adobe Illustrator 18.1.1, SVG Export Plug-In . SVG Version: 6.00 Build 0)  -->
<svg version="1.1" id="Layer_1" xmlns="http://www.w3.org/2000/svg" xmlns:xlink="http://www.w3.org/1999/xlink" x="0px" y="0px"
	 viewBox="0 0 64 64" enable-background="new 0 0 64 64" xml:space="preserve">
<path fill="#E9A34F" d="M0.2,22.3c0,0,2.8,3.9,2.9,7S1.8,40.7,0.9,42.3s4.6,0,8-4.9s14.4,2.2,14.4,2.2s-1.3,2.9-2.2,3.2
	c-0.9,0.3,3.2,0.5,5-0.2c1.8-0.7,2.4-1.4,2.4-1.4s0.9,0.2,3.3,0.6s3,0.3,3,0.3s-0.3,4.1-1,4.9C33,47.9,33,47.9,33,47.9
	s6.2-0.8,8.5-2.8c2.3-2,3-3,3-3s14.1-3.4,17.5-7c3.4-3.5,2.6-3.5-2.4-7.4s-14.9-5.2-14.9-5.2s-2.2-4.4-7.2-5.7s-4.4-0.5-4.4-0.5
	s1.3,1.7,1.5,3.2c0.2,1.5,0.2,2.2,0.2,2.2s-4.6,0.9-5.3,1.2c-0.7,0.3-2.8-1.6-4.7-1.8c-2-0.2-3.9-0.2-3.9-0.2s1.7,1.8,2,3
	c0.3,1.2,0.3,1.3,0.3,1.3s-4.8,3.5-8.6,3.5S2.6,18.5,0.2,22.3z"/>
<path fill="#C17922" d="M55.4,28.7c0.6,0,1.1,0.5,1.1,1.1c0,0.6-0.5,1.1-1.1,1.1c-0.6,0-1.1-0.5-1.1-1.1
	C54.3,29.2,54.8,28.7,55.4,28.7z"/>
<g>
	<g>
		<path fill="#FFC78A" d="M13.1,28.5c-0.6-0.2-4-2.8-8.4-5.8S0,22.1,0,22.1s2.9,4.9,3,8.5c0.1,3.6-2,11.7-2,11.7S0.2,43.2,2.2,43
			c2-0.2,5.6-3.7,7.1-5.7s4.3-1.5,4.3-1.5l-5-3.9l5.4-3.1C14.1,28.8,13.7,28.7,13.1,28.5z M34.3,22c0,0,3.2-0.4,6.8,0.2
			s3.6,0.6,3.6,0.6s-2.6-5.3-8.6-6.2s-3.7-0.4-3.7-0.4S34.5,16.5,34.3,22z M33.9,42c1.8,3.5-1.2,5.9-1.2,5.9s1.6,0.5,6.3-1.3
			c4.7-1.8,5.7-4.6,5.7-4.6s-1,0.2-5.1,0.3S33.9,42,33.9,42z"/>
	</g>
</g>
</svg>
