<?xml version="1.0" encoding="utf-8"?>
<!-- Generator: Adobe Illustrator 18.1.1, SVG Export Plug-In . SVG Version: 6.00 Build 0)  -->
<svg version="1.1" id="Layer_1" xmlns="http://www.w3.org/2000/svg" xmlns:xlink="http://www.w3.org/1999/xlink" x="0px" y="0px"
	 viewBox="0 0 64 64" enable-background="new 0 0 64 64" xml:space="preserve">
<path fill="#D5C3B2" d="M52.2,43l1,16.3c0,0,0.6-0.5,2.2,0.3c1.7,0.8,2.4,1.9-0.2,3.1s-5.7-0.5-5.7-0.5l-0.1-19.5L52.2,43z"/>
<path fill="#DBCCBD" d="M38.7,59.7c0,0,7-0.4,7.6,0.8c0.6,1.2,0.7,1.7-0.3,1.8c-1,0.1-9-0.4-9-0.4l0.1-2.2L38.7,59.7z"/>
<path fill="#EEE1D6" d="M17.3,57c0,0-4-19.5,4.2-25.5s15.4-6.1,17-9c1.6-2.9,2.8-4,2.1-6.2c-0.7-2.2,0.9-6.2,4.8-7.9S49.3,7,49.3,7
	s2.1-6.6,4.2-6.7c2.1-0.1-0.3,5.2,0.7,6.2s6.1,1.4,7.5,4.2c1.4,2.8,2.2,2.8,2.2,2.8s0.4,3.3-1.6,4.4c-2.1,1.1-4.8,2.3-4.8,2.3
	s4.3,10.6,0.6,15.6s-8.1,7-6.4,14.1c1.6,7.1,0.5,9.5,2.7,10.7s2.2,1.2,1.5,2.2s-6.4,2-9.1-2.4s-2.5-4.1-2.5-4.1s-2.3,3.7-5.5,4.3
	c-3.2,0.6,6-0.8,7.3,1s-0.1,1.8-1.8,2.2C42.6,64,33.1,64.1,27.5,64c-5.7-0.1-10.2-2.6-15-5.5C7.7,55.6-1,48,0.1,41.3
	s0.8-4.3,2.1-8.3s4.2-3.3,3.3,1.2S4,44.7,5.3,46.5C6.7,48.3,12.7,57.3,17.3,57z"/>
<g>
	<g>
		<path fill="#DBCCBD" d="M37,28.2c-3.7-0.5-4-1.6-8.4-0.4c-4.3,1.2-7.9,4.4-7.9,4.4c-4.4,4-4.8,10.7-2.8,17.5
			c1.9,6.8,11.7,4.6,13.3-0.1s11.4-6.8,7.6-10.8C35.1,34.9,40.7,28.6,37,28.2z M54.4,6.7c-1.7-1,1.1-6.3-0.7-6.7
			c-1.9-0.4-4,5.7-4.3,7.2s-1.6,0.6-1.6,0.6c-2.2-0.2-1.6,3,0.3,4.8s8,0.1,8.1-1.9C56.1,8.6,56.1,7.7,54.4,6.7z"/>
	</g>
</g>
</svg>
