<?xml version="1.0" encoding="utf-8"?>
<!-- Generator: Adobe Illustrator 18.1.1, SVG Export Plug-In . SVG Version: 6.00 Build 0)  -->
<svg version="1.1" id="Layer_1" xmlns="http://www.w3.org/2000/svg" xmlns:xlink="http://www.w3.org/1999/xlink" x="0px" y="0px"
	 viewBox="0 0 960 960" enable-background="new 0 0 960 960" xml:space="preserve">
<path fill-rule="evenodd" clip-rule="evenodd" fill="#D5C3B2" d="M710.4,640.3L721.6,878c0,0,6.9-7.1,26.3,4.8
	c19.4,11.9,27.6,27.5-2.7,45.5c-30.3,18-66.6-7.6-66.6-7.6l-1.5-285L710.4,640.3z"/>
<path fill-rule="evenodd" clip-rule="evenodd" fill="#DBCCBD" d="M552.1,883.2c0,0,82.2-5.2,89.2,12.2c7,17.5,7.9,24.5-3.5,26.2
	s-104.9-5.2-104.9-5.2l1.7-31.5L552.1,883.2z"/>
<path fill-rule="evenodd" clip-rule="evenodd" fill="#EEE1D6" d="M302.1,844.7c0,0-47.2-285,49-372.4s180.1-89.2,199.3-131.1
	c19.2-42,32.3-58.6,24.5-90.9c-7.9-32.3,10.5-90.9,56-115.4c45.5-24.5,45.5-21,45.5-21s24.5-96.2,49-97.9
	c24.5-1.7-3.5,75.2,8.7,90.9s70.8,21,87.4,61.2c16.6,40.2,26.2,40.2,26.2,40.2s5.2,48.1-19.2,64.7c-24.5,16.6-56,33.2-56,33.2
	s49.8,154.7,7,227.3S685,635.8,704.3,739.8c19.2,104,6.1,138.1,31.5,155.6c25.4,17.5,26.2,17.5,17.5,31.5
	c-8.7,14-75.2,29.7-106.7-35c-31.5-64.7-29.7-59.5-29.7-59.5s-27.1,54.2-64.7,62.9c-37.6,8.7,69.9-11.4,85.7,14s-1.7,26.2-21,31.5
	s-129.4,7-195.8,5.2c-66.4-1.7-118.9-38.5-174.9-80.4c-56-42-158.2-152.1-145.1-250s9.6-62.1,24.5-120.7s49-48.1,38.5,17.5
	c-10.5,65.6-17.5,152.1-1.7,178.4C177.9,717.1,247.9,848.2,302.1,844.7z"/>
<g>
	<g>
		<path fill-rule="evenodd" clip-rule="evenodd" fill="#DBCCBD" d="M532.9,423.3c-42.8-7-47.2-22.7-97.9-5.2
			c-50.7,17.5-92.7,64.7-92.7,64.7c-51.6,58.6-56,155.6-33.2,255.3c22.7,99.7,137.3,67.3,155.6-1.7s132.9-99.7,89.2-157.4
			C510.2,521.3,575.7,430.3,532.9,423.3z M735.7,110.3c-20.1-14,13.1-92.7-8.7-97.9c-21.9-5.2-46.3,83.9-50.7,104.9
			c-4.4,21-19.2,8.7-19.2,8.7c-25.4-3.5-18.4,43.7,3.5,69.9c21.9,26.2,93.5,1.7,94.4-28C755.8,138.3,755.8,124.3,735.7,110.3z"/>
	</g>
</g>
</svg>
