<?xml version="1.0" encoding="utf-8"?>
<!-- Generator: Adobe Illustrator 18.1.1, SVG Export Plug-In . SVG Version: 6.00 Build 0)  -->
<svg version="1.1" id="Layer_1" xmlns="http://www.w3.org/2000/svg" xmlns:xlink="http://www.w3.org/1999/xlink" x="0px" y="0px"
	 viewBox="0 0 960 960" enable-background="new 0 0 960 960" xml:space="preserve">
<g>
	<g>
		<path fill-rule="evenodd" clip-rule="evenodd" fill="#5E793B" d="M356.2,333.1c3.6,1.8,20,2.7,20,2.7l-37.6-12.2
			c0.1,0.1,0.1,0.1,0.2,0.2C342.9,326.9,352.7,331.4,356.2,333.1z M382.9,303.8c-7.1-3.1-6.2-11.6-13.3-32
			c-7.1-20.4-46.7,46.7-46.7,46.7l15.8,5.1c-3.4-3.3,3.8-11.4,4.2-13.1c0.4-1.8,9.3-10.7,9.3-10.7l8,13.3l10.7,1.3
			c0,0-5.8-1.3-10.7-9.3c-4.9-8,2.2-8,8-10.7c5.8-2.7,13.3,13.3,13.3,13.3S390,306.9,382.9,303.8z M885.7,358.5
			c-24,33.3-14,38-4,29.3c10-8.7,40.9-79.1,28-117.3s-16-34.7-16-34.7l-1.3,21.3c0,0,15.3,16,14.7,26.7
			C906.3,294.5,909.7,325.1,885.7,358.5z M873.7,255.8l5.3-5.3l-37.3-18.7l-1.3,4c0,0,7.3,12,12,17.3c4.7,5.3-1.3,18.7-4,22.7
			c-2.7,4-14.7,29.3-14.7,29.3s-7.3,44.7-25.3,56c-18,11.3-38.7,16-38.7,16s-17.3-6-45.3-18.7c-28-12.7-26.7-1.3-26.7-1.3l62.7,32
			l32,9.3c0,0,1.3-19.3,5.3-17.3c4,2,6.7,18.7,6.7,18.7s0.4-25.3,13.3-36c12.9-10.7,13.3-28.9,14.7-32c1.3-3.1,3.1-18.2,20-45.3
			C869.2,259.4,873.7,255.8,873.7,255.8z M919,283.8c1.3,22.7,2.2,76.4-17.3,114.7c-19.6,38.2-34.7,49.8-33.3,61.3
			c1.3,11.6,4.4,31.1,26.7-22.7c22.2-53.8,31.1-83.6,32-153.3c0.3-25.3,0.9-38.4,1.6-44.8l-16.3,12.8
			C912.3,251.8,917.7,261.1,919,283.8z M928.6,239l2.4-1.9C931,237.1,929.7,227.8,928.6,239z M731,494.5c-0.4-27.6-6.2-36,4-40
			c10.2-4-20-17.3-20-17.3s-18.2-6.7-10.7,13.3s8.9,37.8-1.3,53.3c-10.2,15.6-12-53.8-2.7-58.7c9.3-4.9-25.3-12-25.3-12
			s6.7,2.2,6.7,16c0,13.8,0,21.8,2.7,21.3c2.7-0.4-6.7,18.7-6.7,18.7s0.4,6.2-8,1.3c-8.4-4.9-10.7-4-10.7-4s-19.6-7.6-12-21.3
			c7.6-13.8,14.7-20,14.7-20l5.3-5.3l-20-4c0,0,6.7,3.1,0,16c-6.7,12.9-7.6,12.4-2.7,34.7c4.9,22.2,35.6,48.4,36,45.3
			c0.4-3.1,48-1.3,48-1.3l22.7-8C751,522.5,731.4,522,731,494.5z"/>
	</g>
</g>
<path fill-rule="evenodd" clip-rule="evenodd" fill="#768F55" d="M-110.5,1169.2c0,0,109.3-216,141.4-326.7
	c32-110.7,64-210.7,64-224c0-13.3,4-29.3,5.3-40c1.3-10.7,1.3-20-6.7-16c-8,4-2.7-20-13.3-20s13.3,2.7,24-6.7
	c10.7-9.3,52-77.3,72-96c20-18.7,20-18.7,20-18.7s16-17.3,1.3-16c-14.7,1.3-24,0-24,0s24-2.7,30.7-10.7c6.7-8-5.3-22.7-5.3-22.7
	s-4,4,9.3-6.7c13.3-10.7,26.7-13.3,26.7-13.3l-1.3-10.7l-8-1.3c0,0,2.2-9,3.4-13.5c0.4-1.5,0.6-2.5,0.6-2.5l9.3,1.3l6.7,2.7v9.3
	l9.3-2.7v-14.7l-2.7-9.3c2.7-8,5.3-13.3,5.3-13.3l1.3,9.3c0,0,1.7,2.3,2.9,3.8c0.6,0.8,1.1,1.5,1.1,1.5l5.3-10.7l-2.7-10.7l-1.3-8
	l9.3,9.3l2.7,10.7l4,6.7c0,0,1.3-5.3,6.7-10.7c5.3-5.3,33.3-61.3,42.7-60c9.3,1.3-14.7,20,16,10.7c30.7-9.3,69.3-52,46.7-16
	c-22.7,36-8,24,9.3,10.7c17.3-13.3,17.3-8-26.7,30.7c-44,38.7-26.7,52-20,45.3c6.7-6.7,46.7-26.7,77.3-54.7c30.7-28,62.7-26.7,72-48
	c9.3-21.3,2.7-17.3,25.3-33.3c22.7-16,46.7-73.3,46.7-73.3s-9.3-52,104-84S779-4.2,827,13.1c48,17.3,68,17.3,68,17.3
	s16,10.7,30.7,17.3c14.7,6.7,10.7,17.3-10.7,16c-21.3-1.3,2.7,16-28,25.3c-30.7,9.3-38.7,2.7-61.3,6.7C803,99.8,795,81.1,795,81.1
	s-21.3,29.3-81.3,34.7c-60,5.3-33.3,9.3-33.3,9.3s-4,22.7,13.3,20c17.3-2.7,80-22.7,133.4-2.7c53.3,20,40,16,72,32
	c32,16,37.3,36,49.3,42.7s22.7,40-10.7,38.7c-33.3-1.3-41.3,9.3-74.7-5.3c-33.3-14.7-18.7-6.7-49.3-14.7c-30.7-8-73.3-6.7-49.3,0
	c24,6.7,53.3,18.7,56,25.3c2.7,6.7-6.7,57.3-70.7,54.7c-64-2.7-48-1.3-61.3,9.3C675,335.8,671,339.8,671,339.8s0,0,66.7,29.3
	c66.7,29.3,74.7,24,90.7,34.7c16,10.7,30.7,22.7,22.7,33.3s-29.3,21.3-42.7,29.3c-13.3,8-25.3,0-89.3-13.3
	c-64-13.3-86.7-9.3-86.7-9.3l2.7,18.7c0,0,0,24,64,45.3c64,21.3,40,2.7,92,28c52,25.3,58.7,40,69.3,56s13.3,58.7-14.7,58.7
	c-28,0-105.3-25.3-152-37.3c-46.7-12-68-28-105.3-29.3c-37.3-1.3-49.3,9.3-49.3,9.3l1.3-9.3h-12l-4,5.3c-1.3-6.7-4-6.7-4-6.7
	l-18.7-9.3v8l1.3,9.3c0,0,4,1.3-6.7,2.7c-3.8,0.5-17.5-1.7-12.2,1c5.3,2.7-13.2,0.4-13.2,0.4s-20-1.3-10.7,0
	c9.3,1.3,37.3,10.7,37.3,10.7l-10.7,5.3c0,0-9.7-2.2-4.4-0.9s-9-1.8-9-1.8s22.7,12,13.3,12c-9.3,0,2.7,4-14.7-1.3
	c-17.3-5.3-42.7-9.3-32-9.3s12,0,12,0s18.7-5.3-6.7-6.7s-41.3-4-41.3-4s-4-5.3-17.3,1.3c-13.3,6.7-29.3,13.3-29.3,13.3
	s-30.7-12-38.7,21.3c-8,33.3-10.7,41.3-4,41.3c1.3,0,24.9,0.4,28-1.3c-9.3,5.3-32,14.7-32,14.7s-14.7,0,1.3,8c16,8,32,4,16,10.7
	c-16,6.7-20,2.7-20,8c0,5.3-9.3,6.7,4,16c13.3,9.3,25.3,5.3,13.3,9.3c-12,4-17.3-9.3-17.3,6.7c0,16-16,28-16,28
	c6.7,8,13.3,13.3,13.3,13.3l-16,5.3l-6.7,1.3c0,0-9.3,2.7-6.7,12c2.7,9.3,4,8,5.3,13.3c1.3,5.3,5.3,6.7,5.3,6.7s2.7,1.3-4,4
	c-6.7,2.7-9.3,5.3-10.7-1.3s-5.3-14.7,0-5.3c5.3,9.3,6.7,8,8,18.7c1.3,10.7-1.3,13.3,1.3,24c2.7,10.7,5.3,18.7,5.3,18.7s-5.3,0-8-8
	c-1.7-5.1-2.8-27.6-1.4-13c1.3,14.7-1.4-4.6-3.9-7c-13.7-13.7-12-17.4-8.5-2.9c3.4,14.3,9.4,39.1,6.4,26.4c-4-17.3,2.1,8.5,2.1,8.5
	c-2.6-3.8-38.3-54.7-17.6-8.1c2.2,5,9.6,21.5,4.3,10.8c-5.3-10.7-10.7-53.3-14.7-37.3c-4,16-8,28-8,28s-5.3,13.3-6.7,21.3
	c-1.3,8-2.7,0-1.3,22.7c1.3,22.7-4,42.7-4,49.3c0,6.7,12-8,6.7,16c-5.3,24-21.3-25.3-10.7,54.7c10.7,80,32,148,32,148
	s62.7,194.7,68,194.7c5.3,0-508.1-77.3-508.1-77.3L-110.5,1169.2z"/>
<g>
	<g>
		<path fill-rule="evenodd" clip-rule="evenodd" fill="#5E793B" d="M452,496.4c-22.1,0-40,8.9-40,20s17.9,20,40,20s40-8.9,40-20
			S474,496.4,452,496.4z M542.4,289.2l-13.7,2.1c0,0-3.4,4.5-14.7,10.5c-11.3,6-9.2,8.2-23.1,22.1c-14,13.9-16,9.8-24.2,12.6
			c-8.2,2.8-24.9,6.6-38.9,14.7s-12.6,28.4-12.6,28.4s3-3.4,7.4-11.6c4.4-8.2,24-1.3,31.6-7.4s6.6-1.8,18.9-12.6s12.9-6.5,22.1-11.6
			c9.2-5,15.8-12.6,15.8-12.6l8.4-10.5c0,0,10.8-6.5,18.9-8.4C546.3,303.1,542.4,289.2,542.4,289.2z"/>
	</g>
</g>
</svg>
