<?xml version="1.0" encoding="utf-8"?>
<!-- Generator: Adobe Illustrator 18.1.1, SVG Export Plug-In . SVG Version: 6.00 Build 0)  -->
<svg version="1.1" id="Layer_1" xmlns="http://www.w3.org/2000/svg" xmlns:xlink="http://www.w3.org/1999/xlink" x="0px" y="0px"
	 viewBox="0 0 64 64" enable-background="new 0 0 64 64" xml:space="preserve">
<g>
	<g>
		<path fill="#A67C52" d="M15.2,48.3c-0.9,1.7-4.6,5.1-4,8.1c0.6,3,3.1,6.9,3.1,6.9s3.1,1.2,3.7-0.1c0.7-1.3-0.2-1.9-2.6-3.1
			c-2.2-1.1-0.9-2.8,3.4-9c4.5-6.5,4.5-11.2,4.5-11.2l-7-3.6C16.3,36.2,16,46.6,15.2,48.3z M5,25.3c-2.6-0.3-3.2-1.3-2.6-4.5
			c0.5-3.2,0.8-4.4,0.8-4.4S3,16.5,0.9,19.4s-0.5,7.8,2.8,7.3c3.2-0.5,4.1,3.9,4.1,3.9l0.9,0.8L9.3,30C9.3,29.9,7.6,25.6,5,25.3z
			 M41.1,59.8c-1.6-1.3-1.5-2.2-0.6-10c0.9-7.8,2.3-11.2,2.3-11.2l-4.5,3.8c0,0-0.7,13.4-0.8,15.8c-0.1,2.4,2,5.1,2,5.1
			s0.9,0.4,2.8-0.4C44.4,62,42.7,61,41.1,59.8z M48.5,5.1c-1.8-0.8-2-4.7-2-4.7l-3,5.5l6.7,0.3C50.2,6.2,50.3,5.9,48.5,5.1z
			 M61.1,11c0,0,0.5,2.4,1.3,3.2c0.8,0.9,1.2,0.5,1.5-1.3C64.3,11,61.1,11,61.1,11z"/>
	</g>
</g>
<g>
	<g>
		<path fill="#C29D78" d="M59.9,10.9c-2.6,0-5.4-1.1-6.7-2C51.9,8,51,4.9,51,4.9s-1.4,0-3.8,0c-0.2-0.1-0.3-0.2-0.5-0.2
			c-1.8-0.8-2-4.7-2-4.7l-3,5.5h0c-2.5,1.2-2.4,4.6-2.5,8.5c-0.1,4.6-1.7,12.3-3.6,13.1c-2,0.8-18.3-0.2-23.9,0.9
			c-5.6,1.1-5.2,9.2-5.2,9.2s3.5,8,0.1,14.1s-3,4.4-1.3,8.5s2.6,3.8,2.6,3.8h3.2c0.9-1,1.2-2.4-0.5-2.6c-1.7-0.3-2.2-2.3-2.2-2.3
			s-1.9-1,3.6-5.9s6.8-12.2,6.8-12.2s2.3,1.8,6.9,3.9c4.1,2,6.7-0.4,7.1-0.9c-0.4-0.4,0.1-0.1,0.1-0.1s0,0-0.1,0.1
			c0.1,0.1,0.2,0.2,0.4,0.4c1,1-1.5,5.5-1.8,11.8s2.3,8,4.6,8.2c2.3,0.2,2.6-2,2.6-2s-2.3-2.3-3.8-4.4c-1.4-2.1,0.7-9.2,6.2-14.6
			s5.5-12.4,5.2-17c-0.3-4.6,7.2-3.5,7.2-3.5s4.1,2.1,8.1-3.9C65.4,12.7,62.4,10.9,59.9,10.9z"/>
	</g>
</g>
</svg>
