<?xml version="1.0" encoding="utf-8"?>
<!-- Generator: Adobe Illustrator 18.1.1, SVG Export Plug-In . SVG Version: 6.00 Build 0)  -->
<svg version="1.1" id="Layer_1" xmlns="http://www.w3.org/2000/svg" xmlns:xlink="http://www.w3.org/1999/xlink" x="0px" y="0px"
	 viewBox="0 0 960 960" enable-background="new 0 0 960 960" xml:space="preserve">
<path fill-rule="evenodd" clip-rule="evenodd" fill="#BFB1A0" d="M414.2,785.5c0,0-10,40,16.9,118.2c26.8,78.2,32.5,101.4,50.6,97.3
	c18.1-4.1-7.5-48.7-18.7-86.9c-11.2-38.2-30.6-111.8-20.6-130.4C452.3,765.2,414.2,785.5,414.2,785.5z"/>
<path fill-rule="evenodd" clip-rule="evenodd" fill="#DACDBD" d="M401.1,801.1c0,0-10,40,16.9,118.2c26.8,78.2,32.5,101.4,50.6,97.3
	c18.1-4.1-7.5-48.7-18.7-86.9c-11.2-38.2-30.6-111.8-20.6-130.4C439.2,780.8,401.1,801.1,401.1,801.1z"/>
<path fill="#C69C6D" d="M910.5,90.2l-127.3,22.6V67.6L910.5,90.2z"/>
<path fill-rule="evenodd" clip-rule="evenodd" fill="#F26C4F" d="M740.1,48.5c0,0-25-41.1-11.2-43.5c13.7-2.3,55.6-16.8,86.1,17.4
	c30.6,34.2,30,40,22.5,64.3c-7.5,24.3-21.2,26.7-18.7,43.5c2.5,16.8,3.7,44.6-26.2,41.7c-30-2.9-38.7-11.6-35.6-26.1
	C760.1,131.3,740.1,48.5,740.1,48.5z"/>
<path fill-rule="evenodd" clip-rule="evenodd" fill="#FFC683" d="M140.8,187.5c0,0,15-3.5-11.2,60.8
	c-26.2,64.3-177.9,246.8,20.6,422.4s176,222.5,357.7,189.5c181.6-33,295.9-163.4,314.6-328.5c18.7-165.1-34.3-299.5-52.4-326.8
	c-18.1-27.2-30.9-84.7-7.5-85.2c23.4-0.4,37.5-13.9,37.5-13.9s10.3-49.5-18.7-59.1c-29-9.6-91.8,2.6-116.1,46.9
	C640.8,138,565,367.4,434.8,364.8c-130.1-2.6-234.1-74.7-254.7-123.4C159.6,192.7,140.8,187.5,140.8,187.5z"/>
<path fill-rule="evenodd" clip-rule="evenodd" fill="#F26C4F" d="M798.1,78c13.4,0,24.3,10.1,24.3,22.6s-10.9,22.6-24.3,22.6
	c-13.4,0-24.3-10.1-24.3-22.6S784.7,78,798.1,78z"/>
<path fill-rule="evenodd" clip-rule="evenodd" fill="#E89F5D" d="M545.3,309.2c0,0,183.5,37.4,76.8,175.6
	c-106.7,138.2-254.7,210.3-365.2,99.1C146.5,472.6,106.2,423.9,210.1,450c103.9,26.1-43.1-58.2-52.4-69.5
	c-9.4-11.3,118,27.8,172.3,27.8c54.3,0-136.7-83.4-136.7-83.4s-14-47.8,84.3,1.7C375.9,376.1,470.4,363.1,545.3,309.2z"/>
<path fill-rule="evenodd" clip-rule="evenodd" d="M757.9,64.1c3.6,0,6.6,2.7,6.6,6.1c0,3.4-2.9,6.1-6.6,6.1c-3.6,0-6.6-2.7-6.6-6.1
	C751.3,66.8,754.2,64.1,757.9,64.1z"/>
</svg>
