<?xml version="1.0" encoding="utf-8"?>
<!-- Generator: Adobe Illustrator 18.1.1, SVG Export Plug-In . SVG Version: 6.00 Build 0)  -->
<svg version="1.1" id="Layer_1" xmlns="http://www.w3.org/2000/svg" xmlns:xlink="http://www.w3.org/1999/xlink" x="0px" y="0px"
	 viewBox="0 0 64 64" enable-background="new 0 0 64 64" xml:space="preserve">
<path fill="#D13852" d="M64,17.6c-0.2-3.8-1.1-6.9-3.8-10.1C54.8,1,42.4-0.1,36.9,6.1c-1,0.9-1.9,2-2.8,3.3l-2.1,3l-2.1-3
	C29,8.1,28.1,7,27.1,6.1C21.6-0.1,9.2,1,3.8,7.4C1.1,10.6,0.3,13.7,0,17.6C-0.3,29,8,38.1,9,39.4C14.7,46,20.9,52.2,27.2,58
	c1.1,1,2.1,1.8,3.1,2.6c0.6,0.5,1.2,1,1.8,1.4c0.6-0.5,1.2-1,1.8-1.4c1-0.8,2-1.6,3.1-2.6c6.3-5.7,12.5-12,18.1-18.5
	C56,38.1,64.4,29,64,17.6"/>
<path fill="#F1A5B1" d="M60.5,15.5c0-1-0.2-2-0.5-2.9c-0.3-0.9-0.7-1.7-1.2-2.4c-3-4.3-9.5-5.9-14.9-4.8c-2.1,0.5-4.2,1.3-5.2,3.3
	c-0.3,0.9,0.4,1.3,1.4,1.2c3.9-0.4,8.2,0,11.7,1.6c0.9,0.4,1.7,0.9,2.4,1.5c2.5,1.9,3.6,4.9,4,7.8c1.2-0.2,1.9-1.7,2-3
	C60.5,17.1,60.6,16.3,60.5,15.5"/>
</svg>
