<?xml version="1.0" encoding="utf-8"?>
<!-- Generator: Adobe Illustrator 18.1.1, SVG Export Plug-In . SVG Version: 6.00 Build 0)  -->
<svg version="1.1" id="Layer_1" xmlns="http://www.w3.org/2000/svg" xmlns:xlink="http://www.w3.org/1999/xlink" x="0px" y="0px"
	 viewBox="0 0 64 64" enable-background="new 0 0 64 64" xml:space="preserve">
<g>
	<g>
		<polygon fill-rule="evenodd" clip-rule="evenodd" fill="#DCD5C6" points="216.5,78.9 216.5,850.9 275.1,850.9 275.1,137.6 
			693.9,137.6 693.9,272.9 686.5,272.9 686.5,329.9 693.9,329.9 693.9,649.9 684.5,649.9 684.5,706.9 693.9,706.9 693.9,850.9 
			752.5,850.9 752.5,78.9 		"/>
	</g>
</g>
<path fill-rule="evenodd" clip-rule="evenodd" fill="#DDCBAB" d="M311.8,19.9l358.9,133.6c1.6,0.6,2.7,2.2,2.7,4l0.1,689.4
	c0,2-1.3,3.7-3.1,4.1l-358.9,89.2c-2.5,0.6-5-1.4-5-4.1l-0.1-912.2C306.4,20.9,309.2,18.9,311.8,19.9z"/>
</svg>
