<?xml version="1.0" encoding="utf-8"?>
<!-- Generator: Adobe Illustrator 18.1.1, SVG Export Plug-In . SVG Version: 6.00 Build 0)  -->
<svg version="1.1" id="Layer_1" xmlns="http://www.w3.org/2000/svg" xmlns:xlink="http://www.w3.org/1999/xlink" x="0px" y="0px"
	 viewBox="0 0 64 64" enable-background="new 0 0 64 64" xml:space="preserve">
<g>
	<g>
		<path fill="#FFFFFF" d="M0,48h35.7V16H0V48z M38.5,16v32H64V16H38.5z"/>
	</g>
</g>
<g>
	<g>
		<path fill="#424242" d="M8.6,27.5L4.2,40.2h1.3l1.4-4h4.4l1.4,4H14L9.6,27.5L8.6,27.5L8.6,27.5z M7.3,34.9L8.6,31
			c0.2-0.7,0.4-1.3,0.5-1.8c0.2,0.7,0.4,1.3,0.5,1.8l1.3,3.9H7.3z M16.5,27.6h-1.3v12.6h6.2v-1.3h-4.9V27.6z M21.6,28.9h3.5v11.3
			h1.3V28.9h3.5v-1.3h-8.3V28.9z M43.5,40.2h1.3v-5.4h4.6v-1.3h-4.6v-4.6h4.9v-1.3h-6.2V40.2z M56.6,36v-8.5h-1.3L50,36v1.2h5.4v2.9
			h1.2v-2.9h1.6V36H56.6z M55.4,31.8V36h-4.1l3.5-5.6c0.2-0.4,0.4-0.8,0.7-1.4h0.1C55.5,30.1,55.4,31,55.4,31.8z"/>
	</g>
</g>
</svg>
