<?xml version="1.0" encoding="utf-8"?>
<!-- Generator: Adobe Illustrator 18.1.1, SVG Export Plug-In . SVG Version: 6.00 Build 0)  -->
<svg version="1.1" id="Layer_1" xmlns="http://www.w3.org/2000/svg" xmlns:xlink="http://www.w3.org/1999/xlink" x="0px" y="0px"
	 viewBox="0 0 960 960" enable-background="new 0 0 960 960" xml:space="preserve">
<g>
	<g>
		<path fill-rule="evenodd" clip-rule="evenodd" fill="#FFFFFF" d="M12.5,711.5h528v-418h-528V711.5z M581.5,293.5v418h378v-418
			H581.5z"/>
	</g>
</g>
<g>
	<g>
		<path fill="#424242" d="M139.2,444.3L74.3,609.2h19.3l20.2-52.2h65.8l20.4,52.2h19.8l-64.6-164.9H139.2z M120.5,539.8l19.3-50.9
			c3.1-8.6,5.4-16.5,7.1-23.7c2.6,9.4,5.2,17.3,7.6,23.7l19.1,50.9H120.5z M256.9,445h-19.1v164.2h91.5v-17.3h-72.4V445z M332,462
			h52v147.2h19.1V462h52v-17H332V462z M656.5,609.2h19.1V539h68.1v-17h-68.1V462H748v-17h-91.5V609.2z M850.6,554.5V444.1h-19.8
			l-77.9,111.1v16.3h79.8v37.7h17.9v-37.7h24.4v-17H850.6z M832.7,499.9v54.6h-61.2l51.3-73c3.1-4.7,6.5-10.7,10.1-17.9h0.9
			C833.1,477.1,832.7,489.2,832.7,499.9z"/>
	</g>
</g>
</svg>
