<?xml version="1.0" encoding="utf-8"?>
<!-- Generator: Adobe Illustrator 18.1.1, SVG Export Plug-In . SVG Version: 6.00 Build 0)  -->
<svg version="1.1" id="Layer_1" xmlns="http://www.w3.org/2000/svg" xmlns:xlink="http://www.w3.org/1999/xlink" x="0px" y="0px"
	 viewBox="0 0 64 64" enable-background="new 0 0 64 64" xml:space="preserve">
<path fill="#0071BC" d="M62.3,32.8l-13.8-0.4l-7.2,1.5c0,0-1.9,0.2-6.4,0.2c-4.5-0.1-3.4-0.4-3.4-0.4l9.3-1.8c0,0,2.1-0.4,8.2-0.2
	c6.1,0.2,15,0.5,15,0.5L62.3,32.8z"/>
<path fill="#0071BC" d="M0,30.4l3.7-0.1l-0.4-0.1l0.6-0.1l0.8,0l-1-0.2l6.8,0.3l1.9,0.3l22.1,0.9l1.2-0.2l5.7,0.5L32,31.7l1.4-0.1
	l-21.7-0.9l-4.9,0L0,30.4z"/>
</svg>
