<?xml version="1.0" encoding="utf-8"?>
<!-- Generator: Adobe Illustrator 18.1.1, SVG Export Plug-In . SVG Version: 6.00 Build 0)  -->
<svg version="1.1" id="Layer_1" xmlns="http://www.w3.org/2000/svg" xmlns:xlink="http://www.w3.org/1999/xlink" x="0px" y="0px"
	 viewBox="96 96 64 64" enable-background="new 96 96 64 64" xml:space="preserve">
<path fill="#0071BC" d="M158.3,140.2l-13.8-6.1l-7.2,22.9c0,0-1.9,3-6.4,3c-4.5-1.5-3.4-6.1-3.4-6.1l9.3-27.4c0,0,2.1-6.1,8.2-3
	c6.1,3,15,7.6,15,7.6L158.3,140.2z"/>
<path fill="#0071BC" d="M96,103.5l3.7-1.5l-0.4-1.5l0.6-1.5h0.8l-1-3l6.8,4.6l1.9,4.6l22.1,13.7l1.2-3l5.7,7.6H128l1.4-1.5
	l-21.7-13.7h-4.9L96,103.5z"/>
</svg>
