<?xml version="1.0" encoding="utf-8"?>
<!-- Generator: Adobe Illustrator 18.1.1, SVG Export Plug-In . SVG Version: 6.00 Build 0)  -->
<svg version="1.1" id="Layer_1" xmlns="http://www.w3.org/2000/svg" xmlns:xlink="http://www.w3.org/1999/xlink" x="0px" y="0px"
	 viewBox="0 0 64 64" enable-background="new 0 0 64 64" xml:space="preserve">
<path fill-rule="evenodd" clip-rule="evenodd" fill="#0071BC" d="M974.9,659.7l-211-101.4L654.8,896.9c0,0-28.9,53.7-97.8,38.3
	c-68.9-15.4-52.6-101.5-52.6-101.5l141.9-409.5c0,0,32.6-91.4,125.8-42.3c93.2,49.1,229.4,116.3,229.4,116.3L974.9,659.7z"/>
<path fill-rule="evenodd" clip-rule="evenodd" fill="#0071BC" d="M25.1,111.8l56-11.8l-6.6-12.7l9.9-16.1l11.9,0.4L81.6,16.4
	l103.2,67l28.5,67.1L551,359l18-35.9l86.9,114.4L514,409.4l22.1-26.3L205.8,171.1l-74.5,5.1L25.1,111.8z"/>
</svg>
