<?xml version="1.0" encoding="utf-8"?>
<!-- Generator: Adobe Illustrator 18.1.1, SVG Export Plug-In . SVG Version: 6.00 Build 0)  -->
<svg version="1.1" id="Layer_1" xmlns="http://www.w3.org/2000/svg" xmlns:xlink="http://www.w3.org/1999/xlink" x="0px" y="0px"
	 viewBox="0 0 64 64" enable-background="new 0 0 64 64" xml:space="preserve">
<path fill="#E1E1E1" d="M7.2,19.1h49.3c0.9,0,1.6,0.5,1.6,1.1v32.5c0,0.6-0.7,1.1-1.6,1.1H7.2c-0.9,0-1.6-0.5-1.6-1.1V20.2
	C5.6,19.6,6.3,19.1,7.2,19.1z"/>
<g>
	<g>
		<path fill="#FFFFFF" d="M63.5,56.4l-0.1-3.4l-0.2-12.3L63,31.4c0,0,1.5-3.4-11.8-5.2c-0.1,0-0.2,0-0.4,0c1.9-1.1,2.7-4.2,2.7-4.2
			s0-12.6,0-13.9S53.7,0,31.6,0S10,8,10,8s0,6.6,0,12.1s3.4,6.2,3.4,6.2l0.9,0c-0.8,0.1-1.7,0.2-2.5,0.2c-12.4,1.2-11.1,5.7-11,5.7
			c0,0-0.4-1.2-0.7,18.4c-0.3,19.7,0.1,11.9,0.1,11.9l63.4-0.6L63.5,56.4z"/>
	</g>
</g>
<path d="M13.8,9.5v6.2c0,0,2.5,7.7,19.2,7.7c16.4,0,17-7.6,17-7.6v-6c0,0,0-2.6-17.5-2.8C14.8,6.9,13.8,9.5,13.8,9.5z"/>
<g>
	<g>
		<path fill="#F8F8F8" d="M6.5,31.9c-2.9-1.2-5.3-1.2-5.3-1.2s-1.1-1.1-1.1,11.1c0,12.2,0,21.7,0,21.7l10.5-0.9l0-25.2v-1.7
			C10.6,35.7,9.4,33.1,6.5,31.9z M64,41.9c0-12.2-1.2-11.1-1.2-11.1s-2.5-0.1-5.5,1.1c-3.1,1.2-4.3,3.8-4.3,3.8v1.7L53,62.7l11,0.9
			C64,63.6,64,54.1,64,41.9z"/>
	</g>
</g>
<g>
	<g>
		<path fill="#2D2D2D" d="M6.7,30.9C4,29.3,1.4,30,1.4,30l-0.5,0.8c0,0,3.4-0.1,5.4,1.1c2,1.3,4.3,3.8,4.3,3.8l0.4-1
			C11.1,34.7,9.5,32.4,6.7,30.9z M62.7,30c0,0-2.7-0.7-5.6,0.9s-4.6,3.8-4.6,3.8l0.4,1.1c0,0,2.5-2.6,4.6-3.8
			c2.1-1.3,5.7-1.2,5.7-1.2L62.7,30z"/>
	</g>
</g>
<path fill="none" stroke="#CCCCCC" stroke-width="2" stroke-miterlimit="10" d="M20.4,37h10.7v6H20.4V37z"/>
<g>
	<g>
		<path fill="#F4784D" d="M35,37.2c-0.4,0-0.7,0.2-0.7,0.5c0,0.3,0.3,0.5,0.7,0.5s0.7-0.2,0.7-0.5C35.7,37.4,35.4,37.2,35,37.2z
			 M39.9,37.1c-0.4,0-0.7,0.2-0.7,0.5s0.3,0.5,0.7,0.5c0.4,0,0.7-0.2,0.7-0.5S40.3,37.1,39.9,37.1z M37.5,37.2
			c-0.4,0-0.7,0.2-0.7,0.5c0,0.3,0.3,0.5,0.7,0.5c0.4,0,0.7-0.2,0.7-0.5C38.2,37.4,37.9,37.2,37.5,37.2z"/>
	</g>
</g>
<path fill="#545454" d="M10.5,47H53v2.5H10.5V47z"/>
<path fill="#FFFFFF" d="M18,11.2v1c0,0,1.4-1.2,3.3-1.6c1.9-0.4,2-0.5,2-0.5l-4.6,0.3L18,11.2z"/>
<g>
	<g>
		<path fill="#FFFFFF" d="M6.5,20.2H5.3L5.2,9.2H5.1L4.9,20.2c-0.2,0-0.4,0.1-0.4,0.3v0.3c0,0.1,0.2,0.3,0.4,0.3h1.5
			c0.2,0,0.4-0.1,0.4-0.3v-0.3C6.9,20.3,6.7,20.2,6.5,20.2z"/>
	</g>
</g>
</svg>
