<?xml version="1.0" encoding="utf-8"?>
<!-- Generator: Adobe Illustrator 18.1.1, SVG Export Plug-In . SVG Version: 6.00 Build 0)  -->
<svg version="1.1" id="Layer_1" xmlns="http://www.w3.org/2000/svg" xmlns:xlink="http://www.w3.org/1999/xlink" x="0px" y="0px"
	 viewBox="0 0 960 960" enable-background="new 0 0 960 960" xml:space="preserve">
<path fill-rule="evenodd" clip-rule="evenodd" fill="#E1E1E1" d="M225.6,404.6H732c8.8,0,16,7.2,16,16v477.1c0,8.8-7.2,16-16,16
	H225.6c-8.8,0-16-7.2-16-16V420.6C209.6,411.8,216.8,404.6,225.6,404.6z"/>
<g>
	<g>
		<path fill-rule="evenodd" clip-rule="evenodd" fill="#FFFFFF" d="M804.2,951.7l-0.7-50.6L801.2,721l-1.8-137
			c0,0,15.7-50.1-121.6-75.8c-1.2-0.2-2.5-0.4-3.7-0.7c19.6-16,27.7-61,27.7-61s0-185.3,0-204.2c0-18.9,2.1-118.9-225.1-118.9
			S254.4,241,254.4,241s0,96.5,0,177.6s35,90.9,35,90.9l9.2,0.5c-8.5,1.1-17,2.3-25.5,3.5c-127.6,18-113.6,83.2-113.5,83.4
			c-0.1-0.3-4-17.8-6.9,269.6c-2.9,289.6,0.8,174.2,0.8,174.2l651.8-8.5L804.2,951.7z"/>
	</g>
</g>
<path fill-rule="evenodd" clip-rule="evenodd" d="M293.5,263.3v90.6c0,0,25.3,113.7,197.4,113.7C660,467.5,665.5,356,665.5,356
	v-88.8c0,0,0-38.3-179.4-40.6C303.3,224.3,293.5,263.3,293.5,263.3z"/>
<g>
	<g>
		<path fill-rule="evenodd" clip-rule="evenodd" fill="#F8F8F8" d="M218.3,592c-30-18.2-54.5-16.9-54.5-16.9s-11.2-16.1-11.4,163.6
			c-0.3,179.7-0.5,318.9-0.5,318.9l107.7-13.8l0.5-370.6l0-25.2C260.2,648,248.4,610.2,218.3,592z M809,739.1
			c-0.3-179.6-11.9-163.5-11.9-163.5s-25.6-1.4-57,16.8c-31.4,18.2-43.8,56-43.8,56l0,25.2l0.6,370.3l112.6,13.8
			C809.5,1057.7,809.3,918.7,809,739.1z"/>
	</g>
</g>
<g>
	<g>
		<path fill-rule="evenodd" clip-rule="evenodd" fill="#2D2D2D" d="M220.8,576.6c-28.4-22.8-54.5-12.6-54.5-12.6l-5.6,11.2
			c0,0,35.4-1.9,55.9,16.8c20.5,18.6,44.7,55.9,44.7,55.9l4.2-15.4C265.6,632.6,249.2,599.5,220.8,576.6z M796.6,563.6
			c0,0-27.5-10.3-57.4,12.7c-29.9,23-47.1,56.3-47.1,56.3l4.4,15.5c0,0,25.5-37.5,47.1-56.3c21.6-18.8,58.9-16.9,58.9-16.9
			L796.6,563.6z"/>
	</g>
</g>
<path fill-rule="evenodd" clip-rule="evenodd" fill="none" stroke="#CCCCCC" stroke-width="2" stroke-miterlimit="10" d="
	M361.8,666.5h110.5v88.1H361.8V666.5z"/>
<g>
	<g>
		<path fill-rule="evenodd" clip-rule="evenodd" fill="#F4784D" d="M511.7,670.3c-3.9,0-7,3.1-7,7s3.1,7,7,7c3.9,0,7-3.1,7-7
			S515.5,670.3,511.7,670.3z M562,668.9c-3.9,0-7,3.1-7,7s3.1,7,7,7c3.9,0,7-3.1,7-7S565.9,668.9,562,668.9z M536.8,670.3
			c-3.9,0-7,3.1-7,7s3.1,7,7,7c3.9,0,7-3.1,7-7S540.7,670.3,536.8,670.3z"/>
	</g>
</g>
<path fill-rule="evenodd" clip-rule="evenodd" fill="#545454" d="M260,814.4h436.3v36.4H260V814.4z"/>
<path fill-rule="evenodd" clip-rule="evenodd" fill="#FFFFFF" d="M336.9,288.5v15.4c0,0,14.4-17.2,33.6-23.8c19.1-6.5,21-7,21-7
	l-47.5,4.2L336.9,288.5z"/>
<g>
	<g>
		<path fill-rule="evenodd" clip-rule="evenodd" fill="#FFFFFF" d="M218.2,419.7H206L205,259.2h-1.3l-1.5,160.6
			c-2.1,0.1-3.8,1.8-3.8,4v4.8c0,2.2,1.8,4,4,4h15.8c2.2,0,4-1.8,4-4v-4.8C222.2,421.5,220.4,419.7,218.2,419.7z"/>
	</g>
</g>
</svg>
