<?xml version="1.0" encoding="utf-8"?>
<!-- Generator: Adobe Illustrator 18.1.1, SVG Export Plug-In . SVG Version: 6.00 Build 0)  -->
<svg version="1.1" id="Layer_1" xmlns="http://www.w3.org/2000/svg" xmlns:xlink="http://www.w3.org/1999/xlink" x="0px" y="0px"
	 viewBox="0 0 64 64" enable-background="new 0 0 64 64" xml:space="preserve">
<path fill="#DC6248" d="M1.4,54.5c0,0-0.4-4.4,0.8-6s11.5-6.3,11.5-6.3S27.2,35,31.2,31.7c4-3.3,16.2-12.8,16.2-12.8
	s4.7-3.8,7.2-3.1c2.5,0.7,3.6,0.9,6,4.8c2.4,3.8,4.5,5.9,2.6,7.4s-17.5,8.8-21.7,11.9c-4.3,3.1-15.7,10.9-17.9,12.9
	c-2.2,2-11.7,9.7-13.9,10.7c-2.2,1-5.3,1.2-6.8-3.2C1.5,55.9,1.4,54.5,1.4,54.5z"/>
<g>
	<g>
		<path fill="#D83628" d="M3.4,52.9c0.6-0.7,0.4-1.1,0.9-1.1c0.4,0,2,0.1,2,0.1s0.1-0.3,0.3-1.4c0.2-1.2,1.5-2,1.5-2s0,0,0.4-0.3
			c0.4-0.3,5.3-1.8,6.6-4c1.2-2.1,3.5-4.3,3.5-4.3s-3.3,1.7-4.7,2.5c-1.5,0.8-6.2,2.8-9.6,4.5c-3.4,1.8-2.4,7.3-2.4,7.3
			S2.8,53.6,3.4,52.9z M14.1,51.8c4.1-2.6,6.4-5.2,6.7-6.1c0.3-0.9,5.6-6.5,6.5-7.2c0.9-0.7,7.1-5.3,7.6-5.9c0.5-0.7,7.3-4,8.3-4.4
			c1-0.4,1.6-1.1,2.5-2.2c0.9-1.1,4.7-2.8,7-2.8c2.3,0,8.2-2.3,8.2-2.3l-1.6-2.3c0,0-3.2,1.6-4.4,2.2c-1.3,0.6-4.7-0.1-5.4,0.1
			c-0.8,0.3-0.9,0.3-1.9,0.5c-1,0.1-2.6,1.6-3.4,2c-0.8,0.4-2.3-0.1-2.3-0.1s-0.6,0-4.1,3.1C34.2,29.6,23.4,37,23.4,37
			s-0.1,0.2,0,0.5c0.1,0.3-3,3.6-3,3.6s-0.8,0.4-3.7,4.6c-3,4.2-14.6,11.3-14.6,11.3c0.1,0.5,0.8,2.4,0.8,2.4l6.2-3.7
			C9.1,55.7,10,54.4,14.1,51.8z M55.9,25.6c0.8-0.3,5.4-1.6,5.4-1.6l1.4-0.3l-1.2-1.9c0,0-0.8,1.3-2.6,1.7c-1.8,0.4-6.1,1.6-6.7,2.1
			c-0.6,0.5-3.2,1.8-4.5,2.3c-1.2,0.5-6.1,4.8-7.4,5.6C39,34.2,33.7,36,32,36.9c-1.6,0.8-5.2,4.7-6.2,6.3c-1,1.6-5.3,7-6.9,8
			c-1.6,1-3,2-4.9,3.5c-1.9,1.5-7.3,3.8-7.3,3.8l-3.2,2.2c0,0,0.8,1.9,1.5,2.3s1.3-0.2,1.3-0.2s3.3-3.4,4.8-4.2
			c1.5-0.7,8-4.3,8.9-5.2c1-1,6.6-7.6,7.4-8.1c0.8-0.5,7.9-6.2,8.3-6.4s9.3-8.6,14.1-10.5C54.7,26.5,55.1,25.9,55.9,25.6z
			 M44.2,22.3c1.2-0.6,1.2-0.8,1.5-0.9c0.3-0.1,0.5,0,1-0.5s0.2-0.8,2.8-1c2.5-0.2,2.1,0.1,5.2-0.8c3.1-0.9,3.8-1.4,3.8-1.4
			s-2.3-2.2-4.6-1.9c-2.3,0.3-6.4,2.8-7.9,4c-1.6,1.2-2.9,2.4-2.9,2.4S43,22.9,44.2,22.3z M47.7,33.9c-0.5-0.1-2.5,2.9-2.5,2.9
			l-0.2,0.6c0,0,1.5-0.7,2.2-1.2c0.8-0.5,0.7-1,0.7-1S48.1,34,47.7,33.9z M62.5,27.5c-0.8,0.1-1.5,0.3-1.5,0.3s-2.1-0.3-4.8,1.1
			c-2.7,1.4-1.8,0.7-2.4,1.3c-0.6,0.6-1.3,1.1-2.7,1.8c-1.3,0.7-2,2.8-2,2.8s1.6-0.5,4.1-1.6c2.5-1.2,9.3-4.9,9.3-4.9
			S63.3,27.4,62.5,27.5z"/>
	</g>
</g>
<path fill="#C65841" d="M1.5,55.1c0,0-1.8-4.1-1.1-6c0.7-1.9,8.9-9.7,8.9-9.7S19.7,28,22.4,23.6S33.7,6.1,33.7,6.1s3.3-5.2,5.8-5.4
	c2.6-0.2,3.7-0.3,7.2,2.5c3.5,2.8,6.2,4.1,4.8,6.1S37.8,23.5,34.8,27.9c-3,4.4-11.4,15.5-12.9,18.1c-1.5,2.6-8,13.1-9.7,14.7
	c-1.7,1.7-4.6,2.8-7.4-0.8C2,56.3,1.5,55.1,1.5,55.1z"/>
<path fill="#DC6248" d="M1.3,54.4c0,0-1.8-4.1-1.1-6C0.8,46.5,9,38.7,9,38.7s10.4-11.3,13.1-15.7S33.4,5.4,33.4,5.4s3.3-5.2,5.8-5.4
	c2.6-0.2,3.7-0.3,7.2,2.5s6.2,4.1,4.8,6.1S37.6,22.8,34.5,27.2c-3,4.4-11.4,15.5-12.9,18.1c-1.5,2.6-8,13.1-9.7,14.7
	c-1.7,1.7-4.6,2.8-7.4-0.8C1.8,55.6,1.3,54.4,1.3,54.4z"/>
<g>
	<g>
		<path fill="#D83628" d="M3.1,50.9C3.5,50.7,5,50.4,5,50.4s0-0.3-0.2-1.4c-0.2-1.2,0.8-2.4,0.8-2.4s0,0,0.3-0.4
			c0.3-0.4,4.4-3.5,4.9-5.9c0.5-2.4,1.9-5.2,1.9-5.2s-2.5,2.7-3.7,3.9c-1.1,1.2-4.9,4.7-7.6,7.5c-2.7,2.8,0,7.8,0,7.8
			s0.8-1.1,1.2-1.9C3,51.4,2.7,51,3.1,50.9z M12.4,47.6c3-3.8,4.4-7,4.4-8c0-0.9,3.2-8,3.8-8.9c0.6-0.9,5-7.3,5.3-8.1
			c0.3-0.8,5.6-6.2,6.5-6.9c0.8-0.7,1.2-1.6,1.7-2.9c0.5-1.3,3.6-4.2,5.8-5c2.2-0.8,7-4.9,7-4.9l-2.3-1.6c0,0-2.5,2.6-3.5,3.5
			c-1,1-4.5,1.4-5.1,1.9s-0.8,0.6-1.6,1.1c-0.9,0.4-2,2.4-2.6,3c-0.6,0.6-2.3,0.7-2.3,0.7s-0.5,0.2-2.8,4.3S16.5,30.5,16.5,30.5
			s0,0.2,0.2,0.4c0.2,0.2-1.7,4.4-1.7,4.4s-0.6,0.7-2.1,5.6C11.4,45.8,2.7,56.4,2.7,56.4c0.2,0.5,1.5,2,1.5,2L8.9,53
			C8.9,53,9.4,51.4,12.4,47.6z M38.8,13.6c4-3.4,4.1-4,4.8-4.6c0.7-0.6,4.5-3.3,4.5-3.3l1.2-0.8l-1.8-1.4c0,0-0.3,1.5-1.9,2.5
			c-1.6,1-5.2,3.6-5.6,4.2c-0.4,0.6-2.5,2.8-3.5,3.6s-4.2,6.6-5.2,7.8c-1,1.2-5.5,4.7-6.7,6.1c-1.3,1.3-3.4,6.2-3.8,8
			c-0.4,1.9-2.8,8.4-4,9.9c-1.2,1.5-2.2,2.9-3.5,4.9c-1.3,2-5.7,6-5.7,6l-2.3,3.1c0,0,1.3,1.5,2.2,1.7c0.8,0.2,1.1-0.6,1.1-0.6
			s2-4.3,3.2-5.5c1.2-1.2,6.2-6.7,6.8-7.9c0.6-1.2,3.9-9.4,4.4-10.2c0.6-0.8,5.5-8.5,5.9-8.8C29.1,27.9,34.8,17,38.8,13.6z
			 M31.5,9.7c0.9-1,0.9-1.2,1.1-1.3c0.2-0.2,0.5-0.2,0.8-0.8c0.3-0.6-0.1-0.9,2.3-1.8c2.4-1,2-0.6,4.7-2.4c2.6-1.9,3.2-2.5,3.2-2.5
			s-2.9-1.3-5-0.3S33.5,5.3,32.4,7c-1.1,1.7-2,3.3-2,3.3S30.6,10.7,31.5,9.7z M38.4,19.6c-0.5,0.1-1.5,3.5-1.5,3.5l0,0.7
			c0,0,1.2-1.1,1.7-1.9c0.6-0.7,0.4-1.2,0.4-1.2S38.9,19.5,38.4,19.6z M50.5,8.6c-0.7,0.3-1.3,0.8-1.3,0.8S47,9.8,44.9,12
			c-2.1,2.2-1.4,1.3-1.8,2c-0.4,0.8-0.9,1.5-2,2.6s-1,3.3-1,3.3s1.4-1,3.4-2.9s7.3-7.7,7.3-7.7S51.2,8.3,50.5,8.6z"/>
	</g>
</g>
</svg>
