<?xml version="1.0" encoding="utf-8"?>
<!-- Generator: Adobe Illustrator 18.1.1, SVG Export Plug-In . SVG Version: 6.00 Build 0)  -->
<svg version="1.1" id="Layer_1" xmlns="http://www.w3.org/2000/svg" xmlns:xlink="http://www.w3.org/1999/xlink" x="0px" y="0px"
	 viewBox="0 0 960 960" enable-background="new 0 0 960 960" xml:space="preserve">
<path fill-rule="evenodd" clip-rule="evenodd" fill="#DC6248" d="M70.6,756.3c0,0-5.3-58.4,11.4-79.5s154-82.4,154-82.4
	s180.6-95.8,233.8-139c53.2-43.3,218-169,218-169s63.5-50.4,96.7-41.4c33.1,9,48.4,12.5,80.8,63c32.5,50.4,60.7,78.2,35.4,97
	c-25.3,18.8-234.2,116.3-291.5,157.3c-57.3,41-211.2,143.8-240.8,169.5s-156.9,128-185.9,141.6c-28.9,13.7-70.8,15.2-90.7-42.1
	C72,773.9,70.6,756.3,70.6,756.3z"/>
<g>
	<g>
		<path fill-rule="evenodd" clip-rule="evenodd" fill="#D83628" d="M97.1,735.4c7.6-8.7,5.7-14.6,11.7-14.5c6,0.1,26.9,1.8,26.9,1.8
			s1.1-3.3,3.4-19c2.3-15.7,19.9-26.6,19.9-26.6s-0.1,0.5,5.2-3.6c5.3-4.1,71.3-23.9,88-52.1c16.7-28.2,46.5-56.5,46.5-56.5
			s-43.8,22.3-63.3,32.4s-82.7,36.4-128.7,59.8c-46.1,23.4-32.6,96.8-32.6,96.8S89.5,744.1,97.1,735.4z M240.4,720.5
			c54.6-34.4,86-68.5,90.1-80.4c4.2-11.8,74.9-85.6,86.6-94.6c11.7-9,95.2-69.4,101.8-78.3s98.3-53.2,111.8-58.3
			c13.5-5.1,21.7-14.2,33.9-28.6c12.2-14.4,63.6-36.8,94.4-37.3c30.8-0.5,109.7-30,109.7-30L847,283.3c0,0-42.6,21-59.6,28.5
			c-17,7.5-62.7-1.8-72.9,1.9c-10.2,3.7-12.4,4.3-25.3,6c-12.9,1.7-35.1,21.3-45.6,26.5c-10.5,5.2-31.5-1.2-31.5-1.2
			s-7.5-0.3-54.4,41.5c-46.9,41.9-191.4,139.1-191.4,139.1s-1.4,2.3,0.4,6.1c1.8,3.9-40.3,47.1-40.3,47.1s-10.1,5.7-50.2,60.4
			C236.1,694,80,788.2,80,788.2c0.8,6.7,10.8,32.2,10.8,32.2l82.8-48.5C173.6,771.9,185.8,754.9,240.4,720.5z M801.8,374.8
			c10.9-4.6,72-21.7,72-21.7l18.9-4.1l-16.5-25.6c0,0-10.1,16.8-34.3,22.5c-24.2,5.7-81.5,21.5-89.6,27.6
			c-8.2,6.1-43.6,23.8-59.8,30c-16.2,6.1-82.1,63.7-99.6,74.1c-17.5,10.4-89.5,35.2-111.2,46.4c-21.7,11.2-69.7,61.9-83.1,83.2
			c-13.4,21.2-71.1,92.4-93.2,105.5c-22,13.1-40.5,25.9-65.7,45.5s-98.3,50.2-98.3,50.2l-42.9,28.5c0,0,10.1,25,20.1,30.8
			c10,5.8,17.2-2.9,17.2-2.9s44.5-45.3,64.3-54.8s106.9-56.2,119.8-69c12.9-12.8,89.2-100.2,99.5-107.4
			c10.4-7.2,106.4-81.5,111.9-84c5.5-2.5,124.8-113.4,189.7-137.9C785.9,387.1,790.9,379.4,801.8,374.8z M644.8,331.4
			c15.7-8,16.7-10.6,20.2-11.5c3.5-0.9,6.8-0.6,13.3-6.7c6.5-6.1,2.9-11,37.1-12.9c34.2-2,28.4,1.5,69.8-10
			c41.4-11.6,51.6-17.9,51.6-17.9s-30.8-28.5-62-24.8c-31.2,3.7-85.3,37.1-106.4,53.3c-21.1,16.1-39.1,32.2-39.1,32.2
			S629.2,339.4,644.8,331.4z M691.2,484.8c-6.5-0.9-34,37.7-34,37.7l-3.1,8.5c0,0,19.8-9.1,30.1-15.7c10.3-6.6,10-13.3,10-13.3
			S697.7,485.6,691.2,484.8z M890.9,400c-10.5,1.1-20.4,3.9-20.4,3.9s-28.6-4-64.5,14c-35.9,18-23.5,9.4-31.8,16.9
			c-8.3,7.6-18,14.3-36,23.7c-18,9.4-26.4,37.5-26.4,37.5s22-6.3,55.3-21.7c33.3-15.4,125.1-65,125.1-65S901.4,398.9,890.9,400z"/>
	</g>
</g>
<path fill-rule="evenodd" clip-rule="evenodd" fill="#C65841" d="M72.1,763.5c0,0-24-53.5-15.1-78.9s118.9-128,118.9-128
	s139.7-149.2,176-207.4c36.3-58.2,151.3-230.7,151.3-230.7s43.7-68.3,78-70.6c34.3-2.2,49.8-3.9,96.9,33.3
	c47.1,37.2,82.8,54.3,65,80.3c-17.8,26-183.8,186-224.6,243.4c-40.9,57.4-153.1,204.6-172.7,238.5c-19.7,33.8-106.9,172-129.8,194.3
	c-22.9,22.3-62,37.3-99.4-10.4C79.1,779.8,72.1,763.5,72.1,763.5z"/>
<path fill-rule="evenodd" clip-rule="evenodd" fill="#DC6248" d="M68.7,754.4c0,0-24-53.5-15.1-78.9c8.9-25.4,118.9-128,118.9-128
	s139.7-149.2,176-207.4c36.3-58.2,151.3-230.7,151.3-230.7s43.7-68.3,78-70.6c34.3-2.2,49.8-3.9,96.9,33.3
	c47.1,37.2,82.8,54.3,65,80.3c-17.8,26-183.8,186-224.6,243.4c-40.9,57.4-153.1,204.6-172.7,238.5c-19.7,33.8-106.9,172-129.8,194.3
	c-22.9,22.3-62,37.3-99.4-10.4C75.7,770.6,68.7,754.4,68.7,754.4z"/>
<g>
	<g>
		<path fill-rule="evenodd" clip-rule="evenodd" fill="#D83628" d="M93.3,708.5c5.7-1.9,26-7,26-7s0-3.5-2.9-19.1
			c-2.9-15.6,10.2-31.6,10.2-31.6s0.1,0.5,3.7-5.1c3.7-5.6,59.7-45.7,66.4-77.8c6.6-32.1,25.6-68.6,25.6-68.6s-34.2,35.3-49.4,51.2
			c-15.1,15.8-66.4,61.3-102.3,98.4c-36,37.1,0.6,102.2,0.6,102.2s11.4-14.3,15.7-25C91.3,715.4,87.5,710.4,93.3,708.5z
			 M217.6,665.5c40.5-50.3,59.1-92.7,59.1-105.3c0.1-12.5,43.1-105.3,51.2-117.6c8.2-12.3,67.5-96.5,70.9-107.1
			c3.4-10.5,75.7-82.3,86.8-91.5c11.1-9.2,15.9-20.5,22.8-38.1c6.8-17.6,48.2-55.5,77.2-65.9c29-10.5,94.1-64,94.1-64L649.5,55
			c0,0-33.5,33.7-47.1,46.3c-13.6,12.6-59.8,18.7-68.3,25.5c-8.5,6.8-10.3,8.1-22,13.9c-11.7,5.8-26.3,31.6-34.5,39.9
			c-8.3,8.3-30.2,9.1-30.2,9.1s-7.2,2.1-37.9,56.9c-30.7,54.8-135.9,193.7-135.9,193.7s-0.6,2.6,2.4,5.7c3,3.1-22.8,57.6-22.8,57.6
			s-7.7,8.7-27.9,73.4C205,641.8,87.9,781.6,87.9,781.6c2.9,6.1,20.7,26.9,20.7,26.9l62.6-72.7C171.2,735.7,177.1,715.8,217.6,665.5
			z M571.9,217.3c53.4-44.3,55.6-53.1,64.4-61c8.8-7.9,61-43.9,61-43.9l16.5-10l-24-18.9c0,0-4.1,19.2-25.1,32.4
			c-21.1,13.2-70.1,46.8-75.8,55.2c-5.7,8.4-33.5,36.7-46.9,47.8c-13.4,11.1-56.9,86.9-70.1,102.5c-13.2,15.5-73.2,62.3-90.1,80
			c-16.9,17.6-45.8,81.2-51.6,105.6c-5.8,24.4-37.3,110.5-53.9,130c-16.6,19.6-29.9,37.7-47.3,64.4c-17.5,26.7-76.6,79.4-76.6,79.4
			l-31.4,40.9c0,0,17.7,20.4,29,22.6c11.4,2.3,15.3-8.4,15.3-8.4s27.4-57.3,43.1-72.8c15.7-15.4,82.9-87.9,90.9-104.1
			c8-16.3,51.8-123.7,59.3-133.9c7.5-10.2,74.2-111.6,78.6-115.8C441.6,405.1,518.5,261.5,571.9,217.3z M473.8,166.1
			c12.2-12.7,12.4-15.4,15.4-17.4c3-2,6.2-2.8,10.4-10.6c4.2-7.9-0.8-11.3,30.9-24.3c31.7-13,27.4-7.8,62.8-32.2s43-33.6,43-33.6
			s-38.4-17-66.7-3.3s-68.6,62.8-83.3,84.9c-14.7,22.1-26.5,43.2-26.5,43.2S461.6,178.8,473.8,166.1z M567.4,296.2
			c-6.4,1.3-20,46.7-20,46.7l-0.1,9c0,0,15.8-15,23.3-24.6c7.6-9.6,5.1-15.8,5.1-15.8S573.9,294.9,567.4,296.2z M728.9,151.2
			c-9.6,4.5-18,10.3-18,10.3s-28.3,5.5-56.5,34.2c-28.1,28.7-19.2,16.5-24.6,26.3c-5.4,9.9-12.4,19.3-26.4,34.1
			s-12.8,44.1-12.8,44.1s18.8-13.1,45.3-38.5c26.5-25.4,97.3-102.1,97.3-102.1S738.4,146.7,728.9,151.2z"/>
	</g>
</g>
</svg>
