<?xml version="1.0" encoding="utf-8"?>
<!-- Generator: Adobe Illustrator 18.1.1, SVG Export Plug-In . SVG Version: 6.00 Build 0)  -->
<svg version="1.1" id="Layer_1" xmlns="http://www.w3.org/2000/svg" xmlns:xlink="http://www.w3.org/1999/xlink" x="0px" y="0px"
	 viewBox="0 0 960 960" enable-background="new 0 0 960 960" xml:space="preserve">
<path fill-rule="evenodd" clip-rule="evenodd" fill="#EFEFEF" d="M161.9,695.5l573.4-525.8l61.5,67.1L223.4,762.6L161.9,695.5z"/>
<path fill-rule="evenodd" clip-rule="evenodd" fill="#B7472F" d="M7.8,644.4l54.7-50.1l263.9,287.8l-54.7,50.1L7.8,644.4z"/>
<path fill-rule="evenodd" clip-rule="evenodd" fill="#9B3524" d="M44.5,610.4l54.5-50L364,849.3l-54.5,50L44.5,610.4z"/>
<path fill-rule="evenodd" clip-rule="evenodd" fill="#B7472F" d="M40.6,571.9l54.7-50.1l304.8,332.4l-54.7,50.1L40.6,571.9z"/>
<path fill-rule="evenodd" clip-rule="evenodd" fill="#B7472F" d="M634.9,69.4l54.7-50.1L953.5,307l-54.7,50.1L634.9,69.4z"/>
<path fill-rule="evenodd" clip-rule="evenodd" fill="#9B3524" d="M598.8,102.2l54.5-50l264.9,288.9l-54.5,50L598.8,102.2z"/>
<path fill-rule="evenodd" clip-rule="evenodd" fill="#B7472F" d="M559.9,95.8l54.7-50.1l304.8,332.4l-54.7,50.1L559.9,95.8z"/>
</svg>
