<?xml version="1.0" encoding="utf-8"?>
<!-- Generator: Adobe Illustrator 18.1.1, SVG Export Plug-In . SVG Version: 6.00 Build 0)  -->
<svg version="1.1" id="Layer_1" xmlns="http://www.w3.org/2000/svg" xmlns:xlink="http://www.w3.org/1999/xlink" x="0px" y="0px"
	 viewBox="0 0 64 64" enable-background="new 0 0 64 64" xml:space="preserve">
<path fill="#EFEFEF" d="M10.4,47.4l38.8-36.9l4.2,4.7L14.6,52.1L10.4,47.4z"/>
<path fill="#B7472F" d="M0,43.8l3.7-3.5l17.9,20.2L17.9,64L0,43.8z"/>
<path fill="#9B3524" d="M2.5,41.4l3.7-3.5l17.9,20.3l-3.7,3.5L2.5,41.4z"/>
<path fill="#B7472F" d="M2.2,38.7l3.7-3.5l20.6,23.3L22.8,62L2.2,38.7z"/>
<path fill="#B7472F" d="M42.4,3.5L46.1,0L64,20.2l-3.7,3.5L42.4,3.5z"/>
<path fill="#9B3524" d="M40,5.8l3.7-3.5l17.9,20.3l-3.7,3.5L40,5.8z"/>
<path fill="#B7472F" d="M37.4,5.4l3.7-3.5l20.6,23.3L58,28.7L37.4,5.4z"/>
</svg>
