<?xml version="1.0" encoding="utf-8"?>
<!-- Generator: Adobe Illustrator 18.1.1, SVG Export Plug-In . SVG Version: 6.00 Build 0)  -->
<svg version="1.1" id="Layer_1" xmlns="http://www.w3.org/2000/svg" xmlns:xlink="http://www.w3.org/1999/xlink" x="0px" y="0px"
	 viewBox="0 0 64 64" enable-background="new 0 0 64 64" xml:space="preserve">
<path fill-rule="evenodd" clip-rule="evenodd" fill="#F4EEE0" d="M238.5,216.5c0,0-19-5-22-38s1-88,40-102s67-16.7,74-15
	c7,1.7,48.7-29,88-7s46.7,22,51,19c4.3-3,20.3-26,50-15c29.7,11,60,18.7,67,12s85.7-35.7,114,37c28.3,72.7,14.5,109.2,12,118
	s-13.3,28.3-30,33C665.8,263.2,238.5,216.5,238.5,216.5z"/>
<path fill-rule="evenodd" clip-rule="evenodd" fill="#E2861D" d="M688.5,304.5c0,0,42,0,44,35s10,238,10,238s-3.5,36.5-22,44
	s-32,11-32,11l-1,51c0,0,69.5-20,84-50s11-41.5,11-91s-4.8-196-10-217s-18.5-53.5-61-65c-42.5-11.5-42-11-42-11L688.5,304.5z"/>
<g>
	<g>
		<path fill-rule="evenodd" clip-rule="evenodd" fill="#F8931F" d="M691.1,195.2L691.1,195.2c-1.3-15.4-25.1-18.9-25.1-18.9
			s-50.3-9.9-198.9-9.9s-179.9,5.8-199,9.9c-19.1,4-25.1,18.9-25.2,18.9h0L229,848.5h475L691.1,195.2z"/>
	</g>
</g>
<path fill-rule="evenodd" clip-rule="evenodd" fill="#FEB25B" d="M328.8,172.5H385l-7.3,626h-56.2L328.8,172.5z"/>
<path fill-rule="evenodd" clip-rule="evenodd" fill="#EAE8E5" d="M226.2,789.5H709l1.5,70h-486L226.2,789.5z"/>
<path fill-rule="evenodd" clip-rule="evenodd" fill="#F4EEE0" d="M238.6,216.9c0,0,43.9,15.3,88.2-17c44.3-32.4,53.8-25.7,85.5-23
	c31.7,2.7,108.6,9,124.9-8c16.3-17,15.8-14.7,16.3-17c0.5-2.3-304.1,10-304.1,10l-14.9,1L238.6,216.9z"/>
</svg>
