<?xml version="1.0" encoding="utf-8"?>
<!-- Generator: Adobe Illustrator 18.1.1, SVG Export Plug-In . SVG Version: 6.00 Build 0)  -->
<svg version="1.1" id="Layer_1" xmlns="http://www.w3.org/2000/svg" xmlns:xlink="http://www.w3.org/1999/xlink" x="0px" y="0px"
	 viewBox="0 0 64 64" enable-background="new 0 0 64 64" xml:space="preserve">
<path fill="#875738" d="M0.2,17.6h62.3V64H0.2V17.6z"/>
<g>
	<g>
		<polygon fill="#70A32B" points="64,11.1 1.3,11.1 1.3,18.7 7.5,18.7 7.5,24.4 18.6,24.4 18.6,18.7 33.9,18.7 33.9,24.4 51.9,24.4 
			51.9,18.7 64,18.7 		"/>
	</g>
</g>
<g>
	<g>
		<polygon fill="#80B438" points="62.7,5 0,5 0,11.1 37.7,11.1 37.7,16.6 48.8,16.6 48.8,11.1 62.7,11.1 		"/>
	</g>
</g>
<g>
	<g>
		<polygon fill="#94CD47" points="62.7,0 0,0 0,6.1 16.6,6.1 16.6,11.1 22.2,11.1 22.2,6.1 28.8,6.1 28.8,11.1 34.4,11.1 34.4,6.1 
			62.7,6.1 		"/>
	</g>
</g>
<path fill="#836958" d="M33.9,46.8h5.2v5.5h-5.2V46.8z"/>
<g>
	<g>
		<path fill="#704025" d="M11,39.5h5.2v-5.5H11V39.5z M46.4,29.6v5.5h5.2v-5.5H46.4z"/>
	</g>
</g>
<g>
	<g>
		<path fill="#9B6648" d="M48.8,50.2v5.5H54v-5.5H48.8z M11,54h5.2v-5.5H11V54z M29.6,40.5h5.2v-5.5h-5.2V40.5z"/>
	</g>
</g>
</svg>
