<?xml version="1.0" encoding="utf-8"?>
<!-- Generator: Adobe Illustrator 18.1.1, SVG Export Plug-In . SVG Version: 6.00 Build 0)  -->
<svg version="1.1" id="Layer_1" xmlns="http://www.w3.org/2000/svg" xmlns:xlink="http://www.w3.org/1999/xlink" x="0px" y="0px"
	 viewBox="0 0 960 960" enable-background="new 0 0 960 960" xml:space="preserve">
<path fill-rule="evenodd" clip-rule="evenodd" fill="#875738" d="M-16.4,266.3h981.1v697.4H-16.4V266.3z"/>
<g>
	<g>
		<polygon fill-rule="evenodd" clip-rule="evenodd" fill="#70A32B" points="988.7,168.7 2,168.7 2,282.9 98.8,282.9 98.8,368.6 
			273.4,368.6 273.4,282.9 515.2,282.9 515.2,368.6 798,368.6 798,282.9 988.7,282.9 		"/>
	</g>
</g>
<g>
	<g>
		<polygon fill-rule="evenodd" clip-rule="evenodd" fill="#80B438" points="967.5,77.5 -19.1,77.5 -19.1,168.7 574.5,168.7 
			574.5,251.5 749.1,251.5 749.1,168.7 967.5,168.7 		"/>
	</g>
</g>
<g>
	<g>
		<polygon fill-rule="evenodd" clip-rule="evenodd" fill="#94CD47" points="967.5,1.9 -19.1,1.9 -19.1,93.1 242.1,93.1 242.1,168.2 
			330.1,168.2 330.1,93.1 434.3,93.1 434.3,168.2 522.3,168.2 522.3,93.1 967.5,93.1 		"/>
	</g>
</g>
<path fill-rule="evenodd" clip-rule="evenodd" fill="#836958" d="M515.2,705.5h82v82h-82V705.5z"/>
<g>
	<g>
		<path fill-rule="evenodd" clip-rule="evenodd" fill="#704025" d="M154.7,596h82v-82h-82V596z M711.7,447v82h82v-82H711.7z"/>
	</g>
</g>
<g>
	<g>
		<path fill-rule="evenodd" clip-rule="evenodd" fill="#9B6648" d="M748.7,756v82h82v-82H748.7z M154.7,814h82v-82h-82V814z
			 M447.7,611h82v-82h-82V611z"/>
	</g>
</g>
</svg>
