<?xml version="1.0" encoding="utf-8"?>
<!-- Generator: Adobe Illustrator 18.1.1, SVG Export Plug-In . SVG Version: 6.00 Build 0)  -->
<svg version="1.1" id="Layer_1" xmlns="http://www.w3.org/2000/svg" xmlns:xlink="http://www.w3.org/1999/xlink" x="0px" y="0px"
	 viewBox="0 0 960 960" enable-background="new 0 0 960 960" xml:space="preserve">
<path fill-rule="evenodd" clip-rule="evenodd" fill="#F6B92B" d="M96.5,544.5h768v293h-768V544.5z"/>
<path fill-rule="evenodd" clip-rule="evenodd" fill="#F6B92B" d="M157.5,316.5h645v246h-645V316.5z"/>
<path fill-rule="evenodd" clip-rule="evenodd" fill="#F26C4F" d="M465.5,144.5h30v155h-30V144.5z"/>
<g>
	<g>
		<path fill-rule="evenodd" clip-rule="evenodd" fill="#F9AD81" d="M465.5,286.5l30,8v-8l-30-8V286.5z M465.5,266.5l30,10v-9l-30-10
			V266.5z M465.5,244.5l30,8v-8l-30-8V244.5z M465.5,224.5l30,10v-9l-30-10V224.5z M465.5,204.5l30,8v-8l-30-8V204.5z M465.5,175.5
			v9l30,10v-9L465.5,175.5z"/>
	</g>
</g>
<path fill-rule="evenodd" clip-rule="evenodd" fill="#D75A3F" d="M463.8,156.9c0,0-1.5-18.5,2.9-16.9c4.4,1.6,9.2,3.2,12.4,1.8
	c3.3-1.4,5.9-6.1,10.5-3.6s10.1-2,8.6,5.3c-1.5,7.3-1.9,8.7-1,15.1c1,6.4-0.4,14.6-2.9,8c-2.5-6.6-3.6-7.8-4.8-2.7
	c-1.1,5.2-1.3,20.8-6.7,11.6c-5.4-9.3-7.3-7.5-8.6-2.7c-1.3,4.8-4.2,5.7-4.8,0c-0.6-5.7-3.8-6.6-3.8-3.6
	C465.7,172.4,464,176.2,463.8,156.9z"/>
<path fill-rule="evenodd" clip-rule="evenodd" fill="#E1E1E1" d="M74.5,833.5h811v38h-811V833.5z"/>
<path fill-rule="evenodd" clip-rule="evenodd" fill="#F9F9F9" d="M74.5,558.5c0,0-4-50,40-48s70,10,121,7s150-18,199-10s72,2,136-5
	s159,16,206,15s82-22,93-6s10,81-1,95s-28-31-38-32s-23,19-41,41s-23-2-51-26s-46-21-58,3s-29,101-73,67s-70-98-103-81s-12,53-57,50
	s-56-55-83-46s-37,62-65,48s-27-60-63-59s-19,83-55,88s-40-57-48-57s-20,3-29,32S74.5,625.5,74.5,558.5z"/>
<path fill-rule="evenodd" clip-rule="evenodd" fill="#F9F9F9" d="M814.4,336.2c0,0,3.3-41.7-33.5-40c-36.8,1.7-58.6,8.3-101.3,5.8
	c-42.7-2.5-125.5-15-166.6-8.3c-41,6.7-60.3,1.7-113.8-4.2c-53.6-5.8-133.1,13.3-172.4,12.5c-39.3-0.8-68.6-18.3-77.8-5
	c-9.2,13.3-8.4,67.5,0.8,79.1c9.2,11.7,23.4-25.8,31.8-26.7c8.4-0.8,19.2,15.8,34.3,34.2c15.1,18.3,19.2-1.7,42.7-21.7
	c23.4-20,38.5-17.5,48.5,2.5c10,20,24.3,84.1,61.1,55.8s58.6-81.6,86.2-67.5c27.6,14.2,10,44.2,47.7,41.7
	c37.7-2.5,46.9-45.8,69.5-38.3c22.6,7.5,31,51.7,54.4,40c23.4-11.7,22.6-50,52.7-49.2c30.1,0.8,15.9,69.2,46,73.3
	c30.1,4.2,33.5-47.5,40.2-47.5s16.7,2.5,24.3,26.7C796.8,423.7,814.4,392.1,814.4,336.2z"/>
</svg>
