<?xml version="1.0" encoding="utf-8"?>
<!-- Generator: Adobe Illustrator 18.1.1, SVG Export Plug-In . SVG Version: 6.00 Build 0)  -->
<svg version="1.1" id="Layer_1" xmlns="http://www.w3.org/2000/svg" xmlns:xlink="http://www.w3.org/1999/xlink" x="0px" y="0px"
	 viewBox="0 0 64 64" enable-background="new 0 0 64 64" xml:space="preserve">
<path fill="#F6B92B" d="M1.7,35.5h60.6V61H1.7V35.5z"/>
<path fill="#F6B92B" d="M6.6,15.6h50.9v21.4H6.6V15.6z"/>
<path fill="#F26C4F" d="M30.9,0.6h2.4v13.5h-2.4V0.6z"/>
<g>
	<g>
		<path fill="#F9AD81" d="M30.9,13l2.4,0.7V13l-2.4-0.7V13z M30.9,11.2l2.4,0.9v-0.8l-2.4-0.9V11.2z M30.9,9.3l2.4,0.7V9.3l-2.4-0.7
			V9.3z M30.9,7.6l2.4,0.9V7.7l-2.4-0.9V7.6z M30.9,5.8l2.4,0.7V5.8l-2.4-0.7V5.8z M30.9,3.3v0.8L33.2,5V4.2L30.9,3.3z"/>
	</g>
</g>
<path fill="#D75A3F" d="M30.7,1.7c0,0-0.1-1.6,0.2-1.5c0.3,0.1,0.7,0.3,1,0.2c0.3-0.1,0.5-0.5,0.8-0.3c0.4,0.2,0.8-0.2,0.7,0.5
	s-0.1,0.8-0.1,1.3c0.1,0.6,0,1.3-0.2,0.7c-0.2-0.6-0.3-0.7-0.4-0.2c-0.1,0.5-0.1,1.8-0.5,1c-0.4-0.8-0.6-0.7-0.7-0.2s-0.3,0.5-0.4,0
	c0-0.5-0.3-0.6-0.3-0.3C30.9,3,30.7,3.4,30.7,1.7z"/>
<path fill="#E1E1E1" d="M0,60.7h64V64H0V60.7z"/>
<path fill="#F9F9F9" d="M0,36.7c0,0-0.3-4.4,3.2-4.2s5.5,0.9,9.5,0.6s11.8-1.6,15.7-0.9s5.7,0.2,10.7-0.4s12.5,1.4,16.3,1.3
	c3.7-0.1,6.5-1.9,7.3-0.5c0.9,1.4,0.8,7.1-0.1,8.3c-0.9,1.2-2.2-2.7-3-2.8c-0.8-0.1-1.8,1.7-3.2,3.6c-1.4,1.9-1.8-0.2-4-2.3
	c-2.2-2.1-3.6-1.8-4.6,0.3s-2.3,8.8-5.8,5.8s-5.5-8.5-8.1-7.1c-2.6,1.5-0.9,4.6-4.5,4.4c-3.6-0.3-4.4-4.8-6.5-4
	c-2.1,0.8-2.9,5.4-5.1,4.2c-2.2-1.2-2.1-5.2-5-5.1c-2.8,0.1-1.5,7.2-4.3,7.7s-3.2-5-3.8-5s-1.6,0.3-2.3,2.8S0,42.6,0,36.7z"/>
<path fill="#F9F9F9" d="M58.4,17.3c0,0,0.3-3.6-2.6-3.5s-4.6,0.7-8,0.5s-9.9-1.3-13.1-0.7c-3.2,0.6-4.8,0.1-9-0.4
	c-4.2-0.5-10.5,1.2-13.6,1.1s-5.4-1.6-6.1-0.4s-0.7,5.9,0.1,6.9c0.7,1,1.8-2.2,2.5-2.3c0.7-0.1,1.5,1.4,2.7,3
	c1.2,1.6,1.5-0.1,3.4-1.9c1.8-1.7,3-1.5,3.8,0.2c0.8,1.7,1.9,7.3,4.8,4.9s4.6-7.1,6.8-5.9c2.2,1.2,0.8,3.9,3.8,3.6s3.7-4,5.5-3.3
	c1.8,0.7,2.4,4.5,4.3,3.5c1.8-1,1.8-4.4,4.2-4.3c2.4,0.1,1.3,6,3.6,6.4c2.4,0.4,2.6-4.1,3.2-4.1s1.3,0.2,1.9,2.3
	C57,25,58.4,22.2,58.4,17.3z"/>
</svg>
