<?xml version="1.0" encoding="utf-8"?>
<!-- Generator: Adobe Illustrator 18.1.1, SVG Export Plug-In . SVG Version: 6.00 Build 0)  -->
<svg version="1.1" id="Layer_1" xmlns="http://www.w3.org/2000/svg" xmlns:xlink="http://www.w3.org/1999/xlink" x="0px" y="0px"
	 viewBox="0 0 960 960" enable-background="new 0 0 960 960" xml:space="preserve">
<g>
	<g>
		<path fill-rule="evenodd" clip-rule="evenodd" fill="#EC5E84" d="M70.3,671.9c-0.6,0-1,0-1,0S69.5,672.2,70.3,671.9z M204.5,619.1
			c0,0-17.3-21.9-50.2-0.7c-33,21.1-71.4,39.5-77.7,47.3c-3.5,4.3-5.3,5.7-6.3,6.1c6.4,0.1,43.1,0.8,52.3,4.3
			c10.1,3.8,16.8-0.6,6.2,25.7c-10.6,26.3-20.4,39.6-8.2,37.9c12.2-1.7,57.5-5.4,57.5-5.4s10.1-0.5,6.4,3.9
			c-3.7,4.4-14.5,29.7-15.1,40.7c-0.6,11-11.4,20.2,18.9,14.9s41.3-12.7,40.8-6.8c-0.5,6-1.8,38.1-6,51.5
			c-4.1,13.4-2.4,12.5,15.4-3.8c17.8-16.3,16.5-24.5,30-37.8c13.5-13.3,31.1-51.1,31.1-51.1l1.1-13.3l-92.8-113.2L204.5,619.1z
			 M752.7,92.6c0,0-0.1,0.3-0.1,1C753.1,92.9,752.7,92.6,752.7,92.6z M891.8,271.1c-13.8,1.9-45.6-2.1-51.5-2.6
			c-6-0.5,3.2-10.1,13.2-39c10-28.9-0.7-19.8-11.6-21c-10.9-1.2-37.5,5.2-42.4,8.2c-4.9,2.9-2.8-6.9-2.8-6.9s10.9-43.8,14.6-55.6
			c3.6-11.7-11-4.3-38.5,1.8c-27.5,6.1-22.1,0.2-24.2-10.4c-2-9.6,3.3-45.8,4.2-52.1c-0.6,0.9-2.3,2.4-7,5.1c-8.8,5-33,39.7-59,68.6
			c-26.1,28.9-7.4,49.5-7.4,49.5l-0.3,3.3l96.2,109.8l13.3,1.1c0,0,40-11,55.2-22.1c15.3-11.1,23.1-8.4,42-23.2
			C904.5,270.8,905.6,269.3,891.8,271.1z"/>
	</g>
</g>
<g>
	<g>
		<path fill-rule="evenodd" clip-rule="evenodd" fill="#DD5176" d="M146.1,656.3c0,0,28.5,0.6,27.1,17.3
			c-1.4,16.7-1.4,16.7-1.4,16.7s40.5-2.8,41.6,23.5c1.2,26.2,4.2,30.5,4.2,30.5s21.5-9,26.6,2.2c5.1,11.1,7.1,19.4,7.8,27.5
			c0.7,8.1,1,8.5,1,8.5l20.7-67.1l-68.7-81L146.1,656.3z M823.5,288.8c-7.9-2-15.6-5.3-25.7-12.1c-10.1-6.8,2.2-26.5,2.2-26.5
			s-3.7-3.6-29.3-9.1c-25.6-5.5-16.4-44.8-16.4-44.8s0,0-16.6-1.4s-12.6-29.4-12.6-29.4l-31.1,54.2l68.5,80.8l69.2-9.3
			C831.7,291.2,831.4,290.8,823.5,288.8z"/>
	</g>
</g>
<path fill-rule="evenodd" clip-rule="evenodd" fill="#EE658A" d="M231.6,475.5l305-258.6c50.8-43.1,126.9-36.9,169.9,13.8l50.4,59.4
	c43,50.7,36.7,126.8-14.2,169.9l-305,258.6c-50.8,43.1-126.9,36.9-169.9-13.8l-50.4-59.4C174.4,594.6,180.8,518.6,231.6,475.5z"/>
<g>
	<g>
		<path fill-rule="evenodd" clip-rule="evenodd" fill="#EBEBEB" d="M198.2,522.2c-6.7,20.1-7.6,31.2-7.6,31.2l272.9,143.2l57.6-48.8
			L215.8,491.9C215.8,491.9,204.9,502.1,198.2,522.2z M266.4,445.8l315.9,150.1l54-45.8L315,404.7L266.4,445.8z M439.1,299.4
			l-61.1,51.9l326.7,141l50.4-42.7c0,0,10.1-10.9,11.1-12.5C767,435.5,439.1,299.4,439.1,299.4z M742.7,271c0,0-0.2-0.2-0.5-0.6
			C742.4,270.6,742.5,270.8,742.7,271z M784.3,356.5c0,0-1.9-38.7-26.3-67.5c-8.7-10.3-13.2-15.5-15.3-18l-185.2-68.9
			c0,0-6.9,2.8-28.5,21.1c-21.6,18.3-28.8,24.4-28.8,24.4l3.3,0.3L784.3,356.5z M227.3,658.6c0,0,0,0,24.4,28.8
			c24.4,28.8,26.1,28.4,58.1,46.7c32,18.3,78,8.1,78,8.1l-155.7-81.6L227.3,658.6z"/>
	</g>
</g>
</svg>
