<?xml version="1.0" encoding="utf-8"?>
<!-- Generator: Adobe Illustrator 18.1.1, SVG Export Plug-In . SVG Version: 6.00 Build 0)  -->
<svg version="1.1" id="Layer_1" xmlns="http://www.w3.org/2000/svg" xmlns:xlink="http://www.w3.org/1999/xlink" x="0px" y="0px"
	 viewBox="0 0 64 64" enable-background="new 0 0 64 64" xml:space="preserve">
<g>
	<g>
		<path fill="#EC5E84" d="M0.1,49.1C0,49.1,0,49.1,0.1,49.1C0,49.1,0,49.1,0.1,49.1z M10.4,44.6c0,0-1.3-1.9-3.9-0.1
			c-2.5,1.8-5.5,3.3-6,4c-0.3,0.4-0.4,0.5-0.5,0.5c0.5,0,3.3,0.1,4,0.4c0.8,0.3,1.3-0.1,0.5,2.2C3.8,53.9,3,55,3.9,54.8
			c0.9-0.1,4.4-0.5,4.4-0.5s0.8,0,0.5,0.3c-0.3,0.4-1.1,2.5-1.2,3.4s-0.9,1.7,1.5,1.3s3.2-1.1,3.1-0.6c0,0.5-0.1,3.2-0.5,4.4
			c-0.3,1.1-0.2,1.1,1.2-0.3s1.3-2.1,2.3-3.2c1-1.1,2.4-4.3,2.4-4.3l0.1-1.1l-7.1-9.6L10.4,44.6z M52.6,0C52.6,0,52.6,0,52.6,0
			C52.6,0,52.6,0,52.6,0z M63.3,15.1c-1.1,0.2-3.5-0.2-4-0.2c-0.5,0,0.2-0.9,1-3.3c0.8-2.4-0.1-1.7-0.9-1.8
			c-0.8-0.1-2.9,0.4-3.3,0.7C55.8,10.8,56,9.9,56,9.9s0.8-3.7,1.1-4.7c0.3-1-0.8-0.4-3,0.2c-2.1,0.5-1.7,0-1.9-0.9
			c-0.2-0.8,0.3-3.9,0.3-4.4c0,0.1-0.2,0.2-0.5,0.4c-0.7,0.4-2.5,3.4-4.5,5.8c-2,2.4-0.6,4.2-0.6,4.2l0,0.3l7.4,9.3l1,0.1
			c0,0,3.1-0.9,4.2-1.9c1.2-0.9,1.8-0.7,3.2-2C64.3,15.1,64.3,15,63.3,15.1z"/>
	</g>
</g>
<g>
	<g>
		<path fill="#DD5176" d="M5.9,47.8c0,0,2.2,0.1,2.1,1.5s-0.1,1.4-0.1,1.4s3.1-0.2,3.2,2c0.1,2.2,0.3,2.6,0.3,2.6s1.7-0.8,2,0.2
			c0.4,0.9,0.5,1.6,0.6,2.3c0.1,0.7,0.1,0.7,0.1,0.7l1.6-5.7l-5.3-6.9L5.9,47.8z M58,16.6c-0.6-0.2-1.2-0.4-2-1
			c-0.8-0.6,0.2-2.2,0.2-2.2s-0.3-0.3-2.3-0.8c-2-0.5-1.3-3.8-1.3-3.8s0,0-1.3-0.1s-1-2.5-1-2.5l-2.4,4.6l5.3,6.8l5.3-0.8
			C58.7,16.8,58.6,16.8,58,16.6z"/>
	</g>
</g>
<path fill="#EE658A" d="M12.5,32.4L36,10.5c3.9-3.7,9.8-3.1,13.1,1.2l3.9,5c3.3,4.3,2.8,10.7-1.1,14.4L28.3,53.1
	c-3.9,3.7-9.8,3.1-13.1-1.2l-3.9-5C8.1,42.5,8.6,36.1,12.5,32.4z"/>
<g>
	<g>
		<path fill="#EBEBEB" d="M9.9,36.4c-0.5,1.7-0.6,2.6-0.6,2.6l21,12.1l4.4-4.1L11.3,33.8C11.3,33.8,10.4,34.7,9.9,36.4z M15.2,29.9
			l24.3,12.7l4.2-3.9L18.9,26.4L15.2,29.9z M28.5,17.5l-4.7,4.4l25.1,11.9l3.9-3.6c0,0,0.8-0.9,0.9-1.1
			C53.7,29.1,28.5,17.5,28.5,17.5z M51.8,15.1C51.8,15.1,51.8,15.1,51.8,15.1C51.8,15.1,51.8,15.1,51.8,15.1z M55,22.4
			c0,0-0.1-3.3-2-5.7c-0.7-0.9-1-1.3-1.2-1.5L37.6,9.3c0,0-0.5,0.2-2.2,1.8s-2.2,2.1-2.2,2.1l0.3,0L55,22.4z M12.2,48
			c0,0,0,0,1.9,2.4c1.9,2.4,2,2.4,4.5,4c2.5,1.6,6,0.7,6,0.7l-12-6.9L12.2,48z"/>
	</g>
</g>
</svg>
