<?xml version="1.0" encoding="utf-8"?>
<!-- Generator: Adobe Illustrator 18.1.1, SVG Export Plug-In . SVG Version: 6.00 Build 0)  -->
<svg version="1.1" id="Layer_1" xmlns="http://www.w3.org/2000/svg" xmlns:xlink="http://www.w3.org/1999/xlink" x="0px" y="0px"
	 viewBox="0 0 64 64" enable-background="new 0 0 64 64" xml:space="preserve">
<path fill-rule="evenodd" clip-rule="evenodd" fill="#ED1C24" d="M419.8,23.8c0,0-4.2-19.8,18.7-19.8c22.9,0,84.2,1,84.2,1
	s11.7-0.3,15.6,7.3c3.9,7.5,3.1,10.4,3.1,10.4s-4.7,2.6-4.2,8.3s8.3,17.9,9.4,25s2.6,12-1,15.6c-3.6,3.6-7.8-1.8-6.2,26
	c1.6,27.8-2.9,64.2,19.8,123.8s40.6,103,40.6,103s4.5,10.1,4.2,16.6s-4.2,12.5-4.2,12.5s11.4,41.3,13.5,59.3c2.1,18,7.3,44.7,5.2,77
	c-2.1,32.2-5.2,45.8-5.2,45.8s3.5,2.1,4.2,8.3c0.7,6.2,1,23.6-2.1,41.6c-3.1,18-14.6,80.8-15.6,98.8c-1,18-10.4,60.7,2.1,105
	c12.5,44.4,23.9,73.1,19.8,97.8c-4.2,24.6-21.8,50.3-54.1,58.2c-32.2,8-86,12.1-103,10.4s-109.2-4.2-119.6-47.8
	c-10.4-43.7-9.7-38.1,2.1-82.2c11.8-44,21.8-50.6,15.6-114.4s-17-121.7-18.7-142.5c-1.7-20.8-1.6-26,1-30.2c2.6-4.2,3.1-3.1,3.1-3.1
	s-4.3-10.7-5.2-28.1c-0.9-17.3-6.2-47.1,3.1-92.6s14.6-60.3,14.6-60.3s-7-8.1-3.1-19.8c3.9-11.7,36.4-92.3,45.8-119.6
	s16.9-67.1,17.7-101.9c0.8-34.8,1-31.2,1-31.2s2.1-5.5-6.2-11.4c-8.3-6-3.4-8.3,0-19.8S426,35,423.9,30
	C421.9,25.1,419.8,23.8,419.8,23.8z"/>
</svg>
