<?xml version="1.0" encoding="utf-8"?>
<!-- Generator: Adobe Illustrator 18.1.1, SVG Export Plug-In . SVG Version: 6.00 Build 0)  -->
<svg version="1.1" id="Layer_1" xmlns="http://www.w3.org/2000/svg" xmlns:xlink="http://www.w3.org/1999/xlink" x="0px" y="0px"
	 viewBox="0 0 64 64" enable-background="new 0 0 64 64" xml:space="preserve">
<path fill="#ED1C24" d="M25.2,1.3c0,0-0.5-1.3,2.1-1.3c2.6,0,9.5,0.1,9.5,0.1s1.3,0,1.8,0.5c0.4,0.5,0.3,0.7,0.3,0.7
	s-0.5,0.2-0.5,0.6c0.1,0.4,0.9,1.2,1.1,1.7c0.1,0.5,0.3,0.8-0.1,1c-0.4,0.2-0.9-0.1-0.7,1.7c0.2,1.9-0.3,4.3,2.2,8.3
	s4.6,6.9,4.6,6.9s0.5,0.7,0.5,1.1c0,0.4-0.5,0.8-0.5,0.8s1.3,2.8,1.5,4c0.2,1.2,0.8,3,0.6,5.2c-0.2,2.2-0.6,3.1-0.6,3.1
	s0.4,0.1,0.5,0.6c0.1,0.4,0.1,1.6-0.2,2.8c-0.3,1.2-1.6,5.4-1.8,6.6c-0.1,1.2-1.2,4.1,0.2,7.1c1.4,3,2.7,4.9,2.2,6.6
	c-0.5,1.7-2.4,3.4-6.1,3.9c-3.6,0.5-9.7,0.8-11.6,0.7S18,63.7,16.8,60.8c-1.2-2.9-1.1-2.6,0.2-5.5c1.3-3,2.4-3.4,1.8-7.7
	c-0.7-4.3-1.9-8.2-2.1-9.6c-0.2-1.4-0.2-1.7,0.1-2c0.3-0.3,0.3-0.2,0.3-0.2s-0.5-0.7-0.6-1.9c-0.1-1.2-0.7-3.2,0.3-6.2
	c1-3.1,1.6-4.1,1.6-4.1s-0.8-0.5-0.3-1.3c0.4-0.8,4.1-6.2,5.1-8c1.1-1.8,1.9-4.5,2-6.8c0.1-2.3,0.1-2.1,0.1-2.1s0.2-0.4-0.7-0.8
	c-0.9-0.4-0.4-0.6,0-1.3c0.4-0.8,1.1-1.1,0.9-1.4C25.5,1.4,25.2,1.3,25.2,1.3z"/>
</svg>
