<?xml version="1.0" encoding="utf-8"?>
<!-- Generator: Adobe Illustrator 18.1.1, SVG Export Plug-In . SVG Version: 6.00 Build 0)  -->
<svg version="1.1" id="Layer_1" xmlns="http://www.w3.org/2000/svg" xmlns:xlink="http://www.w3.org/1999/xlink" x="0px" y="0px"
	 viewBox="96 96 64 64" enable-background="new 96 96 64 64" xml:space="preserve">
<path id="gamepad-11-icon" fill="#0071BC" d="M114.6,130.4c1.2,1.2,1.2,3.2-0.1,4.4s-3.2,1.2-4.4,0.1s-1.2-3.2,0.1-4.4
	S113.4,129.2,114.6,130.4z M158.8,119.4c-0.4,1.1-1.3,1.9-2.4,1.9l-11.1,0.9c-2,0.2-3.9,0.1-6.5,2.7L125,138.8
	c-2.6,2.6-2.6,4.4-2.7,6.5l-0.9,11.1c0,1.1-0.8,2.1-1.9,2.4c-7.8,2.7-13.2-4.9-21.8-25.3c-3.4-8,1.2-13.5,6.2-15.1
	c7-2.3,12.2-7.7,14.5-14.5c1.7-5,7.2-9.6,15.1-6.2C153.8,106.1,161.6,111.6,158.8,119.4z M116.8,128.1c-2.4-2.4-6.3-2.2-8.7,0.2
	s-2.6,6.4-0.2,8.7s6.3,2.2,8.7-0.2S119.2,130.5,116.8,128.1z M120.1,116.3c-1-1-2.7-0.9-3.7,0.1c-1,1-1.1,2.7-0.1,3.7
	c1,1,2.7,0.9,3.7-0.1C121.1,119,121.1,117.3,120.1,116.3z M129.6,113.3c-1.1,0-2.1,1-2.1,2.1c0,1.1,0.9,2,2,2s2.1-1,2.1-2.1
	C131.6,114.2,130.7,113.3,129.6,113.3z M135.6,112.9c-1.1,0-2.1,1-2.1,2.1c0,1.1,0.9,2,2,2s2.1-1,2.1-2.1
	C137.7,113.8,136.8,112.9,135.6,112.9z M130,107.3c-1.1,0-2.1,1-2.1,2.1s0.9,2,2,2c1.1,0,2.1-1,2.1-2.1S131.2,107.3,130,107.3z
	 M136,106.9c-1.1,0-2.1,1-2.1,2.1c0,1.1,0.9,2,2,2c1.1,0,2.1-1,2.1-2.1C138,107.8,137.1,106.9,136,106.9z"/>
</svg>
