<?xml version="1.0" encoding="utf-8"?>
<!-- Generator: Adobe Illustrator 18.1.1, SVG Export Plug-In . SVG Version: 6.00 Build 0)  -->
<svg version="1.1" id="Layer_1" xmlns="http://www.w3.org/2000/svg" xmlns:xlink="http://www.w3.org/1999/xlink" x="0px" y="0px"
	 viewBox="0 0 64 64" enable-background="new 0 0 64 64" xml:space="preserve">
<path id="gamepad-11-icon" fill="#0071BC" d="M324.1,443.5c0,24.1-19.6,43.8-43.8,43.8c-24.1,0-43.8-19.6-43.8-43.8
	c0-24.1,19.6-43.8,43.8-43.8C304.5,399.7,324.1,419.3,324.1,443.5z M868.2,783.8c-14,6.9-30.7,4.7-42.4-5.7L708,673.8
	c-21.1-18.7-39.5-38-91-38H343c-51.5,0-69.9,19.3-91,38L134.2,778.2c-11.7,10.3-28.4,12.6-42.4,5.7c-103.7-51.2-81-185.8,35.2-480.3
	c45.7-115.8,144.2-125,210.1-91c91.8,47.3,195.8,46.3,285.7,0c65.9-33.9,164.4-24.7,210.1,91C949.2,598,971.8,732.6,868.2,783.8z
	 M368.2,443.5c0-48.5-39.4-87.9-87.9-87.9c-48.5,0-87.9,39.4-87.9,87.9c0,48.5,39.4,87.9,87.9,87.9
	C328.8,531.4,368.2,491.9,368.2,443.5z M516.7,356.8c0-20.2-16.4-36.6-36.6-36.6c-20.2,0-36.6,16.4-36.6,36.6
	c0,20.2,16.4,36.6,36.6,36.6C500.4,393.4,516.7,377.1,516.7,356.8z M639.1,422.6c-11.2-11.2-29.4-11.2-40.6,0
	c-11.2,11.2-11.2,29.4,0,40.6c11.2,11.2,29.4,11.2,40.6,0C650.3,452,650.3,433.8,639.1,422.6z M702.6,481.1
	c-11.2-11.2-29.4-11.2-40.6,0c-11.2,11.2-11.2,29.4,0,40.6c11.2,11.2,29.4,11.2,40.6,0C713.8,510.4,713.8,492.3,702.6,481.1z
	 M702.6,365.3c-11.2-11.2-29.4-11.2-40.6,0c-11.2,11.2-11.2,29.4,0,40.6c11.2,11.2,29.4,11.2,40.6,0
	C713.8,394.6,713.8,376.5,702.6,365.3z M765.8,422.6c-11.2-11.2-29.4-11.2-40.6,0c-11.2,11.2-11.2,29.4,0,40.6
	c11.2,11.2,29.4,11.2,40.6,0C777,452,777,433.8,765.8,422.6z"/>
</svg>
