<?xml version="1.0" encoding="utf-8"?>
<!-- Generator: Adobe Illustrator 18.1.1, SVG Export Plug-In . SVG Version: 6.00 Build 0)  -->
<svg version="1.1" id="Layer_1" xmlns="http://www.w3.org/2000/svg" xmlns:xlink="http://www.w3.org/1999/xlink" x="0px" y="0px"
	 viewBox="0 0 64 64" enable-background="new 0 0 64 64" xml:space="preserve">
<path fill-rule="evenodd" clip-rule="evenodd" fill="#F3F3F3" d="M175.5,767.4v54.5l-90.3,2.7V709V604l22.6-54.5l57.1-82.3
	c0,0,18.6-29.9,47.8-58.4c29.2-28.6,59.8-46.5,59.8-46.5l34.5-29.2c0,0,35.2-10.6,162-10.6s183.3,6.6,183.3,6.6l26.6,27.9
	c0,0,31.2,17.3,57.1,45.2c25.9,27.9,49.1,62.4,49.1,62.4l69.1,89l19.9,46.5l1.3,5.3v209.8l-90.3,2.7v-50.5H175.5z"/>
<g>
	<g>
		<path fill-rule="evenodd" clip-rule="evenodd" fill="#636363" d="M179.5,764.7H85.2v67.7c0,0-8,8,45.2,8c53.1,0,49.1-9.3,49.1-9.3
			V764.7z M875.4,831.1v-66.4h-94.3v67.7c0,0-8,8,45.2,8S875.4,831.1,875.4,831.1z"/>
	</g>
</g>
<g>
	<g>
		<path fill-rule="evenodd" clip-rule="evenodd" fill="#7D7D7D" d="M864.8,573.5H98.5l-13.3,29.2v41.2h791.6V604L864.8,573.5z
			 M85.2,713.2h791.6v-47.1H85.2V713.2z"/>
	</g>
</g>
<g>
	<g>
		<path fill-rule="evenodd" clip-rule="evenodd" fill="#FFFFFF" d="M118.4,637.2H210v-54.5h-91.6V637.2z M227.3,637.2h91.6v-54.5
			h-91.6V637.2z M635,637.2h91.6v-54.5H635V637.2z M743.9,582.8v54.5h91.6v-54.5H743.9z M429.2,625.3h97V600h-97V625.3z"/>
	</g>
</g>
<path fill-rule="evenodd" clip-rule="evenodd" fill="#D3D3D3" d="M270.2,366.3c0,0-45.4,27.9-63.2,46.5c-17.8,18.6-50,65.1-50,65.1
	h633.5c0,0-34.9-54.5-63.2-81S690.3,365,690.3,365H271.5L270.2,366.3z"/>
<path fill-rule="evenodd" clip-rule="evenodd" fill="#D8D8D8" d="M469,477.9c0,0,28-112.9,85.4-112.9c52,0,137.7,0,137.7,0
	s15.9,7.1,46.5,42.5s54.5,70.4,54.5,70.4s-172.3,0-265.6,0C492.8,477.9,469,477.9,469,477.9z"/>
<g>
	<g>
		<path fill-rule="evenodd" clip-rule="evenodd" fill="#848484" d="M402.6,230.8c-13.9-21.9-116.9-75.7-116.9-75.7s2.7-8-13.3-49.1
			c-15.9-41.2-61.1-6.6-61.1-6.6l2.7,50.5c0,0-7.3-4.6-86.3,4S10.8,206.9,10.8,206.9s23.9,6.6,33.2,22.6c9.3,15.9,2.7,26.6,2.7,26.6
			l182-69.1c0,0,31.9,5.3,74.4,23.9c42.5,18.6,69.1,49.1,69.1,49.1l26.6,65.1l39.8-1.3l-2.7-5.3
			C435.8,318.5,416.5,252.7,402.6,230.8z M828.9,154c-79-8.6-86.3-4-86.3-4l2.7-50.4c0,0-45.2-34.5-61.1,6.6
			c-15.9,41.1-13.3,49.1-13.3,49.1S568,209.1,554,230.9c-13.9,21.9-33.2,87.5-33.2,87.5l-2.7,5.3l39.8,1.3l26.6-65
			c0,0,26.6-30.5,69.1-49.1c42.5-18.6,74.4-23.9,74.4-23.9l182,69c0,0-6.6-10.6,2.7-26.5s33.2-22.6,33.2-22.6S907.9,162.6,828.9,154
			z"/>
	</g>
</g>
</svg>
