<?xml version="1.0" encoding="utf-8"?>
<!-- Generator: Adobe Illustrator 18.1.1, SVG Export Plug-In . SVG Version: 6.00 Build 0)  -->
<svg version="1.1" id="Layer_1" xmlns="http://www.w3.org/2000/svg" xmlns:xlink="http://www.w3.org/1999/xlink" x="0px" y="0px"
	 viewBox="0 0 64 64" enable-background="new 0 0 64 64" xml:space="preserve">
<path fill="#CACACA" d="M17.1,62.1l0.3,0.8c0,0,0.5,1.1,14.8,1c14.2-0.1,14.3-1.2,14.3-1.2l0.4-1L30,58.4L17.1,62.1z"/>
<g>
	<g>
		<path fill="#01804E" d="M16,4.6v56.9l0.1,0.2c0,0,2.3,1.1,15.4,1.1S48,61.5,48,61.5V4.6H16z"/>
	</g>
</g>
<path fill="#0A9B61" d="M16,4.6l3.1-3h25.5l3.3,3c0,0-3.4,1.3-16,1.3S16,4.6,16,4.6z"/>
<path fill="#696969" d="M31.9,0.2c7.2,0,13,0.6,13,1.4s-5.8,1.4-13,1.4s-13-0.6-13-1.4S24.7,0.2,31.9,0.2z"/>
<path fill="none" d="M31.9,0c7.2,0,13,0.5,13,1.2s-5.8,1.2-13,1.2s-13-0.5-13-1.2S24.7,0,31.9,0z"/>
<path fill="#C2C2C2" d="M31.9,0c7.2,0,13,0.5,13,1.2s-5.8,1.2-13,1.2s-13-0.5-13-1.2S24.7,0,31.9,0z"/>
</svg>
