<?xml version="1.0" encoding="utf-8"?>
<!-- Generator: Adobe Illustrator 18.1.1, SVG Export Plug-In . SVG Version: 6.00 Build 0)  -->
<svg version="1.1" id="Layer_1" xmlns="http://www.w3.org/2000/svg" xmlns:xlink="http://www.w3.org/1999/xlink" x="0px" y="0px"
	 viewBox="0 0 64 64" enable-background="new 0 0 64 64" xml:space="preserve">
<g>
	<g>
		<path fill-rule="evenodd" clip-rule="evenodd" fill="#F9D563" d="M227.7,356.9v34.9H708v-34.9H227.7z M466.7,454.3
			c-199.9,0-237.2,139.8-237.2,139.8h39.5c0,0,38.4-108.7,199.9-108.7s202,108.7,202,108.7h35.1
			C706.1,594.1,666.6,454.3,466.7,454.3z"/>
	</g>
</g>
<g>
	<g>
		<path fill-rule="evenodd" clip-rule="evenodd" fill="#333333" d="M225.4,322.3c-94.8,0-171.6,76.8-171.6,171.6
			s76.8,171.6,171.6,171.6S397,588.7,397,493.9S320.2,322.3,225.4,322.3z M735.6,322.3c-94.8,0-171.6,76.8-171.6,171.6
			s76.8,171.6,171.6,171.6s171.6-76.8,171.6-171.6S830.4,322.3,735.6,322.3z"/>
	</g>
	<g>
		<path fill="none" stroke="#F9D563" stroke-width="22" stroke-miterlimit="10" d="M225.4,322.3c-94.8,0-171.6,76.8-171.6,171.6
			s76.8,171.6,171.6,171.6S397,588.7,397,493.9S320.2,322.3,225.4,322.3z M735.6,322.3c-94.8,0-171.6,76.8-171.6,171.6
			s76.8,171.6,171.6,171.6s171.6-76.8,171.6-171.6S830.4,322.3,735.6,322.3z"/>
	</g>
</g>
<g>
	<g>
		<path fill-rule="evenodd" clip-rule="evenodd" fill="#EAB959" d="M54.8,431.7H26.2c-7,0-12.7,5.7-12.7,12.7v5.8
			c0,7,5.7,12.7,12.7,12.7h28.6c7,0,12.7-5.7,12.7-12.7v-5.8C67.5,437.4,61.8,431.7,54.8,431.7z M934.8,431.7h-28.6
			c-7,0-12.7,5.7-12.7,12.7v5.8c0,7,5.7,12.7,12.7,12.7h28.6c7,0,12.7-5.7,12.7-12.7v-5.8C947.5,437.4,941.8,431.7,934.8,431.7z"/>
	</g>
</g>
</svg>
