<?xml version="1.0" encoding="utf-8"?>
<!-- Generator: Adobe Illustrator 18.1.1, SVG Export Plug-In . SVG Version: 6.00 Build 0)  -->
<svg version="1.1" id="Layer_1" xmlns="http://www.w3.org/2000/svg" xmlns:xlink="http://www.w3.org/1999/xlink" x="0px" y="0px"
	 viewBox="0 0 64 64" enable-background="new 0 0 64 64" xml:space="preserve">
<g>
	<g>
		<path fill="#F9D563" d="M14.7,19.2v3.3h32.9v-3.3H14.7z M31.1,28.3c-13.7,0-16.3,13-16.3,13h2.7c0,0,2.6-10.1,13.7-10.1
			S45,41.3,45,41.3h2.4C47.5,41.3,44.8,28.3,31.1,28.3z"/>
	</g>
</g>
<g>
	<g>
		<path fill="#333333" d="M14.5,16C8,16,2.8,23.2,2.8,32S8,48,14.5,48s11.8-7.2,11.8-16S21,16,14.5,16z M49.5,16
			c-6.5,0-11.8,7.2-11.8,16S43,48,49.5,48s11.8-7.2,11.8-16S56,16,49.5,16z"/>
	</g>
	<g>
		<path fill="none" stroke="#F9D563" stroke-width="4" stroke-miterlimit="10" d="M14.5,16C8,16,2.8,23.2,2.8,32S8,48,14.5,48
			s11.8-7.2,11.8-16S21,16,14.5,16z M49.5,16c-6.5,0-11.8,7.2-11.8,16S43,48,49.5,48s11.8-7.2,11.8-16S56,16,49.5,16z"/>
	</g>
</g>
<g>
	<g>
		<path fill="#EAB959" d="M2.8,26.2h-2c-0.5,0-0.9,0.5-0.9,1.2v0.5c0,0.7,0.4,1.2,0.9,1.2h2c0.5,0,0.9-0.5,0.9-1.2v-0.5
			C3.7,26.7,3.3,26.2,2.8,26.2z M63.1,26.2h-2c-0.5,0-0.9,0.5-0.9,1.2v0.5c0,0.7,0.4,1.2,0.9,1.2h2c0.5,0,0.9-0.5,0.9-1.2v-0.5
			C64,26.7,63.6,26.2,63.1,26.2z"/>
	</g>
</g>
</svg>
