<?xml version="1.0" encoding="utf-8"?>
<!-- Generator: Adobe Illustrator 18.1.1, SVG Export Plug-In . SVG Version: 6.00 Build 0)  -->
<svg version="1.1" id="Layer_1" xmlns="http://www.w3.org/2000/svg" xmlns:xlink="http://www.w3.org/1999/xlink" x="0px" y="0px"
	 viewBox="0 0 64 64" enable-background="new 0 0 64 64" xml:space="preserve">
<path fill="#FF0000" d="M32,0l-5.6,9.7c-0.6,1-1.8,1-2.9,0.4l-4-1.9l3,14.8c0.6,2.7-1.4,2.7-2.4,1.5L13,17.1l-1.1,3.7
	c-0.1,0.5-0.7,1-1.6,0.9L1.3,20l2.3,7.9c0.5,1.8,0.9,2.5-0.5,2.9L0,32.2l15.4,11.6c0.6,0.4,0.9,1.2,0.7,1.9l-1.3,4.1
	c5.3-0.6,10-1.4,15.3-1.9c0.5,0,1.3,0.7,1.3,1.2l-0.7,15h2.6l-0.4-14.9c0-0.5,0.7-1.2,1.2-1.2c5.3,0.5,10,1.4,15.3,1.9l-1.3-4.1
	c-0.2-0.7,0.1-1.5,0.7-1.9L64,32.2l-3.2-1.4c-1.4-0.5-1-1.2-0.5-2.9l2.3-7.9l-8.9,1.7c-0.9,0.1-1.5-0.4-1.6-0.9L51,17.1l-7.1,7.3
	c-1,1.2-3,1.2-2.4-1.5l3-14.8l-4,1.9c-1.1,0.6-2.3,0.7-2.9-0.4"/>
</svg>
