<?xml version="1.0" encoding="utf-8"?>
<!-- Generator: Adobe Illustrator 18.1.1, SVG Export Plug-In . SVG Version: 6.00 Build 0)  -->
<svg version="1.1" id="Layer_1" xmlns="http://www.w3.org/2000/svg" xmlns:xlink="http://www.w3.org/1999/xlink" x="0px" y="0px"
	 viewBox="0 0 64 64" enable-background="new 0 0 64 64" xml:space="preserve">
<path fill="#FF0000" d="M484,7.3l-76.4,142.6c-8.7,15.5-24.2,14.1-39.8,5.4l-55.3-28.7l41.2,219c8.7,40-19.2,40-32.9,22.7
	l-96.6-108.1l-15.7,54.9c-1.8,7.2-9.8,14.8-21.7,13L64.7,302.4l32.1,116.6c6.9,26,12.2,36.7-6.9,43.5l-43.5,20.5l210.2,170.8
	c8.3,6.5,12.5,18.1,9.6,28.6l-18.4,60.4c72.4-8.3,137.3-20.9,209.7-28.6c6.4-0.7,17.1,9.9,17.1,17.3l-9.6,221.2h35.2l-5.5-220.8
	c0-7.4,9.7-18.4,16.1-17.8c72.4,7.7,137.3,20.3,209.7,28.6l-18.4-60.4c-3-10.5,1.2-22.1,9.6-28.6l210.2-170.8l-43.5-20.5
	c-19.2-6.8-13.8-17.6-6.9-43.5l32.1-116.6l-122.1,25.7c-11.9,1.8-19.9-5.8-21.7-13l-15.7-54.9l-96.6,108.1
	c-13.7,17.3-41.6,17.3-32.9-22.7l41.2-219l-55.3,28.7c-15.5,8.7-31.1,10.1-39.8-5.4"/>
</svg>
