<?xml version="1.0" encoding="utf-8"?>
<!-- Generator: Adobe Illustrator 18.1.1, SVG Export Plug-In . SVG Version: 6.00 Build 0)  -->
<svg version="1.1" id="Layer_1" xmlns="http://www.w3.org/2000/svg" xmlns:xlink="http://www.w3.org/1999/xlink" x="0px" y="0px"
	 viewBox="0 0 960 960" enable-background="new 0 0 960 960" xml:space="preserve">
<path fill="#FBB041" d="M949.4,479.1c0,262.1-212.5,474.7-474.7,474.7C212.5,953.8-0.1,741.3-0.1,479.1
	C-0.1,216.9,212.5,4.4,474.7,4.4C736.8,4.4,949.4,216.9,949.4,479.1"/>
<ellipse fill="#FFFFFF" cx="632.4" cy="412.7" rx="96.5" ry="144.5"/>
<path fill="#25333A" d="M570,412.7c0,41.8,27.9,75.8,62.4,75.8c34.5,0,62.4-33.9,62.4-75.8c0-41.8-27.9-75.7-62.4-75.7
	C597.9,337,570,370.9,570,412.7"/>
<g opacity="0.987">
	<path fill="#E79D3C" d="M225.9,616.5C141.8,436,138,241.7,214.1,81.1C85.2,166,0,311.9,0,477.7c0,262.1,212.5,474.7,474.7,474.7
		c4.7,0,9.2-0.6,13.9-0.7C379.8,860.1,288.1,749.9,225.9,616.5"/>
</g>
<ellipse fill="#FFFFFF" cx="309.7" cy="407.9" rx="96.5" ry="144.5"/>
<ellipse fill="#25333A" cx="309.7" cy="407.9" rx="62.4" ry="75.8"/>
<path fill="#633D19" d="M675.6,642.7c-152.5-24.2-317.3,20.6-453.8,87.6c-30.3,14.9-8.9,62.9,21.6,47.9c128.4-63,283-106,426.6-83.3
	C703.6,700.3,708.9,648,675.6,642.7"/>
<path fill-rule="evenodd" clip-rule="evenodd" fill="#FFFFFF" stroke="#633D19" stroke-width="22" stroke-miterlimit="10" d="
	M71,589.9L222.4,822l176.2,117.5l298.5-47c0,0,79.1-75.7,25.7-354.6C669.5,259,676.6,261,676.6,261s-8.8-37.3-39.5-31.8
	c-30.7,5.5-36.7,17.9-32.8,38.3c3.9,20.4,26.6,209.1,26.6,209.1s-5.4,59.3-24.2-21.6c-18.8-80.9-62.4-325.8-62.4-325.8
	s-7.6-31-44.8-24.4s-47.5,31.2-45.7,40.6c1.8,9.4,57.1,333.2,57.1,333.2s-11.3,45.8-20.6-2.8c-9.3-48.6-67.1-350.9-67.1-350.9
	s-2.3-38.5-52.4-29.5c-50.1,9-45.7,40.6-45.7,40.6l63.1,364.6c0,0-8.8,50.2-21.8-9.1c-13-59.2-64-299.6-64-299.6
	s-0.3-45.3-53.6-35.8c-53.3,9.6-36.9,52-36.9,52l53.8,385.7l13.2,68.9c0,0-21.3-23.7-54.8-42c-33.6-18.3-39-64.3-96-47.6
	C71,589.9,71,589.9,71,589.9z"/>
</svg>
