<?xml version="1.0" encoding="utf-8"?>
<!-- Generator: Adobe Illustrator 18.1.1, SVG Export Plug-In . SVG Version: 6.00 Build 0)  -->
<svg version="1.1" id="Layer_1" xmlns="http://www.w3.org/2000/svg" xmlns:xlink="http://www.w3.org/1999/xlink" x="0px" y="0px"
	 viewBox="0 0 64 64" enable-background="new 0 0 64 64" xml:space="preserve">
<path fill="#FBB041" d="M64,32c0,17.7-14.3,32-32,32C14.3,64,0,49.7,0,32S14.3,0,32,0C49.7,0,64,14.3,64,32"/>
<ellipse fill="#FFFFFF" cx="42.6" cy="27.5" rx="6.5" ry="9.7"/>
<path fill="#25333A" d="M38.4,27.5c0,2.8,1.9,5.1,4.2,5.1s4.2-2.3,4.2-5.1c0-2.8-1.9-5.1-4.2-5.1S38.4,24.7,38.4,27.5"/>
<g opacity="0.987">
	<path fill="#E79D3C" d="M15.2,41.3C9.6,29.1,9.3,16,14.4,5.2C5.7,10.9,0,20.7,0,31.9c0,17.7,14.3,32,32,32c0.3,0,0.6,0,0.9,0
		C25.6,57.7,19.4,50.3,15.2,41.3"/>
</g>
<ellipse fill="#FFFFFF" cx="20.9" cy="27.2" rx="6.5" ry="9.7"/>
<ellipse fill="#25333A" cx="20.9" cy="27.2" rx="4.2" ry="5.1"/>
<path fill="#633D19" d="M45.5,43c-10.3-1.6-21.4,1.4-30.6,5.9c-2,1-0.6,4.2,1.5,3.2c8.7-4.2,19.1-7.1,28.8-5.6
	C47.4,46.9,47.8,43.4,45.5,43"/>
<path fill="#FFFFFF" stroke="#633D19" stroke-width="2" stroke-miterlimit="10" d="M4.8,39.5L15,55.1L26.9,63L47,59.9
	c0,0,5.3-5.1,1.7-23.9c-3.6-18.8-3.1-18.7-3.1-18.7s-0.6-2.5-2.7-2.1c-2.1,0.4-2.5,1.2-2.2,2.6c0.3,1.4,1.8,14.1,1.8,14.1
	s-0.4,4-1.6-1.5s-4.2-22-4.2-22s-0.5-2.1-3-1.6c-2.5,0.4-3.2,2.1-3.1,2.7S34.4,32,34.4,32s-0.8,3.1-1.4-0.2S28.5,8.1,28.5,8.1
	s-0.2-2.6-3.5-2s-3.1,2.7-3.1,2.7l4.3,24.6c0,0-0.6,3.4-1.5-0.6c-0.9-4-4.3-20.2-4.3-20.2s0-3.1-3.6-2.4c-3.6,0.6-2.5,3.5-2.5,3.5
	l3.6,26l0.9,4.6c0,0-1.4-1.6-3.7-2.8c-2.3-1.2-2.6-4.3-6.5-3.2C4.8,39.5,4.8,39.5,4.8,39.5z"/>
</svg>
