<?xml version="1.0" encoding="utf-8"?>
<!-- Generator: Adobe Illustrator 18.1.1, SVG Export Plug-In . SVG Version: 6.00 Build 0)  -->
<svg version="1.1" id="Layer_1" xmlns="http://www.w3.org/2000/svg" xmlns:xlink="http://www.w3.org/1999/xlink" x="0px" y="0px"
	 viewBox="59.1 -66.2 64 64" enable-background="new 59.1 -66.2 64 64" xml:space="preserve">
<g transform="translate(0.000000,200.000000) scale(0.100000,-0.100000)">
	<path d="M590.9,2342v-320h81.7h81.7v16c0,15-0.7,16-8.7,16c-7,0-8.7,1.6-8.7,8c0,6.4-1.7,8-8.7,8c-7,0-8.7,1.6-8.7,8
		c0,6.4-1.7,8-8.7,8c-8,0-8.7,1-8.7,16s-0.7,16-8.7,16c-7,0-8.7,1.6-8.7,8c0,6.4-1.7,8-8.7,8h-8.7v40v40h-8.7h-8.7v32
		c0,31.7,0,32-8.3,32c-7.7,0-8.3,1.6-10.4,20.2c-1,10.9-2.8,25.3-4.2,32c-1.4,7.7-0.7,11.8,1.7,11.8c2.1,0,3.8,3.5,3.8,8
		c0,6.4-1.7,8-8.7,8h-8.7v72v72h8.7h8.7v40v40h8.7c8,0,8.7,1,8.7,16s0.7,16,8.7,16c8.3,0,8.7,0.6,8.7,24v24h-38.3h-38.3V2342z"/>
	<path d="M928.3,2638v-24h43.5h43.5v-80v-80h-17.4h-17.4v-16c0-15,0.7-16,8.7-16c7,0,8.7-1.6,8.7-8c0-7.7,0.7-8,26.1-8h26.1v-16v-16
		h34.8h34.8v-8c0-6.4,1.7-8,8.7-8h8.7v-104v-104h-8.7c-7,0-8.7-1.6-8.7-8c0-6.4-1.7-8-8.7-8h-8.7v-40v-40h-17.4
		c-16.3,0-17.4-0.6-17.4-8c0-6.4-1.7-8-8.7-8s-8.7-1.6-8.7-8v-8h90.4h90.4v320v320h-151.3H928.3V2638z"/>
	<path d="M754.4,2494v-40h-26.1c-25.4,0-26.1-0.3-26.1-8c0-6.4-1.7-8-8.7-8c-7,0-8.7-1.6-8.7-8c0-6.4,1.7-8,8.7-8
		c4.9,0,8.7-1.3,8.7-3.2c0-1.6,3.8-3.2,8.7-3.2c5.6,0,8.7-1.9,8.7-4.8c0-4.2,7.3-4.8,43.5-4.8h43.5v16c0,15,0.7,16,8.7,16
		c7,0,8.7-1.6,8.7-8c0-6.4,1.7-8,8.7-8h8.7v56v56h-43.5h-43.5V2494z"/>
	<path d="M824,2190c0-7.4-1-8-17.4-8s-17.4-0.6-17.4-8c0-6.4,1.7-8,8.7-8s8.7-1.6,8.7-8c0-6.1,1.7-8,8-8c4.9,0,9-2.9,11.1-7
		c3.5-7.4,3.8-7.4,96.7-8.3l92.9-0.6v24c0,23.4-0.3,24-8.7,24c-7,0-8.7,1.6-8.7,8v8h-43.5h-43.5v-8v-8h34.8h34.8v-8
		c0-6.4-1.7-8-8.7-8c-4.9,0-8.7-1.3-8.7-3.2s-15-3.2-37.6-3.2c-31.7,0-38.6,1-44.5,5.8c-3.8,3.2-11.1,7-16.3,8.3
		c-16,3.5-10.4,8.3,9.7,8.3c18.1,0,19.1,0.3,19.1,8v8h-34.8H824V2190z"/>
</g>
</svg>
