<?xml version="1.0" standalone="no"?>
<!DOCTYPE svg PUBLIC "-//W3C//DTD SVG 20010904//EN"
 "http://www.w3.org/TR/2001/REC-SVG-20010904/DTD/svg10.dtd">
<svg version="1.0" xmlns="http://www.w3.org/2000/svg"
 width="184.000000pt" height="200.000000pt" viewBox="0 0 64 64"
 preserveAspectRatio="xMidYMid meet">
<metadata>
Created by potrace 1.11, written by Peter Selinger 2001-2013
</metadata>
<g transform="translate(0.000000,200.000000) scale(0.100000,-0.100000)"
fill="#000000" stroke="none">
<path d="M0 1000 l0 -1000 235 0 235 0 0 50 c0 47 -2 50 -25 50 -20 0 -25 5
-25 25 0 20 -5 25 -25 25 -20 0 -25 5 -25 25 0 20 -5 25 -25 25 -23 0 -25 3
-25 50 0 47 -2 50 -25 50 -20 0 -25 5 -25 25 0 20 -5 25 -25 25 l-25 0 0 125
0 125 -25 0 -25 0 0 100 c0 99 0 100 -24 100 -22 0 -24 5 -30 63 -3 34 -8 79
-12 100 -4 24 -2 37 5 37 6 0 11 11 11 25 0 20 -5 25 -25 25 l-25 0 0 225 0
225 25 0 25 0 0 125 0 125 25 0 c23 0 25 3 25 50 0 47 2 50 25 50 24 0 25 2
25 75 l0 75 -110 0 -110 0 0 -1000z"/>
<path d="M970 1925 l0 -75 125 0 125 0 0 -250 0 -250 -50 0 -50 0 0 -50 c0
-47 2 -50 25 -50 20 0 25 -5 25 -25 0 -24 2 -25 75 -25 l75 0 0 -50 0 -50 100
0 100 0 0 -25 c0 -20 5 -25 25 -25 l25 0 0 -325 0 -325 -25 0 c-20 0 -25 -5
-25 -25 0 -20 -5 -25 -25 -25 l-25 0 0 -125 0 -125 -50 0 c-47 0 -50 -2 -50
-25 0 -20 -5 -25 -25 -25 -20 0 -25 -5 -25 -25 l0 -25 260 0 260 0 0 1000 0
1000 -435 0 -435 0 0 -75z"/>
<path d="M470 1475 l0 -125 -75 0 c-73 0 -75 -1 -75 -25 0 -20 -5 -25 -25 -25
-20 0 -25 -5 -25 -25 0 -20 5 -25 25 -25 14 0 25 -4 25 -10 0 -5 11 -10 25
-10 16 0 25 -6 25 -15 0 -13 21 -15 125 -15 l125 0 0 50 c0 47 2 50 25 50 20
0 25 -5 25 -25 0 -20 5 -25 25 -25 l25 0 0 175 0 175 -125 0 -125 0 0 -125z"/>
<path d="M670 525 c0 -23 -3 -25 -50 -25 -47 0 -50 -2 -50 -25 0 -20 5 -25 25
-25 20 0 25 -5 25 -25 0 -19 5 -25 23 -25 14 0 26 -9 32 -22 10 -23 11 -23
278 -26 l267 -2 0 75 c0 73 -1 75 -25 75 -20 0 -25 5 -25 25 l0 25 -125 0
-125 0 0 -25 0 -25 100 0 100 0 0 -25 c0 -20 -5 -25 -25 -25 -14 0 -25 -4 -25
-10 0 -6 -43 -10 -108 -10 -91 0 -111 3 -128 18 -11 10 -32 22 -47 26 -46 11
-30 26 28 26 52 0 55 1 55 25 l0 25 -100 0 -100 0 0 -25z"/>
</g>
</svg>
