<?xml version="1.0" encoding="utf-8"?>
<!-- Generator: Adobe Illustrator 18.1.1, SVG Export Plug-In . SVG Version: 6.00 Build 0)  -->
<svg version="1.1" id="Layer_1" xmlns="http://www.w3.org/2000/svg" xmlns:xlink="http://www.w3.org/1999/xlink" x="0px" y="0px"
	 viewBox="0 0 64 64" enable-background="new 0 0 64 64" xml:space="preserve">
<g>
	<g>
		<path fill="#EBEBEB" d="M64,18.9c0,0-11-6.4-20.2-9.6C35.7,6.5,32.6,5.7,32,5.5v0c0,0,0,0-0.1,0c0,0-0.1,0-0.1,0v0
			c-0.6,0.2-3.7,1-11.8,3.8C11,12.6,0,18.9,0,18.9l0.7,1.3L32,34v0l0.1,0l0.1,0v0l31.2-13.7L64,18.9z"/>
	</g>
</g>
<g>
	<g>
		<path fill="#FDD880" d="M6.3,1.7L11.5,30h4.7L10.9,1L6.3,1.7z M58.8,5.6l-12,27.2l4.2,1.5L63.3,6.4L58.8,5.6z M23.9,35l4.7-34.9
			h-4.6l-3.2,24L18.2,6.5l-4.5,0.7l4.9,34.9l4.5-0.7L22.2,35L23.9,35L23.9,35z M45.8,10.5l-3.1,16.9L41.9,2.7h-4.6l1,29.6h3.5
			l-2.4,12.8l4.6,0.1l6.5-34.8L45.8,10.5z M33.8,6.6l-4.6,0.2l-0.9,19.4L23.3,42l4.5,0.9l0.3-1l4-0.2l0.7-14.9l4-12.8l-3.3-0.6
			L33.8,6.6z"/>
	</g>
</g>
<g>
	<g>
		<path fill="#F5B84E" d="M4.4,3.3l5.1,28l2.4-0.4L6.6,1.5L4.4,3.3z M56.1,6.5l-6,13.5l1.3-7.6l-1.1-1.9l-2.8,15.4l-3.3,7.4l1.9,0.3
			L44.6,42l1.8-0.5l2.1-12L59.1,5.6L56.1,6.5z M32.3,38.3l1.8-0.6l1-29.4l-1.4-1.8L32.3,38.3z M35.8,4.1l0.9,27.5l1.7,0.2L37.4,2.7
			L35.8,4.1z M30.5,14.2l-3.9,12.3l3-24.7L28.5,0l-4.2,31.6l0.9-0.3l-1.2,3.8L19.8,8.1l-1.7-1.6L22.6,38l0.5-0.2l-1,3.2l1.6,0.5
			l8.8-28.4L30.5,14.2z"/>
	</g>
</g>
<path fill="#E01B1B" d="M0.3,20.1h8.4c0,0,5.7,13.6,23.4,13.6s23.3-13.6,23.3-13.6h8.2L51.8,64c0,0-5.8-2.1-19.7-2.1
	S12.5,64,12.5,64L0.3,20.1z"/>
<g>
	<g>
		<path fill="#FFFFFF" d="M52.7,18.7c0,0-0.5,5.1-7.4,8.9s-13.4,3.9-13.4,3.9s-6.5-0.1-13.4-3.9s-7.4-8.9-7.4-8.9L0,18.8v1.5h8.3
			c0,0,0.4,2.3,6.9,8.4C22.8,34.2,32,34,31.9,34c0,0,9.1,0.2,16.8-5.3c6.5-6.1,6.9-8.4,6.9-8.4h8.3v-1.5L52.7,18.7z"/>
	</g>
</g>
</svg>
