<?xml version="1.0" encoding="utf-8"?>
<!-- Generator: Adobe Illustrator 18.1.1, SVG Export Plug-In . SVG Version: 6.00 Build 0)  -->
<svg version="1.1" id="Layer_1" xmlns="http://www.w3.org/2000/svg" xmlns:xlink="http://www.w3.org/1999/xlink" x="0px" y="0px"
	 viewBox="0 0 960 960" enable-background="new 0 0 960 960" xml:space="preserve">
<g>
	<g>
		<path fill-rule="evenodd" clip-rule="evenodd" fill="#EBEBEB" d="M768.7,327.9c0,0-100-77.7-182.5-116.9
			c-73.3-34.9-101.8-45.3-107.2-47.1l0-0.3c0,0-0.2,0.1-0.5,0.2c-0.3-0.1-0.5-0.2-0.5-0.2l0,0.3c-5.4,1.9-33.8,12.2-106.8,47.1
			C289,250.2,189.7,327.9,189.7,327.9l6.1,15.8l283.7,168.2l0,0.6l0.5-0.3l0.5,0.3l0-0.6l282.3-168.2L768.7,327.9z"/>
	</g>
</g>
<g>
	<g>
		<path fill-rule="evenodd" clip-rule="evenodd" fill="#FDD880" d="M246.9,116.6l47,346.7h42.6l-48.3-354.7L246.9,116.6z
			 M721.9,164.6L613.7,497.3l38.4,18.5l110.5-340.5L721.9,164.6z M405.5,524.5l42.7-427h-42l-29.4,294l-22.4-215.1l-41.1,8.5
			l44.4,426.8l41.1-8.5l-8.2-78.7H405.5z M604.3,224.4L576,430.7L568.5,130h-42l9,362.5h32l-21.6,157.1l42,1.6L646.3,226
			L604.3,224.4z M495.5,177.5l-41.9,2.7l-8.3,236.9l-44.6,193.2l40.7,10.5l2.8-12l36.3-2.3l6.4-182.8l36-156.2l-30.3-7.8
			L495.5,177.5z"/>
	</g>
</g>
<g>
	<g>
		<path fill-rule="evenodd" clip-rule="evenodd" fill="#F5B84E" d="M229.5,136.9l46.1,342.5l21.6-5l-48.3-359.2L229.5,136.9z
			 M697.4,175.4l-53.9,165.1l11.9-93l-10.1-22.7l-25.5,188.4L590.1,504l16.8,3.8l-13.8,102.2l16.7-5.9l18.8-146.6l95.6-293
			L697.4,175.4z M481.5,564.8l16-7.6l9.2-359.3l-12.4-21.5L481.5,564.8z M513.7,146.7l7.9,336.5l15.6,2l-9.6-355.9L513.7,146.7z
			 M465.7,270l-35,150.7l27.3-302l-10.9-22.3l-37.9,386.8l7.7-3.1l-10.9,47l-37.7-332l-15.2-19.6l40.9,386.4l4.6-3l-9,39l14.6,5.8
			l79.3-347.1L465.7,270z"/>
	</g>
</g>
<path fill-rule="evenodd" clip-rule="evenodd" fill="#E01B1B" d="M192.5,342.5h76c0,0,51.5,166.9,212,166.9s211-166.9,211-166.9h74
	l-107,537c0,0-52.5-25.1-178-25.1s-178,25.1-178,25.1L192.5,342.5z"/>
<g>
	<g>
		<path fill-rule="evenodd" clip-rule="evenodd" fill="#FFFFFF" d="M666.5,325.5c0,0-4.4,63-66.7,108.5
			c-62.3,45.5-121.3,47.2-121.3,47.2s-58.9-1.7-121.3-47.2s-66.7-108.5-66.7-108.5l-101,1v18.1h74.8c0,0,3.9,27.7,62.7,102.5
			c69.1,67.6,151.7,65.9,151.6,65.3c-0.2,0.6,82.5,2.3,151.6-65.3c58.8-74.8,62.7-102.5,62.7-102.5h74.8v-18.1L666.5,325.5z"/>
	</g>
</g>
</svg>
