<?xml version="1.0" encoding="utf-8"?>
<!-- Generator: Adobe Illustrator 18.1.1, SVG Export Plug-In . SVG Version: 6.00 Build 0)  -->
<svg version="1.1" id="Layer_1" xmlns="http://www.w3.org/2000/svg" xmlns:xlink="http://www.w3.org/1999/xlink" x="0px" y="0px"
	 viewBox="0 0 960 960" enable-background="new 0 0 960 960" xml:space="preserve">
<path fill-rule="evenodd" clip-rule="evenodd" fill="#F29BB7" d="M416,137.8c75.9,0,137.5,61.6,137.5,137.5
	c0,75.9-61.6,137.5-137.5,137.5s-137.5-61.6-137.5-137.5C278.5,199.4,340.1,137.8,416,137.8z"/>
<path fill-rule="evenodd" clip-rule="evenodd" fill="#FBC9D9" d="M570,124.6c75.9,0,137.5,61.6,137.5,137.5
	c0,75.9-61.6,137.5-137.5,137.5S432.5,338,432.5,262C432.5,186.1,494.1,124.6,570,124.6z"/>
<path fill-rule="evenodd" clip-rule="evenodd" fill="#8C5F3B" d="M494.7,255.4c69.1,0,125.1,56,125.1,125.1
	c0,69.1-56,125.1-125.1,125.1s-125.1-56-125.1-125.1C369.6,311.4,425.6,255.4,494.7,255.4z"/>
<path fill-rule="evenodd" clip-rule="evenodd" fill="#D9B17D" d="M298.4,343.8l176.5,569.7c0,0,12.7,47.2,27.4,0
	c14.7-47.2,180.4-573.7,180.4-573.7L514,434.2c0,0-16.7,7.9-31.4,0C468,426.3,298.4,343.8,298.4,343.8z"/>
<g>
	<g>
		<path fill-rule="evenodd" clip-rule="evenodd" fill="#CCA16A" d="M325.9,430.3l5,14.8l274.9,139.7l3.3-9.9L325.9,430.3z
			 M364.2,553.5l216.6,105.2l3.3-8.2L360.9,540.4L364.2,553.5z M390.9,639l168.3,85.5l3.3-8.2l-176.6-88.8L390.9,639z M417.5,724.5
			l121.6,69l1.7-9.9L414.2,713L417.5,724.5z M442.5,803.4l78.3,49.3l3.3-11.5l-86.6-50.9L442.5,803.4z"/>
	</g>
</g>
<g>
	<g>
		<path fill-rule="evenodd" clip-rule="evenodd" fill="#C61B22" d="M434.3,89.6c0.5-3.2,1-6.4,1.5-9.6c3.6-22.1,9.4-28,16.1-35.7
			c6.6-7.7,32.2-19.5,32.2-19.5l-3.2-3.2c0,0-0.3-0.5-28.9,16.2c-13.3,7.8-19.8,30.2-23,51.8c-19.2,1.5-34.3,17.6-34.3,37.1
			c0,20.6,16.7,37.3,37.3,37.3s37.3-16.7,37.3-37.3C469.2,107,453.8,90.8,434.3,89.6z"/>
	</g>
</g>
<g>
	<g>
		<path fill-rule="evenodd" clip-rule="evenodd" fill="#F06EAA" d="M517.7,290.8l12.3,28.9l4.6-1.9l-12.3-28.9L517.7,290.8z
			 M485.9,202.1l3.8,3.2l20.3-24l-3.8-3.2L485.9,202.1z M613.8,222.1l-30.7,7l1.1,4.8l30.7-7L613.8,222.1z"/>
	</g>
</g>
<g>
	<g>
		<path fill-rule="evenodd" clip-rule="evenodd" fill="#FFFFFF" d="M566.9,300.4l-18.5,4.3l0.7,2.9l18.5-4.3L566.9,300.4z
			 M338.1,268.3l4.9,0.5l3.5-31.3l-4.9-0.5L338.1,268.3z M566.8,152.8l-4.7-1.6l-10.4,29.7l4.7,1.6L566.8,152.8z M426.2,303.6
			l28.9,12.5l2-4.6l-28.9-12.5L426.2,303.6z"/>
	</g>
</g>
</svg>
