<?xml version="1.0" encoding="utf-8"?>
<!-- Generator: Adobe Illustrator 18.1.1, SVG Export Plug-In . SVG Version: 6.00 Build 0)  -->
<svg version="1.1" id="Layer_1" xmlns="http://www.w3.org/2000/svg" xmlns:xlink="http://www.w3.org/1999/xlink" x="0px" y="0px"
	 viewBox="96 96 64 64" enable-background="new 96 96 64 64" xml:space="preserve">
<path fill="#F29BB7" d="M142.8,102.6c5.2,5.3,5.4,13.5,0.6,18.4c-4.8,4.9-12.9,4.6-18-0.6c-5.2-5.3-5.5-13.4-0.7-18.3
	C129.5,97.1,137.6,97.3,142.8,102.6z"/>
<path fill="#FBC9D9" d="M153.9,112.3c5.2,5.3,5.4,13.5,0.6,18.4c-4.8,4.9-12.9,4.6-18-0.6c-5.2-5.3-5.4-13.5-0.6-18.4
	C140.8,106.8,148.8,107.1,153.9,112.3z"/>
<path fill="#8C5F3B" d="M140.5,115.6c4.7,4.8,4.9,12.2,0.5,16.8c-4.4,4.5-11.8,4.3-16.4-0.5s-4.9-12.2-0.5-16.8
	S135.9,110.9,140.5,115.6z"/>
<path fill="#D9B17D" d="M121.7,107.8L97.5,157c0,0-2.2,3.9,1.8,1.9c4-2,48.6-24.7,48.6-24.7l-17.4-5.6c0,0-1.6-0.6-2.1-2.1
	C127.8,124.9,121.7,107.8,121.7,107.8z"/>
<g>
	<g>
		<path fill="#CCA16A" d="M118,115.3l-0.5,1.3l9.7,28l0.8-0.5L118,115.3z M112.8,126l8,21.8l0.7-0.4l-8.1-22.5L112.8,126z
			 M109.2,133.4l6,17.2l0.7-0.4l-6.3-18L109.2,133.4z M105.6,140.8l3.9,12.9l0.7-0.6l-4.1-13.2L105.6,140.8z M102.2,147.5l2.1,8.6
			l0.9-0.6l-2.6-9.3L102.2,147.5z"/>
	</g>
</g>
<g>
	<g>
		<path fill="#C61B22" d="M146.9,100.7c0.2-0.2,0.5-0.3,0.7-0.6c1.6-1.1,2.4-1.2,3.3-1.2c0.9,0,3.4,0.9,3.4,0.9v-0.4c0,0,0,0-3-1
			c-1.4-0.5-3.3,0.6-4.8,1.8c-1.4-1.2-3.4-1.3-4.7,0c-1.3,1.3-1.3,3.5,0.2,5c1.4,1.4,3.6,1.5,4.9,0.2
			C148.2,104.2,148.2,102.2,146.9,100.7z"/>
	</g>
</g>
<g>
	<g>
		<path fill="#F06EAA" d="M139.8,119.5l-1,2.7l0.4,0.2l1-2.7L139.8,119.5z M143.3,111.6l0.1,0.5l2.9-0.2l-0.1-0.5L143.3,111.6z
			 M150.6,121.7l-2.5-1.7l-0.2,0.4l2.5,1.7L150.6,121.7z"/>
	</g>
</g>
<g>
	<g>
		<path fill="#FFFFFF" d="M142.6,123.5l-1.5-1l-0.1,0.3l1.5,1L142.6,123.5z M129.1,105.6l0.4,0.4l2.3-1.8l-0.4-0.4L129.1,105.6z
			 M151.9,113.9l-0.3-0.5l-2.6,1.2l0.3,0.5L151.9,113.9z M132.8,114l1.2,2.9l0.4-0.2l-1.2-2.9L132.8,114z"/>
	</g>
</g>
</svg>
