<?xml version="1.0" encoding="utf-8"?>
<!-- Generator: Adobe Illustrator 18.1.1, SVG Export Plug-In . SVG Version: 6.00 Build 0)  -->
<svg version="1.1" id="Layer_1" xmlns="http://www.w3.org/2000/svg" xmlns:xlink="http://www.w3.org/1999/xlink" x="0px" y="0px"
	 viewBox="0 0 64 64" enable-background="new 0 0 64 64" xml:space="preserve">
<path fill="#F29BB7" d="M26.3,8.1c5.7,0,10.3,4.3,10.3,9.6s-4.6,9.6-10.3,9.6S16,23.1,16,17.8S20.6,8.1,26.3,8.1z"/>
<path fill="#FBC9D9" d="M37.7,7.2c5.7,0,10.3,4.3,10.3,9.6s-4.6,9.6-10.3,9.6s-10.3-4.3-10.3-9.6C27.5,11.5,32.1,7.2,37.7,7.2z"/>
<path fill="#8C5F3B" d="M32.1,16.4c5.2,0,9.3,3.9,9.3,8.8s-4.2,8.8-9.3,8.8s-9.3-3.9-9.3-8.8C22.8,20.3,27,16.4,32.1,16.4z"/>
<path fill="#D9B17D" d="M17.5,22.6l13.2,39.9c0,0,0.9,3.3,2,0c1.1-3.3,13.5-40.2,13.5-40.2l-12.6,6.6c0,0-1.2,0.6-2.3,0
	C30.1,28.4,17.5,22.6,17.5,22.6z"/>
<g>
	<g>
		<path fill="#CCA16A" d="M19.5,28.7l0.4,1l20.5,9.8l0.2-0.7L19.5,28.7z M22.4,37.3l16.2,7.4l0.2-0.6l-16.6-7.7L22.4,37.3z
			 M24.4,43.3l12.6,6l0.2-0.6L24,42.5L24.4,43.3z M26.4,49.3l9.1,4.8l0.1-0.7l-9.4-4.9L26.4,49.3z M28.2,54.8l5.8,3.5l0.2-0.8
			l-6.5-3.6L28.2,54.8z"/>
	</g>
</g>
<g>
	<g>
		<path fill="#C61B22" d="M27.6,4.8c0-0.2,0.1-0.4,0.1-0.7c0.3-1.5,0.7-2,1.2-2.5c0.5-0.5,2.4-1.4,2.4-1.4L31.1,0c0,0,0,0-2.2,1.1
			c-1,0.5-1.5,2.1-1.7,3.6c-1.4,0.1-2.6,1.2-2.6,2.6c0,1.4,1.2,2.6,2.8,2.6c1.5,0,2.8-1.2,2.8-2.6C30.2,6,29.1,4.9,27.6,4.8z"/>
	</g>
</g>
<g>
	<g>
		<path fill="#F06EAA" d="M33.8,18.9l0.9,2l0.3-0.1l-0.9-2L33.8,18.9z M31.5,12.7l0.3,0.2l1.5-1.7L33,11L31.5,12.7z M41,14.1
			l-2.3,0.5l0.1,0.3l2.3-0.5L41,14.1z"/>
	</g>
</g>
<g>
	<g>
		<path fill="#FFFFFF" d="M37.5,19.5l-1.4,0.3l0.1,0.2l1.4-0.3L37.5,19.5z M20.4,17.3l0.4,0l0.3-2.2l-0.4,0L20.4,17.3z M37.5,9.2
			l-0.4-0.1l-0.8,2.1l0.4,0.1L37.5,9.2z M27,19.8l2.2,0.9l0.1-0.3l-2.2-0.9L27,19.8z"/>
	</g>
</g>
</svg>
