<?xml version="1.0" encoding="utf-8"?>
<!-- Generator: Adobe Illustrator 18.1.1, SVG Export Plug-In . SVG Version: 6.00 Build 0)  -->
<svg version="1.1" id="Layer_1" xmlns="http://www.w3.org/2000/svg" xmlns:xlink="http://www.w3.org/1999/xlink" x="0px" y="0px"
	 viewBox="0 0 125 125" enable-background="new 0 0 125 125" xml:space="preserve">
<path fill-rule="evenodd" clip-rule="evenodd" fill="#FFFFFF" d="M63.6,2.9c33.5,0,59.6,27.2,59.6,60.8c0,33.6-26.1,58.7-59.6,58.7
	S3,97.3,3,63.7C3,30.1,30.1,2.9,63.6,2.9z"/>
<path fill-rule="evenodd" clip-rule="evenodd" fill="#262262" d="M64.8,34c16.6,0,30,13.5,30,30.1c0,16.6-13.4,30.1-30,30.1
	c-16.6,0-30-13.5-30-30.1C34.7,47.5,48.2,34,64.8,34z"/>
<g>
	<g>
		
			<linearGradient id="SVGID_1_" gradientUnits="userSpaceOnUse" x1="90.0568" y1="117.7624" x2="34.0095" y2="7.7634" gradientTransform="matrix(1 0 0 1 1.4059 0)">
			<stop  offset="0" style="stop-color:#6D3C97"/>
			<stop  offset="1" style="stop-color:#3EC7F4"/>
		</linearGradient>
		<path fill-rule="evenodd" clip-rule="evenodd" fill="url(#SVGID_1_)" d="M63.4,1C29.4,1,1.9,28.7,1.9,62.8s27.6,61.8,61.6,61.8
			c34,0,61.6-27.6,61.6-61.8S97.4,1,63.4,1z M93.1,53.9c1.2,9-1.4,18.4-10.7,27.8c-9.4,9.4-19,12-28,10.8c8.6,15.9,16.6,29,9.1,29
			c-32.3,0-58.5-26.3-58.5-58.7c0-12.2,22.3,25.9,49.5,29.7c-9.5-17.7-19.7-38.7-9.8-48.6C54.4,33.9,75.4,44.3,93.1,53.9
			C89.6,26.6,51.3,4,63.4,4C95.8,4,122,30.3,122,62.8C122,70.5,108.9,62.5,93.1,53.9z"/>
	</g>
</g>
</svg>
