<?xml version="1.0" encoding="utf-8"?>
<!-- Generator: Adobe Illustrator 18.1.1, SVG Export Plug-In . SVG Version: 6.00 Build 0)  -->
<svg version="1.1" id="Layer_1" xmlns="http://www.w3.org/2000/svg" xmlns:xlink="http://www.w3.org/1999/xlink" x="0px" y="0px"
	 viewBox="0 0 64 64" enable-background="new 0 0 64 64" xml:space="preserve">
<path fill="#FFFFFF" d="M32.1,1c17.4,0,31,14.1,31,31.5s-13.6,30.4-31,30.4S0.6,49.9,0.6,32.5S14.6,1,32.1,1z"/>
<path fill="#262262" d="M32.7,17.1c8.6,0,15.6,7,15.6,15.6s-7,15.6-15.6,15.6s-15.6-7-15.6-15.6C17,24.1,24.1,17.1,32.7,17.1z"/>
<g>
	<g>
		
			<linearGradient id="SVGID_1_" gradientUnits="userSpaceOnUse" x1="45.1269" y1="3.4786" x2="16.0573" y2="60.5307" gradientTransform="matrix(1 0 0 -1 1.4059 64)">
			<stop  offset="0" style="stop-color:#6D3C97"/>
			<stop  offset="1" style="stop-color:#3EC7F4"/>
		</linearGradient>
		<path fill="url(#SVGID_1_)" d="M31.9,0C14.3,0,0,14.3,0,32s14.3,32,32,32s32-14.3,32-32S49.6,0,31.9,0z M47.4,27.4
			c0.6,4.7-0.7,9.5-5.6,14.4c-4.9,4.9-9.9,6.2-14.5,5.6c4.5,8.2,8.6,15,4.7,15C15.2,62.4,1.6,48.8,1.6,32c0-6.3,11.6,13.4,25.7,15.4
			c-4.9-9.2-10.2-20-5.1-25.2C27.3,17,38.2,22.4,47.4,27.4C45.6,13.3,25.7,1.6,31.9,1.6c16.8,0,30.4,13.6,30.4,30.4
			C62.4,36,55.6,31.8,47.4,27.4z"/>
	</g>
</g>
</svg>
