<?xml version="1.0" encoding="utf-8"?>
<!-- Generator: Adobe Illustrator 18.1.1, SVG Export Plug-In . SVG Version: 6.00 Build 0)  -->
<svg version="1.1" id="Layer_1" xmlns="http://www.w3.org/2000/svg" xmlns:xlink="http://www.w3.org/1999/xlink" x="0px" y="0px"
	 viewBox="0 0 960 960" enable-background="new 0 0 960 960" xml:space="preserve">
<rect fill="#FFFFFF" width="960" height="960"/>
<rect x="1.1" y="0" fill="#C6093B" width="958.9" height="73.7"/>
<rect x="1.1" y="147.7" fill="#C6093B" width="958.9" height="73.7"/>
<rect x="1.1" y="294.4" fill="#C6093B" width="958.9" height="73.7"/>
<rect x="1.1" y="442.2" fill="#C6093B" width="958.9" height="73.7"/>
<rect x="1.1" y="590.9" fill="#C6093B" width="958.9" height="73.7"/>
<rect x="1.1" y="737.6" fill="#C6093B" width="958.9" height="73.7"/>
<rect x="1.1" y="886.3" fill="#C6093B" width="958.9" height="73.7"/>
<rect y="-3.5" fill="#001F5B" width="626" height="502.5"/>
<polygon fill="#FFFFFF" points="67.3,40.5 82.5,40.5 70.2,49.7 75,64.3 62.8,55.3 50.6,64.3 55.4,49.7 43,40.5 58.2,40.5 62.8,26.3 
	"/>
<polygon fill="#FFFFFF" points="168.4,40.5 183.6,40.5 171.3,49.7 176.1,64.3 163.9,55.3 151.7,64.3 156.5,49.7 144.1,40.5 
	159.3,40.5 163.9,26.3 "/>
<polygon fill="#FFFFFF" points="269.5,40.5 284.7,40.5 272.4,49.7 277.2,64.3 265,55.3 252.8,64.3 257.6,49.7 245.2,40.5 
	260.4,40.5 265,26.3 "/>
<polygon fill="#FFFFFF" points="370.6,40.5 385.8,40.5 373.5,49.7 378.3,64.3 366.1,55.3 353.9,64.3 358.7,49.7 346.3,40.5 
	361.5,40.5 366.1,26.3 "/>
<polygon fill="#FFFFFF" points="471.7,40.5 486.9,40.5 474.6,49.7 479.4,64.3 467.2,55.3 455,64.3 459.8,49.7 447.4,40.5 
	462.6,40.5 467.2,26.3 "/>
<polygon fill="#FFFFFF" points="572.8,40.5 588,40.5 575.7,49.7 580.5,64.3 568.3,55.3 556.1,64.3 560.9,49.7 548.5,40.5 
	563.7,40.5 568.3,26.3 "/>
<polygon fill="#FFFFFF" points="522.2,91.9 537.5,91.9 525.2,101.1 529.9,115.7 517.7,106.7 505.5,115.7 510.3,101.1 497.9,91.9 
	513.1,91.9 517.7,77.7 "/>
<polygon fill="#FFFFFF" points="471.7,143.4 486.9,143.4 474.6,152.6 479.4,167.2 467.2,158.2 455,167.2 459.8,152.6 447.4,143.4 
	462.6,143.4 467.2,129.1 "/>
<polygon fill="#FFFFFF" points="421.1,194.8 436.4,194.8 424.1,204 428.8,218.6 416.6,209.6 404.4,218.6 409.2,204 396.8,194.8 
	412,194.8 416.6,180.6 "/>
<polygon fill="#FFFFFF" points="370.6,246.2 385.8,246.2 373.5,255.4 378.3,270 366.1,261 353.9,270 358.7,255.4 346.3,246.2 
	361.5,246.2 366.1,232 "/>
<polygon fill="#FFFFFF" points="320,297.7 335.3,297.7 323,306.9 327.7,321.5 315.5,312.5 303.3,321.5 308.1,306.9 295.7,297.7 
	310.9,297.7 315.5,283.4 "/>
<polygon fill="#FFFFFF" points="269.5,349.1 284.7,349.1 272.4,358.3 277.2,372.9 265,363.9 252.8,372.9 257.6,358.3 245.2,349.1 
	260.4,349.1 265,334.8 "/>
<polygon fill="#FFFFFF" points="218.9,400.5 234.2,400.5 221.9,409.7 226.7,424.3 214.4,415.3 202.2,424.3 207,409.7 194.6,400.5 
	209.8,400.5 214.4,386.3 "/>
<polygon fill="#FFFFFF" points="168.4,451.9 183.6,451.9 171.3,461.1 176.1,475.7 163.9,466.8 151.7,475.7 156.5,461.1 144.1,451.9 
	159.3,451.9 163.9,437.7 "/>
<polygon fill="#FFFFFF" points="269.5,451.9 284.7,451.9 272.4,461.1 277.2,475.7 265,466.8 252.8,475.7 257.6,461.1 245.2,451.9 
	260.4,451.9 265,437.7 "/>
<polygon fill="#FFFFFF" points="370.6,451.9 385.8,451.9 373.5,461.1 378.3,475.7 366.1,466.8 353.9,475.7 358.7,461.1 346.3,451.9 
	361.5,451.9 366.1,437.7 "/>
<polygon fill="#FFFFFF" points="471.7,451.9 486.9,451.9 474.6,461.1 479.4,475.7 467.2,466.8 455,475.7 459.8,461.1 447.4,451.9 
	462.6,451.9 467.2,437.7 "/>
<polygon fill="#FFFFFF" points="572.8,451.9 588,451.9 575.7,461.1 580.5,475.7 568.3,466.8 556.1,475.7 560.9,461.1 548.5,451.9 
	563.7,451.9 568.3,437.7 "/>
<polygon fill="#FFFFFF" points="320,91.9 335.3,91.9 323,101.1 327.7,115.7 315.5,106.7 303.3,115.7 308.1,101.1 295.7,91.9 
	310.9,91.9 315.5,77.7 "/>
<polygon fill="#FFFFFF" points="269.5,143.4 284.7,143.4 272.4,152.6 277.2,167.2 265,158.2 252.8,167.2 257.6,152.6 245.2,143.4 
	260.4,143.4 265,129.1 "/>
<polygon fill="#FFFFFF" points="218.9,194.8 234.2,194.8 221.9,204 226.7,218.6 214.4,209.6 202.2,218.6 207,204 194.6,194.8 
	209.8,194.8 214.4,180.6 "/>
<polygon fill="#FFFFFF" points="168.4,246.2 183.6,246.2 171.3,255.4 176.1,270 163.9,261 151.7,270 156.5,255.4 144.1,246.2 
	159.3,246.2 163.9,232 "/>
<polygon fill="#FFFFFF" points="117.8,297.6 133.1,297.6 120.8,306.9 125.6,321.5 113.3,312.5 101.1,321.5 105.9,306.9 93.5,297.6 
	108.7,297.6 113.3,283.4 "/>
<polygon fill="#FFFFFF" points="117.8,91.9 133.1,91.9 120.8,101.1 125.6,115.7 113.3,106.7 101.1,115.7 105.9,101.1 93.5,91.9 
	108.7,91.9 113.3,77.7 "/>
<polygon fill="#FFFFFF" points="218.9,91.9 234.2,91.9 221.9,101.1 226.7,115.7 214.4,106.7 202.2,115.7 207,101.1 194.6,91.9 
	209.8,91.9 214.4,77.7 "/>
<polygon fill="#FFFFFF" points="168.4,143.4 183.6,143.4 171.3,152.6 176.1,167.2 163.9,158.2 151.7,167.2 156.5,152.6 144.1,143.4 
	159.3,143.4 163.9,129.1 "/>
<polygon fill="#FFFFFF" points="117.8,194.8 133.1,194.8 120.8,204 125.6,218.6 113.3,209.6 101.1,218.6 105.9,204 93.5,194.8 
	108.7,194.8 113.3,180.6 "/>
<polygon fill="#FFFFFF" points="67.3,143.4 82.5,143.4 70.2,152.6 75,167.2 62.8,158.2 50.6,167.2 55.4,152.6 43,143.4 58.2,143.4 
	62.8,129.1 "/>
<polygon fill="#FFFFFF" points="67.3,246.2 82.5,246.2 70.2,255.4 75,270 62.8,261 50.6,270 55.4,255.4 43,246.2 58.2,246.2 
	62.8,232 "/>
<polygon fill="#FFFFFF" points="67.3,349.1 82.5,349.1 70.2,358.3 75,372.9 62.8,363.9 50.6,372.9 55.4,358.3 43,349.1 58.2,349.1 
	62.8,334.8 "/>
<polygon fill="#FFFFFF" points="421.1,91.9 436.4,91.9 424.1,101.1 428.8,115.7 416.6,106.7 404.4,115.7 409.2,101.1 396.8,91.9 
	412,91.9 416.6,77.7 "/>
<polygon fill="#FFFFFF" points="370.6,143.4 385.8,143.4 373.5,152.6 378.3,167.2 366.1,158.2 353.9,167.2 358.7,152.6 346.3,143.4 
	361.5,143.4 366.1,129.1 "/>
<polygon fill="#FFFFFF" points="320,194.8 335.3,194.8 323,204 327.7,218.6 315.5,209.6 303.3,218.6 308.1,204 295.7,194.8 
	310.9,194.8 315.5,180.6 "/>
<polygon fill="#FFFFFF" points="269.5,246.2 284.7,246.2 272.4,255.4 277.2,270 265,261 252.8,270 257.6,255.4 245.2,246.2 
	260.4,246.2 265,232 "/>
<polygon fill="#FFFFFF" points="218.9,297.7 234.2,297.7 221.9,306.9 226.7,321.5 214.4,312.5 202.2,321.5 207,306.9 194.6,297.7 
	209.8,297.7 214.4,283.4 "/>
<polygon fill="#FFFFFF" points="168.4,349.1 183.6,349.1 171.3,358.3 176.1,372.9 163.9,363.9 151.7,372.9 156.5,358.3 144.1,349.1 
	159.3,349.1 163.9,334.8 "/>
<polygon fill="#FFFFFF" points="117.8,400.5 133.1,400.5 120.8,409.7 125.6,424.3 113.3,415.3 101.1,424.3 105.9,409.7 93.5,400.5 
	108.7,400.5 113.3,386.3 "/>
<polygon fill="#FFFFFF" points="67.3,451.9 82.5,451.9 70.2,461.1 75,475.7 62.8,466.8 50.6,475.7 55.4,461.1 43,451.9 58.2,451.9 
	62.8,437.7 "/>
<polygon fill="#FFFFFF" points="320,400.5 335.3,400.5 323,409.7 327.7,424.3 315.5,415.3 303.3,424.3 308.1,409.7 295.7,400.5 
	310.9,400.5 315.5,386.3 "/>
<polygon fill="#FFFFFF" points="370.6,349.1 385.8,349.1 373.5,358.3 378.3,372.9 366.1,363.9 353.9,372.9 358.7,358.3 346.3,349.1 
	361.5,349.1 366.1,334.8 "/>
<polygon fill="#FFFFFF" points="421.1,297.7 436.4,297.7 424.1,306.9 428.8,321.5 416.6,312.5 404.4,321.5 409.2,306.9 396.8,297.7 
	412,297.7 416.6,283.4 "/>
<polygon fill="#FFFFFF" points="471.7,246.2 486.9,246.2 474.6,255.4 479.4,270 467.2,261 455,270 459.8,255.4 447.4,246.2 
	462.6,246.2 467.2,232 "/>
<polygon fill="#FFFFFF" points="522.2,194.8 537.5,194.8 525.2,204 529.9,218.6 517.7,209.6 505.5,218.6 510.3,204 497.9,194.8 
	513.1,194.8 517.7,180.6 "/>
<polygon fill="#FFFFFF" points="421.1,400.5 436.4,400.5 424.1,409.7 428.8,424.3 416.6,415.3 404.4,424.3 409.2,409.7 396.8,400.5 
	412,400.5 416.6,386.3 "/>
<polygon fill="#FFFFFF" points="471.7,349.1 486.9,349.1 474.6,358.3 479.4,372.9 467.2,363.9 455,372.9 459.8,358.3 447.4,349.1 
	462.6,349.1 467.2,334.8 "/>
<polygon fill="#FFFFFF" points="522.2,297.7 537.5,297.7 525.2,306.9 529.9,321.5 517.7,312.5 505.5,321.5 510.3,306.9 497.9,297.7 
	513.1,297.7 517.7,283.4 "/>
<polygon fill="#FFFFFF" points="522.2,400.5 537.5,400.5 525.2,409.7 529.9,424.3 517.7,415.3 505.5,424.3 510.3,409.7 497.9,400.5 
	513.1,400.5 517.7,386.3 "/>
<polygon fill="#FFFFFF" points="572.8,143.4 588,143.4 575.7,152.6 580.5,167.2 568.3,158.2 556.1,167.2 560.9,152.6 548.5,143.4 
	563.7,143.4 568.3,129.1 "/>
<polygon fill="#FFFFFF" points="572.8,246.2 588,246.2 575.7,255.4 580.5,270 568.3,261 556.1,270 560.9,255.4 548.5,246.2 
	563.7,246.2 568.3,232 "/>
<polygon fill="#FFFFFF" points="572.8,349.1 588,349.1 575.7,358.3 580.5,372.9 568.3,363.9 556.1,372.9 560.9,358.3 548.5,349.1 
	563.7,349.1 568.3,334.8 "/>
</svg>
