<?xml version="1.0" encoding="utf-8"?>
<!-- Generator: Adobe Illustrator 18.1.1, SVG Export Plug-In . SVG Version: 6.00 Build 0)  -->
<svg version="1.1" id="Layer_1" xmlns="http://www.w3.org/2000/svg" xmlns:xlink="http://www.w3.org/1999/xlink" x="0px" y="0px"
	 viewBox="0 0 64 64" enable-background="new 0 0 64 64" xml:space="preserve">
<rect y="0.2" fill="#FFFFFF" width="64" height="63.8"/>
<rect x="0.1" y="0.2" fill="#C6093B" width="63.9" height="4.9"/>
<rect x="0.1" y="10" fill="#C6093B" width="63.9" height="4.9"/>
<rect x="0.1" y="19.8" fill="#C6093B" width="63.9" height="4.9"/>
<rect x="0.1" y="29.6" fill="#C6093B" width="63.9" height="4.9"/>
<rect x="0.1" y="39.5" fill="#C6093B" width="63.9" height="4.9"/>
<rect x="0.1" y="49.2" fill="#C6093B" width="63.9" height="4.9"/>
<rect x="0.1" y="59.1" fill="#C6093B" width="63.9" height="4.9"/>
<rect y="0" fill="#001F5B" width="41.7" height="33.4"/>
<polygon fill="#FFFFFF" points="4.5,2.9 5.5,2.9 4.7,3.5 5,4.5 4.2,3.9 3.4,4.5 3.7,3.5 2.9,2.9 3.9,2.9 4.2,2 "/>
<polygon fill="#FFFFFF" points="11.2,2.9 12.2,2.9 11.4,3.5 11.7,4.5 10.9,3.9 10.1,4.5 10.4,3.5 9.6,2.9 10.6,2.9 10.9,2 "/>
<polygon fill="#FFFFFF" points="18,2.9 19,2.9 18.2,3.5 18.5,4.5 17.7,3.9 16.9,4.5 17.2,3.5 16.3,2.9 17.4,2.9 17.7,2 "/>
<polygon fill="#FFFFFF" points="24.7,2.9 25.7,2.9 24.9,3.5 25.2,4.5 24.4,3.9 23.6,4.5 23.9,3.5 23.1,2.9 24.1,2.9 24.4,2 "/>
<polygon fill="#FFFFFF" points="31.4,2.9 32.5,2.9 31.6,3.5 32,4.5 31.1,3.9 30.3,4.5 30.7,3.5 29.8,2.9 30.8,2.9 31.1,2 "/>
<polygon fill="#FFFFFF" points="38.2,2.9 39.2,2.9 38.4,3.5 38.7,4.5 37.9,3.9 37.1,4.5 37.4,3.5 36.6,2.9 37.6,2.9 37.9,2 "/>
<polygon fill="#FFFFFF" points="34.8,6.3 35.8,6.3 35,6.9 35.3,7.9 34.5,7.3 33.7,7.9 34,6.9 33.2,6.3 34.2,6.3 34.5,5.4 "/>
<polygon fill="#FFFFFF" points="31.4,9.8 32.5,9.8 31.6,10.4 32,11.3 31.1,10.7 30.3,11.3 30.7,10.4 29.8,9.8 30.8,9.8 31.1,8.8 "/>
<polygon fill="#FFFFFF" points="28.1,13.2 29.1,13.2 28.3,13.8 28.6,14.8 27.8,14.2 27,14.8 27.3,13.8 26.5,13.2 27.5,13.2 
	27.8,12.2 "/>
<polygon fill="#FFFFFF" points="24.7,16.6 25.7,16.6 24.9,17.2 25.2,18.2 24.4,17.6 23.6,18.2 23.9,17.2 23.1,16.6 24.1,16.6 
	24.4,15.6 "/>
<polygon fill="#FFFFFF" points="21.3,20 22.4,20 21.5,20.6 21.8,21.6 21,21 20.2,21.6 20.5,20.6 19.7,20 20.7,20 21,19.1 "/>
<polygon fill="#FFFFFF" points="18,23.4 19,23.4 18.2,24 18.5,25 17.7,24.4 16.9,25 17.2,24 16.3,23.4 17.4,23.4 17.7,22.5 "/>
<polygon fill="#FFFFFF" points="14.6,26.8 15.6,26.8 14.8,27.4 15.1,28.4 14.3,27.8 13.5,28.4 13.8,27.4 13,26.8 14,26.8 14.3,25.9 
	"/>
<polygon fill="#FFFFFF" points="11.2,30.2 12.2,30.2 11.4,30.9 11.7,31.8 10.9,31.2 10.1,31.8 10.4,30.9 9.6,30.2 10.6,30.2 
	10.9,29.3 "/>
<polygon fill="#FFFFFF" points="18,30.2 19,30.2 18.2,30.9 18.5,31.8 17.7,31.2 16.9,31.8 17.2,30.9 16.3,30.2 17.4,30.2 17.7,29.3 
	"/>
<polygon fill="#FFFFFF" points="24.7,30.2 25.7,30.2 24.9,30.9 25.2,31.8 24.4,31.2 23.6,31.8 23.9,30.9 23.1,30.2 24.1,30.2 
	24.4,29.3 "/>
<polygon fill="#FFFFFF" points="31.4,30.2 32.5,30.2 31.6,30.9 32,31.8 31.1,31.2 30.3,31.8 30.7,30.9 29.8,30.2 30.8,30.2 
	31.1,29.3 "/>
<polygon fill="#FFFFFF" points="38.2,30.2 39.2,30.2 38.4,30.9 38.7,31.8 37.9,31.2 37.1,31.8 37.4,30.9 36.6,30.2 37.6,30.2 
	37.9,29.3 "/>
<polygon fill="#FFFFFF" points="21.3,6.3 22.4,6.3 21.5,6.9 21.8,7.9 21,7.3 20.2,7.9 20.5,6.9 19.7,6.3 20.7,6.3 21,5.4 "/>
<polygon fill="#FFFFFF" points="18,9.8 19,9.8 18.2,10.4 18.5,11.3 17.7,10.7 16.9,11.3 17.2,10.4 16.3,9.8 17.4,9.8 17.7,8.8 "/>
<polygon fill="#FFFFFF" points="14.6,13.2 15.6,13.2 14.8,13.8 15.1,14.8 14.3,14.2 13.5,14.8 13.8,13.8 13,13.2 14,13.2 14.3,12.2 
	"/>
<polygon fill="#FFFFFF" points="11.2,16.6 12.2,16.6 11.4,17.2 11.7,18.2 10.9,17.6 10.1,18.2 10.4,17.2 9.6,16.6 10.6,16.6 
	10.9,15.6 "/>
<polygon fill="#FFFFFF" points="7.9,20 8.9,20 8.1,20.6 8.4,21.6 7.6,21 6.7,21.6 7.1,20.6 6.2,20 7.2,20 7.6,19.1 "/>
<polygon fill="#FFFFFF" points="7.9,6.3 8.9,6.3 8.1,6.9 8.4,7.9 7.6,7.3 6.7,7.9 7.1,6.9 6.2,6.3 7.2,6.3 7.6,5.4 "/>
<polygon fill="#FFFFFF" points="14.6,6.3 15.6,6.3 14.8,6.9 15.1,7.9 14.3,7.3 13.5,7.9 13.8,6.9 13,6.3 14,6.3 14.3,5.4 "/>
<polygon fill="#FFFFFF" points="11.2,9.8 12.2,9.8 11.4,10.4 11.7,11.3 10.9,10.7 10.1,11.3 10.4,10.4 9.6,9.8 10.6,9.8 10.9,8.8 
	"/>
<polygon fill="#FFFFFF" points="7.9,13.2 8.9,13.2 8.1,13.8 8.4,14.8 7.6,14.2 6.7,14.8 7.1,13.8 6.2,13.2 7.2,13.2 7.6,12.2 "/>
<polygon fill="#FFFFFF" points="4.5,9.8 5.5,9.8 4.7,10.4 5,11.3 4.2,10.7 3.4,11.3 3.7,10.4 2.9,9.8 3.9,9.8 4.2,8.8 "/>
<polygon fill="#FFFFFF" points="4.5,16.6 5.5,16.6 4.7,17.2 5,18.2 4.2,17.6 3.4,18.2 3.7,17.2 2.9,16.6 3.9,16.6 4.2,15.6 "/>
<polygon fill="#FFFFFF" points="4.5,23.4 5.5,23.4 4.7,24 5,25 4.2,24.4 3.4,25 3.7,24 2.9,23.4 3.9,23.4 4.2,22.5 "/>
<polygon fill="#FFFFFF" points="28.1,6.3 29.1,6.3 28.3,6.9 28.6,7.9 27.8,7.3 27,7.9 27.3,6.9 26.5,6.3 27.5,6.3 27.8,5.4 "/>
<polygon fill="#FFFFFF" points="24.7,9.8 25.7,9.8 24.9,10.4 25.2,11.3 24.4,10.7 23.6,11.3 23.9,10.4 23.1,9.8 24.1,9.8 24.4,8.8 
	"/>
<polygon fill="#FFFFFF" points="21.3,13.2 22.4,13.2 21.5,13.8 21.8,14.8 21,14.2 20.2,14.8 20.5,13.8 19.7,13.2 20.7,13.2 21,12.2 
	"/>
<polygon fill="#FFFFFF" points="18,16.6 19,16.6 18.2,17.2 18.5,18.2 17.7,17.6 16.9,18.2 17.2,17.2 16.3,16.6 17.4,16.6 17.7,15.6 
	"/>
<polygon fill="#FFFFFF" points="14.6,20 15.6,20 14.8,20.6 15.1,21.6 14.3,21 13.5,21.6 13.8,20.6 13,20 14,20 14.3,19.1 "/>
<polygon fill="#FFFFFF" points="11.2,23.4 12.2,23.4 11.4,24 11.7,25 10.9,24.4 10.1,25 10.4,24 9.6,23.4 10.6,23.4 10.9,22.5 "/>
<polygon fill="#FFFFFF" points="7.9,26.8 8.9,26.8 8.1,27.4 8.4,28.4 7.6,27.8 6.7,28.4 7.1,27.4 6.2,26.8 7.2,26.8 7.6,25.9 "/>
<polygon fill="#FFFFFF" points="4.5,30.2 5.5,30.2 4.7,30.9 5,31.8 4.2,31.2 3.4,31.8 3.7,30.9 2.9,30.2 3.9,30.2 4.2,29.3 "/>
<polygon fill="#FFFFFF" points="21.3,26.8 22.4,26.8 21.5,27.4 21.8,28.4 21,27.8 20.2,28.4 20.5,27.4 19.7,26.8 20.7,26.8 21,25.9 
	"/>
<polygon fill="#FFFFFF" points="24.7,23.4 25.7,23.4 24.9,24 25.2,25 24.4,24.4 23.6,25 23.9,24 23.1,23.4 24.1,23.4 24.4,22.5 "/>
<polygon fill="#FFFFFF" points="28.1,20 29.1,20 28.3,20.6 28.6,21.6 27.8,21 27,21.6 27.3,20.6 26.5,20 27.5,20 27.8,19.1 "/>
<polygon fill="#FFFFFF" points="31.4,16.6 32.5,16.6 31.6,17.2 32,18.2 31.1,17.6 30.3,18.2 30.7,17.2 29.8,16.6 30.8,16.6 
	31.1,15.6 "/>
<polygon fill="#FFFFFF" points="34.8,13.2 35.8,13.2 35,13.8 35.3,14.8 34.5,14.2 33.7,14.8 34,13.8 33.2,13.2 34.2,13.2 34.5,12.2 
	"/>
<polygon fill="#FFFFFF" points="28.1,26.8 29.1,26.8 28.3,27.4 28.6,28.4 27.8,27.8 27,28.4 27.3,27.4 26.5,26.8 27.5,26.8 
	27.8,25.9 "/>
<polygon fill="#FFFFFF" points="31.4,23.4 32.5,23.4 31.6,24 32,25 31.1,24.4 30.3,25 30.7,24 29.8,23.4 30.8,23.4 31.1,22.5 "/>
<polygon fill="#FFFFFF" points="34.8,20 35.8,20 35,20.6 35.3,21.6 34.5,21 33.7,21.6 34,20.6 33.2,20 34.2,20 34.5,19.1 "/>
<polygon fill="#FFFFFF" points="34.8,26.8 35.8,26.8 35,27.4 35.3,28.4 34.5,27.8 33.7,28.4 34,27.4 33.2,26.8 34.2,26.8 34.5,25.9 
	"/>
<polygon fill="#FFFFFF" points="38.2,9.8 39.2,9.8 38.4,10.4 38.7,11.3 37.9,10.7 37.1,11.3 37.4,10.4 36.6,9.8 37.6,9.8 37.9,8.8 
	"/>
<polygon fill="#FFFFFF" points="38.2,16.6 39.2,16.6 38.4,17.2 38.7,18.2 37.9,17.6 37.1,18.2 37.4,17.2 36.6,16.6 37.6,16.6 
	37.9,15.6 "/>
<polygon fill="#FFFFFF" points="38.2,23.4 39.2,23.4 38.4,24 38.7,25 37.9,24.4 37.1,25 37.4,24 36.6,23.4 37.6,23.4 37.9,22.5 "/>
</svg>
