<?xml version="1.0" encoding="utf-8"?>
<!-- Generator: Adobe Illustrator 18.1.1, SVG Export Plug-In . SVG Version: 6.00 Build 0)  -->
<svg version="1.1" id="Layer_1" xmlns="http://www.w3.org/2000/svg" xmlns:xlink="http://www.w3.org/1999/xlink" x="0px" y="0px"
	 viewBox="0 0 64 64" enable-background="new 0 0 64 64" xml:space="preserve">
<path fill-rule="evenodd" clip-rule="evenodd" fill="#CACACA" d="M250.2,913.1l5.1,11.6c0,0,8.4,14.9,227.9,13.8
	c219.6-1.2,221.1-16.2,221.1-16.2l6.6-13.3l-261.4-46.9L250.2,913.1z"/>
<g>
	<g>
		<path fill-rule="evenodd" clip-rule="evenodd" fill="#98012E" d="M233.5,121.4v782.1l1.7,2.6c0,0,35.5,15.7,237.9,15.7
			s254.5-18.3,254.5-18.3V121.4H233.5z"/>
	</g>
</g>
<path fill-rule="evenodd" clip-rule="evenodd" fill="#AF1550" d="M233.5,121.4l48.2-41.6h394.2l51.6,41.6c0,0-52.7,18.3-247.8,18.3
	S233.5,121.4,233.5,121.4z"/>
<path fill-rule="evenodd" clip-rule="evenodd" fill="#696969" d="M479,60.9c110.7,0,200.5,8.4,200.5,18.8
	c0,10.4-89.8,18.8-200.5,18.8s-200.5-8.4-200.5-18.8C278.5,69.3,368.3,60.9,479,60.9z"/>
<path fill-rule="evenodd" clip-rule="evenodd" fill="none" d="M479,58.5c110.7,0,200.5,7.4,200.5,16.5c0,9.1-89.8,16.5-200.5,16.5
	S278.5,84.1,278.5,75C278.5,65.9,368.3,58.5,479,58.5z"/>
<path fill-rule="evenodd" clip-rule="evenodd" fill="#C2C2C2" d="M479,58.5c110.7,0,200.5,7.4,200.5,16.5
	c0,9.1-89.8,16.5-200.5,16.5S278.5,84.1,278.5,75C278.5,65.9,368.3,58.5,479,58.5z"/>
</svg>
