<?xml version="1.0" encoding="utf-8"?>
<!-- Generator: Adobe Illustrator 18.1.1, SVG Export Plug-In . SVG Version: 6.00 Build 0)  -->
<svg version="1.1" id="Layer_1" xmlns="http://www.w3.org/2000/svg" xmlns:xlink="http://www.w3.org/1999/xlink" x="0px" y="0px"
	 viewBox="0 0 64 64" enable-background="new 0 0 64 64" xml:space="preserve">
<radialGradient id="SVGID_1_" cx="-5888.6719" cy="5877" r="449.5" gradientTransform="matrix(7.119022e-002 0 0 -7.119021e-002 451.2158 450.3849)" gradientUnits="userSpaceOnUse">
	<stop  offset="0" style="stop-color:#FEB661"/>
	<stop  offset="1.420861e-002" style="stop-color:#FEB560"/>
	<stop  offset="0.3295" style="stop-color:#F5A54D"/>
	<stop  offset="0.6541" style="stop-color:#F19C42"/>
	<stop  offset="1" style="stop-color:#EF993E"/>
</radialGradient>
<path fill="url(#SVGID_1_)" stroke="#DC7F1A" stroke-width="15" stroke-miterlimit="10" d="M32,0c17.7,0,32,14.3,32,32
	S49.7,64,32,64S0,49.7,0,32S14.3,0,32,0z"/>
<linearGradient id="SVGID_2_" gradientUnits="userSpaceOnUse" x1="32.005" y1="59.6897" x2="32.005" y2="3.7617" gradientTransform="matrix(1 0 0 -1 0 64)">
	<stop  offset="0" style="stop-color:#FFDE74"/>
	<stop  offset="1" style="stop-color:#F9D563"/>
</linearGradient>
<path fill="url(#SVGID_2_)" d="M2.8,30.9c0,0,2-10.7,3.7-12.9s1.8-5.2,4.1-6.1c2.3-0.9,5.9-5.1,5.9-5.1s0.4-1.6,4.8-1.2
	s6.1-0.8,6.4-1.1C28,4.1,31,2.9,33.5,3.4s4.1,1.8,6.3,1.4c2.3-0.4,3.6-1.5,6.4,1.1c2.8,2.6,6,4.4,6,4.4s6.1,6.8,6.5,8.2
	c0.4,1.4,0.5,5.7,2,8.2s-0.5,17.7-3.5,18.9c-3,1.1-6.4,7.9-9.3,10.3c-2.8,2.4-5.8,4.7-11.7,5.3c-5.8,0.6-13.1-3.8-18.7-5.1
	c-5.6-1.4-9-5.3-8.8-8c0.2-2.7-3.4-4.5-4.6-6.1s-1.3-2.8-1.1-5.4C3.3,33.9,2.8,36,2.8,30.9z"/>
<path fill="#B13125" stroke="#AA2922" stroke-width="8" stroke-miterlimit="10" d="M13.1,26.2c2.2,0,4,1.8,4,4s-1.8,4-4,4
	s-4-1.8-4-4S10.9,26.2,13.1,26.2z"/>
<path fill="#B13125" stroke="#AA2922" stroke-width="8" stroke-miterlimit="10" d="M21.1,41.3c2.5,0,4.5,2,4.5,4.5
	c0,2.5-2,4.5-4.5,4.5s-4.5-2-4.5-4.5C16.7,43.3,18.7,41.3,21.1,41.3z"/>
<path fill="#B13125" stroke="#AA2922" stroke-width="8" stroke-miterlimit="10" d="M39.3,44.9c2.2,0,4,1.8,4,4s-1.8,4-4,4
	s-4-1.8-4-4S37.1,44.9,39.3,44.9z"/>
<path fill="#B13125" stroke="#AA2922" stroke-width="8" stroke-miterlimit="10" d="M34.1,22.8c2,0,3.7,1.6,3.7,3.7s-1.6,3.7-3.7,3.7
	c-2,0-3.7-1.6-3.7-3.7S32,22.8,34.1,22.8z"/>
<path fill="#B13125" stroke="#AA2922" stroke-width="8" stroke-miterlimit="10" d="M45.4,11.2c2.2,0,4,1.8,4,4s-1.8,4-4,4
	s-4-1.8-4-4S43.2,11.2,45.4,11.2z"/>
<path fill="#B13125" stroke="#AA2922" stroke-width="8" stroke-miterlimit="10" d="M45.4,31.6c2,0,3.7,1.7,3.7,3.7S47.4,39,45.4,39
	s-3.7-1.7-3.7-3.7S43.4,31.6,45.4,31.6z"/>
<path fill="#B13125" stroke="#AA2922" stroke-width="8" stroke-miterlimit="10" d="M21.1,9.6c2.1,0,3.9,1.7,3.9,3.9
	s-1.7,3.9-3.9,3.9s-3.9-1.7-3.9-3.9S18.9,9.6,21.1,9.6z"/>
<path fill="#39B54A" d="M33.8,52.1c0,0-1.7-1.1-2.2-2.1C31,49,31,49.3,31,49.3l0,0.2l-0.4-0.4c0,0-0.2,0.3,0.1,0.5
	c0.2,0.2-0.2,0.3-0.2,0.3l-0.7-0.6c0,0-0.6-0.2-0.3,0.2c0.2,0.4-0.3,0.2-0.3,0.2s-1.2-0.8-0.5-0.2c0.7,0.6-0.5-0.2,0,0.3
	c0.5,0.5-0.9,0.1,0.2,0.5c1.1,0.4,1,0.5,1,0.5l-0.5,0.1c0,0-0.8,0.1,0.1,0.3c0.9,0.1,0,0.5,0,0.5s0,0.3,0.7-0.2
	c0.7-0.5,0.5-0.1,0.5-0.1s0.1,0.4-0.3,0.5s0.6,0.3,0.6,0.3l1,0.1c0,0,0.9-0.3,1.5-0.1C34,52.5,34.3,52.4,33.8,52.1z"/>
<path fill="#39B54A" d="M26.7,32.8c0,0-1.8,0.9-2.9,0.8c-1.1,0-0.8,0.1-0.8,0.1l0.2,0.1L22.7,34c0,0,0.2,0.3,0.5,0.2
	c0.3-0.1,0.1,0.3,0.1,0.3l-0.9,0.2c0,0-0.5,0.4,0,0.4c0.5,0,0,0.4,0,0.4s-1.3,0.6-0.4,0.3c0.8-0.3-0.4,0.3,0.3,0.1
	c0.7-0.2-0.4,0.8,0.5,0.1c0.9-0.7,0.9-0.6,0.9-0.6l-0.2,0.5c0,0-0.3,0.7,0.3,0c0.6-0.7,0.4,0.3,0.4,0.3s0.3,0.2,0.2-0.7
	c-0.1-0.9,0.2-0.5,0.2-0.5s0.4,0.1,0.3,0.5s0.6-0.4,0.6-0.4l0.6-0.7c0,0,0.2-0.9,0.7-1.3C27.3,32.8,27.3,32.5,26.7,32.8z"/>
<path fill="#39B54A" d="M15.4,21.9c0,0-1.1-1.1-1.4-1.9c-0.2-0.8-0.3-0.6-0.3-0.6l0,0.2l-0.3-0.3c0,0-0.2,0.2,0,0.4
	c0.1,0.2-0.2,0.2-0.2,0.2l-0.4-0.6c0,0-0.4-0.3-0.3,0.1s-0.3,0.1-0.3,0.1s-0.8-0.8-0.4-0.2c0.4,0.5-0.4-0.2,0,0.3
	c0.3,0.5-0.7-0.1,0,0.4c0.8,0.4,0.7,0.5,0.7,0.5l-0.4,0c0,0-0.6,0,0,0.2c0.6,0.2-0.1,0.4-0.1,0.4s-0.1,0.3,0.5,0
	c0.6-0.3,0.4,0,0.4,0s0,0.3-0.3,0.3c-0.3,0,0.4,0.3,0.4,0.3l0.7,0.3c0,0,0.7-0.1,1.2,0.2C15.5,22.3,15.8,22.3,15.4,21.9z"/>
<path fill="#39B54A" d="M46.1,27.4c0,0-1.4-1.3-1.7-2.3c-0.3-1-0.4-0.7-0.4-0.7l0,0.2l-0.3-0.4c0,0-0.2,0.2,0,0.5
	c0.2,0.3-0.3,0.2-0.3,0.2L43,24.2c0,0-0.5-0.3-0.3,0.1c0.2,0.4-0.3,0.1-0.3,0.1s-1-0.9-0.4-0.3c0.5,0.7-0.4-0.3,0,0.3
	c0.4,0.6-0.9-0.1,0.1,0.5c0.9,0.5,0.8,0.6,0.8,0.6l-0.5,0c0,0-0.7,0,0,0.3s-0.1,0.5-0.1,0.5s-0.1,0.3,0.7-0.1c0.7-0.4,0.5,0,0.5,0
	s0,0.4-0.4,0.4c-0.4,0,0.5,0.4,0.5,0.4l0.9,0.3c0,0,0.8-0.1,1.4,0.2C46.2,27.9,46.6,27.9,46.1,27.4z"/>
<path fill="#EDCD67" d="M30.4,15.1l1.3-1.5c0,0-0.6-1.7,0.1-2.5c0.7-0.8,2.3-1.1,3.7,0.2c1.4,1.4,1.3,3,0.8,3.6
	c-0.5,0.6-1.2,0.9-1.7,0.8c-0.5-0.1-1.1-0.4-1.1-0.4l-1.3,1.1c0,0-0.5,0.4-1.3-0.4C30.1,15.4,30.4,15.1,30.4,15.1z"/>
<path fill="#EFE7E0" d="M30.4,14.8l1.3-1.5c0,0-0.6-1.7,0.1-2.5c0.7-0.8,2.4-1.2,3.8,0.3c1.4,1.4,1.3,3,0.8,3.7
	c-0.5,0.6-1.2,0.9-1.8,0.8c-0.5-0.1-1.1-0.4-1.1-0.4l-1.3,1.1c0,0-0.5,0.4-1.3-0.4C30.1,15.1,30.4,14.8,30.4,14.8z"/>
<path fill="#A2886D" d="M31.9,13.1l1.1-0.9c0,0-0.5-0.2-0.9,0.1C31.7,12.7,31.9,13.1,31.9,13.1z"/>
<path fill="#A2886D" d="M34.8,14l-1.1,0.9c0,0,0.5,0.2,0.9-0.1C35,14.5,34.8,14,34.8,14z"/>
<path fill="#DBCCBD" d="M33,12.1c0,0,0.7,0,1.1,0.4c0.4,0.4,0.7,1,0.7,1.3c0,0.3-0.1,0.1-0.1,0.1s-0.2-0.9-0.7-1.3
	S33.4,12.3,33,12.1C32.4,12.1,33,12.1,33,12.1z"/>
<path fill="#EFE7E0" d="M46.2,46l0.9-1.4c0,0-0.7-1.3-0.3-2c0.5-0.7,1.8-1.2,3.1-0.3c1.3,1,1.4,2.3,1.1,2.8
	c-0.3,0.6-0.9,0.9-1.3,0.9c-0.4,0-0.9-0.2-0.9-0.2L47.9,47c0,0-0.4,0.4-1.1-0.1C46,46.3,46.2,46,46.2,46z"/>
<path fill="#A2886D" d="M47.2,44.5l0.8-0.8c0,0-0.4-0.1-0.7,0.2C47,44.1,47.2,44.5,47.2,44.5z"/>
<path fill="#A2886D" d="M49.7,44.9l-0.8,0.8c0,0,0.4,0.1,0.7-0.2C49.9,45.2,49.7,44.9,49.7,44.9z"/>
<path fill="#DBCCBD" d="M48,43.6c0,0,0.6-0.1,1,0.2c0.4,0.3,0.7,0.7,0.7,1c0.1,0.3,0,0.1,0,0.1s-0.3-0.7-0.7-0.9
	C48.5,43.7,48.3,43.7,48,43.6C47.6,43.6,48,43.6,48,43.6z"/>
<path fill="#EFE7E0" d="M49.2,25.2l1.5-0.9c0,0,0-1.6,0.8-2.1c0.8-0.5,2.3-0.3,3.1,1.3c0.8,1.6,0.2,2.9-0.4,3.3
	c-0.6,0.4-1.3,0.4-1.7,0.2c-0.4-0.2-0.8-0.6-0.8-0.6l-1.4,0.6c0,0-0.6,0.2-1-0.7C48.9,25.3,49.2,25.2,49.2,25.2z"/>
<path fill="#A2886D" d="M51,24.2l1.2-0.4c0,0-0.3-0.3-0.8-0.1C51,23.8,51,24.2,51,24.2z"/>
<path fill="#A2886D" d="M53.2,25.8L52,26.2c0,0,0.4,0.3,0.8,0.2C53.2,26.2,53.2,25.8,53.2,25.8z"/>
<path fill="#DBCCBD" d="M52.2,23.7c0,0,0.6,0.2,0.8,0.7c0.2,0.5,0.3,1,0.2,1.3c-0.1,0.3-0.1,0-0.1,0s0.1-0.8-0.2-1.3
	C52.6,24,52.5,24,52.2,23.7C51.7,23.5,52.2,23.7,52.2,23.7z"/>
<path fill="#EDCD67" d="M26,25.7L24.6,26c0,0-0.4,1.3-1.1,1.4c-0.7,0.2-1.9-0.3-2.1-1.8c-0.2-1.4,0.5-2.3,1.1-2.5
	c0.5-0.2,1.1,0,1.4,0.3c0.3,0.3,0.5,0.7,0.5,0.7l1.3-0.1c0,0,0.5,0,0.6,0.8C26.3,25.6,26,25.7,26,25.7z"/>
<path fill="#EFE7E0" d="M26.1,25.4l-1.4,0.3c0,0-0.4,1.3-1.1,1.4c-0.7,0.2-1.9-0.3-2.1-1.8c-0.2-1.4,0.5-2.3,1.1-2.5
	c0.5-0.2,1.1,0,1.4,0.3c0.3,0.3,0.5,0.7,0.5,0.7l1.3-0.1c0,0,0.5,0,0.6,0.8C26.3,25.4,26.1,25.4,26.1,25.4z"/>
<path fill="#A2886D" d="M24.5,25.8l-1,0.1c0,0,0.2,0.3,0.6,0.3C24.4,26.1,24.5,25.8,24.5,25.8z"/>
<path fill="#A2886D" d="M23.2,24l1-0.1c0,0-0.2-0.3-0.6-0.3C23.2,23.6,23.2,24,23.2,24z"/>
<path fill="#DBCCBD" d="M23.4,25.9c0,0-0.4-0.3-0.5-0.7c-0.1-0.4,0-0.9,0.2-1.1c0.1-0.2,0.1,0,0.1,0s-0.3,0.6-0.1,1
	C23.2,25.5,23.3,25.6,23.4,25.9C23.7,26.1,23.4,25.9,23.4,25.9z"/>
<path fill="#EDCD67" d="M34.3,39.9l-0.9-1.4c0,0-1.5,0.1-2-0.6c-0.5-0.7-0.4-2.2,1-3c1.4-0.8,2.7-0.4,3.1,0.1
	c0.4,0.5,0.4,1.2,0.3,1.6c-0.2,0.4-0.5,0.8-0.5,0.8l0.6,1.3c0,0,0.2,0.5-0.6,1C34.4,40.2,34.3,39.9,34.3,39.9z"/>
<path fill="#EFE7E0" d="M34.4,39.6l-0.9-1.4c0,0-1.5,0.1-2-0.6s-0.4-2.2,1-3c1.4-0.8,2.7-0.4,3.1,0.1c0.4,0.5,0.4,1.2,0.3,1.6
	c-0.2,0.4-0.5,0.8-0.5,0.8l0.6,1.3c0,0,0.2,0.5-0.6,1C34.5,39.9,34.4,39.6,34.4,39.6z"/>
<path fill="#A2886D" d="M33.3,38l-0.5-1.1c0,0-0.3,0.4-0.1,0.7C32.9,38.1,33.3,38,33.3,38z"/>
<path fill="#A2886D" d="M34.7,35.8l0.5,1.1c0,0,0.3-0.4,0.1-0.7C35.1,35.8,34.7,35.8,34.7,35.8z"/>
<path fill="#DBCCBD" d="M32.8,36.9c0,0,0.2-0.6,0.6-0.8s0.9-0.3,1.2-0.3c0.3,0.1,0,0.1,0,0.1s-0.8,0-1.2,0.3
	C33,36.5,33,36.6,32.8,36.9C32.6,37.3,32.8,36.9,32.8,36.9z"/>
<path fill="#39B54A" d="M27.5,9.8c0,0,1.1-1.5,2.1-2c0.9-0.4,0.6-0.5,0.6-0.5l-0.2,0L30.4,7c0,0-0.3-0.2-0.5,0
	c-0.2,0.2-0.3-0.2-0.3-0.2l0.6-0.6c0,0,0.2-0.5-0.1-0.3C29.7,6.1,30,5.6,30,5.6s0.8-1.1,0.2-0.5c-0.6,0.6,0.2-0.5-0.3,0
	c-0.5,0.5,0-0.9-0.4,0.1s-0.5,0.9-0.5,0.9l0-0.5c0,0-0.1-0.7-0.3,0.1c-0.2,0.8-0.5-0.1-0.5-0.1s-0.3,0,0.2,0.6c0.5,0.7,0,0.5,0,0.5
	s-0.4,0.1-0.4-0.3c-0.1-0.4-0.3,0.6-0.3,0.6L27.3,8c0,0,0.3,0.8,0,1.4C27.1,10,27.2,10.3,27.5,9.8z"/>
<path fill="#39B54A" d="M54.1,38.8c0,0,1.1-1.5,2.1-2c0.9-0.4,0.6-0.5,0.6-0.5l-0.2,0L57,36c0,0-0.3-0.2-0.5,0
	c-0.2,0.2-0.3-0.2-0.3-0.2l0.6-0.6c0,0,0.2-0.5-0.1-0.3s-0.1-0.3-0.1-0.3s0.8-1.1,0.2-0.5c-0.6,0.6,0.2-0.5-0.3,0
	c-0.5,0.5,0-0.9-0.4,0.1c-0.4,1-0.5,0.9-0.5,0.9l0-0.5c0,0-0.1-0.7-0.3,0.1c-0.2,0.8-0.5-0.1-0.5-0.1s-0.3,0,0.2,0.6
	c0.5,0.7,0,0.5,0,0.5s-0.4,0.1-0.4-0.3s-0.3,0.6-0.3,0.6L54,37c0,0,0.3,0.8,0,1.4C53.7,39,53.8,39.3,54.1,38.8z"/>
<path fill="#39B54A" d="M10.4,42.3c0,0,1.1-1.5,2.1-2c0.9-0.4,0.6-0.5,0.6-0.5l-0.2,0l0.4-0.4c0,0-0.3-0.2-0.5,0
	c-0.2,0.2-0.3-0.2-0.3-0.2l0.6-0.6c0,0,0.2-0.5-0.1-0.3c-0.4,0.2-0.1-0.3-0.1-0.3s0.8-1.1,0.2-0.5c-0.6,0.6,0.2-0.5-0.3,0
	c-0.5,0.5,0-0.9-0.4,0.1c-0.4,1-0.5,0.9-0.5,0.9l0-0.5c0,0-0.1-0.7-0.3,0.1c-0.2,0.8-0.5-0.1-0.5-0.1s-0.3,0,0.2,0.6
	c0.5,0.7,0,0.5,0,0.5s-0.4,0.1-0.4-0.3c-0.1-0.4-0.3,0.6-0.3,0.6l-0.2,0.9c0,0,0.3,0.8,0,1.4C9.9,42.5,10,42.8,10.4,42.3z"/>
</svg>
