<?xml version="1.0" encoding="utf-8"?>
<!-- Generator: Adobe Illustrator 18.1.1, SVG Export Plug-In . SVG Version: 6.00 Build 0)  -->
<svg version="1.1" id="Layer_1" xmlns="http://www.w3.org/2000/svg" xmlns:xlink="http://www.w3.org/1999/xlink" x="0px" y="0px"
	 viewBox="0 0 960 960" enable-background="new 0 0 960 960" xml:space="preserve">
<radialGradient id="SVGID_1_" cx="485.8221" cy="480" r="449.5" gradientUnits="userSpaceOnUse">
	<stop  offset="0" style="stop-color:#FEB661"/>
	<stop  offset="1.420861e-002" style="stop-color:#FEB560"/>
	<stop  offset="0.3295" style="stop-color:#F5A54D"/>
	<stop  offset="0.6541" style="stop-color:#F19C42"/>
	<stop  offset="1" style="stop-color:#EF993E"/>
</radialGradient>
<path fill-rule="evenodd" clip-rule="evenodd" fill="url(#SVGID_1_)" stroke="#DC7F1A" stroke-width="15" stroke-miterlimit="10" d="
	M485.8,30.5c248.3,0,449.5,201.2,449.5,449.5S734.1,929.5,485.8,929.5S36.3,728.3,36.3,480S237.6,30.5,485.8,30.5z"/>
<linearGradient id="SVGID_2_" gradientUnits="userSpaceOnUse" x1="485.8928" y1="91.0458" x2="485.8928" y2="876.6596">
	<stop  offset="0" style="stop-color:#FFDE74"/>
	<stop  offset="1" style="stop-color:#F9D563"/>
</linearGradient>
<path fill-rule="evenodd" clip-rule="evenodd" fill="url(#SVGID_2_)" d="M75.3,464.5c0,0,28-151,52-181s25-73,57-86
	c32-13,83-71,83-71s5-23,67-17s85-11,90-16s47-22,82-15s57,25,89,20c32-5,51-21,90,16s84,62,84,62s86,95,92,115s7,80,28,115
	s-7,249-49,265s-90,111-130,145s-82,66-164,74c-82,8-184-53-263-72s-126-75-123-113s-48-63-65-86s-18-39-15-76
	S76.3,535.5,75.3,464.5z"/>
<path fill-rule="evenodd" clip-rule="evenodd" fill="#B13125" stroke="#AA2922" stroke-width="8" stroke-miterlimit="10" d="
	M219.8,397.9c30.7,0,55.6,24.9,55.6,55.6s-24.9,55.6-55.6,55.6s-55.6-24.9-55.6-55.6S189.1,397.9,219.8,397.9z"/>
<path fill-rule="evenodd" clip-rule="evenodd" fill="#B13125" stroke="#AA2922" stroke-width="8" stroke-miterlimit="10" d="
	M333.3,610.1c34.7,0,62.9,28.2,62.9,62.9c0,34.7-28.2,62.9-62.9,62.9s-62.9-28.2-62.9-62.9C270.4,638.2,298.6,610.1,333.3,610.1z"/>
<path fill-rule="evenodd" clip-rule="evenodd" fill="#B13125" stroke="#AA2922" stroke-width="8" stroke-miterlimit="10" d="
	M588.3,660.9c30.8,0,55.7,24.9,55.7,55.7s-24.9,55.7-55.7,55.7s-55.7-24.9-55.7-55.7S557.5,660.9,588.3,660.9z"/>
<path fill-rule="evenodd" clip-rule="evenodd" fill="#B13125" stroke="#AA2922" stroke-width="8" stroke-miterlimit="10" d="
	M514.6,350.1c28.5,0,51.7,23.1,51.7,51.7s-23.1,51.7-51.7,51.7c-28.5,0-51.7-23.1-51.7-51.7S486.1,350.1,514.6,350.1z"/>
<path fill-rule="evenodd" clip-rule="evenodd" fill="#B13125" stroke="#AA2922" stroke-width="8" stroke-miterlimit="10" d="
	M674,187.9c30.8,0,55.7,24.9,55.7,55.7s-24.9,55.7-55.7,55.7c-30.8,0-55.7-24.9-55.7-55.7S643.3,187.9,674,187.9z"/>
<path fill-rule="evenodd" clip-rule="evenodd" fill="#B13125" stroke="#AA2922" stroke-width="8" stroke-miterlimit="10" d="
	M674,474c28.7,0,51.9,23.2,51.9,51.9c0,28.7-23.2,51.9-51.9,51.9c-28.7,0-51.9-23.2-51.9-51.9C622.1,497.2,645.3,474,674,474z"/>
<path fill-rule="evenodd" clip-rule="evenodd" fill="#B13125" stroke="#AA2922" stroke-width="8" stroke-miterlimit="10" d="
	M332.3,164.9c30,0,54.4,24.4,54.4,54.4s-24.4,54.4-54.4,54.4c-30,0-54.4-24.4-54.4-54.4S302.3,164.9,332.3,164.9z"/>
<path fill-rule="evenodd" clip-rule="evenodd" fill="#39B54A" d="M510.4,761.7c0,0-24.1-16-31.5-29.6c-7.4-13.6-7.5-9-7.5-9l0.7,2.8
	l-6-5.2c0,0-2.2,4.1,1.2,7.5c3.4,3.4-3.2,4.3-3.2,4.3l-9.3-9.1c0,0-8.3-3.2-4.8,2.3c3.5,5.5-4.8,2.3-4.8,2.3s-16.9-10.7-7.2-2.5
	c9.7,8.3-7.2-2.5,0.5,4.7c7.7,7.1-13,1.3,2.2,6.7c15.2,5.4,14.2,6.8,14.2,6.8l-7.5,1.2c0,0-10.9,1.8,1.5,3.8c12.4,2-0.7,7.3-0.7,7.3
	s-0.4,4.9,9.5-2.8c9.9-7.7,7.5-1.2,7.5-1.2s1.7,5.4-4.3,7c-6,1.6,8.8,4.5,8.8,4.5l13.7,2.1c0,0,12.1-4.5,21.3-0.9
	C513.8,768.4,518.6,766.7,510.4,761.7z"/>
<path fill-rule="evenodd" clip-rule="evenodd" fill="#39B54A" d="M411.8,490.7c0,0-25.6,12.2-40.8,11.6c-15.2-0.6-11.3,1.8-11.3,1.8
	l2.7,0.9l-7.4,2.5c0,0,2.3,3.9,6.9,2.8c4.6-1.2,2.1,4.8,2.1,4.8l-12.4,3.3c0,0-6.9,5.4-0.5,5.2c6.4-0.2-0.5,5.2-0.5,5.2
	s-17.6,8.8-5.7,4.8s-5.7,4.8,4.2,1.9c9.9-2.9-5.5,11.6,6.7,1.5c12.2-10.1,12.9-8.5,12.9-8.5l-2.8,6.9c0,0-4,10.1,4,0.7
	c8-9.4,5.8,4.2,5.8,4.2s3.9,2.8,2.4-9.4s2.8-6.9,2.8-6.9s5.4,1.3,3.7,7.2c-1.7,5.9,8.2-5.2,8.2-5.2l8.7-10.4c0,0,2.3-12.4,10-18.4
	C419.2,491.2,420.2,486.4,411.8,490.7z"/>
<path fill-rule="evenodd" clip-rule="evenodd" fill="#39B54A" d="M252.3,338.8c0,0-15.8-15.7-19.3-27c-3.5-11.4-4.3-7.9-4.3-7.9
	l0.1,2.2l-3.8-4.8c0,0-2.3,2.8-0.2,5.8c2.1,3.1-3,2.8-3,2.8l-5.7-8.3c0,0-5.8-3.7-4,1c1.8,4.7-4,1-4,1s-11.1-10.6-5-2.9
	c6.1,7.7-5-2.9-0.3,3.6c4.7,6.5-10-1,0.6,5.3c10.7,6.3,9.7,7.3,9.7,7.3l-5.8-0.2c0,0-8.5-0.3,0.6,3.1c9.1,3.4-1.6,5.4-1.6,5.4
	s-1.1,3.6,7.6-0.7c8.6-4.3,5.8,0.2,5.8,0.2s0.5,4.3-4.3,4.6c-4.8,0.3,6,4.7,6,4.7l10,3.7c0,0,9.8-1.6,16.2,2.5
	C253.8,344.4,257.7,343.8,252.3,338.8z"/>
<path fill-rule="evenodd" clip-rule="evenodd" fill="#39B54A" d="M683.9,415.8c0,0-19.1-18.9-23.4-32.7c-4.3-13.7-5.2-9.5-5.2-9.5
	l0.1,2.7l-4.5-5.8c0,0-2.8,3.3-0.3,7c2.5,3.7-3.7,3.4-3.7,3.4l-6.9-10c0,0-7-4.4-4.8,1.3s-4.8,1.3-4.8,1.3s-13.5-12.8-6.1-3.6
	c7.4,9.3-6.1-3.6-0.4,4.3s-12.1-1.2,0.8,6.5c12.9,7.6,11.7,8.8,11.7,8.8l-7-0.3c0,0-10.3-0.3,0.7,3.8c11,4.1-1.9,6.6-1.9,6.6
	s-1.3,4.4,9.2-0.9c10.4-5.3,7,0.3,7,0.3s0.6,5.2-5.2,5.6s7.2,5.7,7.2,5.7l12.1,4.4c0,0,11.8-1.9,19.6,3.1
	C685.8,422.6,690.4,421.9,683.9,415.8z"/>
<path fill-rule="evenodd" clip-rule="evenodd" fill="#EDCD67" d="M463.1,242.9l18.3-20.9c0,0-8.7-23.8,0.9-34.8
	c9.6-11,32.9-16,52.3,3.5c19.5,19.5,17.7,41.8,11.3,50.5c-6.4,8.7-17.2,12.2-24.4,11.3c-7.3-0.9-14.8-5.2-14.8-5.2l-18.3,15.7
	c0,0-7.3,5.8-18.3-5.2C459,246.6,463.1,242.9,463.1,242.9z"/>
<path fill-rule="evenodd" clip-rule="evenodd" fill="#EFE7E0" d="M463.1,238.4l18.7-21.4c0,0-8.9-24.4,0.9-35.6
	c9.8-11.3,33.6-16.3,53.5,3.6c19.9,19.9,18.1,42.8,11.6,51.7c-6.5,8.9-17.5,12.5-25,11.6c-7.4-0.9-15.2-5.3-15.2-5.3l-18.7,16
	c0,0-7.4,5.9-18.7-5.3C458.9,242.3,463.1,238.4,463.1,238.4z"/>
<path fill-rule="evenodd" clip-rule="evenodd" fill="#A2886D" d="M484.5,214.4l15.2-12.5c0,0-7-2.9-12.5,1.8
	C481.6,208.3,484.5,214.4,484.5,214.4z"/>
<path fill-rule="evenodd" clip-rule="evenodd" fill="#A2886D" d="M525.7,227.8l-15.3,12.5c0,0,7,2.9,12.6-1.8
	C528.5,233.8,525.7,227.8,525.7,227.8z"/>
<path fill-rule="evenodd" clip-rule="evenodd" fill="#DBCCBD" d="M499.7,201c0,0,9.8,0.3,16.1,6.2c6.2,5.9,9.5,13.8,9.8,18.7
	c0.3,4.9-0.9,0.9-0.9,0.9s-2.5-12.6-9.8-17.8c-7.3-5.2-9.4-5.5-16.1-7.1C492.1,200.3,499.7,201,499.7,201z"/>
<path fill-rule="evenodd" clip-rule="evenodd" fill="#EFE7E0" d="M685.7,677l12.4-19.4c0,0-10.1-18.4-3.6-28.6
	c6.5-10.2,24.9-17.2,43.3-3.6c18.4,13.5,19.7,32,15.6,39.9c-4.2,7.9-12.5,12.1-18.6,12.3c-6.1,0.2-12.8-2.4-12.8-2.4l-13,15.1
	c0,0-5.2,5.7-15.6-2C682.9,680.6,685.7,677,685.7,677z"/>
<path fill-rule="evenodd" clip-rule="evenodd" fill="#A2886D" d="M699.9,655.2l10.6-11.8c0,0-5.9-1.4-9.8,2.9
	S699.9,655.2,699.9,655.2z"/>
<path fill-rule="evenodd" clip-rule="evenodd" fill="#A2886D" d="M734.5,660.9l-10.7,11.9c0,0,6,1.4,9.9-3
	C737.5,665.4,734.5,660.9,734.5,660.9z"/>
<path fill-rule="evenodd" clip-rule="evenodd" fill="#DBCCBD" d="M710.5,642.6c0,0,7.9-1,13.6,3c5.7,4,9.3,9.9,10.1,13.8
	c0.8,3.9-0.6,0.8-0.6,0.8s-3.6-9.8-10-13.1c-6.5-3.3-8.2-3.3-13.7-3.8S710.5,642.6,710.5,642.6z"/>
<path fill-rule="evenodd" clip-rule="evenodd" fill="#EFE7E0" d="M728.1,383.9l21.7-12.3c0,0-0.3-22.7,11-29.2
	c11.4-6.5,32.5-3.8,43.2,18.4c10.7,22.2,2.6,40.6-5.3,46.1c-8,5.5-18.1,5.2-24,2.4c-5.9-2.9-11-8.8-11-8.8l-20.1,7.8
	c0,0-7.9,2.8-14-9.8C723.5,385.9,728.1,383.9,728.1,383.9z"/>
<path fill-rule="evenodd" clip-rule="evenodd" fill="#A2886D" d="M752.8,370.2l16.2-5.9c0,0-4.9-4.4-10.8-2.1
	C752.2,364.3,752.8,370.2,752.8,370.2z"/>
<path fill-rule="evenodd" clip-rule="evenodd" fill="#A2886D" d="M783,393.1l-16.3,5.9c0,0,5,4.4,10.9,2.2
	C783.6,399,783,393.1,783,393.1z"/>
<path fill-rule="evenodd" clip-rule="evenodd" fill="#DBCCBD" d="M769.2,363.5c0,0,8,3.1,11.5,9.8c3.4,6.7,3.9,14.2,2.7,18.3
	c-1.2,4.1-1,0.5-1,0.5s1.6-11.2-3-17.6c-4.5-6.4-6.2-7.3-11.2-10.5C763.1,360.7,769.2,363.5,769.2,363.5z"/>
<path fill-rule="evenodd" clip-rule="evenodd" fill="#EDCD67" d="M401.1,390.9l-19.9,4.4c0,0-5.2,17.9-15.6,20.2
	c-10.5,2.4-26.4-4.8-29.5-24.7c-3.1-19.9,7.6-32.4,15.2-34.8c7.6-2.4,15.4,0.2,19.4,3.9c3.9,3.7,6.5,9.5,6.5,9.5l17.6-1.3
	c0,0,6.8-0.3,8.6,11C405.2,390.4,401.1,390.9,401.1,390.9z"/>
<path fill-rule="evenodd" clip-rule="evenodd" fill="#EFE7E0" d="M402.4,387.7l-19.9,4.4c0,0-5.2,17.9-15.6,20.2
	c-10.5,2.4-26.4-4.8-29.5-24.7c-3.1-19.9,7.6-32.4,15.2-34.8c7.6-2.4,15.4,0.2,19.4,3.9c3.9,3.7,6.5,9.5,6.5,9.5l17.6-1.3
	c0,0,6.8-0.3,8.6,11C406.4,387.2,402.4,387.7,402.4,387.7z"/>
<path fill-rule="evenodd" clip-rule="evenodd" fill="#A2886D" d="M379.8,392.5l-14.1,0.8c0,0,2.8,4.6,8,4.3
	C378.9,397.2,379.8,392.5,379.8,392.5z"/>
<path fill-rule="evenodd" clip-rule="evenodd" fill="#A2886D" d="M361.6,367.3l14.1-0.8c0,0-2.9-4.6-8-4.3
	C362.6,362.6,361.6,367.3,361.6,367.3z"/>
<path fill-rule="evenodd" clip-rule="evenodd" fill="#DBCCBD" d="M365.4,393.8c0,0-5.6-4.3-6.6-10.4c-1.1-6.1,0.3-12,2.2-15
	c1.9-3,0.9-0.1,0.9-0.1s-3.9,8.4-1.9,14.5c2,6.1,3.1,7.1,6.3,10.9C369.4,397.5,365.4,393.8,365.4,393.8z"/>
<path fill-rule="evenodd" clip-rule="evenodd" fill="#EDCD67" d="M517.9,590.7l-13.2-19.6c0,0-21.5,2-28.5-8.3
	c-7-10.3-6-30.5,14.3-42.3c20.2-11.8,38.2-5.5,44,1.7c5.8,7.2,6.3,16.8,4,22.6c-2.3,5.8-7.5,11.1-7.5,11.1l8.9,18.5
	c0,0,3.2,7.2-8.3,13.9C520.1,594.9,517.9,590.7,517.9,590.7z"/>
<path fill-rule="evenodd" clip-rule="evenodd" fill="#EFE7E0" d="M518.9,586.4l-13.2-19.6c0,0-21.5,2-28.5-8.3
	c-7-10.3-6-30.5,14.3-42.3c20.2-11.8,38.2-5.5,44,1.7c5.8,7.2,6.3,16.8,4,22.6c-2.3,5.8-7.5,11.1-7.5,11.1l8.9,18.5
	c0,0,3.2,7.2-8.3,13.9C521.1,590.6,518.9,586.4,518.9,586.4z"/>
<path fill-rule="evenodd" clip-rule="evenodd" fill="#A2886D" d="M504.1,564.1l-6.8-14.9c0,0-3.8,5-1.2,10.4
	C498.7,565.1,504.1,564.1,504.1,564.1z"/>
<path fill-rule="evenodd" clip-rule="evenodd" fill="#A2886D" d="M523.7,533.8l6.8,15c0,0,3.8-5,1.3-10.5
	C529.1,532.8,523.7,533.8,523.7,533.8z"/>
<path fill-rule="evenodd" clip-rule="evenodd" fill="#DBCCBD" d="M496.6,549.1c0,0,2.3-7.8,8.4-11.6c6.1-3.8,13.1-4.7,17.1-3.9
	c4,0.8,0.5,0.9,0.5,0.9s-10.7-0.7-16.4,4.1c-5.7,4.7-6.4,6.4-9.2,11.4C494.4,555,496.6,549.1,496.6,549.1z"/>
<path fill-rule="evenodd" clip-rule="evenodd" fill="#39B54A" d="M422.9,167.8c0,0,16-21.6,28.9-27.9c13-6.2,8.7-6.5,8.7-6.5
	l-2.7,0.5l5.1-5.3c0,0-3.7-2.2-7,0.7c-3.3,3-3.9-3.1-3.9-3.1l8.9-8.2c0,0,3.4-7.6-1.9-4.6s-1.9-4.6-1.9-4.6s10.8-15.2,2.6-6.5
	s2.6-6.5-4.4,0.3c-7,6.8-0.6-12.2-6.3,1.7s-7,12.8-7,12.8l-0.7-7c0,0-1.1-10.2-3.6,1.2c-2.5,11.4-6.8-1-6.8-1s-4.5-0.6,2.2,8.9
	c6.7,9.6,0.7,7,0.7,7s-5.1,1.3-6.3-4.3s-4.6,8-4.6,8l-2.6,12.6c0,0,3.6,11.4-0.2,19.8C416.4,170.6,417.8,175.1,422.9,167.8z"/>
<path fill-rule="evenodd" clip-rule="evenodd" fill="#39B54A" d="M796.9,575.2c0,0,16-21.6,28.9-27.9c13-6.2,8.7-6.5,8.7-6.5
	l-2.7,0.5l5.1-5.3c0,0-3.7-2.2-7,0.7c-3.3,3-3.9-3.1-3.9-3.1l8.9-8.2c0,0,3.4-7.6-1.9-4.6s-1.9-4.6-1.9-4.6s10.8-15.2,2.6-6.5
	c-8.1,8.6,2.6-6.5-4.4,0.3s-0.6-12.2-6.3,1.7c-5.7,13.9-7,12.8-7,12.8l-0.7-7c0,0-1.1-10.2-3.6,1.2c-2.5,11.4-6.8-1-6.8-1
	s-4.5-0.6,2.2,8.9c6.7,9.6,0.7,7,0.7,7s-5.1,1.3-6.3-4.3c-1.2-5.6-4.6,8-4.6,8l-2.6,12.6c0,0,3.6,11.4-0.2,19.8
	C790.4,578.1,791.8,582.6,796.9,575.2z"/>
<path fill-rule="evenodd" clip-rule="evenodd" fill="#39B54A" d="M181.7,624.6c0,0,16-21.6,28.9-27.9c13-6.2,8.7-6.5,8.7-6.5
	l-2.7,0.5l5.1-5.3c0,0-3.7-2.2-7,0.7s-3.9-3.1-3.9-3.1l8.9-8.2c0,0,3.4-7.6-1.9-4.6c-5.3,3-1.9-4.6-1.9-4.6s10.8-15.2,2.6-6.5
	s2.6-6.5-4.4,0.3c-7,6.8-0.6-12.2-6.3,1.7c-5.7,13.9-7,12.8-7,12.8l-0.7-7c0,0-1.1-10.2-3.6,1.2s-6.8-1-6.8-1s-4.5-0.6,2.2,8.9
	s0.7,7,0.7,7s-5.1,1.3-6.3-4.3c-1.2-5.6-4.6,8-4.6,8l-2.6,12.6c0,0,3.6,11.4-0.2,19.8C175.3,627.4,176.7,631.9,181.7,624.6z"/>
</svg>
