<?xml version="1.0" encoding="utf-8"?>
<!-- Generator: Adobe Illustrator 18.1.1, SVG Export Plug-In . SVG Version: 6.00 Build 0)  -->
<svg version="1.1" id="Layer_1" xmlns="http://www.w3.org/2000/svg" xmlns:xlink="http://www.w3.org/1999/xlink" x="0px" y="0px"
	 viewBox="0 0 64 64" enable-background="new 0 0 64 64" xml:space="preserve">
<path fill-rule="evenodd" clip-rule="evenodd" fill="#FFFFFF" d="M208,312.7h540.6l-74.1,612.6H282.7L208,312.7z"/>
<g>
	<g>
		<path fill-rule="evenodd" clip-rule="evenodd" fill="#F55633" d="M450.1,916.4h58.5l0.2-599.4H448L450.1,916.4z M583.3,317
			l-40.1,599.4h58.5L644,317H583.3z M312.1,317l44.1,599.4h58.2L372.5,317H312.1z M708,317l-71.3,599.4h39.6L749.2,317H708z
			 M207.1,317l74.6,599.4h39.5L248.1,317H207.1z"/>
	</g>
</g>
<linearGradient id="SVGID_1_" gradientUnits="userSpaceOnUse" x1="478.295" y1="305.0222" x2="478.295" y2="304.1727">
	<stop  offset="0" style="stop-color:#D7D8DA"/>
	<stop  offset="0.6786" style="stop-color:#FFFFFF"/>
</linearGradient>
<path fill-rule="evenodd" clip-rule="evenodd" fill="url(#SVGID_1_)" d="M199.4,291.3h557.8c5.7,0,10.2,4.8,10.1,10.7l-0.1,4.3
	c-0.1,5.9-4.8,10.7-10.5,10.7H199.9c-5.7,0-10.4-4.8-10.5-10.7l-0.1-4.3C189.2,296.1,193.7,291.3,199.4,291.3z"/>
<g>
	<g>
		<path fill-rule="evenodd" clip-rule="evenodd" fill="#FEDE78" d="M485,184.1c0,0-0.1,0-0.1,0c-1-10.4-9.8-18.6-20.5-18.6
			c-11.4,0-20.6,9.2-20.6,20.6c0,0.4,0,0.8,0.1,1.3c-0.7-0.1-1.4-0.2-2.1-0.2c-5.7,0-10.3,4.6-10.3,10.3c0,5.1,3.8,9.4,8.7,10.2
			c-2.2,3.5-3.5,7.6-3.5,12c0,12.2,9.9,22.2,22.2,22.2s22.2-9.9,22.2-22.2c0-0.3,0-0.7,0-1c1.3,0.3,2.7,0.5,4.2,0.5
			c9.7,0,17.5-7.8,17.5-17.5S494.7,184.1,485,184.1z"/>
	</g>
</g>
<g>
	<g>
		<path fill-rule="evenodd" clip-rule="evenodd" fill="#FECC6B" d="M438.6,269.8c0.9-2.2,1.4-4.7,1.4-7.2c0-11.1-9.1-20.2-20.3-20.2
			c-1.2,0-2.3,0.1-3.4,0.3c-0.3-0.7-0.7-1.4-1-2c4-3.7,6.6-9,6.6-14.8c0-10.6-8.2-19.3-18.6-20c-0.4-4.4-2.6-8.3-5.8-10.9
			c8.6-3.4,14.7-11.7,14.7-21.5c0-5.7-2.1-10.8-5.5-14.9c4.3-4.1,6.9-9.8,6.9-16.1c0-12.3-10-22.3-22.4-22.3
			c-9.1,0-17,5.4-20.5,13.3c-1.1-0.2-2.2-0.3-3.4-0.3c-11.2,0-20.3,9-20.3,20.2c0,2.6,0.5,5,1.4,7.2c-13.6,0.4-24.5,11.5-24.5,25.2
			c0,6.9,2.8,13.1,7.2,17.6c-4.1,2.4-7.2,6.4-8.5,11c-1.1-0.2-2.2-0.4-3.3-0.4c-8.3,0-15.2,6.4-15.9,14.5
			c-10.4,0.8-18.6,9.4-18.6,20c0,11.1,9,20.1,20.1,20.1c10,0,18.2-7.3,19.8-16.8c3.1,2.8,7.2,4.4,11.6,4.4c9.7,0,17.5-7.8,17.5-17.5
			c0-1.6-0.2-3.1-0.6-4.5c1.9-1.6,3.5-3.6,4.7-5.8c3.2,3.2,7.6,5.2,12.4,5.2c4.5,0,8.5-1.7,11.6-4.4c0.2,1.5,0.6,2.9,1.2,4.2
			c-5.9,4-9.7,10.8-9.7,18.4c0,6.3,2.7,12,6.9,16.1c-3.4,4-5.5,9.2-5.5,14.9c0,12.7,10.4,23,23.1,23c5.7,0,11-2.1,15-5.5
			c2.4,11.4,12.6,19.9,24.8,19.9c14,0,25.3-11.3,25.3-25.2C463.1,281.3,452.2,270.2,438.6,269.8z M645.8,279
			c0.9-2.2,1.4-4.7,1.4-7.2c0-11.1-9.1-20.2-20.3-20.2c-1.2,0-2.3,0.1-3.4,0.3c-3.5-7.8-11.4-13.3-20.5-13.3
			c-12.4,0-22.4,10-22.4,22.3c0,6.3,2.7,12,6.9,16.1c-3.4,4-5.5,9.2-5.5,14.9c0,12.7,10.4,23,23.1,23c5.7,0,11-2.1,15-5.5
			c2.4,11.4,12.6,19.9,24.8,19.9c14,0,25.3-11.3,25.3-25.2C670.3,290.6,659.4,279.5,645.8,279z M582.7,217.6c0-1.7-0.3-3.4-0.7-5
			c3.1-0.6,5.9-2.1,8.2-4.1c1.6,9.5,9.8,16.8,19.8,16.8c11.1,0,20.1-9,20.1-20.1c0-10.6-8.2-19.3-18.6-20
			c-0.7-8.1-7.6-14.5-15.9-14.5c-1.1,0-2.3,0.1-3.3,0.4c-1.8-6.3-6.9-11.3-13.3-13.1c3.2-2.6,5.7-6,7.2-10.2
			c1.9-5.3,1.7-10.9-0.2-15.8c5.4-2.4,9.8-6.9,11.9-12.9c4.1-11.6-2-24.4-13.7-28.5c-8.6-3-17.8-0.5-23.7,5.7c-1-0.5-2-1-3.1-1.4
			c-10.6-3.7-22.1,1.8-25.8,12.3c-0.9,2.4-1.2,4.9-1.1,7.3c-13-4.1-26.9,2.7-31.5,15.6c-4.6,13.1,2.3,27.5,15.5,32.2
			c11.5,4.1,23.9-0.6,30-10.5c2.7,4.6,6.9,8.3,12.3,10.2c1.3,0.5,2.6,0.8,3.9,1c-3.5,3.5-5.6,8.2-5.6,13.5c0,5.9,2.6,11.1,6.8,14.6
			c-0.4,1.4-0.6,2.9-0.6,4.5c0,1.1,0.1,2.2,0.3,3.2c-7.7,0.9-13.9,6.4-16,13.6c-1.1-0.2-2.2-0.4-3.3-0.4c-1.4,0-2.8,0.2-4.1,0.6
			c-0.1-0.1-0.1-0.2-0.2-0.3c4.3-4.1,6.9-9.8,6.9-16.1c0-12.3-10-22.3-22.4-22.3c-9.1,0-17,5.4-20.5,13.3c-1.1-0.2-2.2-0.3-3.4-0.3
			c-11.2,0-20.3,9-20.3,20.2c0,2.6,0.5,5,1.4,7.2c-13.6,0.4-24.5,11.5-24.5,25.2c0,13.9,11.3,25.2,25.3,25.2
			c12.2,0,22.3-8.5,24.8-19.9c0.8,0.7,1.6,1.3,2.5,1.8c0,0,0,0,0,0c0,11.1,9,20.1,20.1,20.1c10,0,18.2-7.3,19.8-16.8
			c3.1,2.8,7.2,4.4,11.6,4.4c9.7,0,17.5-7.8,17.5-17.5c0-1.6-0.2-3.1-0.6-4.5C580,228.6,582.7,223.4,582.7,217.6z M401.9,117.8
			c11.5,4.1,23.9-0.6,30-10.5c0.5,0.9,1.1,1.8,1.8,2.6c-7.5,2.6-12.9,9.7-12.9,18c0,5.9,2.6,11.1,6.8,14.6c-0.4,1.4-0.6,2.9-0.6,4.5
			c0,9.7,7.8,17.5,17.5,17.5c4.5,0,8.5-1.7,11.6-4.4c1.6,9.5,9.8,16.8,19.8,16.8c11.1,0,20.1-9,20.1-20.1c0-10.6-8.2-19.3-18.6-20
			c-0.7-8.1-7.6-14.5-15.9-14.5c-1.1,0-2.3,0.1-3.3,0.4c-0.4-1.5-1-2.9-1.8-4.2c7.8-1.5,14.5-6.9,17.3-14.9
			c1.9-5.3,1.7-10.9-0.2-15.8c5.4-2.4,9.8-6.9,11.9-12.9c4.1-11.6-2-24.4-13.7-28.5c-8.6-3-17.8-0.5-23.7,5.7c-1-0.5-2-1-3.1-1.4
			c-10.6-3.7-22.1,1.8-25.8,12.3c-0.9,2.4-1.2,4.9-1.1,7.3c-13-4.1-26.9,2.7-31.5,15.6C381.8,98.7,388.8,113.1,401.9,117.8z"/>
	</g>
</g>
<g>
	<g>
		<path fill-rule="evenodd" clip-rule="evenodd" fill="#F8E598" d="M528.7,259.6c1.1-2.9,1.7-5.9,1.7-9.2
			c0-14.2-11.5-25.8-25.8-25.8c-6.9,0-13.2,2.8-17.9,7.2c-2.7-0.7-5.5-1-8.4-1c-3,0-5.9,0.4-8.7,1.1c-1.8-1.5-3.9-2.7-6.1-3.4
			c0.6-2,1-4.2,1-6.5c0-12.2-9.9-22.2-22.2-22.2c-1.4,0-2.9,0.1-4.2,0.4c-2-2.2-4.6-3.9-7.6-4.8c0.6-2,1-4.2,1-6.5
			c0-12.2-9.9-22.2-22.2-22.2s-22.2,9.9-22.2,22.2c0,1.8,0.2,3.6,0.6,5.3c-7.3,1.7-13.4,6.6-16.6,13.1c-3.3-1.5-7-2.4-10.8-2.4
			c-6.9,0-13.2,2.8-17.9,7.2c-0.6-0.1-1.1-0.3-1.7-0.4c1.9-2.8,3.1-6.2,3.1-9.9c0-7.9-5.2-14.5-12.3-16.7c0.6-2,1-4.2,1-6.5
			c0-12.2-9.9-22.2-22.2-22.2s-22.2,9.9-22.2,22.2c0,1.8,0.2,3.6,0.6,5.3c-11,2.5-19.2,12.4-19.2,24.1c0,7.5,3.4,14.3,8.7,18.8
			c-5.5,0.8-10.4,3.3-14.2,7c-2.7-0.7-5.5-1-8.4-1c-19.1,0-34.5,15.5-34.5,34.5s15.5,34.5,34.5,34.5c7,0,13.5-2.1,19-5.7
			c4.2,7.7,12.4,12.9,21.7,12.9c13.7,0,24.7-11.1,24.7-24.7c0-2.5-0.4-4.8-1-7c4.3,1.9,9,2.9,13.9,2.9c7,0,13.5-2.1,19-5.7
			c4.2,7.7,12.4,12.9,21.7,12.9c13.7,0,24.7-11.1,24.7-24.7c0-8.1-3.9-15.4-10-19.9c1.2,0.2,2.5,0.3,3.8,0.3c3.8,0,7.4-0.9,10.7-2.4
			c-1.5,3.2-2.4,6.8-2.4,10.7c0,13.7,11.1,24.7,24.7,24.7c6.9,0,13.2-2.9,17.7-7.5c0.9,9.1,5.3,17.2,11.9,22.8
			c-1.7,2.7-2.7,5.9-2.7,9.4c0,9.7,7.8,17.5,17.5,17.5c3.2,0,6.3-0.9,8.9-2.4c3.6,9.3,12.6,15.8,23.1,15.8
			c13.7,0,24.7-11.1,24.7-24.7c0-0.5,0-0.9,0-1.4c9.6-3.4,16.5-12.6,16.5-23.3C543.8,272.2,537.6,263.4,528.7,259.6z M301.1,235.3
			c-0.9-1-1.8-1.9-2.8-2.7c1.5-0.2,2.9-0.6,4.3-1.1C302,232.7,301.5,234,301.1,235.3z M415.7,229.2c0.3-0.6,0.5-1.2,0.7-1.7
			c0.5,0.3,1,0.6,1.5,0.8C417.1,228.5,416.4,228.8,415.7,229.2z M717.4,277.9c0.4-1.7,0.6-3.5,0.6-5.3c0-12.2-9.9-22.2-22.2-22.2
			s-22.2,9.9-22.2,22.2c0,2.2,0.3,4.4,1,6.5c-7.1,2.2-12.3,8.9-12.3,16.7c0,9.7,7.8,17.5,17.5,17.5c3.2,0,6.3-0.9,8.9-2.4
			c3.6,9.3,12.6,15.8,23.1,15.8c13.7,0,24.7-11.1,24.7-24.7C736.6,290.3,728.4,280.4,717.4,277.9z M707.8,211.8
			c0-19.1-15.5-34.5-34.5-34.5c-2.9,0-5.7,0.4-8.4,1c-4.6-4.5-10.9-7.2-17.9-7.2c-14.2,0-25.8,11.5-25.8,25.8c0,3.2,0.6,6.3,1.7,9.2
			c-8.9,3.8-15.1,12.5-15.1,22.8c0,13.7,11.1,24.7,24.7,24.7c9.4,0,17.5-5.2,21.7-12.9c5.4,3.6,12,5.7,19,5.7
			C692.3,246.3,707.8,230.9,707.8,211.8z M353.9,152.2c9.9,3.5,20.6,0.3,27-7.2c1.9,2.3,4.5,4.2,7.6,5.3c9.1,3.2,19.1-1.6,22.4-10.7
			c2.6-7.4,0-15.4-6-19.9c1.3-1.7,2.3-3.7,3.1-5.8c4.1-11.5-2-24.2-13.5-28.3c-11.5-4.1-24.2,2-28.3,13.5c-0.6,1.7-1,3.5-1.2,5.2
			c-11.2-1.3-22.2,5.2-26.1,16.3C334.3,133.5,341.1,147.6,353.9,152.2z M542.3,123.7c-2.9,0-5.7,0.4-8.4,1
			c-4.6-4.5-10.9-7.2-17.9-7.2c-2.4,0-4.7,0.3-6.8,0.9c0.7-9.7-5.1-19.1-14.7-22.5c-11.5-4.1-24.2,2-28.3,13.5
			c-0.6,1.7-1,3.5-1.2,5.2c-11.2-1.3-22.2,5.2-26.1,16.3c-4.6,12.9,2.2,27,15.1,31.6c9.9,3.5,20.6,0.3,27-7.2c0.8,1,1.8,1.9,2.8,2.7
			c-4.3,4.5-7,10.5-7,17.2c0,13.7,11.1,24.7,24.7,24.7c9.4,0,17.5-5.2,21.7-12.9c5.4,3.6,12,5.7,19,5.7c19.1,0,34.5-15.5,34.5-34.5
			S561.4,123.7,542.3,123.7z"/>
	</g>
</g>
<g>
	<g>
		<path fill-rule="evenodd" clip-rule="evenodd" fill="#FEDE78" d="M395.3,251.9c-1.3-3.1-3.2-6.1-5.6-8.7
			c-11.6-12.9-31.5-13.9-44.4-2.2c-3.2,2.9-5.6,6.2-7.3,9.8c-7.2-6.3-18.1-6.3-25.3,0.2c-7.8,7.1-8.4,19.1-1.4,26.9
			c1.2,1.3,2.5,2.4,3.9,3.3c0.1,0.5,0.3,0.9,0.4,1.4c-1.3,7.9,0.8,16.4,6.7,22.9c1,1.1,2,2,3,2.9c1.2,3,2.9,5.9,5.2,8.5
			c8.6,9.6,22.5,11.6,33.3,5.7c7,5.3,17,5.1,23.7-1c5.8-5.2,7.5-13.2,5-20.1c1.1-0.7,2.1-1.6,3.1-2.5c12.9-11.6,13.9-31.5,2.2-44.4
			C397.1,253.5,396.2,252.7,395.3,251.9z M276.8,276.9c-0.7,0-1.4,0.1-2.1,0.2c0-0.4,0.1-0.8,0.1-1.3c0-11.4-9.2-20.6-20.6-20.6
			c-10.7,0-19.5,8.1-20.5,18.6c0,0-0.1,0-0.1,0c-9.7,0-17.5,7.8-17.5,17.5s7.8,17.5,17.5,17.5c1.4,0,2.8-0.2,4.2-0.5
			c0,0.3,0,0.7,0,1c0,12.2,9.9,22.2,22.2,22.2s22.2-9.9,22.2-22.2c0-4.4-1.3-8.5-3.5-12c4.9-0.8,8.7-5,8.7-10.2
			C287.1,281.5,282.5,276.9,276.8,276.9z M499.5,274.8c-0.7,0-1.4,0.1-2.1,0.2c0-0.4,0.1-0.8,0.1-1.3c0-11.4-9.2-20.6-20.6-20.6
			c-10.7,0-19.5,8.1-20.5,18.6c0,0-0.1,0-0.1,0c-9.7,0-17.5,7.8-17.5,17.5s7.8,17.5,17.5,17.5c1.4,0,2.8-0.2,4.2-0.5
			c0,0.3,0,0.7,0,1c0,12.2,9.9,22.2,22.2,22.2s22.2-9.9,22.2-22.2c0-4.4-1.3-8.5-3.5-12c4.9-0.8,8.7-5,8.7-10.2
			C509.8,279.4,505.2,274.8,499.5,274.8z M619.6,222.2c7.1-7.8,6.5-19.9-1.4-26.9c-7.2-6.5-18.1-6.5-25.3-0.2
			c-1.7-3.6-4.2-7-7.3-9.8c-0.6-0.5-1.1-1-1.7-1.4c0.1-0.6,0.1-1.2,0.1-1.8c0-2.9-0.7-5.7-2-8.1c4.4,7.8,13.6,11.3,21.9,8.6
			c8.2,9.2,22,11.9,33.3,5.8c8-4.3,12.9-12,14.1-20.4c1.9-0.4,3.7-1,5.5-2c9.3-5,12.7-16.6,7.7-25.9c-4.6-8.6-14.9-12.2-23.8-8.6
			c-0.4-4-1.6-7.9-3.6-11.7c-8.3-15.3-27.3-21-42.6-12.7c-15.3,8.3-21,27.3-12.7,42.6c0.6,1.2,1.3,2.3,2.1,3.3
			c-4.6,5.6-5.7,13.6-2.1,20.4c-3-5.3-8.7-8.9-15.3-8.9c0,0-0.1,0-0.1,0c-0.5-4.6-2.4-8.7-5.4-11.9c6-5.8,7.7-15.1,3.5-22.8
			c-4.6-8.6-14.9-12.2-23.8-8.6c-0.4-4-1.6-7.9-3.6-11.7c-8.3-15.3-27.3-21-42.6-12.7c-14.8,8-20.6,26.1-13.5,41.1
			c-6.4-2.3-13.7-1.1-19,3.6c-1.7-3.6-4.2-7-7.3-9.8c-12.9-11.6-32.8-10.6-44.4,2.2c-11.6,12.9-10.6,32.8,2.2,44.4
			c1,0.9,2,1.7,3.1,2.5c-2.5,6.9-0.8,14.9,5,20.1c6.7,6.1,16.7,6.3,23.7,1c10.8,5.9,24.7,3.9,33.3-5.7c6.1-6.7,8.2-15.6,6.5-23.9
			c1.2-0.7,2.3-1.6,3.4-2.5c4.7,3.3,10.8,4.3,16.4,2.5c2.6,2.8,5.6,5.1,9,6.6c0.4,4.7,4,8.5,8.6,9.3c-2.2,3.5-3.5,7.6-3.5,12
			c0,10.8,7.7,19.8,18,21.8c1.7,3.7,4.2,7.1,7.4,10c1,0.9,2,1.7,3.1,2.5c-1.1,3.1-1.4,6.5-0.8,9.8c-3.7,0.5-7.4,2-10.4,4.8
			c-7.8,7.1-8.4,19.1-1.4,26.9c1.4,1.5,2.9,2.7,4.5,3.7c-1.7,8.2,0.4,17.2,6.5,23.9c8.6,9.6,22.5,11.6,33.3,5.7c7,5.3,17,5.1,23.7-1
			c5.8-5.2,7.5-13.2,5-20.1c1.1-0.7,2.1-1.6,3.1-2.5c12.5-11.3,13.8-30.3,3.3-43.2c2.2-5.2,2.8-10.9,1.7-16.4
			C616.7,224.9,618.3,223.7,619.6,222.2z M685.1,229.4c0,0-0.1,0-0.1,0c-1-10.4-9.8-18.6-20.5-18.6c-11.4,0-20.6,9.2-20.6,20.6
			c0,0.4,0,0.8,0.1,1.3c-0.7-0.1-1.4-0.2-2.1-0.2c-5.7,0-10.3,4.6-10.3,10.3c0,5.1,3.8,9.4,8.7,10.2c-2.2,3.5-3.5,7.6-3.5,12
			c0,12.2,9.9,22.2,22.2,22.2s22.2-9.9,22.2-22.2c0-0.3,0-0.7,0-1c1.3,0.3,2.7,0.5,4.2,0.5c9.7,0,17.5-7.8,17.5-17.5
			C702.6,237.3,694.7,229.4,685.1,229.4z"/>
	</g>
</g>
</svg>
