<?xml version="1.0" encoding="utf-8"?>
<!-- Generator: Adobe Illustrator 18.1.1, SVG Export Plug-In . SVG Version: 6.00 Build 0)  -->
<svg version="1.1" id="Layer_1" xmlns="http://www.w3.org/2000/svg" xmlns:xlink="http://www.w3.org/1999/xlink" x="0px" y="0px"
	 viewBox="0 0 64 64" enable-background="new 0 0 64 64" xml:space="preserve">
<path fill="#FFFFFF" d="M2.1,19.5h59.9L53.7,64H10.3L2.1,19.5z"/>
<g>
	<g>
		<path fill="#F55633" d="M28.9,63.4h6.5l0-43.6h-6.7L28.9,63.4z M43.6,19.8l-4.4,43.6h6.5l4.7-43.6H43.6z M13.6,19.8l4.9,43.6h6.4
			l-4.6-43.6H13.6z M57.4,19.8l-7.9,43.6h4.4L62,19.8H57.4z M2,19.8l8.3,43.6h4.4L6.5,19.8H2z"/>
	</g>
</g>
<linearGradient id="SVGID_1_" gradientUnits="userSpaceOnUse" x1="32" y1="45.1026" x2="32" y2="45.1643" gradientTransform="matrix(1 0 0 -1 0 64)">
	<stop  offset="0" style="stop-color:#D7D8DA"/>
	<stop  offset="0.6786" style="stop-color:#FFFFFF"/>
</linearGradient>
<path fill="url(#SVGID_1_)" d="M1.1,17.9h61.8c0.6,0,1.1,0.3,1.1,0.8l0,0.3c0,0.4-0.5,0.8-1.2,0.8H1.2C0.5,19.8,0,19.4,0,19l0-0.3
	C0,18.2,0.5,17.9,1.1,17.9z"/>
<g>
	<g>
		<path fill="#FEDE78" d="M32.7,10.1L32.7,10.1c-0.1-0.8-1.1-1.4-2.3-1.4c-1.3,0-2.3,0.7-2.3,1.5c0,0,0,0.1,0,0.1
			c-0.1,0-0.2,0-0.2,0c-0.6,0-1.1,0.3-1.1,0.7c0,0.4,0.4,0.7,1,0.7c-0.2,0.3-0.4,0.6-0.4,0.9c0,0.9,1.1,1.6,2.5,1.6
			c1.4,0,2.5-0.7,2.5-1.6c0,0,0-0.1,0-0.1c0.1,0,0.3,0,0.5,0c1.1,0,1.9-0.6,1.9-1.3C34.7,10.7,33.8,10.1,32.7,10.1z"/>
	</g>
</g>
<g>
	<g>
		<path fill="#FECC6B" d="M27.6,16.3c0.1-0.2,0.2-0.3,0.2-0.5c0-0.8-1-1.5-2.2-1.5c-0.1,0-0.3,0-0.4,0c0-0.1-0.1-0.1-0.1-0.1
			c0.4-0.3,0.7-0.7,0.7-1.1c0-0.8-0.9-1.4-2.1-1.5c0-0.3-0.3-0.6-0.6-0.8c1-0.2,1.6-0.9,1.6-1.6c0-0.4-0.2-0.8-0.6-1.1
			c0.5-0.3,0.8-0.7,0.8-1.2c0-0.9-1.1-1.6-2.5-1.6c-1,0-1.9,0.4-2.3,1c-0.1,0-0.2,0-0.4,0c-1.2,0-2.2,0.7-2.2,1.5
			c0,0.2,0.1,0.4,0.2,0.5c-1.5,0-2.7,0.8-2.7,1.8c0,0.5,0.3,1,0.8,1.3c-0.5,0.2-0.8,0.5-0.9,0.8c-0.1,0-0.2,0-0.4,0
			c-0.9,0-1.7,0.5-1.8,1.1c-1.2,0.1-2.1,0.7-2.1,1.5c0,0.8,1,1.5,2.2,1.5c1.1,0,2-0.5,2.2-1.2c0.3,0.2,0.8,0.3,1.3,0.3
			c1.1,0,1.9-0.6,1.9-1.3c0-0.1,0-0.2-0.1-0.3c0.2-0.1,0.4-0.3,0.5-0.4c0.4,0.2,0.8,0.4,1.4,0.4c0.5,0,0.9-0.1,1.3-0.3
			c0,0.1,0.1,0.2,0.1,0.3c-0.7,0.3-1.1,0.8-1.1,1.3c0,0.5,0.3,0.9,0.8,1.2c-0.4,0.3-0.6,0.7-0.6,1.1c0,0.9,1.2,1.7,2.6,1.7
			c0.6,0,1.2-0.2,1.7-0.4c0.3,0.8,1.4,1.4,2.7,1.4c1.6,0,2.8-0.8,2.8-1.8C30.3,17.2,29.1,16.4,27.6,16.3z M50.5,17
			c0.1-0.2,0.2-0.3,0.2-0.5c0-0.8-1-1.5-2.2-1.5c-0.1,0-0.3,0-0.4,0c-0.4-0.6-1.3-1-2.3-1c-1.4,0-2.5,0.7-2.5,1.6
			c0,0.5,0.3,0.9,0.8,1.2c-0.4,0.3-0.6,0.7-0.6,1.1c0,0.9,1.2,1.7,2.6,1.7c0.6,0,1.2-0.2,1.7-0.4c0.3,0.8,1.4,1.4,2.7,1.4
			c1.6,0,2.8-0.8,2.8-1.8C53.3,17.8,52.1,17,50.5,17z M43.6,12.5c0-0.1,0-0.2-0.1-0.4c0.3,0,0.7-0.2,0.9-0.3
			c0.2,0.7,1.1,1.2,2.2,1.2c1.2,0,2.2-0.7,2.2-1.5c0-0.8-0.9-1.4-2.1-1.5c-0.1-0.6-0.8-1.1-1.8-1.1c-0.1,0-0.3,0-0.4,0
			c-0.2-0.5-0.8-0.8-1.5-1c0.4-0.2,0.6-0.4,0.8-0.7c0.2-0.4,0.2-0.8,0-1.1c0.6-0.2,1.1-0.5,1.3-0.9c0.5-0.8-0.2-1.8-1.5-2.1
			c-1-0.2-2,0-2.6,0.4c-0.1,0-0.2-0.1-0.3-0.1c-1.2-0.3-2.4,0.1-2.9,0.9c-0.1,0.2-0.1,0.4-0.1,0.5c-1.4-0.3-3,0.2-3.5,1.1
			c-0.5,1,0.3,2,1.7,2.3c1.3,0.3,2.6,0,3.3-0.8c0.3,0.3,0.8,0.6,1.4,0.7c0.1,0,0.3,0.1,0.4,0.1c-0.4,0.3-0.6,0.6-0.6,1
			c0,0.4,0.3,0.8,0.8,1.1c0,0.1-0.1,0.2-0.1,0.3c0,0.1,0,0.2,0,0.2c-0.9,0.1-1.5,0.5-1.8,1c-0.1,0-0.2,0-0.4,0c-0.2,0-0.3,0-0.5,0
			c0,0,0,0,0,0c0.5-0.3,0.8-0.7,0.8-1.2c0-0.9-1.1-1.6-2.5-1.6c-1,0-1.9,0.4-2.3,1c-0.1,0-0.2,0-0.4,0C33,10.3,32,11,32,11.8
			c0,0.2,0.1,0.4,0.2,0.5c-1.5,0-2.7,0.8-2.7,1.8c0,1,1.3,1.8,2.8,1.8c1.4,0,2.5-0.6,2.7-1.4c0.1,0.1,0.2,0.1,0.3,0.1l0,0
			c0,0.8,1,1.5,2.2,1.5c1.1,0,2-0.5,2.2-1.2c0.3,0.2,0.8,0.3,1.3,0.3c1.1,0,1.9-0.6,1.9-1.3c0-0.1,0-0.2-0.1-0.3
			C43.3,13.3,43.6,13,43.6,12.5z M23.5,5.3c1.3,0.3,2.6,0,3.3-0.8c0.1,0.1,0.1,0.1,0.2,0.2c-0.8,0.2-1.4,0.7-1.4,1.3
			c0,0.4,0.3,0.8,0.8,1.1c0,0.1-0.1,0.2-0.1,0.3c0,0.7,0.9,1.3,1.9,1.3c0.5,0,0.9-0.1,1.3-0.3c0.2,0.7,1.1,1.2,2.2,1.2
			C33,9.6,34,8.9,34,8.1c0-0.8-0.9-1.4-2.1-1.5c-0.1-0.6-0.8-1.1-1.8-1.1c-0.1,0-0.3,0-0.4,0c0-0.1-0.1-0.2-0.2-0.3
			c0.9-0.1,1.6-0.5,1.9-1.1c0.2-0.4,0.2-0.8,0-1.1c0.6-0.2,1.1-0.5,1.3-0.9c0.5-0.8-0.2-1.8-1.5-2.1c-1-0.2-2,0-2.6,0.4
			c-0.1,0-0.2-0.1-0.3-0.1c-1.2-0.3-2.4,0.1-2.9,0.9c-0.1,0.2-0.1,0.4-0.1,0.5c-1.4-0.3-3,0.2-3.5,1.1C21.3,3.9,22.1,4.9,23.5,5.3z"
			/>
	</g>
</g>
<g>
	<g>
		<path fill="#F8E598" d="M37.6,15.6c0.1-0.2,0.2-0.4,0.2-0.7c0-1-1.3-1.9-2.9-1.9c-0.8,0-1.5,0.2-2,0.5c-0.3-0.1-0.6-0.1-0.9-0.1
			c-0.3,0-0.7,0-1,0.1c-0.2-0.1-0.4-0.2-0.7-0.2c0.1-0.1,0.1-0.3,0.1-0.5c0-0.9-1.1-1.6-2.5-1.6c-0.2,0-0.3,0-0.5,0
			c-0.2-0.2-0.5-0.3-0.8-0.3c0.1-0.1,0.1-0.3,0.1-0.5c0-0.9-1.1-1.6-2.5-1.6s-2.5,0.7-2.5,1.6c0,0.1,0,0.3,0.1,0.4
			c-0.8,0.1-1.5,0.5-1.8,1c-0.4-0.1-0.8-0.2-1.2-0.2c-0.8,0-1.5,0.2-2,0.5c-0.1,0-0.1,0-0.2,0c0.2-0.2,0.3-0.5,0.3-0.7
			c0-0.6-0.6-1.1-1.4-1.2c0.1-0.1,0.1-0.3,0.1-0.5c0-0.9-1.1-1.6-2.5-1.6s-2.5,0.7-2.5,1.6c0,0.1,0,0.3,0.1,0.4
			c-1.2,0.2-2.1,0.9-2.1,1.8c0,0.5,0.4,1,1,1.4c-0.6,0.1-1.2,0.2-1.6,0.5c-0.3-0.1-0.6-0.1-0.9-0.1c-2.1,0-3.8,1.1-3.8,2.5
			c0,1.4,1.7,2.5,3.8,2.5c0.8,0,1.5-0.2,2.1-0.4c0.5,0.6,1.4,0.9,2.4,0.9c1.5,0,2.7-0.8,2.7-1.8c0-0.2,0-0.3-0.1-0.5
			c0.5,0.1,1,0.2,1.5,0.2c0.8,0,1.5-0.2,2.1-0.4c0.5,0.6,1.4,0.9,2.4,0.9c1.5,0,2.7-0.8,2.7-1.8c0-0.6-0.4-1.1-1.1-1.4
			c0.1,0,0.3,0,0.4,0c0.4,0,0.8-0.1,1.2-0.2c-0.2,0.2-0.3,0.5-0.3,0.8c0,1,1.2,1.8,2.7,1.8c0.8,0,1.5-0.2,2-0.5
			c0.1,0.7,0.6,1.3,1.3,1.7c-0.2,0.2-0.3,0.4-0.3,0.7c0,0.7,0.9,1.3,1.9,1.3c0.4,0,0.7-0.1,1-0.2c0.4,0.7,1.4,1.1,2.6,1.1
			c1.5,0,2.7-0.8,2.7-1.8c0,0,0-0.1,0-0.1c1.1-0.2,1.8-0.9,1.8-1.7C39.3,16.5,38.6,15.9,37.6,15.6z M12.4,13.8
			c-0.1-0.1-0.2-0.1-0.3-0.2c0.2,0,0.3,0,0.5-0.1C12.5,13.6,12.4,13.7,12.4,13.8z M25.1,13.4c0,0,0.1-0.1,0.1-0.1
			c0.1,0,0.1,0,0.2,0.1C25.2,13.3,25.1,13.4,25.1,13.4z M58.5,16.9c0-0.1,0.1-0.3,0.1-0.4c0-0.9-1.1-1.6-2.5-1.6
			c-1.4,0-2.5,0.7-2.5,1.6c0,0.2,0,0.3,0.1,0.5c-0.8,0.2-1.4,0.6-1.4,1.2c0,0.7,0.9,1.3,1.9,1.3c0.4,0,0.7-0.1,1-0.2
			c0.4,0.7,1.4,1.1,2.6,1.1c1.5,0,2.7-0.8,2.7-1.8C60.6,17.8,59.7,17.1,58.5,16.9z M57.4,12.1c0-1.4-1.7-2.5-3.8-2.5
			c-0.3,0-0.6,0-0.9,0.1c-0.5-0.3-1.2-0.5-2-0.5c-1.6,0-2.9,0.8-2.9,1.9c0,0.2,0.1,0.5,0.2,0.7c-1,0.3-1.7,0.9-1.7,1.7
			c0,1,1.2,1.8,2.7,1.8c1,0,1.9-0.4,2.4-0.9c0.6,0.3,1.3,0.4,2.1,0.4C55.7,14.6,57.4,13.5,57.4,12.1z M18.2,7.8c1.1,0.3,2.3,0,3-0.5
			c0.2,0.2,0.5,0.3,0.8,0.4c1,0.2,2.1-0.1,2.5-0.8c0.3-0.5,0-1.1-0.7-1.4C24,5.3,24.1,5.2,24.2,5c0.5-0.8-0.2-1.8-1.5-2.1
			c-1.3-0.3-2.7,0.1-3.1,1c-0.1,0.1-0.1,0.3-0.1,0.4c-1.2-0.1-2.5,0.4-2.9,1.2C16.1,6.4,16.8,7.5,18.2,7.8z M39.1,5.7
			c-0.3,0-0.6,0-0.9,0.1c-0.5-0.3-1.2-0.5-2-0.5c-0.3,0-0.5,0-0.8,0.1c0.1-0.7-0.6-1.4-1.6-1.6c-1.3-0.3-2.7,0.1-3.1,1
			c-0.1,0.1-0.1,0.3-0.1,0.4c-1.2-0.1-2.5,0.4-2.9,1.2c-0.5,0.9,0.2,2,1.7,2.3c1.1,0.3,2.3,0,3-0.5c0.1,0.1,0.2,0.1,0.3,0.2
			c-0.5,0.3-0.8,0.8-0.8,1.3c0,1,1.2,1.8,2.7,1.8c1,0,1.9-0.4,2.4-0.9c0.6,0.3,1.3,0.4,2.1,0.4c2.1,0,3.8-1.1,3.8-2.5
			S41.2,5.7,39.1,5.7z"/>
	</g>
</g>
<g>
	<g>
		<path fill="#FEDE78" d="M22.8,15c-0.1-0.2-0.4-0.4-0.6-0.6c-1.3-0.9-3.5-1-4.9-0.2c-0.4,0.2-0.6,0.5-0.8,0.7c-0.8-0.5-2-0.5-2.8,0
			c-0.9,0.5-0.9,1.4-0.2,2c0.1,0.1,0.3,0.2,0.4,0.2c0,0,0,0.1,0,0.1c-0.1,0.6,0.1,1.2,0.7,1.7c0.1,0.1,0.2,0.1,0.3,0.2
			c0.1,0.2,0.3,0.4,0.6,0.6c1,0.7,2.5,0.8,3.7,0.4c0.8,0.4,1.9,0.4,2.6-0.1c0.6-0.4,0.8-1,0.6-1.5c0.1-0.1,0.2-0.1,0.3-0.2
			c1.4-0.8,1.5-2.3,0.2-3.2C23,15.2,22.9,15.1,22.8,15z M9.7,16.9c-0.1,0-0.2,0-0.2,0c0,0,0-0.1,0-0.1c0-0.8-1-1.5-2.3-1.5
			c-1.2,0-2.2,0.6-2.3,1.4h0c-1.1,0-1.9,0.6-1.9,1.3s0.9,1.3,1.9,1.3c0.2,0,0.3,0,0.5,0c0,0,0,0.1,0,0.1c0,0.9,1.1,1.6,2.5,1.6
			s2.5-0.7,2.5-1.6c0-0.3-0.1-0.6-0.4-0.9c0.5-0.1,1-0.4,1-0.7C10.8,17.2,10.3,16.9,9.7,16.9z M34.3,16.7c-0.1,0-0.2,0-0.2,0
			c0,0,0-0.1,0-0.1c0-0.8-1-1.5-2.3-1.5c-1.2,0-2.2,0.6-2.3,1.4h0c-1.1,0-1.9,0.6-1.9,1.3s0.9,1.3,1.9,1.3c0.2,0,0.3,0,0.5,0
			c0,0,0,0.1,0,0.1c0,0.9,1.1,1.6,2.5,1.6c1.4,0,2.5-0.7,2.5-1.6c0-0.3-0.1-0.6-0.4-0.9c0.5-0.1,1-0.4,1-0.7
			C35.5,17,35,16.7,34.3,16.7z M47.6,12.9c0.8-0.6,0.7-1.4-0.2-2c-0.8-0.5-2-0.5-2.8,0c-0.2-0.3-0.5-0.5-0.8-0.7
			c-0.1,0-0.1-0.1-0.2-0.1c0,0,0-0.1,0-0.1c0-0.2-0.1-0.4-0.2-0.6C44,9.9,45,10.2,45.9,10c0.9,0.7,2.4,0.9,3.7,0.4
			c0.9-0.3,1.4-0.9,1.6-1.5c0.2,0,0.4-0.1,0.6-0.1c1-0.4,1.4-1.2,0.9-1.9C52.1,6.3,51,6,50,6.3c0-0.3-0.2-0.6-0.4-0.9
			c-0.9-1.1-3-1.5-4.7-0.9c-1.7,0.6-2.3,2-1.4,3.1c0.1,0.1,0.1,0.2,0.2,0.2c-0.5,0.4-0.6,1-0.2,1.5c-0.3-0.4-1-0.6-1.7-0.6h0
			c-0.1-0.3-0.3-0.6-0.6-0.9c0.7-0.4,0.9-1.1,0.4-1.7c-0.5-0.6-1.6-0.9-2.6-0.6c0-0.3-0.2-0.6-0.4-0.9c-0.9-1.1-3-1.5-4.7-0.9
			c-1.6,0.6-2.3,1.9-1.5,3c-0.7-0.2-1.5-0.1-2.1,0.3c-0.2-0.3-0.5-0.5-0.8-0.7c-1.4-0.8-3.6-0.8-4.9,0.2c-1.3,0.9-1.2,2.4,0.2,3.2
			c0.1,0.1,0.2,0.1,0.3,0.2c-0.3,0.5-0.1,1.1,0.6,1.5c0.7,0.4,1.8,0.5,2.6,0.1c1.2,0.4,2.7,0.3,3.7-0.4c0.7-0.5,0.9-1.1,0.7-1.7
			c0.1-0.1,0.3-0.1,0.4-0.2c0.5,0.2,1.2,0.3,1.8,0.2c0.3,0.2,0.6,0.4,1,0.5c0,0.3,0.4,0.6,1,0.7c-0.2,0.3-0.4,0.6-0.4,0.9
			c0,0.8,0.9,1.4,2,1.6c0.2,0.3,0.5,0.5,0.8,0.7c0.1,0.1,0.2,0.1,0.3,0.2c-0.1,0.2-0.2,0.5-0.1,0.7c-0.4,0-0.8,0.1-1.2,0.3
			c-0.9,0.5-0.9,1.4-0.2,2c0.2,0.1,0.3,0.2,0.5,0.3c-0.2,0.6,0,1.3,0.7,1.7c1,0.7,2.5,0.8,3.7,0.4c0.8,0.4,1.9,0.4,2.6-0.1
			c0.6-0.4,0.8-1,0.6-1.5c0.1-0.1,0.2-0.1,0.3-0.2c1.4-0.8,1.5-2.2,0.4-3.1c0.2-0.4,0.3-0.8,0.2-1.2C47.3,13.1,47.5,13,47.6,12.9z
			 M54.9,13.4L54.9,13.4c-0.1-0.8-1.1-1.4-2.3-1.4c-1.3,0-2.3,0.7-2.3,1.5c0,0,0,0.1,0,0.1c-0.1,0-0.2,0-0.2,0
			c-0.6,0-1.1,0.3-1.1,0.7c0,0.4,0.4,0.7,1,0.7c-0.2,0.3-0.4,0.6-0.4,0.9c0,0.9,1.1,1.6,2.5,1.6c1.4,0,2.5-0.7,2.5-1.6
			c0,0,0-0.1,0-0.1c0.1,0,0.3,0,0.5,0c1.1,0,1.9-0.6,1.9-1.3C56.8,14,56,13.4,54.9,13.4z"/>
	</g>
</g>
</svg>
