<?xml version="1.0" encoding="utf-8"?>
<!-- Generator: Adobe Illustrator 18.1.1, SVG Export Plug-In . SVG Version: 6.00 Build 0)  -->
<svg version="1.1" id="Layer_1" xmlns="http://www.w3.org/2000/svg" xmlns:xlink="http://www.w3.org/1999/xlink" x="0px" y="0px"
	 viewBox="0 0 960 960" enable-background="new 0 0 960 960" xml:space="preserve">
<g>
	<path fill="#FBB041" d="M889.2,472.1c0,220.2-178.5,398.8-398.8,398.8c-220.3,0-398.8-178.6-398.8-398.8
		c0-220.3,178.6-398.8,398.8-398.8C710.7,73.2,889.2,251.8,889.2,472.1"/>
	<g opacity="0.987">
		<path fill="#E79D3C" d="M281.4,587.5c-70.7-151.6-73.8-314.9-9.9-449.8C163.2,209,91.6,331.5,91.6,470.9
			c0,220.2,178.6,398.8,398.8,398.8c3.9,0,7.7-0.5,11.6-0.6C410.7,792.2,333.7,699.5,281.4,587.5"/>
	</g>
</g>
<g>
	<g>
		<path fill-rule="evenodd" clip-rule="evenodd" fill="#FFFFFF" d="M376.7,285.7c-47.5,0-86,47.3-86,105.6s38.5,105.6,86,105.6
			c47.5,0,86-47.3,86-105.6S424.1,285.7,376.7,285.7z M612,285.7c-47.5,0-86,47.3-86,105.6s38.5,105.6,86,105.6
			c47.5,0,86-47.3,86-105.6S659.5,285.7,612,285.7z"/>
	</g>
</g>
<g>
	<g>
		<path fill-rule="evenodd" clip-rule="evenodd" fill="#070400" d="M376.7,349.2c-23.9,0-43.3,19.4-43.3,43.3
			c0,23.9,19.4,43.3,43.3,43.3s43.3-19.4,43.3-43.3C419.9,368.5,400.5,349.2,376.7,349.2z M613.2,349.2c-23.9,0-43.3,19.4-43.3,43.3
			c0,23.9,19.4,43.3,43.3,43.3s43.3-19.4,43.3-43.3C656.4,368.5,637.1,349.2,613.2,349.2z"/>
	</g>
</g>
<path fill-rule="evenodd" clip-rule="evenodd" fill="#754C24" d="M286.6,590.3c0,0,66,53.6,213.3,51.7
	c137.3-1.7,200.2-50.6,200.2-50.6l9.4,23c0,0-74.6,90.7-204.2,95c-136.5,4.5-10.4,0.3-10.4,0.3s-79.3,1.7-135.4-27.5
	c-57.8-30.1-79.2-72.3-79.2-72.3L286.6,590.3z"/>
<g>
	<g>
		<path fill-rule="evenodd" clip-rule="evenodd" fill="#FFFFFF" d="M491.4,134.6c-2.2-6.9-7.2-9.4-13-9.7c3.8-5.5,6-12,3.7-19.1
			c-4.8-15.3-23.7-9.1-33.9-4.5c4.6-5.8,7.5-13,5-20.9c-6.6-21.2-40.4-1.2-40.4-1.2S140,181.1,73.8,217.6
			c-59.6,32.9-38,58-33.2,62.7c3.8,23.2,25.4,44.8,36.6,60.8c23.1,32.9,225.6-31.2,308-94.6c54.7-42.1,2.8-35.4-38.3-26.2
			l119.1-48.8C466.1,171.5,498.1,155.8,491.4,134.6z"/>
	</g>
</g>
</svg>
