<?xml version="1.0" encoding="utf-8"?>
<!-- Generator: Adobe Illustrator 18.1.1, SVG Export Plug-In . SVG Version: 6.00 Build 0)  -->
<svg version="1.1" id="Layer_1" xmlns="http://www.w3.org/2000/svg" xmlns:xlink="http://www.w3.org/1999/xlink" x="0px" y="0px"
	 viewBox="0 0 960 960" enable-background="new 0 0 960 960" xml:space="preserve">
<path fill-rule="evenodd" clip-rule="evenodd" fill="#6DCFF6" stroke="#29C7E2" stroke-width="4" stroke-miterlimit="10" d="
	M211.2,697.5c0,0,15.1-290.4,194.7-429.1s274.8-164.7,396-195c121.2-30.3,110.4-13,110.4-13s-8.7,95.4-38.9,182
	c-30.3,86.7-60.6,186.4-155.8,292.6S494.7,732.2,367,749.5c-127.7,17.3-97.4,6.5-97.4,6.5L211.2,697.5z"/>
<g>
	<g>
		<path fill-rule="evenodd" clip-rule="evenodd" fill="#50ABCF" d="M23,567.5V600c0,0,140.6-19.5,175.3-19.5c34.6,0,26,13,26,13
			s-2.2,15.2,19.5-19.5c21.6-34.7,45.4-162.5,45.4-162.5l-123.3,6.5L23,567.5z M539.8,667.1c0,0-124.9,35.5-157.4,60.2
			c-32.5,24.8-17.6,21.2-17.6,21.2s12.1-9.8,15.3,24.7c3.2,34.5-3.3,176.6-3.3,176.6l32.3-3l135.6-156.1L539.8,667.1z"/>
	</g>
</g>
<path fill-rule="evenodd" clip-rule="evenodd" fill="#FFFFFF" d="M676.4,208.8c41.2,0,74.7,33.5,74.7,74.8
	c0,41.3-33.4,74.8-74.7,74.8c-41.2,0-74.7-33.5-74.7-74.8C601.8,242.3,635.2,208.8,676.4,208.8z"/>
<g>
	<g>
		<path fill-rule="evenodd" clip-rule="evenodd" fill="#FFFFFF" d="M212.8,771.2c0-27-21.9-48.8-48.8-48.8
			c-14.9,0-28.3,6.7-37.2,17.2c-4.9-7.1-13.1-11.7-22.3-11.7c-15,0-27.1,12.1-27.1,27.1c0,15,12.1,27.1,27.1,27.1
			c4.1,0,8-0.9,11.5-2.5c0.6,3.3,1.5,6.4,2.6,9.4c-9.8,8.5-15.9,20.9-15.9,34.8c0,2,0.1,4,0.4,5.9c-6.2,3.2-11.4,8.1-15,14.1
			c-0.3-34.2-28.1-61.8-62.4-61.8c-34.4,0-62.4,27.9-62.4,62.4c0,34.4,27.9,62.4,62.4,62.4c25.7,0,47.8-15.6,57.4-37.8
			c2.7,18.3,18.5,32.4,37.6,32.4c19.1,0,34.9-14.1,37.6-32.4c20.9-4.4,36.6-22.9,36.6-45.1c0-4.6-0.7-9.1-2-13.3
			C205,801.7,212.8,787.4,212.8,771.2z"/>
	</g>
</g>
<g>
	<g>
		<path fill-rule="evenodd" clip-rule="evenodd" fill="#EFEFEF" d="M118.4,821.1c-2,0-4.1,0.1-6.1,0.3c1.8-3.6,3.3-7.4,4.6-11.4
			c13.1-41.4-9.9-85.6-51.3-98.7c-12.8-4.1-26-4.7-38.3-2.3c-7.1-5.5-15.3-9.9-24.4-12.7c-41.4-13.1-85.6,9.8-98.7,51.2
			c-13.1,41.4,9.9,85.6,51.3,98.7c5.7,1.8,11.4,2.9,17.1,3.4c-20.3,16.9-33.3,42.4-33.3,70.9c0,50.9,41.3,92.2,92.2,92.2
			c29.6,0,55.9-13.9,72.8-35.6c4.6,0.8,9.2,1.3,14,1.3c43.4,0,78.6-35.2,78.6-78.6C197,856.3,161.8,821.1,118.4,821.1z"/>
	</g>
</g>
<g>
	<g>
		<path fill-rule="evenodd" clip-rule="evenodd" fill="#DDDDDD" d="M243.4,950.5C232,928,211.8,910,185.9,901.8
			c-6.5-2.1-13-3.4-19.5-4.1c-11.4-22.7-31.6-40.9-57.8-49.2c-25.3-8-51.4-5.2-73.3,5.9c15.5-51.1-13-105.2-64-121.4
			c-51.4-16.3-106.3,12.2-122.5,63.6c-10.4,32.8-2.5,66.9,17.8,91.6c-2.3,4.6-4.3,9.4-5.9,14.5c-16.3,51.4,12.2,106.2,63.6,122.5
			c30.6,9.7,62.4,3.5,86.6-13.9c10.6,10.4,23.7,18.5,38.8,23.3c6.5,2.1,13,3.4,19.5,4.1c8.7,17.3,22.5,32,40.1,41.7
			c11.5,22.5,31.6,40.5,57.5,48.7c51.4,16.3,106.3-12.2,122.5-63.6C303.7,1020.3,283.4,972.4,243.4,950.5z"/>
	</g>
</g>
<path fill-rule="evenodd" clip-rule="evenodd" fill="#5EBADF" d="M213.6,695.9l57,58.1c4.2,4.3,4.1,11.1-0.1,15.3l-31,30.4
	c-4.3,4.2-11.1,4.1-15.3-0.1l-57-58.1c-4.2-4.3-4.1-11.1,0.1-15.3l31-30.4C202.5,691.6,209.4,691.6,213.6,695.9z"/>
</svg>
