<?xml version="1.0" encoding="utf-8"?>
<!-- Generator: Adobe Illustrator 18.1.1, SVG Export Plug-In . SVG Version: 6.00 Build 0)  -->
<svg version="1.1" id="Layer_1" xmlns="http://www.w3.org/2000/svg" xmlns:xlink="http://www.w3.org/1999/xlink" x="0px" y="0px"
	 viewBox="0 0 64 64" enable-background="new 0 0 64 64" xml:space="preserve">
<path fill-rule="evenodd" clip-rule="evenodd" fill="#F74249" d="M287.6,74.8h380.8L469.1,522.1L287.6,74.8z"/>
<path fill-rule="evenodd" clip-rule="evenodd" fill="#FFFFFF" d="M451.2,251L365,539L478,609.5l133.9-56.7l-26.8-30.6L475,214.2
	L451.2,251z"/>
<path fill-rule="evenodd" clip-rule="evenodd" fill="#232323" d="M2,105.5l296-36.8l175.5,435L666.9,59.5l291.6,35.2L829.1,900.5
	h-717L2,105.5z"/>
<path fill-rule="evenodd" clip-rule="evenodd" fill="#EAEAEA" d="M428.9,226.5l44.6,50.6l40.2-52.1l-26.8-61.3h-25.3L428.9,226.5z"
	/>
<g>
	<g>
		<path fill-rule="evenodd" clip-rule="evenodd" d="M210.3,145.3l101.2,81.2l-55,96.5L475,503.8L298,67.2L210.3,145.3z M756.2,140.8
			l-89-81.3L476.5,500.7l228.8-179.9l-55-99.4L756.2,140.8z"/>
	</g>
</g>
<g>
	<g>
		<path fill-rule="evenodd" clip-rule="evenodd" d="M526.8,823c-8.9,0-16.1,7.4-16.1,16.6s7.2,16.6,16.1,16.6s16.1-7.4,16.1-16.6
			S535.7,823,526.8,823z M526.8,734.1c8.9,0,16.1-7.4,16.1-16.6c0-9.1-7.2-16.6-16.1-16.6s-16.1,7.4-16.1,16.6
			C510.7,726.7,517.9,734.1,526.8,734.1z"/>
	</g>
</g>
<path fill-rule="evenodd" clip-rule="evenodd" d="M467.6,493l15,0l-0.1,406l-15,0L467.6,493z"/>
<g>
	<g>
		<path fill-rule="evenodd" clip-rule="evenodd" fill="#E53349" d="M420,261.7l46.1-98L302.5,76.4L420,261.7z M485.5,165.2
			l50.6,99.6l126.4-193L485.5,165.2z"/>
	</g>
</g>
<rect x="593" y="527.9" fill-rule="evenodd" clip-rule="evenodd" fill="#F2F2F2" width="178" height="11.5"/>
</svg>
