<?xml version="1.0" encoding="utf-8"?>
<!-- Generator: Adobe Illustrator 18.1.1, SVG Export Plug-In . SVG Version: 6.00 Build 0)  -->
<svg version="1.1" id="Layer_1" xmlns="http://www.w3.org/2000/svg" xmlns:xlink="http://www.w3.org/1999/xlink" x="0px" y="0px"
	 viewBox="0 0 64 64" enable-background="new 0 0 64 64" xml:space="preserve">
<g>
	<path fill="#FBB041" d="M931.2,480c0,249.2-202,451.2-451.2,451.2c-249.2,0-451.2-202-451.2-451.2c0-249.2,202-451.2,451.2-451.2
		C729.2,28.8,931.2,230.8,931.2,480"/>
	<g opacity="0.987">
		<path fill="#E79D3C" d="M243.6,610.6c-80-171.5-83.6-356.2-11.2-508.9C109.8,182.4,28.8,321.1,28.8,478.7
			c0,249.2,202,451.2,451.2,451.2c4.4,0,8.8-0.6,13.2-0.7C389.8,842.2,302.7,737.4,243.6,610.6"/>
	</g>
</g>
<path fill-rule="evenodd" clip-rule="evenodd" fill="#754C24" d="M234.9,591.7c0,0,78.6,63.8,253.7,61.6
	c163.3-2.1,238.2-60.2,238.2-60.2l11.2,27.4c0,0-88.7,107.9-242.9,113c-162.4,5.4-12.4,0.4-12.4,0.4s-94.4,2-161.1-32.8
	c-68.7-35.8-94.2-86-94.2-86L234.9,591.7z"/>
<g>
	<g>
		<polygon fill-rule="evenodd" clip-rule="evenodd" points="903.4,348.8 834.6,348.8 841.7,289.8 503.8,289.8 511.7,321.3 
			459.1,321.3 467,289.8 129.2,289.8 136.3,348.8 55.1,348.8 55.1,377.6 139.7,377.6 147.7,444.8 428.3,444.8 451.9,350.2 
			518.8,350.2 542.5,444.9 823.2,444.9 831.2,377.6 903.4,377.6 		"/>
	</g>
	<g>
		<polygon fill="none" stroke="#1A1A1A" stroke-width="6" stroke-miterlimit="10" points="903.4,348.8 834.6,348.8 841.7,289.8 
			503.8,289.8 511.7,321.3 459.1,321.3 467,289.8 129.2,289.8 136.3,348.8 55.1,348.8 55.1,377.6 139.7,377.6 147.7,444.8 
			428.3,444.8 451.9,350.2 518.8,350.2 542.5,444.9 823.2,444.9 831.2,377.6 903.4,377.6 		"/>
	</g>
</g>
</svg>
