<?xml version="1.0" encoding="utf-8"?>
<!-- Generator: Adobe Illustrator 18.1.0, SVG Export Plug-In . SVG Version: 6.00 Build 0)  -->
<!DOCTYPE svg PUBLIC "-//W3C//DTD SVG 1.1//EN" "http://www.w3.org/Graphics/SVG/1.1/DTD/svg11.dtd">
<svg version="1.1" id="Layer_1" xmlns="http://www.w3.org/2000/svg" xmlns:xlink="http://www.w3.org/1999/xlink" x="0px" y="0px"
	 viewBox="0 0 64 64" enable-background="new 0 0 64 64" xml:space="preserve">
<g>
	<path fill="#26A449" d="M199.6,7.2c5.3-4.3,4.7-7.3,9.6-7c5,0.3,58.6,52.3,26.9,149c-28.9,88.5-102.4,111.4-154.3,105.9
		c-53.3-5.7-73.5-22.8-71.8-27.7s5.3-20.3,15-20c0,0,50.5,36.2,102.9,19.3s95.3-85.1,93.3-135.4c-1.8-45-21.9-69.2-25.9-73.8
		C191.3,12.8,199.6,7.2,199.6,7.2z"/>
	<path fill="#DB6767" d="M127.9,226.7c52.4-17,95.3-85.1,93.3-135.4c-1.3-33.9-13.1-55.9-20.5-66.8L34.3,213.1
		C51.3,222.6,89.1,239.2,127.9,226.7z"/>
	<circle cx="67" cy="207.2" r="3.5"/>
	<circle cx="114.6" cy="211.7" r="4.5"/>
	<circle cx="99.5" cy="171.8" r="5"/>
	<circle cx="148.2" cy="171.3" r="4.5"/>
	<circle cx="180.5" cy="154.3" r="4.8"/>
	<circle cx="144.5" cy="138" r="3.7"/>
	<circle cx="167.5" cy="102.4" r="4.2"/>
	<circle cx="199.6" cy="112.9" r="3.7"/>
	<circle cx="199.6" cy="59.7" r="3.7"/>
</g>
</svg>
