<?xml version="1.0" encoding="utf-8"?>
<!-- Generator: Adobe Illustrator 18.1.1, SVG Export Plug-In . SVG Version: 6.00 Build 0)  -->
<svg version="1.1" id="Layer_1" xmlns="http://www.w3.org/2000/svg" xmlns:xlink="http://www.w3.org/1999/xlink" x="0px" y="0px"
	 viewBox="0 0 64 64" enable-background="new 0 0 64 64" xml:space="preserve">
<g>
	<path fill="#26A449" d="M51.4,1.8C52.8,0.7,52.7-0.1,54,0c1.4,0.1,15.9,13.1,7.3,37.3c-7.8,22.2-27.7,27.9-41.8,26.5
		C5,62.4-0.4,58.1,0,56.9s1.4-5.1,4.1-5c0,0,13.7,9.1,27.9,4.8s25.8-21.3,25.3-33.9c-0.5-11.3-5.9-17.3-7-18.5
		C49.2,3.2,51.4,1.8,51.4,1.8z"/>
	<path fill="#DB6767" d="M32,56.7c14.2-4.3,25.8-21.3,25.3-33.9c-0.4-8.5-3.6-14-5.6-16.7L6.6,53.3C11.2,55.7,21.5,59.8,32,56.7z"/>
	<ellipse cx="15.5" cy="51.8" rx="0.9" ry="0.9"/>
	<ellipse cx="28.4" cy="52.9" rx="1.2" ry="1.1"/>
	<ellipse cx="24.3" cy="43" rx="1.4" ry="1.3"/>
	<ellipse cx="37.5" cy="42.8" rx="1.2" ry="1.1"/>
	<ellipse cx="46.2" cy="38.6" rx="1.3" ry="1.2"/>
	<ellipse cx="36.5" cy="34.5" rx="1" ry="0.9"/>
	<ellipse cx="42.7" cy="25.6" rx="1.1" ry="1.1"/>
	<ellipse cx="51.4" cy="28.2" rx="1" ry="0.9"/>
	<ellipse cx="51.4" cy="14.9" rx="1" ry="0.9"/>
</g>
</svg>
