<?xml version="1.0" encoding="utf-8"?>
<!-- Generator: Adobe Illustrator 18.1.1, SVG Export Plug-In . SVG Version: 6.00 Build 0)  -->
<svg version="1.1" id="Layer_1" xmlns="http://www.w3.org/2000/svg" xmlns:xlink="http://www.w3.org/1999/xlink" x="0px" y="0px"
	 viewBox="0 0 960 960" enable-background="new 0 0 960 960" xml:space="preserve">
<path id="wrench-4-icon" fill="#0071BC" d="M744.2,564.5C744.2,564.5,744.2,564.5,744.2,564.5c-27.1,0-53.1-10.8-72.3-29.9
	L456.7,319.4c-22.2-22.2-33.8-53-31.8-84.4c3.7-55.3-15.6-111.8-57.9-154.1C311.2,25.2,230.7,9.4,160.9,33.5l126.8,126.8
	c2.9,49.5-73.6,125.9-123,123L37.9,156.5c-24.1,69.8-8.4,150.4,47.4,206.1c42.3,42.3,98.8,61.6,154.1,57.9
	c31.4-2.1,62.1,9.5,84.4,31.7l210,210c20.8,20.8,32.3,49.1,32,78.5c0,0.7,0,1.5,0,2.2c0,98.6,79.9,178.5,178.5,178.5
	s178.5-79.9,178.5-178.5C922.7,644.5,842.8,564.5,744.2,564.5z M770.3,841.1L672.7,815l-26.2-97.6l71.5-71.4l97.6,26.2l26.2,97.6
	L770.3,841.1z"/>
</svg>
