<?xml version="1.0" encoding="utf-8"?>
<!-- Generator: Adobe Illustrator 18.1.1, SVG Export Plug-In . SVG Version: 6.00 Build 0)  -->
<svg version="1.1" id="Layer_1" xmlns="http://www.w3.org/2000/svg" xmlns:xlink="http://www.w3.org/1999/xlink" x="0px" y="0px"
	 viewBox="0 0 64 64" enable-background="new 0 0 64 64" xml:space="preserve">
<path id="wrench-4-icon" fill="#0071BC" d="M51.2,38.6L51.2,38.6c-1.9,0-3.8-0.8-5.2-2.1L30.7,21.1c-1.6-1.6-2.4-3.8-2.3-6
	c0.3-3.9-1.1-8-4.1-11c-4-4-9.7-5.1-14.7-3.4l9.1,9c0.2,3.5-5.3,9-8.8,8.8l-9.1-9c-1.7,5-0.6,10.7,3.4,14.7c3,3,7.1,4.4,11,4.1
	c2.2-0.1,4.4,0.7,6,2.3l15,15c1.5,1.5,2.3,3.5,2.3,5.6c0,0,0,0.1,0,0.2c0,7,5.7,12.7,12.8,12.7S64,58.3,64,51.3
	C64,44.3,58.3,38.6,51.2,38.6z M53.1,58.3l-7-1.9l-1.9-6.9l5.1-5.1l7,1.9l1.9,6.9L53.1,58.3z"/>
</svg>
