<?xml version="1.0" encoding="utf-8"?>
<!-- Generator: Adobe Illustrator 18.1.1, SVG Export Plug-In . SVG Version: 6.00 Build 0)  -->
<svg version="1.1" id="Layer_1" xmlns="http://www.w3.org/2000/svg" xmlns:xlink="http://www.w3.org/1999/xlink" x="0px" y="0px"
	 viewBox="0 0 64 64" enable-background="new 0 0 64 64" xml:space="preserve">
<g>
	<path fill="#FBB041" d="M953.9,480.5c0,261.6-212.1,473.8-473.8,473.8C218.4,954.3,6.3,742.2,6.3,480.5
		C6.3,218.8,218.4,6.7,480.1,6.7C741.8,6.7,953.9,218.8,953.9,480.5"/>
	<g opacity="0.987">
		<path fill="#E79D3C" d="M231.8,617.7c-84-180.1-87.7-374.1-11.8-534.3C91.4,168,6.3,313.6,6.3,479.1
			c0,261.6,212.1,473.8,473.8,473.8c4.7,0,9.2-0.6,13.8-0.7C385.4,860.8,293.9,750.8,231.8,617.7"/>
	</g>
</g>
<g>
	<g>
		<path fill-rule="evenodd" clip-rule="evenodd" fill="#FFFFFF" d="M320.9,204c-63.9,0-115.7,63.6-115.7,142.1
			s51.8,142.1,115.7,142.1s115.7-63.6,115.7-142.1S384.8,204,320.9,204z M637.7,204C573.8,204,522,267.6,522,346.1
			s51.8,142.1,115.7,142.1s115.7-63.6,115.7-142.1S701.6,204,637.7,204z"/>
	</g>
</g>
<g>
	<g>
		<path fill-rule="evenodd" clip-rule="evenodd" fill="#070400" d="M280.6,245.9c-32.2,0-58.2,26.1-58.2,58.2s26.1,58.2,58.2,58.2
			c32.2,0,58.2-26.1,58.2-58.2S312.7,245.9,280.6,245.9z M667.2,320.4c-32.2,0-58.2,26.1-58.2,58.2s26.1,58.2,58.2,58.2
			s58.2-26.1,58.2-58.2S699.4,320.4,667.2,320.4z"/>
	</g>
</g>
<path fill-rule="evenodd" clip-rule="evenodd" fill="#754C24" d="M199.8,613.9c0,0,88.9,72.1,287,69.6
	c184.7-2.3,269.4-68.1,269.4-68.1l12.7,31c0,0-100.4,122-274.8,127.8c-183.7,6.1-14,0.5-14,0.5s-106.8,2.2-182.3-37.1
	c-77.8-40.5-106.5-97.3-106.5-97.3L199.8,613.9z"/>
</svg>
