<?xml version="1.0" encoding="UTF-8"?>
<svg xmlns="http://www.w3.org/2000/svg" xmlns:xlink="http://www.w3.org/1999/xlink" width="51pt" height="51pt" viewBox="0 0 51 51" version="1.1">
<g id="surface1">
<path style=" stroke:none;fill-rule:nonzero;fill:rgb(50.196078%,74.117647%,0.392157%);fill-opacity:1;" d="M 24.695312 42.664062 C 24.226562 42.664062 23.777344 42.546875 23.351562 42.3125 L 19.078125 39.785156 C 18.441406 39.429688 18.746094 39.3125 18.960938 39.21875 C 19.808594 38.933594 19.976562 38.863281 20.894531 38.34375 C 20.992188 38.296875 21.109375 38.320312 21.203125 38.367188 L 24.484375 40.304688 C 24.601562 40.375 24.769531 40.375 24.886719 40.304688 L 37.660156 32.9375 C 37.777344 32.867188 37.847656 32.726562 37.847656 32.582031 L 37.847656 17.875 C 37.847656 17.730469 37.777344 17.589844 37.660156 17.519531 L 24.910156 10.152344 C 24.792969 10.082031 24.625 10.082031 24.507812 10.152344 L 11.757812 17.519531 C 11.640625 17.589844 11.546875 17.730469 11.546875 17.875 L 11.546875 32.605469 C 11.546875 32.75 11.617188 32.890625 11.757812 32.9375 L 15.253906 34.96875 C 17.140625 35.914062 18.320312 34.804688 18.320312 33.667969 L 18.320312 19.125 C 18.320312 18.914062 18.488281 18.746094 18.699219 18.746094 L 20.328125 18.746094 C 20.542969 18.746094 20.707031 18.914062 20.707031 19.125 L 20.707031 33.667969 C 20.707031 36.195312 19.335938 37.660156 16.929688 37.660156 C 16.195312 37.660156 15.605469 37.660156 13.976562 36.855469 L 10.578125 34.945312 C 9.75 34.472656 9.230469 33.574219 9.230469 32.605469 L 9.230469 17.875 C 9.230469 16.90625 9.75 16.03125 10.578125 15.535156 L 23.351562 8.167969 C 24.152344 7.722656 25.242188 7.722656 26.042969 8.167969 L 38.816406 15.535156 C 39.644531 16.007812 40.164062 16.90625 40.164062 17.875 L 40.164062 32.605469 C 40.164062 33.574219 39.644531 34.449219 38.816406 34.945312 L 26.042969 42.3125 C 25.617188 42.546875 25.167969 42.664062 24.695312 42.664062 Z M 34.992188 28.144531 C 34.992188 25.382812 33.125 24.648438 29.207031 24.128906 C 25.242188 23.609375 24.839844 23.328125 24.839844 22.40625 C 24.839844 21.652344 25.167969 20.613281 28.121094 20.613281 C 30.742188 20.613281 31.710938 21.179688 32.109375 22.949219 C 32.132812 23.117188 32.300781 23.234375 32.464844 23.234375 L 34.117188 23.234375 C 34.210938 23.234375 34.308594 23.1875 34.378906 23.117188 C 34.449219 23.042969 34.496094 22.925781 34.472656 22.832031 C 34.210938 19.785156 32.183594 18.371094 28.097656 18.371094 C 24.460938 18.371094 22.289062 19.902344 22.289062 22.476562 C 22.289062 25.265625 24.4375 26.042969 27.933594 26.398438 C 32.109375 26.796875 32.441406 27.414062 32.441406 28.238281 C 32.441406 29.65625 31.308594 30.269531 28.617188 30.269531 C 25.242188 30.269531 24.484375 29.417969 24.25 27.742188 C 24.226562 27.554688 24.058594 27.4375 23.871094 27.4375 L 22.21875 27.4375 C 22.003906 27.4375 21.839844 27.601562 21.839844 27.8125 C 21.839844 29.960938 23.019531 32.535156 28.59375 32.535156 C 32.679688 32.511719 34.992188 30.929688 34.992188 28.144531 Z M 40.609375 13.199219 L 40.609375 13.457031 L 41.320312 13.457031 L 41.320312 15.347656 L 41.601562 15.347656 L 41.601562 13.457031 L 42.335938 13.457031 L 42.335938 13.199219 Z M 42.59375 15.347656 L 42.878906 15.347656 L 42.878906 14.097656 C 42.878906 14.046875 42.878906 13.953125 42.878906 13.859375 C 42.878906 13.742188 42.878906 13.671875 42.878906 13.625 L 42.878906 13.554688 L 43.492188 15.347656 L 43.773438 15.347656 L 44.390625 13.554688 C 44.390625 13.671875 44.390625 13.765625 44.390625 13.882812 C 44.390625 13.976562 44.390625 14.046875 44.390625 14.097656 L 44.390625 15.347656 L 44.671875 15.347656 L 44.671875 13.222656 L 44.269531 13.222656 L 43.65625 15.015625 L 43.042969 13.222656 L 42.617188 13.222656 L 42.617188 15.347656 Z M 42.59375 15.347656 "/>
</g>
</svg>
