<?xml version="1.0" encoding="utf-8"?>
<!-- Generator: Adobe Illustrator 18.1.1, SVG Export Plug-In . SVG Version: 6.00 Build 0)  -->
<svg version="1.1" id="Layer_1" xmlns="http://www.w3.org/2000/svg" xmlns:xlink="http://www.w3.org/1999/xlink" x="0px" y="0px"
	 viewBox="0 0 64 64" enable-background="new 0 0 64 64" xml:space="preserve">
<path fill="#F4EEE0" d="M13.6,13.4c0,0-1.3-0.4-1.6-3c-0.2-2.6,0.1-6.9,2.8-8s4.7-1.3,5.2-1.2c0.5,0.1,3.4-2.3,6.2-0.6
	s3.3,1.7,3.6,1.5s1.4-2,3.5-1.2c2.1,0.9,4.2,1.5,4.7,0.9c0.5-0.5,6-2.8,8,2.9c2,5.7,1,8.6,0.8,9.3c-0.2,0.7-0.9,2.2-2.1,2.6
	C43.7,17.1,13.6,13.4,13.6,13.4z"/>
<path fill="#E2861D" d="M45.3,20.3c0,0,3,0,3.1,2.8c0.1,2.8,0.7,18.7,0.7,18.7s-0.2,2.9-1.6,3.5c-1.3,0.6-2.3,0.9-2.3,0.9l-0.1,4
	c0,0,4.9-1.6,5.9-3.9c1-2.4,0.8-3.3,0.8-7.2S51.6,23.6,51.3,22c-0.4-1.7-1.3-4.2-4.3-5.1c-3-0.9-3-0.9-3-0.9L45.3,20.3z"/>
<g>
	<g>
		<path fill="#F8931F" d="M45.5,11.7L45.5,11.7c-0.1-1.2-1.8-1.5-1.8-1.5s-3.5-0.8-14-0.8s-12.7,0.5-14,0.8
			c-1.3,0.3-1.8,1.5-1.8,1.5l0,0l-1,51.4h33.5L45.5,11.7z"/>
	</g>
</g>
<path fill="#FEB25B" d="M20,9.9h4l-0.5,49.3h-4L20,9.9z"/>
<path fill="#EAE8E5" d="M12.7,58.5h34.1l0.1,5.5H12.6L12.7,58.5z"/>
<path fill="#F4EEE0" d="M13.6,13.4c0,0,3.1,1.2,6.2-1.3c3.1-2.6,3.8-2,6-1.8s7.7,0.7,8.8-0.6c1.1-1.3,1.1-1.2,1.1-1.3
	c0-0.2-21.4,0.8-21.4,0.8l-1.1,0.1L13.6,13.4z"/>
</svg>
