<?xml version="1.0" encoding="utf-8"?>
<!-- Generator: Adobe Illustrator 18.1.1, SVG Export Plug-In . SVG Version: 6.00 Build 0)  -->
<svg version="1.1" id="Layer_1" xmlns="http://www.w3.org/2000/svg" xmlns:xlink="http://www.w3.org/1999/xlink" x="0px" y="0px"
	 viewBox="0 0 64 64" enable-background="new 0 0 64 64" xml:space="preserve">
<path fill="#CACACA" d="M16.1,62.1l0.4,0.8c0,0,0.6,1.1,15.7,1c15.1-0.1,15.2-1.2,15.2-1.2l0.5-1l-18-3.4L16.1,62.1z"/>
<g>
	<g>
		<path fill="#1D3F62" d="M15,4.6v56.9l0.1,0.2c0,0,2.4,1.1,16.4,1.1S49,61.5,49,61.5V4.6H15z"/>
	</g>
</g>
<path fill="#2A557C" d="M15,4.6l3.3-3h27.1l3.6,3c0,0-3.6,1.3-17.1,1.3S15,4.6,15,4.6z"/>
<path fill="#696969" d="M31.9,0.2c7.6,0,13.8,0.6,13.8,1.4s-6.2,1.4-13.8,1.4S18.1,2.3,18.1,1.5S24.3,0.2,31.9,0.2z"/>
<path fill="#C2C2C2" d="M31.9,0c7.6,0,13.8,0.5,13.8,1.2s-6.2,1.2-13.8,1.2S18.1,1.9,18.1,1.2S24.3,0,31.9,0z"/>
</svg>
