<?xml version="1.0" encoding="utf-8"?>
<!-- Generator: Adobe Illustrator 18.1.1, SVG Export Plug-In . SVG Version: 6.00 Build 0)  -->
<svg version="1.1" id="Layer_1" xmlns="http://www.w3.org/2000/svg" xmlns:xlink="http://www.w3.org/1999/xlink" x="0px" y="0px"
	 viewBox="96 96 64 64" enable-background="new 96 96 64 64" xml:space="preserve">
<radialGradient id="SVGID_1_" cx="-5888.6709" cy="-5621.0005" r="412.0417" gradientTransform="matrix(7.119022e-002 0 0 7.119021e-002 547.2158 528.1602)" gradientUnits="userSpaceOnUse">
	<stop  offset="0" style="stop-color:#FEB661"/>
	<stop  offset="1.420861e-002" style="stop-color:#FEB560"/>
	<stop  offset="0.3295" style="stop-color:#F5A54D"/>
	<stop  offset="0.6541" style="stop-color:#F19C42"/>
	<stop  offset="1" style="stop-color:#EF993E"/>
</radialGradient>
<path fill="url(#SVGID_1_)" stroke="#DC7F1A" stroke-width="3" stroke-miterlimit="10" d="M128,98.7c16.2,0,29.3,13.1,29.3,29.3
	s-13.1,29.3-29.3,29.3S98.7,144.2,98.7,128S111.8,98.7,128,98.7z"/>
<linearGradient id="SVGID_2_" gradientUnits="userSpaceOnUse" x1="32.0012" y1="217.6544" x2="32.0012" y2="230.4713" gradientTransform="matrix(4 0 0 4 0 -768)">
	<stop  offset="0" style="stop-color:#FFDE74"/>
	<stop  offset="1" style="stop-color:#F9D563"/>
</linearGradient>
<path fill="url(#SVGID_2_)" d="M101.2,127c0,0,1.8-9.8,3.4-11.8c1.6-2,1.7-4.8,3.8-5.6c2.1-0.8,5.4-4.7,5.4-4.7s0.4-1.5,4.4-1.1
	c4,0.4,5.6-0.7,5.9-1c0.3-0.4,3-1.5,5.3-1c2.3,0.5,3.8,1.7,5.8,1.3c2.1-0.4,3.3-1.4,5.9,1c2.6,2.4,5.5,4,5.5,4s5.6,6.2,6,7.5
	s0.5,5.2,1.8,7.5c1.4,2.3-0.5,16.2-3.2,17.3c-2.8,1-5.9,7.2-8.5,9.4c-2.6,2.2-5.3,4.3-10.7,4.9c-5.3,0.6-12-3.5-17.1-4.7
	c-5.1-1.3-8.3-4.9-8.1-7.3c0.2-2.5-3.1-4.1-4.2-5.6c-1.1-1.5-1.2-2.6-1-5C101.7,129.7,101.2,131.7,101.2,127z"/>
<path fill="#B13125" stroke="#AA2922" stroke-width="8" stroke-miterlimit="10" d="M110.7,122.7c2,0,3.7,1.7,3.7,3.7
	c0,2-1.7,3.7-3.7,3.7c-2,0-3.7-1.6-3.7-3.7C107,124.3,108.7,122.7,110.7,122.7z"/>
<path fill="#B13125" stroke="#AA2922" stroke-width="8" stroke-miterlimit="10" d="M118,136.5c2.3,0,4.1,1.8,4.1,4.1
	c0,2.3-1.8,4.1-4.1,4.1c-2.3,0-4.1-1.8-4.1-4.1C114,138.4,115.8,136.5,118,136.5z"/>
<path fill="#B13125" stroke="#AA2922" stroke-width="8" stroke-miterlimit="10" d="M134.7,139.8c2,0,3.7,1.7,3.7,3.7
	s-1.7,3.7-3.7,3.7s-3.7-1.7-3.7-3.7S132.7,139.8,134.7,139.8z"/>
<path fill="#B13125" stroke="#AA2922" stroke-width="8" stroke-miterlimit="10" d="M129.9,119.6c1.8,0,3.4,1.5,3.4,3.4
	c0,1.9-1.5,3.4-3.4,3.4c-1.8,0-3.4-1.5-3.4-3.4C126.5,121,128,119.6,129.9,119.6z"/>
<path fill="#B13125" stroke="#AA2922" stroke-width="8" stroke-miterlimit="10" d="M140.3,108.9c2,0,3.7,1.7,3.7,3.7
	c0,2-1.6,3.7-3.7,3.7c-2,0-3.7-1.7-3.7-3.7C136.6,110.6,138.3,108.9,140.3,108.9z"/>
<path fill="#B13125" stroke="#AA2922" stroke-width="8" stroke-miterlimit="10" d="M140.3,127.6c1.8,0,3.4,1.6,3.4,3.4
	c0,1.8-1.6,3.4-3.4,3.4c-1.8,0-3.4-1.6-3.4-3.4C136.9,129.2,138.4,127.6,140.3,127.6z"/>
<path fill="#B13125" stroke="#AA2922" stroke-width="8" stroke-miterlimit="10" d="M118,107.5c1.9,0,3.6,1.6,3.6,3.6
	c0,2-1.6,3.6-3.6,3.6c-2,0-3.6-1.6-3.6-3.6C114.4,109,116,107.5,118,107.5z"/>
<path fill="#39B54A" d="M129.6,146.4c0,0-1.6-1-2-1.9c-0.5-0.9-0.5-0.6-0.5-0.6v0.2l-0.4-0.4c0,0-0.2,0.3,0.1,0.5
	c0.2,0.2-0.2,0.3-0.2,0.3l-0.6-0.5c0,0-0.5-0.2-0.3,0.2c0.2,0.4-0.3,0.2-0.3,0.2s-1.1-0.7-0.5-0.2c0.6,0.5-0.5-0.2,0,0.3
	c0.5,0.5-0.8,0.1,0.2,0.5c1,0.4,0.9,0.5,0.9,0.5l-0.5,0.1c0,0-0.7,0.1,0.1,0.3c0.8,0.1,0,0.5,0,0.5s0,0.3,0.6-0.2
	c0.6-0.5,0.5-0.1,0.5-0.1s0.1,0.4-0.3,0.5c-0.4,0.1,0.6,0.3,0.6,0.3l0.9,0.1c0,0,0.8-0.3,1.4-0.1
	C129.8,146.8,130.1,146.7,129.6,146.4z"/>
<path fill="#39B54A" d="M123.1,128.7c0,0-1.7,0.8-2.7,0.7c-1,0-0.7,0.1-0.7,0.1l0.2,0.1l-0.5,0.2c0,0,0.2,0.3,0.5,0.2
	c0.3-0.1,0.1,0.3,0.1,0.3l-0.8,0.2c0,0-0.5,0.4,0,0.4c0.5,0,0,0.4,0,0.4s-1.2,0.5-0.4,0.3c0.7-0.3-0.4,0.3,0.3,0.1
	c0.6-0.2-0.4,0.7,0.5,0.1c0.8-0.6,0.8-0.6,0.8-0.6l-0.2,0.5c0,0-0.3,0.6,0.3,0c0.6-0.6,0.4,0.3,0.4,0.3s0.3,0.2,0.2-0.6
	c-0.1-0.8,0.2-0.5,0.2-0.5s0.4,0.1,0.3,0.5s0.5-0.4,0.5-0.4l0.6-0.6c0,0,0.2-0.8,0.6-1.2C123.7,128.7,123.7,128.5,123.1,128.7z"/>
<path fill="#39B54A" d="M112.8,118.7c0,0-1-1-1.3-1.7c-0.2-0.7-0.3-0.6-0.3-0.6v0.2l-0.3-0.3c0,0-0.2,0.2,0,0.4
	c0.1,0.2-0.2,0.2-0.2,0.2l-0.4-0.5c0,0-0.4-0.3-0.3,0.1c0.1,0.4-0.3,0.1-0.3,0.1s-0.7-0.7-0.4-0.2c0.4,0.5-0.4-0.2,0,0.3
	c0.3,0.5-0.6-0.1,0,0.4c0.7,0.4,0.6,0.5,0.6,0.5h-0.4c0,0-0.5,0,0,0.2c0.6,0.2-0.1,0.4-0.1,0.4s-0.1,0.3,0.5,0c0.6-0.3,0.4,0,0.4,0
	s0,0.3-0.3,0.3s0.4,0.3,0.4,0.3l0.6,0.3c0,0,0.6-0.1,1.1,0.2C112.9,119.1,113.2,119.1,112.8,118.7z"/>
<path fill="#39B54A" d="M140.9,123.8c0,0-1.3-1.2-1.6-2.1c-0.3-0.9-0.4-0.6-0.4-0.6v0.2l-0.3-0.4c0,0-0.2,0.2,0,0.5
	s-0.3,0.2-0.3,0.2l-0.4-0.6c0,0-0.5-0.3-0.3,0.1c0.2,0.4-0.3,0.1-0.3,0.1s-0.9-0.8-0.4-0.3c0.5,0.6-0.4-0.3,0,0.3
	c0.4,0.6-0.8-0.1,0.1,0.5c0.8,0.5,0.7,0.6,0.7,0.6h-0.5c0,0-0.6,0,0,0.3c0.6,0.3-0.1,0.5-0.1,0.5s-0.1,0.3,0.6-0.1
	c0.6-0.4,0.5,0,0.5,0s0,0.4-0.4,0.4s0.5,0.4,0.5,0.4l0.8,0.3c0,0,0.7-0.1,1.3,0.2C141,124.2,141.4,124.2,140.9,123.8z"/>
<path fill="#EDCD67" d="M126.5,112.5l1.2-1.4c0,0-0.6-1.6,0.1-2.3c0.6-0.7,2.1-1,3.4,0.2c1.3,1.3,1.2,2.8,0.7,3.3
	c-0.5,0.6-1.1,0.8-1.6,0.7s-1-0.4-1-0.4l-1.2,1c0,0-0.5,0.4-1.2-0.4C126.3,112.8,126.5,112.5,126.5,112.5z"/>
<path fill="#EFE7E0" d="M126.5,112.2l1.2-1.4c0,0-0.6-1.6,0.1-2.3c0.6-0.7,2.2-1.1,3.5,0.3c1.3,1.3,1.2,2.8,0.7,3.4
	c-0.5,0.6-1.1,0.8-1.6,0.7c-0.5-0.1-1-0.4-1-0.4l-1.2,1c0,0-0.5,0.4-1.2-0.4C126.3,112.5,126.5,112.2,126.5,112.2z"/>
<path fill="#A2886D" d="M127.9,110.7l1-0.8c0,0-0.5-0.2-0.8,0.1C127.7,110.3,127.9,110.7,127.9,110.7z"/>
<path fill="#A2886D" d="M130.6,111.5l-1,0.8c0,0,0.5,0.2,0.8-0.1C130.8,112,130.6,111.5,130.6,111.5z"/>
<path fill="#DBCCBD" d="M128.9,109.8c0,0,0.6,0,1,0.4s0.6,0.9,0.6,1.2s-0.1,0.1-0.1,0.1s-0.2-0.8-0.6-1.2
	C129.4,109.8,129.3,109.9,128.9,109.8C128.4,109.8,128.9,109.8,128.9,109.8z"/>
<path fill="#EFE7E0" d="M141,140.8l0.8-1.3c0,0-0.6-1.2-0.3-1.8c0.5-0.6,1.7-1.1,2.8-0.3c1.2,0.9,1.3,2.1,1,2.6
	c-0.3,0.6-0.8,0.8-1.2,0.8c-0.4,0-0.8-0.2-0.8-0.2l-0.8,1.1c0,0-0.4,0.4-1-0.1C140.8,141.1,141,140.8,141,140.8z"/>
<path fill="#A2886D" d="M141.9,139.5l0.7-0.7c0,0-0.4-0.1-0.6,0.2C141.8,139.1,141.9,139.5,141.9,139.5z"/>
<path fill="#A2886D" d="M144.2,139.8l-0.7,0.7c0,0,0.4,0.1,0.6-0.2C144.4,140.1,144.2,139.8,144.2,139.8z"/>
<path fill="#DBCCBD" d="M142.7,138.6c0,0,0.5-0.1,0.9,0.2s0.6,0.6,0.6,0.9c0.1,0.3,0,0.1,0,0.1s-0.3-0.6-0.6-0.8
	C143.1,138.7,142.9,138.7,142.7,138.6C142.3,138.6,142.7,138.6,142.7,138.6z"/>
<path fill="#EFE7E0" d="M143.8,121.8l1.4-0.8c0,0,0-1.5,0.7-1.9c0.7-0.5,2.1-0.3,2.8,1.2c0.7,1.5,0.2,2.7-0.4,3
	c-0.5,0.4-1.2,0.4-1.6,0.2s-0.7-0.5-0.7-0.5l-1.3,0.5c0,0-0.6,0.2-0.9-0.6C143.5,121.9,143.8,121.8,143.8,121.8z"/>
<path fill="#A2886D" d="M145.4,120.8l1.1-0.4c0,0-0.3-0.3-0.7-0.1C145.4,120.5,145.4,120.8,145.4,120.8z"/>
<path fill="#A2886D" d="M147.4,122.3l-1.1,0.4c0,0,0.4,0.3,0.7,0.2C147.4,122.7,147.4,122.3,147.4,122.3z"/>
<path fill="#DBCCBD" d="M146.5,120.4c0,0,0.6,0.2,0.7,0.6c0.2,0.5,0.3,0.9,0.2,1.2c-0.1,0.3-0.1,0-0.1,0s0.1-0.7-0.2-1.2
	C146.9,120.7,146.8,120.7,146.5,120.4C146.1,120.2,146.5,120.4,146.5,120.4z"/>
<path fill="#EDCD67" d="M122.5,122.2l-1.3,0.3c0,0-0.4,1.2-1,1.3c-0.6,0.2-1.7-0.3-1.9-1.7c-0.2-1.3,0.5-2.1,1-2.3
	c0.5-0.2,1,0,1.3,0.3c0.3,0.3,0.5,0.6,0.5,0.6l1.2-0.1c0,0,0.5,0,0.6,0.7C122.8,122.1,122.5,122.2,122.5,122.2z"/>
<path fill="#EFE7E0" d="M122.6,121.9l-1.3,0.3c0,0-0.4,1.2-1,1.3c-0.6,0.2-1.7-0.3-1.9-1.7c-0.2-1.3,0.5-2.1,1-2.3
	c0.5-0.2,1,0,1.3,0.3c0.3,0.3,0.5,0.6,0.5,0.6l1.2-0.1c0,0,0.5,0,0.6,0.7C122.8,121.9,122.6,121.9,122.6,121.9z"/>
<path fill="#A2886D" d="M121.1,122.3l-0.9,0.1c0,0,0.2,0.3,0.5,0.3C121,122.6,121.1,122.3,121.1,122.3z"/>
<path fill="#A2886D" d="M119.9,120.7l0.9-0.1c0,0-0.2-0.3-0.5-0.3C119.9,120.3,119.9,120.7,119.9,120.7z"/>
<path fill="#DBCCBD" d="M120.1,122.4c0,0-0.4-0.3-0.5-0.6c-0.1-0.4,0-0.8,0.2-1c0.1-0.2,0.1,0,0.1,0s-0.3,0.6-0.1,0.9
	C119.9,122,120,122.1,120.1,122.4C120.4,122.6,120.1,122.4,120.1,122.4z"/>
<path fill="#EDCD67" d="M130.1,135.2l-0.8-1.3c0,0-1.4,0.1-1.8-0.5c-0.5-0.6-0.4-2,0.9-2.8c1.3-0.7,2.5-0.4,2.8,0.1s0.4,1.1,0.3,1.5
	c-0.2,0.4-0.5,0.7-0.5,0.7l0.6,1.2c0,0,0.2,0.5-0.6,0.9C130.2,135.5,130.1,135.2,130.1,135.2z"/>
<path fill="#EFE7E0" d="M130.2,135l-0.8-1.3c0,0-1.4,0.1-1.8-0.6c-0.5-0.6-0.4-2,0.9-2.8c1.3-0.7,2.5-0.4,2.8,0.1
	c0.4,0.5,0.4,1.1,0.3,1.5c-0.2,0.4-0.5,0.7-0.5,0.7l0.5,1.2c0,0,0.2,0.5-0.5,0.9C130.3,135.2,130.2,135,130.2,135z"/>
<path fill="#A2886D" d="M129.2,133.5l-0.5-1c0,0-0.3,0.4-0.1,0.6C128.8,133.6,129.2,133.5,129.2,133.5z"/>
<path fill="#A2886D" d="M130.5,131.5l0.5,1c0,0,0.3-0.4,0.1-0.6C130.8,131.5,130.5,131.5,130.5,131.5z"/>
<path fill="#DBCCBD" d="M128.7,132.5c0,0,0.2-0.6,0.5-0.7c0.4-0.2,0.8-0.3,1.1-0.3c0.3,0.1,0,0.1,0,0.1s-0.7,0-1.1,0.3
	C128.9,132.1,128.9,132.2,128.7,132.5C128.6,132.9,128.7,132.5,128.7,132.5z"/>
<path fill="#39B54A" d="M123.9,107.7c0,0,1-1.4,1.9-1.8c0.8-0.4,0.5-0.5,0.5-0.5h-0.2l0.4-0.3c0,0-0.3-0.2-0.5,0s-0.3-0.2-0.3-0.2
	l0.5-0.6c0,0,0.2-0.5-0.1-0.3c-0.4,0.2-0.1-0.3-0.1-0.3s0.7-1,0.2-0.5c-0.5,0.6,0.2-0.5-0.3,0c-0.5,0.5,0-0.8-0.4,0.1
	s-0.5,0.8-0.5,0.8v-0.5c0,0-0.1-0.6-0.3,0.1c-0.2,0.7-0.5-0.1-0.5-0.1s-0.3,0,0.2,0.5c0.5,0.6,0,0.5,0,0.5s-0.4,0.1-0.4-0.3
	c-0.1-0.4-0.3,0.6-0.3,0.6l-0.4,0.9c0,0,0.3,0.7,0,1.3C123.5,107.8,123.6,108.1,123.9,107.7z"/>
<path fill="#39B54A" d="M148.3,134.2c0,0,1-1.4,1.9-1.8c0.8-0.4,0.5-0.5,0.5-0.5h-0.2l0.4-0.3c0,0-0.3-0.2-0.5,0s-0.3-0.2-0.3-0.2
	l0.6-0.6c0,0,0.2-0.5-0.1-0.3c-0.3,0.2-0.1-0.3-0.1-0.3s0.7-1,0.2-0.5s0.2-0.5-0.3,0c-0.5,0.5,0-0.8-0.4,0.1
	c-0.4,0.9-0.5,0.8-0.5,0.8v-0.5c0,0-0.1-0.6-0.3,0.1c-0.2,0.7-0.5-0.1-0.5-0.1s-0.3,0,0.2,0.6c0.5,0.6,0,0.5,0,0.5s-0.4,0.1-0.4-0.3
	s-0.3,0.6-0.3,0.6l-0.3,0.9c0,0,0.3,0.7,0,1.3C147.9,134.4,148,134.7,148.3,134.2z"/>
<path fill="#39B54A" d="M108.2,137.4c0,0,1-1.4,1.9-1.8c0.8-0.4,0.6-0.5,0.6-0.5h-0.2l0.4-0.4c0,0-0.3-0.2-0.5,0s-0.3-0.2-0.3-0.2
	l0.6-0.5c0,0,0.2-0.5-0.1-0.3c-0.4,0.2-0.1-0.3-0.1-0.3s0.7-1,0.2-0.5c-0.6,0.5,0.2-0.5-0.3,0c-0.5,0.5,0-0.8-0.4,0.1
	s-0.5,0.8-0.5,0.8v-0.5c0,0-0.1-0.6-0.3,0.1c-0.2,0.7-0.5-0.1-0.5-0.1s-0.3,0,0.2,0.6c0.5,0.6,0,0.5,0,0.5s-0.4,0.1-0.4-0.3
	c-0.1-0.4-0.3,0.5-0.3,0.5l-0.2,0.8c0,0,0.3,0.7,0,1.3C107.7,137.6,107.8,137.9,108.2,137.4z"/>
</svg>
