<?xml version="1.0" encoding="utf-8"?>
<!-- Generator: Adobe Illustrator 18.1.1, SVG Export Plug-In . SVG Version: 6.00 Build 0)  -->
<svg version="1.1" id="Layer_1" xmlns="http://www.w3.org/2000/svg" xmlns:xlink="http://www.w3.org/1999/xlink" x="0px" y="0px"
	 viewBox="0 0 64 64" enable-background="new 0 0 64 64" xml:space="preserve">
<g>
	<path fill="#FBB041" d="M64,32c0,17.7-14.3,32-32,32S0,49.7,0,32S14.3,0,32,0S64,14.3,64,32"/>
	<g opacity="0.987">
		<path fill="#E79D3C" d="M15.2,41.3C9.6,29.1,9.3,16,14.4,5.2C5.7,10.9,0,20.7,0,31.9c0,17.7,14.3,32,32,32c0.3,0,0.6,0,0.9,0
			C25.6,57.7,19.4,50.3,15.2,41.3"/>
	</g>
</g>
<g>
	<g>
		<path fill="#FFFFFF" d="M21.2,13.3c-4.3,0-7.8,4.3-7.8,9.6s3.5,9.6,7.8,9.6s7.8-4.3,7.8-9.6S25.6,13.3,21.2,13.3z M42.6,13.3
			c-4.3,0-7.8,4.3-7.8,9.6s3.5,9.6,7.8,9.6s7.8-4.3,7.8-9.6S47,13.3,42.6,13.3z"/>
	</g>
</g>
<g>
	<g>
		<path fill="#070400" d="M18.5,16.2c-2.2,0-3.9,1.8-3.9,3.9s1.8,3.9,3.9,3.9c2.2,0,3.9-1.8,3.9-3.9S20.7,16.2,18.5,16.2z
			 M44.6,21.2c-2.2,0-3.9,1.8-3.9,3.9s1.8,3.9,3.9,3.9s3.9-1.8,3.9-3.9S46.8,21.2,44.6,21.2z"/>
	</g>
</g>
<path fill="#754C24" d="M13.1,41c0,0,6,4.9,19.4,4.7c12.5-0.2,18.2-4.6,18.2-4.6l0.9,2.1c0,0-6.8,8.2-18.6,8.6
	c-12.4,0.4-0.9,0-0.9,0s-7.2,0.1-12.3-2.5c-5.3-2.7-7.2-6.6-7.2-6.6L13.1,41z"/>
</svg>
