<?xml version="1.0" encoding="utf-8"?>
<!-- Generator: Adobe Illustrator 18.1.1, SVG Export Plug-In . SVG Version: 6.00 Build 0)  -->
<svg version="1.1" id="Layer_1" xmlns="http://www.w3.org/2000/svg" xmlns:xlink="http://www.w3.org/1999/xlink" x="0px" y="0px"
	 viewBox="0 0 64 64" enable-background="new 0 0 64 64" xml:space="preserve">
<path fill="#BFB1A0" d="M27.1,49.4c0,0-0.7,2.5,1.3,7.4c2,4.9,2.4,6.4,3.8,6.1c1.3-0.3-0.6-3.1-1.4-5.5c-0.8-2.4-2.3-7-1.5-8.2
	C29.9,48.2,27.1,49.4,27.1,49.4z"/>
<path fill="#DACDBD" d="M26.1,50.4c0,0-0.7,2.5,1.3,7.4c2,4.9,2.4,6.4,3.8,6.1c1.3-0.3-0.6-3.1-1.4-5.5c-0.8-2.4-2.3-7-1.5-8.2
	C29,49.1,26.1,50.4,26.1,50.4z"/>
<path fill="#C69C6D" d="M64,5.7l-9.5,1.4V4.3L64,5.7z"/>
<path fill="#F26C4F" d="M51.3,3.1c0,0-1.9-2.6-0.8-2.7c1-0.1,4.1-1.1,6.4,1.1c2.3,2.2,2.2,2.5,1.7,4S57,7.1,57.2,8.2
	s0.3,2.8-1.9,2.6c-2.2-0.2-2.9-0.7-2.6-1.6S51.3,3.1,51.3,3.1z"/>
<path fill="#FFC683" d="M6.8,11.8c0,0,1.1-0.2-0.8,3.8S-7.3,31.2,7.5,42.2s13.1,14,26.6,11.9c13.5-2.1,22-10.3,23.4-20.7
	c1.4-10.4-2.5-18.8-3.9-20.6c-1.3-1.7-2.3-5.3-0.6-5.4c1.7,0,2.8-0.9,2.8-0.9s0.8-3.1-1.4-3.7s-6.8,0.2-8.6,3
	C44,8.7,38.3,23.1,28.6,23c-9.7-0.2-17.4-4.7-18.9-7.8C8.2,12.1,6.8,11.8,6.8,11.8z"/>
<path fill="#F26C4F" d="M55.6,4.9c1,0,1.8,0.6,1.8,1.4s-0.8,1.4-1.8,1.4c-1,0-1.8-0.6-1.8-1.4S54.6,4.9,55.6,4.9z"/>
<path fill="#E89F5D" d="M36.9,19.5c0,0,13.6,2.4,5.7,11s-18.9,13.2-27.1,6.2c-8.2-7-11.2-10.1-3.5-8.4c7.7,1.6-3.2-3.7-3.9-4.4
	c-0.7-0.7,8.8,1.7,12.8,1.7s-10.2-5.2-10.2-5.2s-1-3,6.3,0.1S31.3,22.8,36.9,19.5z"/>
<path d="M52.7,4c0.3,0,0.5,0.2,0.5,0.4s-0.2,0.4-0.5,0.4c-0.3,0-0.5-0.2-0.5-0.4C52.2,4.2,52.4,4,52.7,4z"/>
</svg>
