<?xml version="1.0" encoding="utf-8"?>
<!-- Generator: Adobe Illustrator 18.1.1, SVG Export Plug-In . SVG Version: 6.00 Build 0)  -->
<svg version="1.1" id="Layer_1" xmlns="http://www.w3.org/2000/svg" xmlns:xlink="http://www.w3.org/1999/xlink" x="0px" y="0px"
	 viewBox="0 0 64 64" enable-background="new 0 0 64 64" xml:space="preserve">
<g>
	<g>
		<path fill="#5E793B" d="M30.5,15.3c0.2,0.1,1,0.1,1,0.1l-1.8-0.6c0,0,0,0,0,0C29.9,15,30.4,15.2,30.5,15.3z M31.8,13.9
			c-0.3-0.1-0.3-0.5-0.6-1.5c-0.3-0.9-2.2,2.2-2.2,2.2l0.8,0.2c-0.2-0.2,0.2-0.5,0.2-0.6c0-0.1,0.4-0.5,0.4-0.5l0.4,0.6l0.5,0.1
			c0,0-0.3-0.1-0.5-0.4c-0.2-0.4,0.1-0.4,0.4-0.5c0.3-0.1,0.6,0.6,0.6,0.6S32.2,14.1,31.8,13.9z M55.9,16.5
			c-1.2,1.5-0.7,1.7-0.2,1.3c0.5-0.4,2-3.6,1.3-5.4c-0.6-1.8-0.8-1.6-0.8-1.6l-0.1,1c0,0,0.7,0.7,0.7,1.2
			C56.9,13.5,57.1,14.9,55.9,16.5z M55.4,11.7l0.3-0.2l-1.8-0.9l-0.1,0.2c0,0,0.4,0.6,0.6,0.8c0.2,0.2-0.1,0.9-0.2,1
			C54,12.8,53.4,14,53.4,14s-0.4,2.1-1.2,2.6c-0.9,0.5-1.9,0.7-1.9,0.7s-0.8-0.3-2.2-0.9c-1.3-0.6-1.3-0.1-1.3-0.1l3,1.5l1.5,0.4
			c0,0,0.1-0.9,0.3-0.8c0.2,0.1,0.3,0.9,0.3,0.9s0-1.2,0.6-1.7c0.6-0.5,0.6-1.3,0.7-1.5c0.1-0.1,0.1-0.8,1-2.1
			C55.1,11.9,55.4,11.7,55.4,11.7z M57.5,13c0.1,1,0.1,3.5-0.8,5.3c-0.9,1.8-1.7,2.3-1.6,2.8c0.1,0.5,0.2,1.4,1.3-1
			c1.1-2.5,1.5-3.8,1.5-7.1c0-1.2,0-1.8,0.1-2.1l-0.8,0.6C57.2,11.6,57.5,12,57.5,13z M58,11l0.1-0.1C58.1,10.9,58,10.4,58,11z
			 M48.5,22.7c0-1.3-0.3-1.7,0.2-1.8c0.5-0.2-1-0.8-1-0.8s-0.9-0.3-0.5,0.6c0.4,0.9,0.4,1.7-0.1,2.5c-0.5,0.7-0.6-2.5-0.1-2.7
			c0.4-0.2-1.2-0.6-1.2-0.6s0.3,0.1,0.3,0.7c0,0.6,0,1,0.1,1c0.1,0-0.3,0.9-0.3,0.9s0,0.3-0.4,0.1s-0.5-0.2-0.5-0.2s-0.9-0.3-0.6-1
			c0.4-0.6,0.7-0.9,0.7-0.9l0.3-0.2l-1-0.2c0,0,0.3,0.1,0,0.7c-0.3,0.6-0.4,0.6-0.1,1.6c0.2,1,1.7,2.2,1.7,2.1
			c0-0.1,2.3-0.1,2.3-0.1l1.1-0.4C49.5,24,48.5,24,48.5,22.7z"/>
	</g>
</g>
<path fill="#768F55" d="M8.2,53.8c0,0,5.2-9.9,6.8-15c1.5-5.1,3.1-9.7,3.1-10.3c0-0.6,0.2-1.3,0.3-1.8c0.1-0.5,0.1-0.9-0.3-0.7
	c-0.4,0.2-0.1-0.9-0.6-0.9s0.6,0.1,1.2-0.3c0.5-0.4,2.5-3.6,3.5-4.4c1-0.9,1-0.9,1-0.9s0.8-0.8,0.1-0.7s-1.2,0-1.2,0
	s1.2-0.1,1.5-0.5c0.3-0.4-0.3-1-0.3-1s-0.2,0.2,0.4-0.3s1.3-0.6,1.3-0.6l-0.1-0.5l-0.4-0.1c0,0,0.1-0.4,0.2-0.6c0-0.1,0-0.1,0-0.1
	l0.4,0.1l0.3,0.1v0.4l0.4-0.1v-0.7l-0.1-0.4c0.1-0.4,0.3-0.6,0.3-0.6l0.1,0.4c0,0,0.1,0.1,0.1,0.2c0,0,0.1,0.1,0.1,0.1l0.3-0.5
	l-0.1-0.5L26.1,13l0.4,0.4l0.1,0.5l0.2,0.3c0,0,0.1-0.2,0.3-0.5c0.3-0.2,1.6-2.8,2-2.8c0.4,0.1-0.7,0.9,0.8,0.5
	c1.5-0.4,3.3-2.4,2.2-0.7c-1.1,1.7-0.4,1.1,0.4,0.5c0.8-0.6,0.8-0.4-1.3,1.4s-1.3,2.4-1,2.1s2.2-1.2,3.7-2.5c1.5-1.3,3-1.2,3.5-2.2
	c0.4-1,0.1-0.8,1.2-1.5C39.9,7.7,41.1,5,41.1,5s-0.4-2.4,5-3.9s4.7-1.4,7-0.6s3.3,0.8,3.3,0.8s0.8,0.5,1.5,0.8
	c0.7,0.3,0.5,0.8-0.5,0.7c-1-0.1,0.1,0.7-1.3,1.2c-1.5,0.4-1.9,0.1-2.9,0.3c-1.1,0.2-1.5-0.7-1.5-0.7s-1,1.3-3.9,1.6
	c-2.9,0.2-1.6,0.4-1.6,0.4s-0.2,1,0.6,0.9c0.8-0.1,3.8-1,6.4-0.1C55.7,7.4,55,7.3,56.6,8c1.5,0.7,1.8,1.7,2.4,2
	c0.6,0.3,1.1,1.8-0.5,1.8c-1.6-0.1-2,0.4-3.6-0.2c-1.6-0.7-0.9-0.3-2.4-0.7c-1.5-0.4-3.5-0.3-2.4,0s2.6,0.9,2.7,1.2
	c0.1,0.3-0.3,2.6-3.4,2.5c-3.1-0.1-2.3-0.1-2.9,0.4c-0.6,0.5-0.8,0.7-0.8,0.7s0,0,3.2,1.3c3.2,1.3,3.6,1.1,4.3,1.6
	c0.8,0.5,1.5,1,1.1,1.5c-0.4,0.5-1.4,1-2,1.3c-0.6,0.4-1.2,0-4.3-0.6c-3.1-0.6-4.2-0.4-4.2-0.4l0.1,0.9c0,0,0,1.1,3.1,2.1
	c3.1,1,1.9,0.1,4.4,1.3c2.5,1.2,2.8,1.8,3.3,2.6s0.6,2.7-0.7,2.7s-5-1.2-7.3-1.7c-2.2-0.6-3.3-1.3-5-1.3s-2.4,0.4-2.4,0.4l0.1-0.4
	h-0.6l-0.2,0.2c-0.1-0.3-0.2-0.3-0.2-0.3l-0.9-0.4v0.4l0.1,0.4c0,0,0.2,0.1-0.3,0.1c-0.2,0-0.8-0.1-0.6,0c0.3,0.1-0.6,0-0.6,0
	s-1-0.1-0.5,0s1.8,0.5,1.8,0.5l-0.5,0.2c0,0-0.5-0.1-0.2,0c0.3,0.1-0.4-0.1-0.4-0.1s1.1,0.6,0.6,0.6c-0.4,0,0.1,0.2-0.7-0.1
	c-0.8-0.2-2-0.4-1.5-0.4s0.6,0,0.6,0s0.9-0.2-0.3-0.3c-1.2-0.1-2-0.2-2-0.2s-0.2-0.2-0.8,0.1c-0.6,0.3-1.4,0.6-1.4,0.6
	s-1.5-0.6-1.9,1c-0.4,1.5-0.5,1.9-0.2,1.9c0.1,0,1.2,0,1.3-0.1c-0.4,0.2-1.5,0.7-1.5,0.7s-0.7,0,0.1,0.4s1.5,0.2,0.8,0.5
	c-0.8,0.3-1,0.1-1,0.4s-0.4,0.3,0.2,0.7c0.6,0.4,1.2,0.2,0.6,0.4c-0.6,0.2-0.8-0.4-0.8,0.3c0,0.7-0.8,1.3-0.8,1.3
	c0.3,0.4,0.6,0.6,0.6,0.6l-0.8,0.2L27,36.6c0,0-0.4,0.1-0.3,0.6c0.1,0.4,0.2,0.4,0.3,0.6c0.1,0.2,0.3,0.3,0.3,0.3s0.1,0.1-0.2,0.2
	c-0.3,0.1-0.4,0.2-0.5-0.1c-0.1-0.3-0.3-0.7,0-0.2c0.3,0.4,0.3,0.4,0.4,0.9c0.1,0.5-0.1,0.6,0.1,1.1c0.1,0.5,0.3,0.9,0.3,0.9
	s-0.3,0-0.4-0.4c-0.1-0.2-0.1-1.3-0.1-0.6c0.1,0.7-0.1-0.2-0.2-0.3c-0.7-0.6-0.6-0.8-0.4-0.1c0.2,0.7,0.5,1.8,0.3,1.2
	c-0.2-0.8,0.1,0.4,0.1,0.4c-0.1-0.2-1.8-2.5-0.8-0.4c0.1,0.2,0.5,1,0.2,0.5c-0.3-0.5-0.5-2.5-0.7-1.7c-0.2,0.7-0.4,1.3-0.4,1.3
	s-0.3,0.6-0.3,1c-0.1,0.4-0.1,0-0.1,1c0.1,1-0.2,2-0.2,2.3c0,0.3,0.6-0.4,0.3,0.7c-0.3,1.1-1-1.2-0.5,2.5c0.5,3.7,1.5,6.8,1.5,6.8
	s3,9,3.3,9S4.5,60.4,4.5,60.4L8.2,53.8z"/>
<g>
	<g>
		<path fill="#5E793B" d="M35.1,22.8c-1.1,0-1.9,0.4-1.9,0.9c0,0.5,0.9,0.9,1.9,0.9c1.1,0,1.9-0.4,1.9-0.9S36.2,22.8,35.1,22.8z
			 M39.5,13.3l-0.7,0.1c0,0-0.2,0.2-0.7,0.5c-0.5,0.3-0.4,0.4-1.1,1c-0.7,0.6-0.8,0.5-1.2,0.6c-0.4,0.1-1.2,0.3-1.9,0.7
			s-0.6,1.3-0.6,1.3s0.1-0.2,0.4-0.5s1.2-0.1,1.5-0.3s0.3-0.1,0.9-0.6c0.6-0.5,0.6-0.3,1.1-0.5c0.4-0.2,0.8-0.6,0.8-0.6l0.4-0.5
			c0,0,0.5-0.3,0.9-0.4C39.7,13.9,39.5,13.3,39.5,13.3z"/>
	</g>
</g>
</svg>
