
<svg xmlns="http://www.w3.org/2000/svg" version="1.1" xmlns:xlink="http://www.w3.org/1999/xlink" preserveAspectRatio="none" x="0px" y="0px" width="64px" height="64px" viewBox="0 0 64 64">
<defs>
<radialGradient id="Gradient_1" gradientUnits="userSpaceOnUse" cx="0" cy="0" r="8.6875" fx="0" fy="0" gradientTransform="matrix( 1, 0, 0, 1, 43.55,51.05) " spreadMethod="pad">
<stop  offset="0%" stop-color="#FF6862"/>

<stop  offset="100%" stop-color="#8E2723"/>
</radialGradient>

<radialGradient id="Gradient_2" gradientUnits="userSpaceOnUse" cx="0" cy="0" r="41.925000000000004" fx="0" fy="0" gradientTransform="matrix( 0.9999999999999999, 0, 0, 0.9999999999999999, 22,28.25) " spreadMethod="pad">
<stop  offset="55.294117647058826%" stop-color="#E4DCC9"/>

<stop  offset="100%" stop-color="#7B6B60"/>
</radialGradient>

<radialGradient id="Gradient_3" gradientUnits="userSpaceOnUse" cx="0" cy="0" r="41.925000000000004" fx="0" fy="0" gradientTransform="matrix( 0.9999999999999999, 0, 0, 0.9999999999999999, 22,28.25) " spreadMethod="pad">
<stop  offset="0%" stop-color="#9C887B"/>

<stop  offset="100%" stop-color="#402A1E"/>
</radialGradient>

<radialGradient id="Gradient_4" gradientUnits="userSpaceOnUse" cx="0" cy="0" r="11.05" fx="0" fy="0" gradientTransform="matrix( 0.9999999999999999, 0, 0, 0.9999999999999999, 22.55,42.6) " spreadMethod="pad">
<stop  offset="0%" stop-color="#9C887B"/>

<stop  offset="100%" stop-color="#3F2E24"/>
</radialGradient>

<radialGradient id="Gradient_5" gradientUnits="userSpaceOnUse" cx="0" cy="0" r="14.3875" fx="1.4105392156862744" fy="-1.727412335562014e-16" gradientTransform="matrix( 1, 0, 0, 1.1207645525629888, 21.3,43.2) " spreadMethod="pad">
<stop  offset="55.294117647058826%" stop-color="#9C8680"/>

<stop  offset="100%" stop-color="#E4DCC9"/>
</radialGradient>

<linearGradient id="Gradient_6" gradientUnits="userSpaceOnUse" x1="42.0375" y1="54.9625" x2="31.1625" y2="36.137499999999996" spreadMethod="pad">
<stop  offset="0%" stop-color="#0A0C0B"/>

<stop  offset="100%" stop-color="#030D1C"/>
</linearGradient>

<g id="Layer0_0_FILL">
<path fill="#F4EBE9" stroke="none" d="
M 48.9 52.55
L 49 51.5
Q 49.001953125 51.4251953125 49 51.35 47.85 50.3 46.25 50.5 45.6 50.6 45 50.85
L 44.55 51.1 44.5 51.3
Q 44.5 51.65 44.55 52.05 44.85 53.35 46.05 55 46.85 56.15 47.65 56.65
L 48.55 54.55
Q 48.6 54.4 48.6 54.3 48.6 54.25 48.6 54.2 48.65 54.2 48.65 54.15
L 48.85 53.05
Q 48.9 52.8 48.9 52.55
M 39.35 53.95
Q 39.05 54.05 38.8 54.2 38.7 54.25 38.6 54.3 38.05 54.6 37.7 55 37.3 55.55 37.1 56.25 37.15 56.35 37.25 56.4
L 39.95 58.45
Q 40.15 58.5 40.3 58.6
L 40.4 58.65 41.4 59.05
Q 41.55 59.1 41.7 59.15 41.65 58.65 41.5 57.95 41.45 57.7 41.15 56.6 40.85 55.35 40.05 54.5 39.8 54.25 39.55 54.1
L 39.35 53.95 Z"/>

<path fill="url(#Gradient_1)" stroke="none" d="
M 48.7 47.9
Q 48.656640625 47.620703125 48.6 47.35 48.15 45.25 47.5 43.3 45.4 42.45 43.1 43 41 43.45 39.7 44.85 38 46.55 38.1 50.65 38.2 52.2 38.45 53.75 38.65 53.95 38.8 54.2 39.05 54.05 39.35 53.95
L 39.55 54.1
Q 39.8 54.25 40.05 54.5 40.85 55.35 41.15 56.6 41.45 57.7 41.5 57.95 41.65 58.65 41.7 59.15 42.9451171875 59.523046875 44.15 59.3 45.95 58.95 47.2 57.25 47.45 56.95 47.65 56.65 46.85 56.15 46.05 55 44.85 53.35 44.55 52.05 44.5 51.65 44.5 51.3
L 44.55 51.1 45 50.85
Q 45.6 50.6 46.25 50.5
L 46.1 50.2
Q 45.95 49.7 46 48.75
L 46.1 47.95 46.9 47.75
Q 47.85 47.5 48.65 47.65 48.6759765625 47.769921875 48.7 47.9 Z"/>

<path fill="url(#Gradient_2)" stroke="none" d="
M 63.55 14.4
L 63.5 14.15 59.15 16 60.4 13.5
Q 60.15 13.65 59.65 13.75 58.55 14 57 13.75 52 13 44.1 8.1 40.15 5.65 36.4 4.75 33.3 3.95 30.05 4.2 28.2 4.3 24.8 4.95 21.75 5.55 20.3 5.5 16.75 5.45 15.15 3.45 14.6 2.85 14.35 2.15
L 14.25 1.5
Q 14.2 1.5 14.15 1.55 14.1 1.65 14 1.85 13.8 2.5 13.8 4.15 13.8 5.85 15 6.9 15.5169921875 7.369921875 16.05 7.55 15.6810546875 7.445703125 14.95 7.4 13.3 7.25 11.1 7.6 7.85 8.35 6.9 10.85 6.45 12.1 6.6 13.2
L 13.05 11.1
Q 11.95 11.5 10.35 12.5 7 14.7 4.35 18.3 0.85 23.05 0.3 31.65 0.1 34.55 0.25 38.2 0.35 40.2 0.5 43.2 0.65 46.35 0.35 48.85 0.2 50.05 0 50.65 0.55 50.6 1.35 49.8
L 2 49 2.05 49
Q 2.1 49 2.1 49.2 2.2 49.75 1.95 51.6 1.7 53.45 0.85 54.55 0.4 55.1 0 55.25 0.8 55.7 2.2 55.3 2.9 55.1 3.4 54.8
L 0.9 59.7
Q 1.6 59.25 3 58.85 5.85 58.05 9.45 58.55 10.5 58.7 15.05 59.9 19.55 61.1 22.75 61.5 32.55 62.8 40.4 58.65
L 40.3 58.6
Q 40.15 58.5 39.95 58.45
L 37.25 56.4
Q 37.15 56.35 37.1 56.25 37.05 56.2 36.95 56.1
L 35.8 54.85
Q 35.7 54.7 35.55 54.55 33.8 52.4 31.85 50.65 30.45 49.3 29.15 48.35 28.9 48.2 27.4 48.75
L 25.95 49.35
Q 25.6 48.9 25.8 48.35 26.1 47.75 27 47.35 29.95 45.7 33.05 43.6 39.25 39.35 40 36.85 40.45 35.35 40.3 33.85 40.2 33.4 40.1 32.95
L 40 32.65 40.8 33.25
Q 41.75 34.1 42.7 35.15 45.8 38.6 47.5 43.3 48.15 45.25 48.6 47.35 48.656640625 47.620703125 48.7 47.9
L 48.75 48.2
Q 49.042578125 49.7740234375 49 51.35 49.001953125 51.4251953125 49 51.5
L 48.9 52.55
Q 52.95 48.75 55.3 44.15 56.75 41.3 57.75 37.55 58.8 33.6 59.25 31.9 60.4 27.7 62.35 24 63.3 22.2 64 21.2
L 59.35 21.7 60.65 20.7
Q 62 19.5 62.5 18.4 63.35 16.6 63.5 15.2 63.6 14.75 63.55 14.4
M 43.7 11.6
Q 48.15 12.6 51.35 14.5 57.1 17.95 57.6 28.35 57.75 31.6 57.3 35.15 57.1 36.9 56.9 38.05 56.9 36.5 56.05 34.55 54.35 30.7 49.95 28.65 47.85 27.7 44.45 27.65 43.4 27.65 41.25 27.7 38.9 27.8 37.65 27.8 33 27.8 30.4 25.95 26.8 23.4 26.4 17.25 26.2 14.35 28.85 12.7 31.25 11.15 35.4 10.9 39.4 10.65 43.7 11.6
M 14 36.2
Q 14.25 33.95 15.35 31.75 16.45 29.5 18 28.15 19.75 26.65 21.45 26.7 25.15 26.75 27.4 29.65 29.05 31.85 29.4 35.05 29.55 35.55 29.6 36.1 29.65 36.85 29.5 37.7 29.5 37.9 29.45 38.05 29.1 39.5 28.2 41.25 26.75 44.1 24.65 44.85 21.75 45.9 17.1 43.6 16.05 43.05 15.3 42 14.75 41.2 14.6 40.3 13.75 38.65 14 36.2
M 12.45 34.1
Q 12.1 35.15 11.1 36.55 9.75 38.45 9.35 39.15 8.35 40.9 7.9 43.1 6.75 48.65 8.75 53.95 9.75 56.6 11 58.1 9.45 57.4 7.55 55.45 3.75 51.6 2.1 45.65 -0.1 37.8 1.55 32.4 2.2 30.25 3.5 28.35 4.45 26.9 6 25.35 6.8 24.55 7.8 24.45 8.85 24.3 9.8 24.85 12.05 26.25 12.65 30.55 12.95 32.6 12.45 34.1 Z"/>

<path fill="url(#Gradient_3)" stroke="none" d="
M 11.1 36.55
Q 12.1 35.15 12.45 34.1 12.95 32.6 12.65 30.55 12.05 26.25 9.8 24.85 8.85 24.3 7.8 24.45 6.8 24.55 6 25.35 4.45 26.9 3.5 28.35 2.2 30.25 1.55 32.4 -0.1 37.8 2.1 45.65 3.75 51.6 7.55 55.45 9.45 57.4 11 58.1 9.75 56.6 8.75 53.95 6.75 48.65 7.9 43.1 8.35 40.9 9.35 39.15 9.75 38.45 11.1 36.55
M 7.9 27.4
Q 8.6 27.75 9.05 28.95 9.75 30.65 9.65 33 9.6 35.35 8.85 36.9 8.05 38.45 6.95 38.4 6.5 38.4 6.1 38.15 5.4 37.75 4.9 36.65 4.05 34.95 4.15 32.65 4.2 30.35 5.1 28.75 6 27.15 7.15 27.15 7.55 27.15 7.9 27.4
M 51.35 14.5
Q 48.15 12.6 43.7 11.6 39.4 10.65 35.4 10.9 31.25 11.15 28.85 12.7 26.2 14.35 26.4 17.25 26.8 23.4 30.4 25.95 33 27.8 37.65 27.8 38.9 27.8 41.25 27.7 43.4 27.65 44.45 27.65 47.85 27.7 49.95 28.65 54.35 30.7 56.05 34.55 56.9 36.5 56.9 38.05 57.1 36.9 57.3 35.15 57.75 31.6 57.6 28.35 57.1 17.95 51.35 14.5
M 43.95 19.7
Q 44.6 22.05 43.4 23.55 42.2 25 39.85 24.65 37.55 24.3 35.25 22.5 33.05 20.65 32.3 18.55 31.55 16.4 32.75 14.95 33.95 13.45 36.4 13.6 38.9 13.8 41.1 15.55 43.25 17.3 43.95 19.7 Z"/>

<path fill="#000000" stroke="none" d="
M 9.05 28.95
Q 8.6 27.75 7.9 27.4 7.55 27.15 7.15 27.15 6 27.15 5.1 28.75 4.2 30.35 4.15 32.65 4.05 34.95 4.9 36.65 5.4 37.75 6.1 38.15 6.5 38.4 6.95 38.4 8.05 38.45 8.85 36.9 9.6 35.35 9.65 33 9.75 30.65 9.05 28.95
M 6.5 29.35
Q 6.8 28.5 7.4 28.45 7.95 28.4 8.45 29.2 8.9 29.95 9 31.1 9.15 32.25 8.85 33.05 8.6 33.9 8.05 33.95 7.45 34 6.95 33.25 6.4 32.5 6.3 31.35 6.15 30.25 6.5 29.35
M 43.4 23.55
Q 44.6 22.05 43.95 19.7 43.25 17.3 41.1 15.55 38.9 13.8 36.4 13.6 33.95 13.45 32.75 14.95 31.55 16.4 32.3 18.55 33.05 20.65 35.25 22.5 37.55 24.3 39.85 24.65 42.2 25 43.4 23.55
M 38.55 15.15
Q 39.7 15.75 40.3 16.65 40.85 17.55 40.55 18.15 40.25 18.8 39.15 18.75 38.15 18.7 36.95 18.1 35.75 17.45 35.15 16.65 34.55 15.85 34.85 15.25 35.2 14.6 36.3 14.55 37.35 14.55 38.55 15.15 Z"/>

<path fill="#FFFFFF" stroke="none" d="
M 7.4 28.45
Q 6.8 28.5 6.5 29.35 6.15 30.25 6.3 31.35 6.4 32.5 6.95 33.25 7.45 34 8.05 33.95 8.6 33.9 8.85 33.05 9.15 32.25 9 31.1 8.9 29.95 8.45 29.2 7.95 28.4 7.4 28.45
M 40.3 16.65
Q 39.7 15.75 38.55 15.15 37.35 14.55 36.3 14.55 35.2 14.6 34.85 15.25 34.55 15.85 35.15 16.65 35.75 17.45 36.95 18.1 38.15 18.7 39.15 18.75 40.25 18.8 40.55 18.15 40.85 17.55 40.3 16.65 Z"/>

<path fill="url(#Gradient_4)" stroke="none" d="
M 18.8 33.95
Q 16.5 35.2 15.4 36.75 14.45 38.05 14.5 39.55 14.5 39.95 14.6 40.3 14.75 41.2 15.3 42 16.05 43.05 17.1 43.6 21.75 45.9 24.65 44.85 26.75 44.1 28.2 41.25 29.1 39.5 29.45 38.05 29.5 37.9 29.5 37.7 29.65 36.85 29.6 36.1 29.55 35.55 29.4 35.05 29.05 33.8 27.9 33.05 26.4 32.1 24.05 32.3 21.55 32.5 18.8 33.95
M 16.85 42.5
Q 16.3 41.8 16.75 41.3 17.15 40.8 18.05 40.95 18.85 41.1 19.75 41.7 20.6 42.25 21.1 42.9 21.6 43.55 21.4 44 21.15 44.4 20.25 44.25 19.35 44.1 18.35 43.6 17.35 43.1 16.85 42.5
M 28.8 37.8
Q 28.85 38.7 28.35 39.9 27.9 41.1 27.2 41.85 26.45 42.65 25.9 42.45 25.35 42.25 25.2 41.2 25.1 40.3 25.45 39.15 25.75 38 26.4 37.3 27.05 36.5 27.9 36.6 28.7 36.75 28.8 37.8 Z"/>

<path fill="#292929" stroke="none" d="
M 28.35 39.9
Q 28.85 38.7 28.8 37.8 28.7 36.75 27.9 36.6 27.05 36.5 26.4 37.3 25.75 38 25.45 39.15 25.1 40.3 25.2 41.2 25.35 42.25 25.9 42.45 26.45 42.65 27.2 41.85 27.9 41.1 28.35 39.9
M 16.75 41.3
Q 16.3 41.8 16.85 42.5 17.35 43.1 18.35 43.6 19.35 44.1 20.25 44.25 21.15 44.4 21.4 44 21.6 43.55 21.1 42.9 20.6 42.25 19.75 41.7 18.85 41.1 18.05 40.95 17.15 40.8 16.75 41.3 Z"/>

<path fill="url(#Gradient_5)" stroke="none" d="
M 15.4 36.75
Q 16.5 35.2 18.8 33.95 21.55 32.5 24.05 32.3 26.4 32.1 27.9 33.05 29.05 33.8 29.4 35.05 29.05 31.85 27.4 29.65 25.15 26.75 21.45 26.7 19.75 26.65 18 28.15 16.45 29.5 15.35 31.75 14.25 33.95 14 36.2 13.75 38.65 14.6 40.3 14.5 39.95 14.5 39.55 14.45 38.05 15.4 36.75 Z"/>

<path fill="#C6B4B0" stroke="none" d="
M 36.8 52.95
L 36.55 52.95 36.25 53.35
Q 35.9 53.95 35.8 54.85
L 36.95 56.1
Q 37.05 56.2 37.1 56.25 37.3 55.55 37.7 55 38.05 54.6 38.6 54.3 38.7 54.25 38.8 54.2 38.65 53.95 38.45 53.75 38.05 53.25 37.4 53.05 37.1 52.95 36.8 52.95
M 48.75 48.2
L 48.7 47.9
Q 48.6759765625 47.769921875 48.65 47.65 47.85 47.5 46.9 47.75
L 46.1 47.95 46 48.75
Q 45.95 49.7 46.1 50.2
L 46.25 50.5
Q 47.85 50.3 49 51.35 49.042578125 49.7740234375 48.75 48.2 Z"/>

<path fill="url(#Gradient_6)" stroke="none" d="
M 42.7 35.15
Q 41.75 34.1 40.8 33.25
L 40 32.65 40.1 32.95
Q 40.2 33.4 40.3 33.85 40.45 35.35 40 36.85 39.25 39.35 33.05 43.6 29.95 45.7 27 47.35 26.1 47.75 25.8 48.35 25.6 48.9 25.95 49.35
L 27.4 48.75
Q 28.9 48.2 29.15 48.35 30.45 49.3 31.85 50.65 33.8 52.4 35.55 54.55 35.7 54.7 35.8 54.85 35.9 53.95 36.25 53.35
L 36.55 52.95 36.8 52.95
Q 37.1 52.95 37.4 53.05 38.05 53.25 38.45 53.75 38.2 52.2 38.1 50.65 38 46.55 39.7 44.85 41 43.45 43.1 43 45.4 42.45 47.5 43.3 45.8 38.6 42.7 35.15 Z"/>
</g>
</defs>

<g transform="matrix( 1, 0, 0, 1, 0,0) ">
<use xlink:href="#Layer0_0_FILL"/>
</g>
</svg>
