<?xml version="1.0" encoding="utf-8"?>
<!-- Generator: Adobe Illustrator 18.1.1, SVG Export Plug-In . SVG Version: 6.00 Build 0)  -->
<svg version="1.1" id="Layer_1" xmlns="http://www.w3.org/2000/svg" xmlns:xlink="http://www.w3.org/1999/xlink" x="0px" y="0px"
	 viewBox="0 0 64 64" enable-background="new 0 0 64 64" xml:space="preserve">
<g>
	<g>
		<polygon fill="#DCD5C6" points="12,4.1 12,57.8 16.4,57.8 16.4,8.2 47.6,8.2 47.6,17.6 47.1,17.6 47.1,21.6 47.6,21.6 47.6,43.8 
			46.9,43.8 46.9,47.8 47.6,47.8 47.6,57.8 52,57.8 52,4.1 		"/>
	</g>
</g>
<path fill="#DDCBAB" d="M19.1,0l26.8,9.3c0.1,0,0.2,0.2,0.2,0.3l0,47.9c0,0.1-0.1,0.3-0.2,0.3L19.1,64c-0.2,0-0.4-0.1-0.4-0.3
	l0-63.4C18.7,0.1,18.9-0.1,19.1,0z"/>
</svg>
