<?xml version="1.0" encoding="utf-8"?>
<!-- Generator: Adobe Illustrator 19.2.0, SVG Export Plug-In . SVG Version: 6.00 Build 0)  -->
<svg version="1.1" id="Layer_1" xmlns="http://www.w3.org/2000/svg" xmlns:xlink="http://www.w3.org/1999/xlink" x="0px" y="0px"
	 viewBox="0 0 64 64" style="enable-background:new 0 0 64 64;" xml:space="preserve">
<style type="text/css">
	.st0{fill-rule:evenodd;clip-rule:evenodd;fill:#568B86;}
	.st1{fill-rule:evenodd;clip-rule:evenodd;fill:#D8D3BB;}
</style>
<path class="st0" d="M31.3,0c-1.5,0.6-2.6,2.8-2.6,5.5c0,1.2,0.2,2.3,0.6,3.3c-2.1,0.9-3.6,2.7-3.6,4.9c0,0.8,0.2,1.5,0.6,2.2
	c-13,6-9.4,31.9-19.4,37.3c-1,0.5-2.2,0.7-2.2,1.6v2.3c0,0,10.9,1.7,24.8,1.9c-0.2,0.5-0.3,1.1-0.3,1.7c0,2,1.3,3.6,2.8,3.6
	c1.5,0,2.8-1.6,2.8-3.6c0-0.6-0.1-1.2-0.3-1.7c16.2-0.1,24.8-1.5,24.8-1.5v-2.2c0-0.9-1.1-1-2.1-1.6c-9.9-5.5-6.6-32.1-19.3-37.8
	c0.3-0.6,0.5-1.3,0.5-2.1c0-2.1-1.5-4-3.6-4.9c0.4-0.9,0.6-2,0.6-3.3c0-2.7-1.1-4.9-2.6-5.5 M29.3,5.5c0-2.5,1.2-4.6,2.7-4.6
	c1.5,0,2.7,2,2.7,4.6c0,1.2-0.3,2.2-0.7,3c-0.6-0.2-1.3-0.3-2-0.3c-0.7,0-1.4,0.1-2,0.3C29.6,7.7,29.3,6.6,29.3,5.5z"/>
<path class="st1" d="M15.3,35.1l31.8-5.7c-1.2-3.9-2.6-7.5-4.8-10.2l-23.1,4.2C17.4,26.8,16.3,31,15.3,35.1z"/>
<path class="st1" d="M50.8,43.2c-1-3.3-1.8-7.1-2.8-10.7l-33.5,6c-1.2,4.8-2.5,9.2-4.8,12.1L50.8,43.2z"/>
</svg>
