<?xml version="1.0" encoding="utf-8"?>
<!-- Generator: Adobe Illustrator 19.2.0, SVG Export Plug-In . SVG Version: 6.00 Build 0)  -->
<svg version="1.1" xmlns="http://www.w3.org/2000/svg" xmlns:xlink="http://www.w3.org/1999/xlink" x="0px" y="0px"
	 viewBox="0 0 64 64" style="enable-background:new 0 0 64 64;" xml:space="preserve">
<style type="text/css">
	.st0{fill:#009444;}
	.st1{fill:#754C29;}
	.st2{fill:#FFF200;}
	.st3{fill:#FFFFFF;}
</style>
<g id="Layer_1">
	<path class="st0" d="M57.3,53.8L46.6,40.9c-0.7-0.8-1.8-2.2-2.5-3l-1.5-1.8h4.4c0.6,0,0.8-0.4,0.4-0.9l-6.4-7.7
		c-0.4-0.5-1.1-1.3-1.5-1.8l-0.7-0.9h4.8c0.5,0,0.6-0.3,0.3-0.7L39,18.4c-0.3-0.4-0.8-1-1.1-1.3l-4.8-5.7c-0.3-0.4-0.8-0.4-1.1,0
		l-4.8,5.7c-0.3,0.4-0.8,1-1.1,1.3l-4.8,5.7c-0.3,0.4-0.2,0.7,0.3,0.7h4.1l-0.7,0.9c-0.4,0.5-1.1,1.3-1.5,1.8l-6.4,7.7
		c-0.4,0.5-0.2,0.9,0.4,0.9h3.9L20,37.9c-0.7,0.8-1.8,2.2-2.5,3L6.7,53.8c-0.7,0.8-0.4,1.5,0.7,1.5h49.3
		C57.7,55.3,58,54.6,57.3,53.8z"/>
	<path class="st1" d="M31.4,64h1.3c3.2,0,5.7-3.3,5.7-7.4H25.6C25.6,60.7,28.2,64,31.4,64z"/>
	<path class="st2" d="M29.6,6.4c0.2,0.1,0.2,0.4,0.2,0.6l-0.5,3.2c0,0.2,0.1,0.3,0.3,0.2L32.4,9c0.2-0.1,0.5-0.1,0.7,0l2.8,1.5
		c0.2,0.1,0.3,0,0.3-0.2l-0.5-3.2c0-0.2,0.1-0.5,0.2-0.6l2.3-2.2c0.2-0.1,0.1-0.3-0.1-0.3l-3.2-0.5c-0.2,0-0.5-0.2-0.5-0.4l-1.4-2.9
		c-0.1-0.2-0.2-0.2-0.3,0L31.2,3c-0.1,0.2-0.3,0.4-0.5,0.4l-3.2,0.5c-0.2,0-0.3,0.2-0.1,0.3L29.6,6.4z"/>
</g>
<g id="Layer_2">
	<path class="st3" d="M51.3,54.8L51,54.4l0.1,0l-0.2-0.2l-0.5-0.6l0.8,0.2c0.6,0.2,1.1,0.3,1.3,0.3c-0.1-0.1-0.2-0.2-0.3-0.4
		L51.8,53l0.8,0.3c0.6,0.3,1.3,0.5,1.8,0.6c-0.4-0.4-0.7-0.8-0.8-0.9l0.4-0.3c0.8,0.5,1.7,0.9,2.5,1.1C53.6,51.8,43.9,39.4,42,36.2
		l-0.3-0.5l0.6,0.2c0.2,0,0.4,0.1,0.5,0.1l0.2,0c-0.1-0.1-0.1-0.2-0.2-0.3l-0.5-0.7l0.8,0.3c0.7,0.3,1.3,0.4,1.8,0.6
		c-0.4-0.4-0.8-0.8-0.8-0.9l0.4-0.3c0.8,0.5,1.7,0.9,2.5,1.1c-2.5-1.8-6.2-7.8-7.9-10.5l-0.6-0.6h0.8c-0.3-0.3,0-0.5-0.1-0.6
		l0.4-0.3c0.5,0.4,1.2,0.7,1.9,0.9c-0.3-0.3-0.6-0.7-0.7-0.7l0.4-0.4c0.8,0.5,1.7,0.9,2.5,1.1c-3.6-2.6-7-8.2-8.6-10.8
		c0.3,0.7,0.5,1.3,0.8,2c0.1,0.3,0.2,0.6,0.3,0.8c0.4,1.1,0.9,2.1,1.4,3.1l0.1,0.1c0.2,0.3,0.4,0.7,0.6,1l0.1,0.1
		c0.2,0.3,0.6,0.7,0.4,1l0,0.1l-0.1,0l-0.2,0c-0.2,0-0.4-0.1-0.5-0.2l-0.1,0c-0.1-0.1-0.2-0.1-0.3-0.2l0,0c0.1,0.3,0.3,0.7,0.1,0.9
		l-0.1,0.1l-0.2-0.1c-0.2-0.1-0.3-0.2-0.4-0.4l-0.1-0.2l0,0l0,0.1c-0.1,0.1-0.1,0.3-0.4,0.3l-0.1,0c-0.1,0-0.3,0-0.4-0.1
		c0,0.2,0,0.3-0.2,0.5l-0.1,0.1l-0.1,0c-0.2,0-0.4-0.1-0.5-0.2L34.5,23l-0.1,0.1l-0.1,0c-0.5,0-0.7-0.4-0.9-0.6c0,0.2,0,0.4,0,0.6
		l0,0.1l-0.1,0.1c0,0-0.1,0.1-0.3,0.1l-0.1,0l0,0c-0.1,0-0.2-0.1-0.4-0.4l0,0.1l0,0.1l0,0.1c0.1,0,0.2,0.2,0.3,0.2l0,0l0.1,0l0.2,0
		l0.2,0l0.1,0l0.2,0l0,0.2l0.2-0.2l0.1-0.1l0.1,0c0.2,0,0.4,0.2,0.6,0.4l0.1,0.1c0.1-0.4,0.3-0.5,0.4-0.5c0.2,0,0.4,0.2,0.6,0.4l0,0
		l0.3,0.3l0,0c0.1-0.1,0.2-0.2,0.4-0.3l0,0h0c0.3,0,0.5,0.3,0.6,0.5l0.2,0.3l-0.4-0.2c0.1,0,0.2,0.1,0.3,0.2
		c0.2,0.2,0.3,0.5,0.5,0.8c0.1,0.1,0.1,0.3,0.2,0.4c0.5,0.8,1.1,1.5,1.7,2.2l1.5,3.3l0.2,0.2c0.1,0.2,0.3,0.3,0.5,0.5
		c0.3,0.3,0.6,0.5,0.9,0.9c0.2,0.3,0.5,0.9,0.1,1.2c-0.2,0.1-0.4,0.2-0.7,0.2c-0.2,0-0.3,0-0.5,0c-0.2,0-0.4-0.1-0.6-0.2
		c-0.1,0-0.3-0.1-0.4-0.1l0,0c0.2,0.3,0.3,0.5,0.2,0.9l-0.1,0.2l-0.2,0c-0.4-0.1-0.7-0.3-0.9-0.5l-0.1-0.1l0,0.1
		c-0.1,0.2-0.2,0.5-0.5,0.6l-0.2,0c-0.4,0-0.7-0.4-0.8-0.7c-0.1,0.1-0.2,0.2-0.3,0.3c-0.2,0.3-0.4,0.6-0.8,0.7l-0.3,0l0-0.2l0-0.1
		c-0.2,0.1-0.4,0.3-0.6,0.3l0,0h0c-0.4,0-0.5-0.3-0.6-0.5L35,35.2c-0.2,0.1-0.4,0.2-0.7,0.2c-0.2,0-0.4-0.1-0.6-0.2l-0.1-0.1h0
		l-0.1,0l0,0.1l-0.3,0.1l-0.1,0l-0.1,0L33,35.4c-0.1,0-0.2,0-0.3-0.1l-0.1-0.1l-0.1,0.1l-0.1,0.1l-0.3-0.1l0,0l0,0
		c-0.1,0.1-0.1,0.2-0.2,0.3l-0.1,0.1c0.1-0.1,0.2-0.1,0.3-0.1l0.1,0l0,0c0.1,0,0.2,0.1,0.2,0.2c0.1-0.1,0.2-0.2,0.4-0.2
		c0.1,0,0.2,0,0.3,0.1l0.1,0.2l0.2-0.1l0.2-0.1l0.1,0.2l0,0h0l0.1,0l0,0c0.1,0,0.2,0,0.3,0l0.1,0c0.2,0,0.3,0,0.4,0.1
		c0.1,0.1,0.2,0.2,0.2,0.4l0,0c0-0.1,0.1-0.3,0.2-0.4l0.1,0h0.1l0.1,0l0.1,0l0.1,0c0.2,0,0.3,0.2,0.3,0.3l0,0
		c0.1-0.2,0.4-0.3,0.6-0.3l0.2,0c0.1,0,0.2,0,0.4,0.1l0.1,0l0-0.1l0.2-0.1l0.1,0l0,0c0.1,0,0.2-0.1,0.3-0.1c0.2-0.1,0.4-0.2,0.6-0.2
		c0.1,0,0.2,0,0.4,0.1c0.1,0.1,0.2,0.1,0.3,0.2l0.1,0l0.2,0c0.1,0,0.2-0.1,0.4-0.1c0.4,0,0.5,0.3,0.6,0.6l0.1,0.2
		c0.1,0.1,0.1,0.2,0.2,0.3c0.1,0.2,0.2,0.3,0.4,0.5c0.7,0.7,8.3,10,8.9,10.9c0.1,0.2,0.2,0.3,0.3,0.5c0.2,0.3,0.3,0.5,0.5,0.8
		c0.1,0.1,0.2,0.3,0.3,0.4c0.1,0.2,0.3,0.4,0.4,0.6c0.3,0.3,0.7,1,0.6,1.5c0,0.2-0.2,0.4-0.7,0.4c-0.1,0-0.2,0-0.3,0l-0.2,0
		c-0.1,0-0.3,0-0.4,0c-0.1,0-0.3,0-0.5,0c-0.2,0-0.4-0.1-0.5-0.1l0,0c0.1,0.2,0.2,0.6-0.2,0.8l0,0l0,0c-0.1,0-0.2,0-0.3,0
		c-0.2,0-0.4,0-0.6-0.1c-0.1,0-0.2-0.1-0.4-0.2c-0.2-0.1-0.4-0.2-0.5-0.2c-0.1,0-0.2,0.2-0.3,0.4c-0.1,0.2-0.2,0.4-0.4,0.5
		c-0.2,0.1-0.3,0.2-0.5,0.2c-0.5,0-0.5-0.5-0.5-0.8l0,0c-0.3,0.2-0.6,0.4-1.1,0.4l-0.2,0l0,0l0,0l0,0c-0.2,0-0.4-0.1-0.6-0.2
		c-0.1,0-0.2-0.1-0.3-0.1l-0.1,0l0-0.1c0-0.1-0.1-0.2-0.1-0.3c0-0.1,0-0.3,0.1-0.4c0-0.1,0-0.1,0-0.2l0-0.1
		c-0.1,0.2-0.1,0.3-0.4,0.4l-0.2,0c-0.1,0-0.2,0-0.3-0.1l-0.1,0.1L42,52.4c0,0,0,0-0.1,0.1c-0.1,0.1-0.1,0.2-0.2,0.3L41.6,53l-0.1,0
		l-0.1,0l-0.3,0c-0.4,0-0.7-0.2-1-0.3l-0.1,0l0,0l0,0l0,0c-0.1-0.1-0.2-0.3-0.2-0.4l-0.1,0.1c-0.1,0.1-0.1,0.2-0.2,0.4l0,0l0,0.1
		c0,0.1-0.1,0.3-0.2,0.4L39,53.2h-0.1c-0.1,0-0.2,0-0.3-0.2l0,0c-0.1,0.1-0.2,0.3-0.3,0.3l-0.2,0c-0.1,0-0.2-0.1-0.3-0.1l-0.1,0.1
		l-0.1,0l0,0c0,0.1,0.1,0.2,0.1,0.3l0.2,0.1c0.1,0,0.3-0.1,0.5-0.2l0.1,0c0.1-0.1,0.3-0.1,0.5-0.1c0.1,0,0.2,0,0.3,0.1l0.1,0.2
		l0.1,0l0.1,0l0.1,0l0.1,0c0.1,0,0.2,0.1,0.3,0.1l0.1,0.1l0,0l0.2-0.1c0.1,0,0.2-0.1,0.3-0.1l0.1,0c0.2,0,0.4,0.1,0.6,0.3
		c0.2,0.2,0.2,0.5,0.2,0.8l0,0.1l0,0.2l0,0c0.1-0.1,0.1-0.3,0.2-0.4l0.1-0.1H42l0.2-0.1c0.2-0.1,0.3-0.2,0.5-0.3
		c0.3-0.2,0.6-0.4,1-0.4c0.2,0,0.5,0.1,0.7,0.2c0.1,0.1,0.2,0.1,0.3,0.2c0.3,0.2,0.5,0.3,0.7,0.3c0.1,0,0.2,0,0.4-0.1
		c0.2-0.2,0.4-0.3,0.6-0.3l0.2,0c0.3,0.1,0.6,0.3,0.9,0.5l1.5-0.1L51.3,54.8z"/>
</g>
</svg>
