<?xml version="1.0" encoding="utf-8"?>
<!-- Generator: Adobe Illustrator 20.1.0, SVG Export Plug-In . SVG Version: 6.00 Build 0)  -->
<svg version="1.1" id="Layer_1" xmlns="http://www.w3.org/2000/svg" xmlns:xlink="http://www.w3.org/1999/xlink" x="0px" y="0px"
	 viewBox="0 0 64 64" style="enable-background:new 0 0 64 64;" xml:space="preserve">
<style type="text/css">
	.st0{fill:#107B10;}
</style>
<path id="gamepad-11-icon" class="st0" d="M18.4,34.5c1.2,1.2,1.2,3.3-0.1,4.5c-1.3,1.2-3.3,1.2-4.5,0.1c-1.2-1.1-1.2-3.3,0.1-4.5
	C15.2,33.4,17.2,33.3,18.4,34.5z M63.5,23.3c-0.4,1.1-1.3,1.9-2.4,1.9l-11.3,0.9c-2,0.2-4,0.1-6.6,2.8L29,43.1
	c-2.6,2.6-2.6,4.5-2.8,6.6L25.3,61c0,1.1-0.8,2.1-1.9,2.4c-7.9,2.8-13.5-5-22.2-25.8c-3.5-8.2,1.2-13.8,6.3-15.4
	c7.1-2.3,12.4-7.8,14.8-14.8c1.7-5.1,7.3-9.8,15.4-6.3C58.4,9.8,66.3,15.4,63.5,23.3z M20.6,32.2c-2.4-2.4-6.4-2.2-8.9,0.2
	s-2.6,6.5-0.2,8.9c2.4,2.3,6.4,2.2,8.9-0.2C22.9,38.6,23.1,34.6,20.6,32.2z M24,20.1c-1-1-2.8-0.9-3.8,0.1S19.1,23,20.1,24
	s2.8,0.9,3.8-0.1C25,22.9,25,21.2,24,20.1z M33.7,17.1c-1.1,0-2.1,1-2.1,2.1s0.9,2,2,2s2.1-1,2.1-2.1C35.7,18,34.8,17.1,33.7,17.1z
	 M39.8,16.7c-1.1,0-2.1,1-2.1,2.1s0.9,2,2,2s2.1-1,2.1-2.1C41.9,17.6,41,16.7,39.8,16.7z M34.1,11C33,11,32,12,32,13.1s0.9,2,2,2
	s2.1-1,2.1-2.1S35.3,11,34.1,11z M40.2,10.6c-1.1,0-2.1,1-2.1,2.1s0.9,2,2,2s2.1-1,2.1-2.1S41.3,10.6,40.2,10.6z"/>
</svg>
