<?xml version="1.0" encoding="utf-8"?>
<!-- Generator: Adobe Illustrator 18.1.1, SVG Export Plug-In . SVG Version: 6.00 Build 0)  -->
<svg version="1.1" id="Layer_1" xmlns="http://www.w3.org/2000/svg" xmlns:xlink="http://www.w3.org/1999/xlink" x="0px" y="0px"
	 viewBox="0 0 64 64" enable-background="new 0 0 64 64" xml:space="preserve">
<path fill="#F3F3F3" d="M11.3,57.8v4.6l-6.2,0.2v-9.8V44l1.5-4.6l3.9-7c0,0,1.3-2.5,3.3-5c2-2.4,4.1-3.9,4.1-3.9l2.4-2.5
	c0,0,2.4-0.9,11.1-0.9s12.5,0.6,12.5,0.6l1.8,2.4c0,0,2.1,1.5,3.9,3.8c1.8,2.4,3.4,5.3,3.4,5.3l4.7,7.5l1.4,3.9l0.1,0.4v17.8
	L53,62.1v-4.3L11.3,57.8L11.3,57.8z"/>
<g>
	<g>
		<path fill="#636363" d="M11.5,57.6H5.1v5.7c0,0-0.5,0.7,3.1,0.7c3.6,0,3.4-0.8,3.4-0.8V57.6z M59.2,63.2v-5.6h-6.5v5.7
			c0,0-0.5,0.7,3.1,0.7S59.2,63.2,59.2,63.2z"/>
	</g>
</g>
<g>
	<g>
		<path fill="#7D7D7D" d="M58.4,41.4H6l-0.9,2.5v3.5h54.2V44L58.4,41.4z M5.1,53.2h54.2v-4H5.1V53.2z"/>
	</g>
</g>
<g>
	<g>
		<path fill="#FFFFFF" d="M7.4,46.8h6.3v-4.6H7.4V46.8z M14.8,46.8h6.3v-4.6h-6.3L14.8,46.8L14.8,46.8z M42.7,46.8H49v-4.6h-6.3
			V46.8z M50.2,42.2v4.6h6.3v-4.6H50.2z M28.6,45.8h6.6v-2.1h-6.6V45.8z"/>
	</g>
</g>
<path fill="#D3D3D3" d="M17.8,23.8c0,0-3.1,2.4-4.3,3.9S10,33.3,10,33.3h43.4c0,0-2.4-4.6-4.3-6.9c-1.9-2.2-2.5-2.7-2.5-2.7H17.8
	L17.8,23.8z"/>
<path fill="#D8D8D8" d="M31.4,33.3c0,0,1.9-9.6,5.8-9.6c3.6,0,9.4,0,9.4,0s1.1,0.6,3.2,3.6c2.1,3,3.7,6,3.7,6s-11.8,0-18.2,0
	C33,33.3,31.4,33.3,31.4,33.3z"/>
<g>
	<g>
		<path fill="#848484" d="M26.8,12.3c-1-1.9-8-6.4-8-6.4s0.2-0.7-0.9-4.2c-1.1-3.5-4.2-0.6-4.2-0.6l0.2,4.3c0,0-0.5-0.4-5.9,0.3
			s-8,4.5-8,4.5s1.6,0.6,2.3,1.9c0.6,1.3,0.2,2.3,0.2,2.3l12.5-5.9c0,0,2.2,0.4,5.1,2c2.9,1.6,4.7,4.2,4.7,4.2l1.8,5.5l2.7-0.1
			l-0.2-0.4C29.1,19.7,27.8,14.2,26.8,12.3z M56,5.8c-5.4-0.7-5.9-0.3-5.9-0.3l0.2-4.3c0,0-3.1-2.9-4.2,0.6
			c-1.1,3.5-0.9,4.2-0.9,4.2s-7,4.6-8,6.4c-1,1.9-2.3,7.4-2.3,7.4l-0.2,0.4l2.7,0.1l1.8-5.5c0,0,1.8-2.6,4.7-4.2s5.1-2,5.1-2
			l12.5,5.9c0,0-0.5-0.9,0.2-2.2s2.3-1.9,2.3-1.9S61.4,6.5,56,5.8z"/>
	</g>
</g>
</svg>
