<?xml version="1.0" encoding="utf-8"?>
<!-- Generator: Adobe Illustrator 18.1.1, SVG Export Plug-In . SVG Version: 6.00 Build 0)  -->
<svg version="1.1" id="Layer_1" xmlns="http://www.w3.org/2000/svg" xmlns:xlink="http://www.w3.org/1999/xlink" x="0px" y="0px"
	 viewBox="0 0 64 64" enable-background="new 0 0 64 64" xml:space="preserve">
<g>
	<path fill="#FBB041" d="M64,32.1C64,49.7,50.7,64,34.2,64S4.4,49.7,4.4,32.1c0-17.6,13.3-31.9,29.8-31.9C50.7,0.2,64,14.5,64,32.1"
		/>
	<g opacity="0.987">
		<path fill="#E79D3C" d="M18.6,41.3c-5.3-12.1-5.5-25.2-0.7-36C9.7,11.1,4.4,20.9,4.4,32c0,17.6,13.3,31.9,29.8,31.9
			c0.3,0,0.6,0,0.9,0C28.2,57.7,22.5,50.3,18.6,41.3"/>
	</g>
</g>
<g>
	<g>
		<path fill="#FFFFFF" d="M25.7,17.2c-3.5,0-6.4,3.8-6.4,8.4s2.9,8.4,6.4,8.4s6.4-3.8,6.4-8.4S29.2,17.2,25.7,17.2z M43.3,17.2
			c-3.5,0-6.4,3.8-6.4,8.4s2.9,8.4,6.4,8.4s6.4-3.8,6.4-8.4S46.8,17.2,43.3,17.2z"/>
	</g>
</g>
<g>
	<g>
		<path fill="#070400" d="M25.7,22.3c-1.8,0-3.2,1.6-3.2,3.5s1.4,3.5,3.2,3.5s3.2-1.6,3.2-3.5C28.9,23.8,27.5,22.3,25.7,22.3z
			 M43.4,22.3c-1.8,0-3.2,1.6-3.2,3.5s1.4,3.5,3.2,3.5s3.2-1.6,3.2-3.5C46.6,23.8,45.2,22.3,43.4,22.3z"/>
	</g>
</g>
<path fill="#754C24" d="M19,41.6c0,0,4.9,4.3,15.9,4.1c10.3-0.1,15-4,15-4l0.7,1.8c0,0-5.6,7.3-15.3,7.6c-10.2,0.4-0.8,0-0.8,0
	s-5.9,0.1-10.1-2.2c-4.3-2.4-5.9-5.8-5.9-5.8L19,41.6z"/>
<g>
	<g>
		<path fill="#FFFFFF" d="M34.3,5.1c-0.2-0.6-0.5-0.8-1-0.8c0.3-0.4,0.4-1,0.3-1.5c-0.4-1.2-1.8-0.7-2.5-0.4c0.3-0.5,0.6-1,0.4-1.7
			c-0.5-1.7-3-0.1-3-0.1S8,8.8,3.1,11.8c-4.5,2.6-2.8,4.6-2.5,5c0.3,1.9,1.9,3.6,2.7,4.9c1.7,2.6,16.9-2.5,23-7.6
			c4.1-3.4,0.2-2.8-2.9-2.1l8.9-3.9C32.4,8.1,34.8,6.8,34.3,5.1z"/>
	</g>
</g>
</svg>
