<?xml version="1.0" encoding="utf-8"?>
<!-- Generator: Adobe Illustrator 18.1.1, SVG Export Plug-In . SVG Version: 6.00 Build 0)  -->
<svg version="1.1" id="Layer_1" xmlns="http://www.w3.org/2000/svg" xmlns:xlink="http://www.w3.org/1999/xlink" x="0px" y="0px"
	 viewBox="0 0 64 64" enable-background="new 0 0 64 64" xml:space="preserve">
<g>
	<path fill="#FBB041" d="M64,32c0,17.7-14.3,32-32,32S0,49.7,0,32S14.3,0,32,0C49.7,0,64,14.3,64,32"/>
	<g opacity="0.987">
		<path fill="#E79D3C" d="M15.2,41.3C9.6,29.1,9.3,16,14.4,5.2C5.7,10.9,0,20.7,0,31.9c0,17.7,14.3,32,32,32c0.3,0,0.6,0,0.9,0
			C25.6,57.7,19.4,50.3,15.2,41.3"/>
	</g>
</g>
<path fill="#754C24" d="M14.6,39.9c0,0,5.6,4.5,18,4.4C44.2,44.1,49.5,40,49.5,40l0.8,1.9c0,0-6.3,7.7-17.2,8c-11.5,0.4-0.9,0-0.9,0
	s-6.7,0.1-11.4-2.3c-4.9-2.5-6.7-6.1-6.7-6.1L14.6,39.9z"/>
<g>
	<g>
		<polygon points="62,22.7 57.1,22.7 57.7,18.5 33.7,18.5 34.2,20.7 30.5,20.7 31.1,18.5 7.1,18.5 7.6,22.7 1.9,22.7 1.9,24.7 
			7.9,24.7 8.4,29.5 28.3,29.5 30,22.8 34.8,22.8 36.4,29.5 56.3,29.5 56.9,24.7 62,24.7 		"/>
	</g>
	<g>
		<polygon fill="none" stroke="#1A1A1A" stroke-width="6" stroke-miterlimit="10" points="62,22.7 57.1,22.7 57.7,18.5 33.7,18.5 
			34.2,20.7 30.5,20.7 31.1,18.5 7.1,18.5 7.6,22.7 1.9,22.7 1.9,24.7 7.9,24.7 8.4,29.5 28.3,29.5 30,22.8 34.8,22.8 36.4,29.5 
			56.3,29.5 56.9,24.7 62,24.7 		"/>
	</g>
</g>
</svg>
